<?xml version="1.0" encoding="utf-8"?>
<!-- Generator: Adobe Illustrator 24.0.0, SVG Export Plug-In . SVG Version: 6.00 Build 0)  -->
<svg version="1.1" id="Layer_1" xmlns="http://www.w3.org/2000/svg" xmlns:xlink="http://www.w3.org/1999/xlink" x="0px" y="0px"
	 viewBox="0 0 244.42 45.73" style="enable-background:new 0 0 244.42 45.73;" xml:space="preserve">
<style type="text/css">
	.st0{stroke:#4C4949;stroke-width:0.075;stroke-miterlimit:10;}
</style>
<g>
	<g>
		<g>
			<path d="M9.73,15.58c0.29-1.54,0.49-3.11,0.61-4.71c1.07,0.06,2.01,0.09,2.82,0.1c0.81,0.01,1.61,0.01,2.4,0.01
				c0.6,0,1.2-0.01,1.81-0.03c0.6-0.02,1.2-0.05,1.8-0.08c-0.17,0.39-0.29,0.72-0.35,0.97c-0.07,0.25-0.12,0.61-0.16,1.06
				c-1.2-0.04-2.4-0.08-3.58-0.13c-1.18-0.05-2.38-0.07-3.58-0.07c-0.23,0.98-0.41,1.78-0.55,2.41c-0.14,0.63-0.26,1.17-0.37,1.61
				c-0.1,0.44-0.19,0.83-0.27,1.17c-0.08,0.34-0.16,0.71-0.25,1.13c0.9-0.43,1.89-0.65,2.96-0.65c0.66,0,1.26,0.1,1.82,0.31
				c0.55,0.21,1.03,0.49,1.44,0.86c0.4,0.37,0.72,0.81,0.94,1.33c0.23,0.52,0.34,1.1,0.34,1.73c0,0.79-0.17,1.62-0.51,2.48
				c-0.34,0.86-0.86,1.65-1.55,2.37c-0.7,0.71-1.57,1.29-2.62,1.73c-1.05,0.44-2.28,0.66-3.69,0.66c-0.3,0-0.63-0.01-0.99-0.03
				c-0.36-0.02-0.71-0.07-1.07-0.14c-0.36-0.08-0.7-0.16-1.03-0.27c-0.33-0.1-0.62-0.26-0.86-0.47c0.15-0.3,0.28-0.61,0.38-0.92
				c0.1-0.31,0.17-0.53,0.21-0.66h0.11c0.43,0.56,0.97,0.99,1.61,1.28c0.64,0.29,1.32,0.44,2.03,0.44c0.79,0,1.53-0.17,2.21-0.51
				c0.69-0.34,1.28-0.79,1.79-1.35c0.51-0.56,0.9-1.21,1.18-1.95c0.28-0.73,0.42-1.49,0.42-2.28c0-0.71-0.12-1.3-0.35-1.76
				c-0.24-0.46-0.53-0.82-0.87-1.09c-0.35-0.26-0.72-0.45-1.13-0.56c-0.4-0.11-0.79-0.17-1.14-0.17c-0.53,0-1,0.08-1.42,0.25
				c-0.42,0.17-0.83,0.41-1.23,0.73l-0.23-0.11C9.13,18.69,9.43,17.12,9.73,15.58z"/>
			<path d="M18.76,23.58c0-0.75,0.07-1.59,0.2-2.52c0.13-0.93,0.34-1.87,0.62-2.82c0.28-0.95,0.64-1.88,1.09-2.78
				c0.44-0.9,0.98-1.7,1.62-2.4c0.64-0.7,1.38-1.26,2.21-1.68c0.84-0.42,1.78-0.63,2.83-0.63c0.94,0,1.73,0.17,2.37,0.52
				c0.64,0.35,1.16,0.82,1.55,1.41c0.39,0.59,0.68,1.27,0.85,2.03c0.17,0.76,0.25,1.57,0.25,2.41c0,0.71-0.06,1.53-0.17,2.45
				c-0.11,0.92-0.3,1.86-0.56,2.81c-0.26,0.95-0.61,1.88-1.04,2.79c-0.43,0.91-0.96,1.72-1.58,2.44c-0.62,0.71-1.35,1.28-2.19,1.69
				c-0.84,0.41-1.8,0.62-2.89,0.62c-0.94,0-1.74-0.16-2.4-0.49c-0.66-0.33-1.19-0.78-1.59-1.37c-0.4-0.58-0.7-1.26-0.89-2.03
				C18.86,25.27,18.76,24.45,18.76,23.58z M20.79,24.35c0,0.53,0.04,1.08,0.13,1.65c0.08,0.57,0.25,1.1,0.49,1.57
				c0.24,0.47,0.57,0.86,0.99,1.16c0.41,0.3,0.95,0.45,1.61,0.45c0.6,0,1.14-0.13,1.61-0.38c0.47-0.25,0.89-0.58,1.25-0.97
				c0.37-0.39,0.69-0.84,0.96-1.34c0.27-0.5,0.51-1,0.72-1.51c0.21-0.55,0.42-1.17,0.63-1.89c0.22-0.71,0.41-1.47,0.58-2.26
				c0.17-0.79,0.31-1.6,0.41-2.43c0.1-0.83,0.16-1.62,0.16-2.37c0-1.35-0.27-2.43-0.82-3.23c-0.55-0.8-1.33-1.2-2.34-1.2
				c-0.75,0-1.43,0.2-2.04,0.61c-0.61,0.4-1.1,0.92-1.48,1.54c-0.53,0.86-0.97,1.81-1.34,2.85c-0.37,1.03-0.66,2.04-0.89,3.03
				c-0.23,0.99-0.39,1.9-0.48,2.74C20.84,23.19,20.79,23.86,20.79,24.35z"/>
		</g>
		<g>
			<path d="M33.68,21.67c-0.07,0.34-0.15,0.69-0.23,1.04c0.23,0,0.48-0.01,0.76-0.02c0.28-0.01,0.54-0.03,0.8-0.04
				c-0.06,0.21-0.09,0.42-0.09,0.62c-0.26-0.01-0.53-0.02-0.82-0.04c-0.29-0.01-0.54-0.02-0.77-0.02l-0.59,2.82
				c-0.03,0.16-0.07,0.34-0.11,0.53c-0.04,0.2-0.08,0.39-0.11,0.58c-0.04,0.19-0.07,0.37-0.09,0.55c-0.03,0.18-0.04,0.32-0.04,0.44
				c0,0.2,0.04,0.37,0.11,0.51c0.07,0.14,0.16,0.25,0.26,0.34c0.1,0.09,0.22,0.15,0.35,0.19c0.13,0.04,0.24,0.06,0.35,0.06
				c0.17,0,0.34-0.03,0.51-0.08c0.17-0.06,0.33-0.13,0.48-0.22l-0.03,0.39c-0.2,0.16-0.44,0.27-0.73,0.33
				c-0.29,0.06-0.55,0.09-0.8,0.09c-0.19,0-0.38-0.03-0.58-0.08c-0.2-0.06-0.37-0.14-0.52-0.25c-0.15-0.11-0.27-0.25-0.37-0.43
				c-0.1-0.17-0.14-0.38-0.14-0.61c0-0.2,0.02-0.41,0.07-0.63c0.04-0.22,0.09-0.46,0.14-0.71c0.11-0.51,0.2-0.93,0.27-1.25
				c0.07-0.32,0.13-0.61,0.19-0.86c0.05-0.26,0.11-0.51,0.16-0.77c0.05-0.26,0.11-0.57,0.2-0.95c-0.14,0-0.3,0-0.47,0.01
				c-0.18,0.01-0.35,0.01-0.52,0.02c0.03-0.08,0.05-0.16,0.07-0.24c0.01-0.08,0.02-0.2,0.02-0.35c0.16,0.01,0.33,0.02,0.5,0.04
				s0.33,0.02,0.46,0.02l0.27-1.59l1.31-0.48C33.84,20.98,33.76,21.33,33.68,21.67z"/>
			<path d="M38.17,23c0.23-0.16,0.47-0.29,0.69-0.38c0.23-0.09,0.44-0.15,0.64-0.18c0.2-0.03,0.38-0.05,0.54-0.05
				c0.38,0,0.7,0.06,0.97,0.18s0.48,0.27,0.65,0.44c0.17,0.18,0.29,0.37,0.36,0.57c0.08,0.21,0.11,0.39,0.11,0.56
				c0,0.08,0,0.16-0.01,0.24c-0.01,0.08-0.03,0.2-0.07,0.37c-0.04,0.16-0.08,0.39-0.14,0.67c-0.06,0.28-0.14,0.66-0.24,1.13
				c-0.08,0.42-0.17,0.84-0.26,1.25c-0.09,0.41-0.17,0.81-0.23,1.2c-0.02,0.14-0.04,0.25-0.04,0.34c-0.01,0.09-0.02,0.16-0.03,0.23
				c-0.08-0.01-0.17-0.01-0.28-0.01c-0.1,0-0.21,0-0.32,0c-0.13,0-0.25,0-0.35,0c-0.11,0-0.2,0-0.29,0.01
				c0.02-0.06,0.06-0.21,0.13-0.45c0.07-0.24,0.14-0.53,0.22-0.86c0.08-0.33,0.17-0.69,0.26-1.07c0.09-0.38,0.17-0.75,0.25-1.1
				c0.08-0.36,0.14-0.68,0.19-0.98c0.05-0.3,0.08-0.52,0.08-0.67c0-0.18-0.03-0.35-0.09-0.51c-0.06-0.16-0.15-0.3-0.27-0.44
				c-0.12-0.13-0.27-0.23-0.46-0.31c-0.19-0.08-0.4-0.11-0.65-0.11c-0.11,0-0.27,0.02-0.48,0.05c-0.21,0.04-0.43,0.12-0.67,0.26
				c-0.24,0.14-0.46,0.34-0.68,0.61c-0.22,0.27-0.38,0.64-0.5,1.11c-0.05,0.2-0.12,0.49-0.2,0.86c-0.08,0.37-0.16,0.77-0.25,1.19
				c-0.09,0.43-0.17,0.86-0.24,1.29c-0.08,0.44-0.13,0.81-0.17,1.12c-0.08-0.01-0.17-0.01-0.26-0.01c-0.1,0-0.2,0-0.31,0
				c-0.1,0-0.21,0-0.33,0s-0.23,0-0.33,0.01c0.04-0.11,0.11-0.39,0.23-0.84c0.11-0.45,0.24-1,0.38-1.64
				c0.15-0.65,0.3-1.36,0.47-2.13c0.17-0.78,0.33-1.56,0.49-2.34c0.16-0.79,0.3-1.55,0.44-2.28c0.14-0.74,0.24-1.38,0.32-1.94
				c0.16,0.04,0.36,0.06,0.6,0.06c0.1,0,0.21,0,0.32-0.01c0.11-0.01,0.22-0.02,0.31-0.05c-0.11,0.43-0.22,0.86-0.32,1.28
				c-0.11,0.43-0.21,0.86-0.31,1.31c-0.06,0.24-0.11,0.47-0.16,0.68c-0.04,0.22-0.09,0.43-0.14,0.63c-0.05,0.21-0.09,0.41-0.14,0.62
				c-0.05,0.21-0.1,0.44-0.16,0.69l0.06,0.03C37.71,23.38,37.93,23.16,38.17,23z"/>
		</g>
		<g>
			<g>
				<path d="M9.94,39.61c-0.06-0.01-0.11-0.01-0.18-0.01s-0.13,0-0.21,0c-0.08,0-0.15,0-0.21,0c-0.06,0-0.12,0-0.17,0.01
					c-0.02-0.13-0.04-0.31-0.08-0.53c-0.03-0.22-0.07-0.43-0.1-0.65c-0.04-0.22-0.07-0.42-0.11-0.62c-0.04-0.19-0.07-0.34-0.09-0.45
					c-0.08-0.01-0.23-0.01-0.45-0.02c-0.21-0.01-0.44-0.01-0.67-0.01c-0.18,0-0.37,0-0.55,0.01c-0.18,0.01-0.37,0.01-0.55,0.02
					c-0.08,0.11-0.18,0.27-0.3,0.47c-0.12,0.2-0.24,0.41-0.37,0.63s-0.25,0.44-0.37,0.65c-0.12,0.21-0.21,0.38-0.28,0.5
					c-0.04-0.01-0.08-0.01-0.12-0.01c-0.04,0-0.09,0-0.15,0c-0.04,0-0.09,0-0.13,0c-0.04,0-0.1,0-0.16,0.01
					c0.48-0.71,0.96-1.41,1.42-2.12c0.47-0.71,0.94-1.42,1.42-2.16c0.21-0.32,0.39-0.6,0.55-0.84c0.16-0.23,0.31-0.47,0.46-0.71H8.7
					c0.03,0.15,0.07,0.37,0.13,0.68c0.06,0.31,0.13,0.66,0.21,1.04c0.08,0.39,0.16,0.79,0.25,1.22c0.09,0.43,0.17,0.83,0.26,1.22
					c0.08,0.38,0.16,0.73,0.23,1.02C9.85,39.28,9.9,39.49,9.94,39.61z M8.24,34.82l-1.46,2.23c0.32,0.02,0.64,0.03,0.97,0.03
					c0.32,0,0.65-0.01,0.97-0.03l-0.46-2.23H8.24z"/>
				<path d="M11.56,36.29c0.06-0.08,0.13-0.16,0.22-0.24c0.09-0.08,0.2-0.15,0.31-0.22c0.12-0.07,0.25-0.12,0.39-0.16
					c0.15-0.04,0.3-0.06,0.45-0.06c0.15,0,0.3,0.02,0.44,0.06c0.14,0.04,0.26,0.1,0.37,0.19c0.11,0.08,0.2,0.19,0.26,0.31
					c0.07,0.13,0.1,0.27,0.1,0.44c0,0.06,0,0.11,0,0.15c0,0.04-0.01,0.1-0.03,0.18c-0.01,0.07-0.03,0.17-0.06,0.28
					c-0.03,0.11-0.06,0.26-0.1,0.45c-0.02,0.1-0.05,0.24-0.09,0.42s-0.08,0.37-0.12,0.57c-0.04,0.2-0.08,0.39-0.11,0.56
					s-0.05,0.3-0.06,0.37c-0.04-0.01-0.09-0.01-0.15-0.01c-0.05,0-0.11,0-0.17,0c-0.06,0-0.13,0-0.19,0c-0.07,0-0.13,0-0.18,0.01
					c0.02-0.04,0.05-0.14,0.09-0.28c0.04-0.14,0.08-0.3,0.13-0.48c0.05-0.18,0.1-0.37,0.14-0.58c0.05-0.21,0.09-0.41,0.13-0.6
					c0.04-0.19,0.07-0.37,0.1-0.53c0.03-0.16,0.04-0.29,0.04-0.39c0-0.13-0.02-0.24-0.07-0.33c-0.05-0.09-0.11-0.17-0.19-0.23
					c-0.08-0.06-0.17-0.11-0.26-0.14c-0.1-0.03-0.2-0.05-0.31-0.05c-0.07,0-0.16,0.01-0.27,0.03c-0.11,0.02-0.23,0.07-0.35,0.13
					c-0.12,0.06-0.24,0.16-0.34,0.27c-0.11,0.12-0.19,0.27-0.26,0.46c-0.03,0.1-0.07,0.22-0.11,0.38c-0.04,0.16-0.08,0.33-0.12,0.52
					c-0.04,0.19-0.08,0.38-0.12,0.58c-0.04,0.2-0.07,0.38-0.1,0.55c-0.03,0.17-0.06,0.32-0.08,0.44c-0.02,0.12-0.04,0.2-0.04,0.24
					c-0.04-0.01-0.09-0.01-0.14-0.01c-0.05,0-0.11,0-0.17,0c-0.06,0-0.12,0-0.18,0s-0.11,0-0.16,0.01c0.04-0.11,0.09-0.28,0.14-0.49
					c0.05-0.22,0.11-0.45,0.16-0.71c0.06-0.26,0.11-0.53,0.17-0.8c0.06-0.28,0.11-0.54,0.16-0.79c0.05-0.25,0.09-0.48,0.13-0.68
					c0.04-0.2,0.06-0.36,0.08-0.47c0.08,0.02,0.18,0.03,0.3,0.03c0.05,0,0.1,0,0.16-0.01c0.06-0.01,0.11-0.01,0.16-0.03l-0.16,0.62
					L11.56,36.29z"/>
				<path d="M15.52,36.29c0.06-0.08,0.13-0.16,0.22-0.24c0.09-0.08,0.2-0.15,0.31-0.22c0.12-0.07,0.25-0.12,0.39-0.16
					c0.15-0.04,0.3-0.06,0.45-0.06c0.15,0,0.3,0.02,0.44,0.06c0.14,0.04,0.26,0.1,0.37,0.19c0.11,0.08,0.2,0.19,0.26,0.31
					c0.07,0.13,0.1,0.27,0.1,0.44c0,0.06,0,0.11,0,0.15c0,0.04-0.01,0.1-0.03,0.18c-0.01,0.07-0.03,0.17-0.06,0.28
					c-0.03,0.11-0.06,0.26-0.1,0.45c-0.02,0.1-0.05,0.24-0.09,0.42c-0.04,0.18-0.08,0.37-0.12,0.57c-0.04,0.2-0.08,0.39-0.11,0.56
					s-0.05,0.3-0.06,0.37c-0.04-0.01-0.09-0.01-0.15-0.01c-0.05,0-0.11,0-0.17,0c-0.06,0-0.13,0-0.19,0c-0.07,0-0.13,0-0.18,0.01
					c0.02-0.04,0.05-0.14,0.09-0.28c0.04-0.14,0.08-0.3,0.13-0.48c0.05-0.18,0.1-0.37,0.14-0.58c0.05-0.21,0.09-0.41,0.13-0.6
					c0.04-0.19,0.07-0.37,0.1-0.53c0.03-0.16,0.04-0.29,0.04-0.39c0-0.13-0.02-0.24-0.07-0.33c-0.05-0.09-0.11-0.17-0.19-0.23
					c-0.08-0.06-0.17-0.11-0.26-0.14c-0.1-0.03-0.2-0.05-0.31-0.05c-0.07,0-0.16,0.01-0.27,0.03c-0.11,0.02-0.23,0.07-0.35,0.13
					c-0.12,0.06-0.24,0.16-0.34,0.27c-0.11,0.12-0.19,0.27-0.26,0.46c-0.03,0.1-0.07,0.22-0.11,0.38c-0.04,0.16-0.08,0.33-0.12,0.52
					c-0.04,0.19-0.08,0.38-0.12,0.58c-0.04,0.2-0.07,0.38-0.1,0.55c-0.03,0.17-0.06,0.32-0.08,0.44c-0.02,0.12-0.04,0.2-0.04,0.24
					c-0.04-0.01-0.09-0.01-0.14-0.01c-0.05,0-0.11,0-0.17,0c-0.06,0-0.12,0-0.18,0s-0.11,0-0.16,0.01c0.04-0.11,0.09-0.28,0.14-0.49
					c0.05-0.22,0.11-0.45,0.16-0.71c0.06-0.26,0.11-0.53,0.17-0.8c0.06-0.28,0.11-0.54,0.16-0.79c0.05-0.25,0.09-0.48,0.13-0.68
					c0.04-0.2,0.06-0.36,0.08-0.47c0.08,0.02,0.18,0.03,0.3,0.03c0.05,0,0.1,0,0.16-0.01c0.06-0.01,0.11-0.01,0.16-0.03l-0.16,0.62
					L15.52,36.29z"/>
				<path d="M19.69,35.66c-0.03,0.09-0.07,0.23-0.11,0.42c-0.05,0.19-0.1,0.4-0.16,0.64c-0.06,0.24-0.12,0.5-0.18,0.77
					c-0.06,0.27-0.11,0.54-0.17,0.8c-0.05,0.26-0.1,0.51-0.14,0.75c-0.04,0.24-0.07,0.43-0.09,0.58c-0.06-0.01-0.13-0.01-0.19-0.01
					c-0.07,0-0.13,0-0.19,0c-0.07,0-0.13,0-0.18,0s-0.1,0-0.15,0.01c0.06-0.18,0.13-0.4,0.19-0.66c0.07-0.26,0.13-0.53,0.19-0.81
					c0.06-0.28,0.12-0.56,0.18-0.83c0.06-0.27,0.11-0.53,0.15-0.76c0.04-0.23,0.08-0.43,0.11-0.59c0.03-0.16,0.04-0.27,0.05-0.32
					c0.11,0.02,0.23,0.03,0.35,0.03C19.49,35.69,19.6,35.68,19.69,35.66z M19.23,34.33c0-0.11,0.04-0.21,0.12-0.29
					c0.08-0.08,0.17-0.12,0.29-0.12c0.11,0,0.21,0.04,0.29,0.12c0.08,0.08,0.12,0.17,0.12,0.29c0,0.11-0.04,0.21-0.12,0.29
					c-0.08,0.08-0.17,0.12-0.29,0.12c-0.11,0-0.21-0.04-0.29-0.12C19.27,34.54,19.23,34.44,19.23,34.33z"/>
				<path d="M21.67,38.48c0.06-0.1,0.12-0.2,0.18-0.3c0.06-0.1,0.12-0.21,0.19-0.34c0.07-0.12,0.16-0.28,0.26-0.46
					c0.16-0.3,0.28-0.53,0.38-0.71c0.1-0.17,0.17-0.32,0.23-0.43c0.06-0.11,0.11-0.21,0.15-0.3c0.04-0.08,0.09-0.18,0.15-0.29
					c0.07,0.02,0.15,0.03,0.26,0.03c0.12,0,0.22-0.01,0.29-0.03c-0.05,0.07-0.12,0.18-0.21,0.31c-0.09,0.13-0.18,0.28-0.28,0.45
					c-0.1,0.16-0.21,0.33-0.32,0.51c-0.11,0.18-0.22,0.34-0.32,0.5c-0.1,0.16-0.19,0.3-0.26,0.43c-0.08,0.13-0.14,0.23-0.18,0.3
					c-0.24,0.4-0.42,0.73-0.54,0.97c-0.12,0.24-0.2,0.4-0.24,0.48c-0.03-0.01-0.07-0.01-0.1-0.01c-0.03,0-0.07,0-0.12,0
					s-0.08,0-0.12,0c-0.03,0-0.06,0-0.09,0.01c-0.02-0.1-0.05-0.24-0.09-0.44c-0.04-0.2-0.1-0.48-0.19-0.87
					c-0.11-0.44-0.21-0.88-0.31-1.33c-0.1-0.44-0.21-0.88-0.32-1.33c0.08,0.02,0.19,0.03,0.31,0.03c0.13,0,0.24-0.01,0.33-0.03
					c0.11,0.54,0.22,1.08,0.34,1.6c0.12,0.52,0.24,1.05,0.37,1.59h0.05C21.54,38.7,21.61,38.58,21.67,38.48z"/>
				<path d="M26.52,39.34c-0.21,0.12-0.43,0.21-0.66,0.26c-0.23,0.05-0.47,0.08-0.71,0.08c-0.18,0-0.37-0.02-0.56-0.07
					c-0.2-0.05-0.38-0.14-0.54-0.27c-0.17-0.13-0.3-0.31-0.41-0.53c-0.11-0.22-0.16-0.5-0.16-0.84c0-0.33,0.05-0.64,0.16-0.93
					c0.1-0.29,0.25-0.54,0.44-0.76c0.19-0.22,0.42-0.39,0.68-0.51c0.27-0.13,0.56-0.19,0.88-0.19c0.2,0,0.39,0.02,0.57,0.07
					c0.18,0.05,0.34,0.13,0.48,0.24c0.14,0.11,0.25,0.25,0.33,0.43c0.08,0.18,0.12,0.39,0.12,0.64c0,0.16-0.01,0.29-0.03,0.4
					c-0.02,0.11-0.04,0.2-0.06,0.28c-0.12-0.01-0.22-0.01-0.32-0.02s-0.19-0.01-0.28-0.01c-0.09,0-0.19-0.01-0.29-0.01
					c-0.1,0-0.22,0-0.34,0H25.2h-0.26c-0.13,0-0.27,0-0.4,0.01c-0.13,0.01-0.25,0.01-0.35,0.01c-0.01,0.06-0.02,0.12-0.03,0.2
					c-0.01,0.08-0.01,0.17-0.01,0.29c0,0.27,0.04,0.5,0.13,0.66c0.08,0.17,0.19,0.3,0.31,0.39c0.12,0.1,0.25,0.16,0.39,0.19
					c0.14,0.03,0.27,0.05,0.39,0.05c0.16,0,0.31-0.02,0.44-0.05c0.13-0.03,0.25-0.07,0.35-0.12c0.1-0.04,0.19-0.09,0.27-0.15
					c0.08-0.05,0.14-0.1,0.19-0.13h0.03L26.52,39.34z M25.64,35.83c-0.11,0-0.24,0.02-0.37,0.06c-0.14,0.04-0.27,0.12-0.4,0.23
					c-0.13,0.11-0.25,0.26-0.37,0.45c-0.11,0.19-0.2,0.43-0.26,0.72c0.17,0.01,0.36,0.02,0.57,0.03c0.21,0.01,0.4,0.01,0.57,0.01
					h0.27c0.14,0,0.29,0,0.45,0s0.29-0.01,0.4-0.03c0.01-0.05,0.02-0.11,0.03-0.18c0.01-0.07,0.02-0.16,0.02-0.27
					c0-0.18-0.03-0.34-0.08-0.47c-0.05-0.13-0.12-0.23-0.21-0.31c-0.09-0.08-0.18-0.13-0.29-0.17
					C25.86,35.85,25.75,35.83,25.64,35.83z"/>
				<path d="M29.5,36.27c-0.06-0.02-0.12-0.03-0.18-0.03c-0.2,0-0.39,0.08-0.58,0.25s-0.33,0.42-0.42,0.75
					c-0.01,0.02-0.03,0.09-0.05,0.19c-0.03,0.11-0.05,0.23-0.09,0.38c-0.03,0.15-0.07,0.31-0.11,0.49c-0.04,0.18-0.07,0.35-0.1,0.52
					c-0.03,0.17-0.06,0.32-0.09,0.47c-0.03,0.14-0.04,0.25-0.05,0.32c-0.05-0.01-0.09-0.01-0.14-0.01s-0.11,0-0.17,0
					c-0.06,0-0.12,0-0.18,0c-0.06,0-0.11,0-0.16,0.01c0.03-0.1,0.08-0.24,0.13-0.44c0.05-0.2,0.1-0.42,0.16-0.67
					c0.06-0.25,0.11-0.51,0.17-0.78c0.06-0.27,0.11-0.54,0.16-0.8c0.05-0.26,0.09-0.5,0.13-0.72c0.04-0.22,0.07-0.4,0.08-0.55
					c0.04,0.01,0.1,0.02,0.16,0.03c0.06,0.01,0.12,0.01,0.17,0.01c0.12,0,0.23-0.01,0.31-0.03c-0.01,0.03-0.03,0.08-0.05,0.15
					c-0.02,0.06-0.04,0.14-0.06,0.22c-0.02,0.08-0.04,0.17-0.06,0.26c-0.02,0.09-0.04,0.18-0.05,0.27h0.04
					c0.09-0.11,0.18-0.23,0.27-0.34c0.09-0.12,0.19-0.22,0.29-0.31c0.1-0.09,0.22-0.17,0.35-0.23c0.13-0.06,0.27-0.09,0.44-0.08
					c-0.03,0.14-0.05,0.26-0.06,0.37c-0.01,0.1-0.02,0.21-0.02,0.31l-0.08,0.04C29.61,36.3,29.56,36.29,29.5,36.27z"/>
				<path d="M31.73,35.96c-0.13-0.09-0.27-0.13-0.43-0.13c-0.12,0-0.23,0.02-0.33,0.07c-0.1,0.05-0.18,0.11-0.25,0.18
					c-0.07,0.08-0.12,0.16-0.16,0.26c-0.04,0.1-0.05,0.19-0.05,0.29c0,0.1,0.02,0.19,0.06,0.26c0.04,0.08,0.09,0.14,0.16,0.2
					c0.07,0.06,0.14,0.11,0.23,0.15c0.09,0.04,0.18,0.09,0.27,0.13c0.09,0.04,0.18,0.08,0.27,0.13c0.09,0.05,0.17,0.1,0.24,0.17
					c0.07,0.07,0.13,0.15,0.18,0.24c0.04,0.1,0.07,0.21,0.07,0.34c0,0.2-0.04,0.38-0.13,0.56c-0.09,0.18-0.21,0.33-0.37,0.47
					c-0.15,0.13-0.34,0.24-0.55,0.31c-0.21,0.07-0.44,0.11-0.68,0.11c-0.17,0-0.33-0.02-0.47-0.05c-0.14-0.03-0.29-0.09-0.43-0.17
					c0.06-0.1,0.11-0.2,0.16-0.31s0.08-0.19,0.11-0.25h0.06c0.06,0.17,0.17,0.29,0.32,0.38s0.32,0.13,0.51,0.13
					c0.16,0,0.3-0.03,0.42-0.08c0.11-0.06,0.21-0.13,0.28-0.21c0.07-0.08,0.13-0.18,0.16-0.28c0.04-0.1,0.05-0.2,0.05-0.29
					c0-0.18-0.06-0.31-0.17-0.4c-0.11-0.09-0.28-0.18-0.5-0.29c-0.09-0.04-0.18-0.08-0.27-0.13c-0.09-0.05-0.17-0.11-0.25-0.18
					c-0.07-0.07-0.13-0.16-0.18-0.26c-0.04-0.1-0.07-0.23-0.07-0.38c0-0.15,0.03-0.3,0.08-0.45c0.06-0.16,0.14-0.3,0.26-0.44
					c0.12-0.13,0.28-0.24,0.47-0.33c0.2-0.09,0.43-0.13,0.71-0.13c0.15,0,0.28,0.01,0.39,0.04c0.11,0.03,0.23,0.07,0.37,0.13
					c-0.08,0.19-0.14,0.32-0.16,0.4c-0.03,0.08-0.04,0.15-0.05,0.2h-0.08C31.94,36.17,31.85,36.05,31.73,35.96z"/>
				<path d="M33.18,36.03c0.21-0.15,0.43-0.26,0.65-0.33s0.46-0.11,0.71-0.11c0.35,0,0.63,0.09,0.84,0.26
					c0.21,0.17,0.31,0.4,0.31,0.67c0,0.12-0.01,0.24-0.04,0.36c-0.03,0.12-0.05,0.22-0.06,0.29l-0.24,1.02
					c-0.04,0.18-0.08,0.33-0.09,0.45c-0.02,0.12-0.03,0.22-0.03,0.3c0,0.1,0.03,0.19,0.08,0.26s0.14,0.11,0.25,0.11
					c0.05,0,0.09-0.01,0.13-0.02c0.04-0.01,0.07-0.03,0.1-0.05l0.04,0.18c-0.1,0.06-0.19,0.11-0.29,0.14
					c-0.1,0.03-0.21,0.05-0.33,0.05c-0.17,0-0.31-0.05-0.4-0.14c-0.09-0.09-0.14-0.23-0.16-0.4c-0.17,0.18-0.36,0.33-0.58,0.45
					c-0.22,0.12-0.46,0.18-0.74,0.18c-0.12,0-0.25-0.02-0.37-0.05s-0.23-0.09-0.33-0.16c-0.1-0.08-0.18-0.17-0.24-0.29
					c-0.06-0.11-0.09-0.24-0.09-0.39c0-0.27,0.07-0.49,0.21-0.66c0.14-0.17,0.31-0.3,0.5-0.4c0.2-0.1,0.4-0.17,0.6-0.22
					c0.21-0.05,0.38-0.09,0.5-0.11c0.11-0.02,0.23-0.04,0.36-0.06c0.13-0.02,0.23-0.05,0.31-0.08c0.12-0.05,0.19-0.14,0.22-0.26
					c0.03-0.12,0.05-0.24,0.05-0.36c0-0.25-0.08-0.44-0.24-0.56c-0.16-0.12-0.36-0.18-0.6-0.18c-0.24,0-0.44,0.05-0.6,0.16
					c-0.17,0.1-0.32,0.24-0.47,0.4h-0.1L33.18,36.03z M32.92,38.71c0,0.21,0.07,0.37,0.2,0.47c0.13,0.11,0.28,0.16,0.46,0.16
					c0.23,0,0.45-0.06,0.63-0.19c0.18-0.13,0.34-0.29,0.47-0.47c0.03-0.2,0.07-0.39,0.11-0.58c0.04-0.19,0.09-0.39,0.14-0.58
					c-0.13,0.03-0.25,0.05-0.38,0.08c-0.12,0.02-0.25,0.05-0.38,0.08c-0.14,0.03-0.28,0.07-0.43,0.12c-0.15,0.05-0.28,0.11-0.4,0.19
					c-0.12,0.08-0.22,0.18-0.3,0.3C32.96,38.4,32.92,38.55,32.92,38.71z"/>
				<path d="M38.38,36.27c-0.06-0.02-0.12-0.03-0.18-0.03c-0.2,0-0.39,0.08-0.58,0.25s-0.33,0.42-0.42,0.75
					c-0.01,0.02-0.03,0.09-0.05,0.19s-0.05,0.23-0.09,0.38c-0.03,0.15-0.07,0.31-0.11,0.49c-0.04,0.18-0.07,0.35-0.1,0.52
					c-0.03,0.17-0.06,0.32-0.09,0.47c-0.03,0.14-0.04,0.25-0.05,0.32c-0.05-0.01-0.09-0.01-0.14-0.01c-0.05,0-0.11,0-0.17,0
					c-0.06,0-0.12,0-0.18,0c-0.06,0-0.11,0-0.16,0.01c0.03-0.1,0.08-0.24,0.13-0.44c0.05-0.2,0.1-0.42,0.16-0.67
					c0.06-0.25,0.11-0.51,0.17-0.78c0.06-0.27,0.11-0.54,0.16-0.8c0.05-0.26,0.09-0.5,0.13-0.72c0.04-0.22,0.07-0.4,0.08-0.55
					c0.04,0.01,0.1,0.02,0.16,0.03c0.06,0.01,0.12,0.01,0.17,0.01c0.12,0,0.23-0.01,0.31-0.03c-0.01,0.03-0.03,0.08-0.05,0.15
					c-0.02,0.06-0.04,0.14-0.06,0.22c-0.02,0.08-0.04,0.17-0.06,0.26c-0.02,0.09-0.04,0.18-0.05,0.27h0.04
					c0.09-0.11,0.18-0.23,0.27-0.34c0.09-0.12,0.19-0.22,0.29-0.31c0.1-0.09,0.22-0.17,0.35-0.23c0.13-0.06,0.27-0.09,0.44-0.08
					c-0.03,0.14-0.05,0.26-0.06,0.37c-0.01,0.1-0.02,0.21-0.02,0.31l-0.08,0.04C38.49,36.3,38.44,36.29,38.38,36.27z"/>
				<path d="M40.78,38.25c0.12-0.2,0.24-0.41,0.35-0.62c0.17-0.32,0.31-0.58,0.42-0.78c0.11-0.2,0.2-0.36,0.26-0.49
					c0.07-0.13,0.12-0.23,0.15-0.3c0.03-0.07,0.06-0.14,0.09-0.21l0.08-0.2c0.08,0.02,0.18,0.03,0.29,0.03
					c0.11,0,0.2-0.01,0.27-0.03c-0.31,0.49-0.62,0.99-0.94,1.5c-0.32,0.52-0.63,1.04-0.94,1.56c-0.31,0.53-0.61,1.05-0.89,1.56
					c-0.29,0.52-0.55,1.02-0.79,1.51c-0.06-0.02-0.15-0.03-0.27-0.03c-0.11,0-0.2,0.01-0.26,0.03c0.24-0.37,0.47-0.74,0.71-1.12
					c0.23-0.38,0.46-0.73,0.67-1.08c-0.17-0.69-0.33-1.35-0.5-1.99c-0.17-0.64-0.34-1.29-0.52-1.96c0.05,0.01,0.11,0.02,0.17,0.03
					c0.06,0.01,0.12,0.01,0.18,0.01c0.13,0,0.24-0.01,0.33-0.03c0.07,0.39,0.16,0.85,0.29,1.39c0.12,0.54,0.27,1.15,0.45,1.81h0.04
					C40.55,38.66,40.66,38.45,40.78,38.25z"/>
			</g>
		</g>
		<line class="st0" x1="42.95" y1="31.81" x2="4.34" y2="31.81"/>
		<g>
			<path d="M14.72,45.33c0.03,0.05,0.08,0.09,0.13,0.13c0.05,0.04,0.11,0.07,0.17,0.09c0.07,0.02,0.14,0.04,0.22,0.04
				c0.08,0,0.16-0.01,0.23-0.04s0.12-0.07,0.17-0.12c0.05-0.05,0.08-0.11,0.11-0.18c0.03-0.07,0.04-0.14,0.04-0.22
				c0-0.12-0.03-0.21-0.09-0.28c-0.06-0.07-0.13-0.13-0.22-0.17c-0.09-0.05-0.19-0.09-0.29-0.13c-0.1-0.04-0.2-0.09-0.29-0.14
				c-0.09-0.06-0.16-0.13-0.22-0.22c-0.06-0.09-0.09-0.21-0.09-0.36c0-0.11,0.02-0.2,0.06-0.29c0.04-0.09,0.09-0.16,0.17-0.23
				c0.07-0.06,0.16-0.11,0.26-0.15c0.1-0.04,0.22-0.05,0.34-0.05c0.12,0,0.23,0.01,0.32,0.04c0.09,0.03,0.17,0.07,0.25,0.14
				c-0.02,0.04-0.04,0.09-0.06,0.14c-0.02,0.05-0.03,0.11-0.05,0.18h-0.05c-0.01-0.04-0.03-0.07-0.05-0.12
				c-0.02-0.04-0.05-0.08-0.09-0.12c-0.04-0.04-0.08-0.07-0.13-0.09c-0.05-0.02-0.11-0.04-0.18-0.04c-0.07,0-0.14,0.01-0.2,0.03
				c-0.06,0.02-0.11,0.06-0.16,0.1c-0.04,0.04-0.08,0.09-0.1,0.15c-0.02,0.06-0.04,0.12-0.04,0.19c0,0.12,0.03,0.21,0.09,0.28
				c0.06,0.07,0.13,0.13,0.22,0.17c0.09,0.05,0.19,0.09,0.29,0.13c0.1,0.04,0.2,0.08,0.29,0.14c0.09,0.05,0.16,0.12,0.22,0.21
				c0.06,0.08,0.09,0.2,0.09,0.34c0,0.12-0.02,0.23-0.06,0.33c-0.04,0.1-0.1,0.2-0.18,0.27c-0.08,0.08-0.18,0.14-0.29,0.18
				c-0.12,0.04-0.25,0.06-0.4,0.06c-0.16,0-0.29-0.02-0.38-0.06c-0.1-0.04-0.18-0.09-0.25-0.14c0.02-0.06,0.04-0.11,0.05-0.16
				c0.01-0.05,0.02-0.11,0.02-0.18h0.05C14.66,45.23,14.69,45.28,14.72,45.33z"/>
			<path d="M16.53,43.55c-0.01-0.16-0.01-0.33-0.02-0.49c0.03,0.01,0.07,0.01,0.1,0.01c0.03,0,0.06,0.01,0.09,0.01
				c0.03,0,0.06,0,0.09-0.01c0.03,0,0.06-0.01,0.1-0.01c-0.01,0.17-0.01,0.33-0.02,0.49c-0.01,0.16-0.01,0.33-0.01,0.49v0.66
				c0,0.17,0,0.33,0.01,0.5c0.01,0.16,0.01,0.32,0.02,0.48c-0.06,0-0.12-0.01-0.19-0.01c-0.07,0-0.13,0-0.19,0.01
				c0.01-0.16,0.01-0.32,0.02-0.48c0.01-0.16,0.01-0.33,0.01-0.5v-0.66C16.54,43.88,16.53,43.72,16.53,43.55z"/>
			<path d="M18.72,44.69c-0.33-0.36-0.66-0.71-0.99-1.06c0,0.07,0,0.17-0.01,0.29c0,0.12,0,0.28,0,0.49c0,0.05,0,0.12,0,0.2
				c0,0.08,0,0.16,0,0.25s0,0.17,0.01,0.26c0,0.09,0.01,0.17,0.01,0.25c0,0.08,0,0.14,0.01,0.2c0,0.06,0,0.1,0.01,0.12
				c-0.04,0-0.09-0.01-0.13-0.01c-0.05,0-0.1,0-0.14,0.01c0-0.03,0.01-0.07,0.02-0.14c0.01-0.07,0.01-0.15,0.02-0.25
				c0-0.1,0.01-0.2,0.02-0.31c0.01-0.11,0.01-0.22,0.02-0.34c0-0.11,0.01-0.22,0.01-0.33c0-0.11,0-0.2,0-0.29c0-0.24,0-0.45,0-0.63
				s0-0.31-0.01-0.39h0.06c0.16,0.17,0.32,0.35,0.5,0.54c0.18,0.19,0.35,0.38,0.53,0.57c0.17,0.19,0.34,0.36,0.5,0.53
				c0.16,0.17,0.29,0.31,0.41,0.43v-0.52c0-0.27,0-0.53-0.01-0.78s-0.01-0.49-0.02-0.72c0.05,0.01,0.09,0.02,0.13,0.02
				c0.03,0,0.07-0.01,0.12-0.02c-0.01,0.06-0.01,0.14-0.02,0.25c-0.01,0.11-0.01,0.23-0.02,0.36s-0.01,0.25-0.02,0.37
				c0,0.12-0.01,0.22-0.01,0.29c0,0.06,0,0.14,0,0.23c0,0.09,0,0.18,0,0.27c0,0.09,0,0.19,0,0.28c0,0.1,0,0.18,0,0.27
				c0,0.08,0,0.15,0,0.22c0,0.06,0,0.1,0,0.13h-0.05C19.36,45.4,19.05,45.05,18.72,44.69z"/>
			<path d="M22.25,45.59c-0.05,0.02-0.11,0.05-0.18,0.06c-0.07,0.02-0.15,0.04-0.23,0.05c-0.09,0.02-0.18,0.02-0.27,0.02
				c-0.2,0-0.39-0.03-0.56-0.09c-0.17-0.06-0.32-0.14-0.44-0.26c-0.12-0.12-0.22-0.26-0.29-0.43c-0.07-0.17-0.1-0.36-0.1-0.58
				s0.03-0.41,0.1-0.58c0.07-0.17,0.17-0.31,0.29-0.43c0.13-0.12,0.28-0.21,0.45-0.27c0.18-0.06,0.37-0.09,0.58-0.09
				c0.17,0,0.32,0.02,0.46,0.05c0.14,0.03,0.26,0.08,0.37,0.12c-0.02,0.04-0.04,0.08-0.05,0.15c-0.01,0.06-0.02,0.11-0.03,0.15
				l-0.02,0.01c-0.03-0.03-0.06-0.07-0.11-0.1c-0.05-0.04-0.1-0.08-0.16-0.11c-0.06-0.04-0.13-0.07-0.21-0.09
				c-0.08-0.02-0.16-0.04-0.25-0.04c-0.15,0-0.29,0.02-0.42,0.07c-0.13,0.05-0.24,0.12-0.34,0.22c-0.1,0.1-0.17,0.23-0.22,0.38
				c-0.05,0.15-0.08,0.34-0.08,0.55c0,0.21,0.03,0.39,0.08,0.55c0.05,0.15,0.13,0.28,0.22,0.38c0.1,0.1,0.21,0.18,0.34,0.22
				c0.13,0.05,0.27,0.07,0.42,0.07c0.09,0,0.18-0.01,0.25-0.03c0.08-0.02,0.15-0.05,0.21-0.08c0.07-0.03,0.12-0.07,0.18-0.1
				s0.1-0.07,0.13-0.1l0.02,0.02l-0.03,0.23C22.33,45.55,22.3,45.57,22.25,45.59z"/>
			<path d="M22.83,43.55c-0.01-0.16-0.01-0.33-0.02-0.49c0.11,0.01,0.23,0.01,0.34,0.01c0.11,0,0.23,0.01,0.34,0.01
				c0.11,0,0.23,0,0.34-0.01c0.11,0,0.23-0.01,0.34-0.01c-0.01,0.04-0.01,0.08-0.01,0.11c0,0.04,0,0.08,0.01,0.11
				c-0.08-0.01-0.16-0.01-0.22-0.02c-0.07-0.01-0.14-0.01-0.21-0.02c-0.08,0-0.16-0.01-0.25-0.01c-0.09,0-0.2-0.01-0.32-0.01
				c0,0.08-0.01,0.16-0.01,0.23c0,0.07-0.01,0.16-0.01,0.25c0,0.1,0,0.2,0,0.29c0,0.09,0,0.17,0,0.21c0.11,0,0.21,0,0.3,0
				c0.09,0,0.17-0.01,0.24-0.01c0.07,0,0.14-0.01,0.2-0.01c0.06,0,0.12-0.01,0.18-0.01c-0.01,0.04-0.01,0.08-0.01,0.12
				c0,0.04,0,0.08,0.01,0.11c-0.07-0.01-0.14-0.01-0.23-0.02c-0.09,0-0.18-0.01-0.26-0.01c-0.09,0-0.17,0-0.25,0
				c-0.08,0-0.14,0-0.19,0c0,0.02,0,0.05,0,0.07c0,0.03,0,0.06,0,0.1v0.15v0.23c0,0.15,0,0.26,0,0.36c0,0.09,0,0.17,0.01,0.21
				c0.08,0,0.17,0,0.27,0c0.1,0,0.19,0,0.28-0.01c0.09,0,0.18-0.01,0.26-0.02c0.08-0.01,0.15-0.02,0.22-0.03
				c-0.01,0.02-0.01,0.04-0.01,0.06c0,0.02,0,0.04,0,0.06c0,0.04,0,0.07,0.01,0.1c-0.11,0-0.23-0.01-0.34-0.01s-0.23,0-0.35,0
				s-0.23,0-0.35,0c-0.11,0-0.23,0-0.35,0.01c0.01-0.16,0.01-0.33,0.02-0.49c0.01-0.16,0.01-0.33,0.01-0.49v-0.66
				C22.83,43.88,22.83,43.71,22.83,43.55z"/>
			<path d="M25.72,43.61c-0.03-0.05-0.07-0.09-0.11-0.12v-0.03c0.15-0.06,0.29-0.12,0.45-0.19c0.15-0.07,0.29-0.14,0.43-0.2
				l0.03,0.02c-0.01,0.17-0.02,0.33-0.02,0.5c-0.01,0.16-0.01,0.33-0.01,0.5v0.64c0,0.17,0,0.33,0.01,0.49
				c0,0.16,0.01,0.32,0.02,0.48c-0.03,0-0.06-0.01-0.09-0.01s-0.06,0-0.09,0s-0.06,0-0.09,0s-0.06,0-0.09,0.01
				c0.01-0.16,0.02-0.32,0.02-0.48s0.01-0.32,0.01-0.49v-1.36L25.72,43.61z"/>
			<path d="M27.29,45.46c0.05,0.05,0.11,0.09,0.18,0.11c0.06,0.03,0.13,0.04,0.2,0.04c0.14,0,0.26-0.04,0.35-0.11
				s0.18-0.18,0.24-0.3c0.06-0.12,0.11-0.26,0.14-0.41c0.03-0.15,0.04-0.31,0.04-0.46h-0.01c-0.06,0.11-0.14,0.19-0.24,0.26
				c-0.1,0.07-0.23,0.1-0.38,0.1c-0.23,0-0.41-0.07-0.54-0.2c-0.13-0.13-0.2-0.32-0.2-0.56c0-0.12,0.02-0.23,0.06-0.32
				c0.04-0.1,0.1-0.19,0.17-0.26c0.07-0.07,0.16-0.13,0.27-0.17c0.1-0.04,0.22-0.06,0.35-0.06c0.11,0,0.22,0.02,0.33,0.06
				c0.1,0.04,0.19,0.1,0.27,0.19c0.08,0.09,0.14,0.2,0.19,0.34c0.05,0.14,0.07,0.31,0.07,0.51c0,0.21-0.03,0.41-0.08,0.6
				c-0.05,0.19-0.12,0.35-0.22,0.49c-0.1,0.14-0.21,0.24-0.35,0.32c-0.14,0.08-0.3,0.11-0.48,0.11c-0.07,0-0.13-0.01-0.18-0.02
				c-0.05-0.01-0.09-0.02-0.12-0.03c-0.01-0.03-0.02-0.06-0.03-0.1c-0.01-0.04-0.03-0.08-0.04-0.1L27.29,45.46z M28.43,43.83
				c0-0.18-0.05-0.32-0.14-0.43c-0.09-0.11-0.22-0.17-0.37-0.17c-0.15,0-0.28,0.06-0.37,0.19c-0.09,0.12-0.14,0.29-0.14,0.51
				c0,0.22,0.04,0.38,0.13,0.48c0.08,0.1,0.2,0.14,0.34,0.14c0.09,0,0.17-0.02,0.23-0.06s0.12-0.09,0.17-0.16
				c0.05-0.07,0.08-0.14,0.11-0.23C28.42,44.01,28.43,43.92,28.43,43.83z"/>
			<path d="M30.61,43.26c-0.03-0.01-0.06-0.01-0.09-0.02c-0.03,0-0.07-0.01-0.11-0.01c-0.1,0-0.19,0.02-0.27,0.06
				c-0.08,0.04-0.15,0.1-0.21,0.17c-0.06,0.07-0.11,0.15-0.16,0.24c-0.04,0.09-0.08,0.18-0.11,0.28c-0.03,0.1-0.05,0.19-0.06,0.28
				c-0.01,0.09-0.02,0.18-0.02,0.26h0.01c0.03-0.04,0.06-0.09,0.09-0.13c0.04-0.04,0.08-0.08,0.13-0.12
				c0.05-0.04,0.11-0.07,0.17-0.09c0.07-0.02,0.14-0.03,0.22-0.03c0.07,0,0.14,0.01,0.23,0.03c0.09,0.02,0.17,0.06,0.25,0.11
				c0.08,0.05,0.14,0.13,0.2,0.22c0.05,0.09,0.08,0.21,0.08,0.36c0,0.13-0.02,0.24-0.06,0.35c-0.04,0.11-0.1,0.2-0.17,0.27
				c-0.07,0.08-0.16,0.13-0.27,0.17c-0.1,0.04-0.22,0.06-0.35,0.06c-0.11,0-0.22-0.02-0.32-0.06c-0.1-0.04-0.19-0.1-0.27-0.19
				c-0.08-0.09-0.14-0.2-0.19-0.34c-0.05-0.14-0.07-0.31-0.07-0.51c0-0.21,0.02-0.41,0.07-0.6c0.05-0.19,0.12-0.35,0.22-0.49
				c0.1-0.14,0.21-0.25,0.36-0.33c0.14-0.08,0.3-0.12,0.49-0.11c0.04,0,0.08,0,0.1,0c0.02,0,0.04,0,0.06,0.01l0.06,0.12L30.61,43.26
				z M30.63,44.95c0-0.19-0.04-0.35-0.12-0.47c-0.08-0.12-0.2-0.18-0.37-0.18c-0.07,0-0.14,0.02-0.21,0.05
				c-0.06,0.03-0.12,0.08-0.17,0.14c-0.05,0.06-0.08,0.13-0.11,0.21c-0.03,0.08-0.04,0.17-0.04,0.27c0,0.1,0.01,0.19,0.04,0.27
				c0.03,0.08,0.06,0.15,0.11,0.21c0.05,0.06,0.1,0.1,0.16,0.14c0.06,0.03,0.13,0.05,0.2,0.05c0.08,0,0.15-0.02,0.22-0.05
				c0.06-0.03,0.12-0.08,0.16-0.14c0.04-0.06,0.08-0.13,0.1-0.21C30.61,45.14,30.63,45.05,30.63,44.95z"/>
			<path d="M31.5,45.46c0.05,0.05,0.11,0.09,0.18,0.11c0.06,0.03,0.13,0.04,0.2,0.04c0.14,0,0.26-0.04,0.35-0.11s0.18-0.18,0.24-0.3
				c0.06-0.12,0.11-0.26,0.14-0.41c0.03-0.15,0.04-0.31,0.04-0.46h-0.01c-0.06,0.11-0.14,0.19-0.24,0.26
				c-0.1,0.07-0.23,0.1-0.38,0.1c-0.23,0-0.41-0.07-0.54-0.2c-0.13-0.13-0.2-0.32-0.2-0.56c0-0.12,0.02-0.23,0.06-0.32
				c0.04-0.1,0.1-0.19,0.17-0.26c0.07-0.07,0.16-0.13,0.27-0.17c0.1-0.04,0.22-0.06,0.35-0.06c0.11,0,0.22,0.02,0.33,0.06
				c0.1,0.04,0.19,0.1,0.27,0.19c0.08,0.09,0.14,0.2,0.19,0.34c0.05,0.14,0.07,0.31,0.07,0.51c0,0.21-0.03,0.41-0.08,0.6
				c-0.05,0.19-0.12,0.35-0.22,0.49c-0.1,0.14-0.21,0.24-0.35,0.32c-0.14,0.08-0.3,0.11-0.48,0.11c-0.07,0-0.13-0.01-0.18-0.02
				c-0.05-0.01-0.09-0.02-0.12-0.03c-0.01-0.03-0.02-0.06-0.03-0.1c-0.01-0.04-0.03-0.08-0.04-0.1L31.5,45.46z M32.64,43.83
				c0-0.18-0.05-0.32-0.14-0.43c-0.09-0.11-0.22-0.17-0.37-0.17c-0.15,0-0.28,0.06-0.37,0.19c-0.09,0.12-0.14,0.29-0.14,0.51
				c0,0.22,0.04,0.38,0.13,0.48c0.08,0.1,0.2,0.14,0.34,0.14c0.09,0,0.17-0.02,0.23-0.06s0.12-0.09,0.17-0.16
				c0.05-0.07,0.08-0.14,0.11-0.23C32.63,44.01,32.64,43.92,32.64,43.83z"/>
		</g>
		<g>
			<path d="M5.37,0.94c-0.14-0.11-0.3-0.21-0.47-0.3C4.73,0.55,4.54,0.48,4.33,0.43C4.12,0.38,3.9,0.35,3.66,0.35
				c-0.39,0-0.75,0.06-1.08,0.18c-0.33,0.12-0.62,0.3-0.87,0.55C1.46,1.33,1.27,1.65,1.13,2.03C0.99,2.41,0.92,2.86,0.92,3.39
				c0,0.46,0.06,0.88,0.19,1.25c0.12,0.37,0.31,0.69,0.55,0.94c0.24,0.26,0.53,0.45,0.88,0.59c0.35,0.14,0.74,0.21,1.17,0.21
				c0.13,0,0.27-0.01,0.41-0.02C4.26,6.34,4.4,6.33,4.54,6.3C4.67,6.27,4.8,6.24,4.91,6.21c0.12-0.04,0.21-0.08,0.29-0.13
				C5.21,5.88,5.22,5.69,5.22,5.5c0-0.19,0.01-0.38,0.01-0.58c0-0.22-0.01-0.44-0.01-0.66C5.2,4.05,5.19,3.83,5.18,3.63
				c0.16,0.03,0.31,0.05,0.45,0.05c0.07,0,0.14,0,0.21-0.01c0.07-0.01,0.13-0.02,0.2-0.04C6.02,3.78,6.01,4.01,6,4.32
				C6,4.63,5.99,5.04,5.99,5.55c0,0.13,0,0.25,0,0.38c0,0.13,0,0.26,0,0.38c-0.13,0.05-0.29,0.1-0.49,0.16
				c-0.2,0.05-0.41,0.1-0.63,0.13C4.66,6.64,4.44,6.67,4.22,6.7C4,6.73,3.8,6.74,3.61,6.74c-0.55,0-1.06-0.07-1.5-0.2
				C1.67,6.41,1.29,6.2,0.97,5.91C0.66,5.63,0.42,5.28,0.25,4.85C0.08,4.43,0,3.94,0,3.39c0-0.54,0.09-1.01,0.26-1.43
				C0.44,1.53,0.68,1.18,1,0.89c0.32-0.29,0.7-0.51,1.16-0.66C2.61,0.08,3.11,0,3.66,0c0.32,0,0.6,0.02,0.85,0.05
				c0.25,0.04,0.46,0.08,0.66,0.14c0.19,0.06,0.36,0.12,0.5,0.18c0.14,0.06,0.27,0.12,0.38,0.18C6,0.64,5.95,0.75,5.91,0.89
				C5.87,1.03,5.85,1.16,5.83,1.28H5.72C5.63,1.16,5.51,1.05,5.37,0.94z"/>
			<path d="M6.77,1.35c-0.02-0.4-0.03-0.81-0.05-1.22C6.9,0.14,7.08,0.15,7.26,0.16c0.17,0.01,0.35,0.01,0.53,0.01
				s0.36-0.01,0.53-0.02C8.5,0.13,8.68,0.12,8.86,0.12c0.26,0,0.51,0.03,0.75,0.08c0.24,0.05,0.44,0.13,0.62,0.25
				c0.18,0.12,0.32,0.27,0.42,0.46c0.1,0.19,0.15,0.43,0.15,0.71c0,0.3-0.07,0.56-0.2,0.78c-0.13,0.22-0.3,0.4-0.49,0.54
				c-0.19,0.14-0.4,0.25-0.62,0.33C9.27,3.35,9.07,3.4,8.89,3.42c0.07,0.09,0.18,0.23,0.31,0.4c0.13,0.17,0.28,0.36,0.44,0.56
				C9.8,4.59,9.97,4.8,10.14,5.03c0.17,0.22,0.34,0.44,0.51,0.64c0.16,0.21,0.31,0.39,0.46,0.56c0.14,0.17,0.26,0.3,0.35,0.39
				c-0.09-0.01-0.19-0.02-0.28-0.02c-0.09,0-0.19,0-0.28,0c-0.09,0-0.18,0-0.27,0c-0.09,0-0.18,0.01-0.27,0.02
				c-0.09-0.13-0.24-0.33-0.43-0.6c-0.19-0.26-0.4-0.55-0.63-0.85c-0.23-0.3-0.47-0.6-0.71-0.9c-0.24-0.3-0.46-0.55-0.66-0.76H7.57
				V4.2c0,0.42,0.01,0.83,0.02,1.23c0.02,0.4,0.03,0.8,0.05,1.19C7.5,6.61,7.34,6.6,7.18,6.6c-0.16,0-0.32,0.01-0.46,0.02
				c0.02-0.39,0.04-0.79,0.05-1.19C6.79,5.03,6.8,4.62,6.8,4.2V2.57C6.8,2.16,6.79,1.75,6.77,1.35z M7.85,3.15
				c0.1,0.01,0.22,0.01,0.34,0.01c0.19,0,0.39-0.02,0.6-0.07c0.21-0.04,0.4-0.12,0.58-0.23C9.55,2.75,9.69,2.6,9.81,2.42
				C9.92,2.23,9.98,2,9.98,1.71c0-0.25-0.05-0.45-0.14-0.61C9.76,0.94,9.64,0.81,9.49,0.72C9.35,0.62,9.2,0.56,9.03,0.53
				c-0.17-0.03-0.33-0.05-0.5-0.05c-0.22,0-0.4,0-0.54,0.01C7.84,0.5,7.72,0.51,7.62,0.52C7.61,0.87,7.6,1.21,7.58,1.55
				C7.57,1.89,7.57,2.23,7.57,2.57v0.54C7.65,3.13,7.75,3.14,7.85,3.15z"/>
			<path d="M11.84,1.33c-0.02-0.4-0.03-0.81-0.05-1.21c0.28,0.01,0.56,0.02,0.84,0.03c0.28,0.01,0.56,0.01,0.84,0.01
				c0.28,0,0.56,0,0.83-0.01c0.27-0.01,0.55-0.02,0.83-0.03c-0.02,0.09-0.03,0.19-0.03,0.28c0,0.09,0.01,0.19,0.03,0.28
				c-0.2-0.01-0.38-0.02-0.55-0.04c-0.17-0.01-0.34-0.03-0.52-0.04c-0.18-0.01-0.39-0.02-0.6-0.03c-0.22-0.01-0.48-0.01-0.79-0.01
				c-0.01,0.2-0.01,0.39-0.02,0.58c-0.01,0.18-0.01,0.39-0.01,0.62c0,0.25,0,0.49,0,0.72c0,0.23,0,0.41,0,0.53
				c0.28,0,0.52,0,0.74-0.01C13.6,3,13.8,2.99,13.98,2.98c0.18-0.01,0.35-0.02,0.5-0.03c0.15-0.01,0.3-0.02,0.43-0.03
				c-0.02,0.09-0.03,0.19-0.03,0.29c0,0.09,0.01,0.19,0.03,0.28c-0.16-0.02-0.35-0.03-0.57-0.05c-0.22-0.01-0.43-0.02-0.65-0.02
				c-0.22,0-0.42-0.01-0.61-0.01c-0.19,0-0.34,0-0.45,0c0,0.06,0,0.12,0,0.18c0,0.07,0,0.15,0,0.25v0.37v0.57c0,0.36,0,0.66,0,0.89
				c0,0.23,0.01,0.41,0.01,0.53c0.21,0,0.42,0,0.65,0c0.24,0,0.47,0,0.7-0.01c0.23-0.01,0.44-0.02,0.65-0.04
				c0.2-0.01,0.38-0.04,0.53-0.07c-0.01,0.04-0.02,0.09-0.02,0.15c0,0.05-0.01,0.1-0.01,0.15c0,0.1,0.01,0.18,0.03,0.25
				C14.9,6.61,14.62,6.6,14.34,6.6c-0.28,0-0.56,0-0.85,0c-0.29,0-0.57,0-0.85,0c-0.28,0-0.56,0.01-0.85,0.02
				c0.02-0.4,0.04-0.81,0.05-1.21c0.02-0.4,0.02-0.81,0.02-1.22V2.56C11.86,2.15,11.86,1.74,11.84,1.33z"/>
			<path d="M15.87,1.33c-0.02-0.4-0.03-0.81-0.05-1.21c0.28,0.01,0.56,0.02,0.84,0.03c0.28,0.01,0.56,0.01,0.84,0.01
				c0.28,0,0.56,0,0.83-0.01c0.27-0.01,0.55-0.02,0.83-0.03c-0.02,0.09-0.03,0.19-0.03,0.28c0,0.09,0.01,0.19,0.03,0.28
				c-0.2-0.01-0.38-0.02-0.55-0.04c-0.16-0.01-0.34-0.03-0.52-0.04c-0.18-0.01-0.39-0.02-0.6-0.03C17.26,0.57,17,0.57,16.7,0.57
				c-0.01,0.2-0.02,0.39-0.02,0.58c-0.01,0.18-0.01,0.39-0.01,0.62c0,0.25,0,0.49,0.01,0.72c0,0.23,0,0.41,0,0.53
				c0.27,0,0.52,0,0.74-0.01c0.22-0.01,0.42-0.01,0.6-0.02c0.18-0.01,0.35-0.02,0.5-0.03c0.15-0.01,0.3-0.02,0.44-0.03
				c-0.02,0.09-0.03,0.19-0.03,0.29c0,0.09,0.01,0.19,0.03,0.28c-0.16-0.02-0.35-0.03-0.57-0.05c-0.22-0.01-0.43-0.02-0.65-0.02
				c-0.22,0-0.42-0.01-0.61-0.01c-0.19,0-0.34,0-0.45,0c0,0.06,0,0.12,0,0.18c0,0.07-0.01,0.15-0.01,0.25v0.37v0.57
				c0,0.36,0,0.66,0.01,0.89c0,0.23,0.01,0.41,0.01,0.53c0.2,0,0.42,0,0.65,0c0.24,0,0.47,0,0.7-0.01c0.23-0.01,0.44-0.02,0.65-0.04
				c0.2-0.01,0.38-0.04,0.53-0.07c-0.01,0.04-0.02,0.09-0.02,0.15c0,0.05-0.01,0.1-0.01,0.15c0,0.1,0.01,0.18,0.03,0.25
				c-0.28-0.01-0.56-0.02-0.84-0.02c-0.28,0-0.56,0-0.85,0c-0.29,0-0.57,0-0.85,0s-0.57,0.01-0.85,0.02
				c0.02-0.4,0.04-0.81,0.05-1.21c0.02-0.4,0.02-0.81,0.02-1.22V2.56C15.89,2.15,15.88,1.74,15.87,1.33z"/>
			<path d="M22.71,4.17c-0.81-0.88-1.62-1.75-2.43-2.62c-0.01,0.18-0.01,0.41-0.02,0.71c-0.01,0.3-0.01,0.7-0.01,1.21
				c0,0.13,0,0.3,0,0.49c0,0.2,0.01,0.4,0.01,0.62c0,0.21,0.01,0.43,0.01,0.65c0.01,0.22,0.01,0.43,0.02,0.61
				c0.01,0.19,0.01,0.35,0.02,0.5c0.01,0.14,0.01,0.24,0.02,0.29C20.23,6.61,20.12,6.6,20,6.6c-0.12,0-0.24,0.01-0.35,0.02
				c0.01-0.06,0.03-0.18,0.04-0.35c0.02-0.17,0.03-0.37,0.04-0.61c0.01-0.24,0.03-0.49,0.04-0.77c0.02-0.28,0.03-0.55,0.04-0.83
				c0.01-0.28,0.02-0.55,0.02-0.81c0.01-0.26,0.01-0.5,0.01-0.71c0-0.61,0-1.13-0.01-1.56c0-0.43-0.01-0.76-0.02-0.97h0.15
				c0.38,0.42,0.79,0.86,1.22,1.34c0.43,0.48,0.86,0.95,1.29,1.41c0.43,0.46,0.83,0.9,1.22,1.31c0.38,0.41,0.72,0.76,1.01,1.05V3.83
				c0-0.66,0-1.31-0.01-1.93c-0.01-0.63-0.03-1.22-0.06-1.77c0.13,0.03,0.23,0.05,0.32,0.05c0.07,0,0.17-0.02,0.3-0.05
				c-0.01,0.14-0.03,0.35-0.04,0.62c-0.02,0.28-0.03,0.57-0.05,0.89c-0.01,0.32-0.03,0.62-0.04,0.93c-0.01,0.3-0.02,0.55-0.02,0.73
				c0,0.16,0,0.35,0,0.57c0,0.21,0,0.44,0.01,0.67c0,0.23,0.01,0.47,0.01,0.7c0,0.24,0.01,0.46,0.01,0.66c0,0.2,0,0.38,0,0.53
				c0,0.14,0,0.24,0,0.31H25C24.28,5.91,23.52,5.05,22.71,4.17z"/>
			<path d="M28.66,1.35c-0.02-0.4-0.03-0.81-0.05-1.22c0.15,0.01,0.3,0.02,0.45,0.03c0.15,0.01,0.3,0.01,0.45,0.01
				c0.07,0,0.17,0,0.27-0.01c0.11-0.01,0.21-0.01,0.32-0.01c0.11,0,0.21-0.01,0.31-0.01c0.1-0.01,0.18-0.01,0.25-0.01
				c0.09,0,0.21,0,0.35,0.01c0.14,0.01,0.28,0.03,0.44,0.06c0.15,0.03,0.3,0.08,0.45,0.14c0.15,0.06,0.29,0.15,0.41,0.27
				c0.12,0.12,0.22,0.27,0.29,0.45c0.07,0.18,0.11,0.4,0.11,0.67c0,0.42-0.09,0.75-0.27,1.01c-0.18,0.26-0.4,0.46-0.65,0.6
				c-0.26,0.15-0.53,0.24-0.82,0.29c-0.29,0.05-0.55,0.08-0.77,0.08c-0.14,0-0.27,0-0.39,0c-0.12,0-0.24-0.01-0.36-0.02V4.2
				c0,0.42,0.01,0.83,0.02,1.23c0.02,0.4,0.03,0.8,0.05,1.19c-0.14-0.01-0.3-0.02-0.46-0.02c-0.16,0-0.32,0.01-0.46,0.02
				c0.02-0.39,0.04-0.79,0.05-1.19c0.02-0.4,0.02-0.81,0.02-1.23V2.57C28.68,2.16,28.67,1.75,28.66,1.35z M30.11,3.36
				c0.19,0,0.39-0.02,0.6-0.07c0.21-0.04,0.39-0.12,0.57-0.24c0.17-0.12,0.31-0.28,0.42-0.48c0.11-0.2,0.16-0.47,0.16-0.79
				c0-0.27-0.04-0.49-0.11-0.66c-0.07-0.17-0.18-0.3-0.31-0.4c-0.14-0.09-0.3-0.16-0.49-0.19c-0.19-0.03-0.41-0.05-0.66-0.05h-0.84
				v2.81C29.66,3.33,29.88,3.36,30.11,3.36z"/>
			<path d="M37.18,6.62C37.1,6.61,37.01,6.6,36.93,6.6s-0.16,0-0.25,0c-0.09,0-0.17,0-0.25,0c-0.08,0-0.16,0.01-0.25,0.02
				c-0.04-0.15-0.1-0.32-0.18-0.52c-0.08-0.2-0.16-0.42-0.25-0.64C35.67,5.23,35.58,5,35.49,4.77c-0.09-0.23-0.18-0.45-0.26-0.66
				c-0.2-0.01-0.4-0.01-0.61-0.01c-0.21,0-0.41,0-0.62,0c-0.19,0-0.38,0-0.57,0c-0.19,0-0.38,0.01-0.57,0.01
				c-0.2,0.49-0.38,0.96-0.54,1.4c-0.16,0.44-0.28,0.81-0.36,1.1C31.84,6.61,31.73,6.6,31.6,6.6c-0.12,0-0.24,0.01-0.35,0.02
				c0.51-1.1,1-2.2,1.48-3.29c0.48-1.09,0.96-2.2,1.45-3.33h0.18c0.15,0.37,0.31,0.76,0.49,1.19c0.17,0.43,0.35,0.86,0.53,1.29
				c0.18,0.44,0.36,0.87,0.54,1.3c0.18,0.43,0.35,0.83,0.51,1.2c0.16,0.37,0.3,0.7,0.43,0.99C37,6.25,37.1,6.47,37.18,6.62z
				 M33.04,3.68c0.16,0,0.33,0,0.5,0.01c0.17,0.01,0.34,0.01,0.51,0.01c0.17,0,0.35,0,0.52,0c0.17,0,0.35-0.01,0.52-0.01l-1.04-2.4
				L33.04,3.68z"/>
			<path d="M37.58,1.35c-0.02-0.4-0.03-0.81-0.05-1.22c0.18,0.01,0.36,0.02,0.53,0.03c0.17,0.01,0.35,0.01,0.53,0.01
				c0.18,0,0.36-0.01,0.53-0.02c0.17-0.02,0.35-0.02,0.53-0.02c0.26,0,0.51,0.03,0.75,0.08c0.24,0.05,0.44,0.13,0.62,0.25
				c0.18,0.12,0.32,0.27,0.42,0.46c0.1,0.19,0.15,0.43,0.15,0.71c0,0.3-0.07,0.56-0.2,0.78c-0.14,0.22-0.3,0.4-0.49,0.54
				c-0.19,0.14-0.4,0.25-0.62,0.33c-0.22,0.08-0.42,0.13-0.6,0.16c0.07,0.09,0.18,0.23,0.31,0.4c0.13,0.17,0.28,0.36,0.44,0.56
				c0.16,0.21,0.33,0.42,0.51,0.64c0.17,0.22,0.34,0.44,0.51,0.64c0.16,0.21,0.32,0.39,0.46,0.56c0.14,0.17,0.26,0.3,0.35,0.39
				c-0.1-0.01-0.19-0.02-0.28-0.02c-0.09,0-0.19,0-0.28,0c-0.09,0-0.18,0-0.27,0c-0.09,0-0.18,0.01-0.27,0.02
				c-0.09-0.13-0.24-0.33-0.43-0.6c-0.19-0.26-0.4-0.55-0.63-0.85c-0.23-0.3-0.47-0.6-0.71-0.9c-0.24-0.3-0.46-0.55-0.66-0.76h-0.36
				V4.2c0,0.42,0.01,0.83,0.02,1.23c0.02,0.4,0.03,0.8,0.05,1.19c-0.14-0.01-0.3-0.02-0.46-0.02c-0.16,0-0.31,0.01-0.46,0.02
				c0.02-0.39,0.04-0.79,0.05-1.19c0.02-0.4,0.02-0.81,0.02-1.23V2.57C37.6,2.16,37.6,1.75,37.58,1.35z M38.66,3.15
				c0.1,0.01,0.22,0.01,0.34,0.01c0.19,0,0.39-0.02,0.6-0.07c0.21-0.04,0.4-0.12,0.58-0.23c0.17-0.11,0.32-0.26,0.44-0.44
				c0.12-0.19,0.17-0.42,0.17-0.7c0-0.25-0.05-0.45-0.14-0.61c-0.09-0.16-0.21-0.29-0.35-0.38c-0.14-0.09-0.3-0.16-0.47-0.19
				c-0.17-0.03-0.33-0.05-0.5-0.05c-0.22,0-0.4,0-0.54,0.01c-0.14,0.01-0.27,0.02-0.37,0.03c-0.01,0.35-0.02,0.69-0.04,1.03
				c-0.01,0.34-0.02,0.68-0.02,1.02v0.54C38.46,3.13,38.55,3.14,38.66,3.15z"/>
			<path d="M42.65,5.43c0.02-0.4,0.02-0.81,0.02-1.23V2.57c0-0.42-0.01-0.82-0.02-1.22c-0.02-0.4-0.03-0.81-0.05-1.22
				c0.08,0.01,0.16,0.02,0.23,0.03c0.08,0.01,0.15,0.01,0.22,0.01c0.08,0,0.15,0,0.23-0.01c0.07-0.01,0.15-0.02,0.23-0.03
				c-0.02,0.42-0.04,0.82-0.05,1.22c-0.02,0.4-0.02,0.81-0.02,1.22v0.52c0,0.05,0.02,0.08,0.06,0.08c0.02,0,0.07-0.03,0.13-0.08
				c0.22-0.19,0.45-0.4,0.69-0.64c0.24-0.24,0.48-0.49,0.72-0.75c0.24-0.26,0.48-0.52,0.72-0.79c0.24-0.27,0.47-0.53,0.68-0.78
				c0.07,0.01,0.13,0.02,0.2,0.03c0.06,0.01,0.12,0.01,0.19,0.01c0.08,0,0.15,0,0.23-0.01c0.07-0.01,0.15-0.02,0.23-0.03
				c-0.22,0.19-0.47,0.41-0.74,0.67c-0.27,0.26-0.55,0.52-0.83,0.8c-0.28,0.27-0.54,0.54-0.8,0.8c-0.25,0.26-0.46,0.49-0.63,0.69
				c0.5,0.57,1.02,1.16,1.53,1.75c0.51,0.6,1.04,1.19,1.57,1.79C47.29,6.61,47.19,6.6,47.1,6.6c-0.09,0-0.19,0-0.28,0
				c-0.09,0-0.17,0-0.26,0c-0.08,0-0.17,0.01-0.26,0.02c-0.23-0.26-0.47-0.56-0.75-0.89c-0.27-0.33-0.54-0.66-0.8-0.97
				c-0.26-0.31-0.49-0.59-0.7-0.84C43.85,3.67,43.7,3.5,43.6,3.4c-0.05-0.05-0.09-0.08-0.11-0.08c-0.03,0-0.05,0.02-0.05,0.06V4.2
				c0,0.42,0.01,0.83,0.02,1.23c0.02,0.4,0.03,0.8,0.05,1.19c-0.14-0.01-0.3-0.02-0.46-0.02c-0.16,0-0.32,0.01-0.46,0.02
				C42.61,6.23,42.63,5.83,42.65,5.43z"/>
		</g>
	</g>
	<g>
		<g>
			<path d="M96.83,20.48c0.53-0.08,1.88-0.31,2.76-1.18c0.29-0.29,0.58-0.84,0.82-1.58c0.67-2,1.7-5.08,1.7-5.08h-5.02
				c0,0-0.89,2.64-1.24,3.72c-0.11,0.34-0.35,0.57-0.53,0.69c-0.41,0.25-1.22,0.19-1.22,0.19l1.54-4.61H89.8l-5.85,17.5h5.83
				l2.13-6.39l3.58,6.39h6.75L96.83,20.48z"/>
			<rect x="61.7" y="31.87" width="40.55" height="1.35"/>
			<path d="M88.28,12.64l-22.37,0v0c-1.81,0-3.28,1.47-3.28,3.28c0,0.62,0.17,1.2,0.47,1.7l4.75,8.48c0.04,0.08,0.07,0.17,0.07,0.27
				c0,0.3-0.24,0.54-0.54,0.54H61.7v3.24l9.59,0v0c1.81,0,3.28-1.47,3.28-3.28c0-0.62-0.17-1.2-0.47-1.7l-4.75-8.48l0,0
				c-0.04-0.08-0.07-0.17-0.07-0.27c0-0.3,0.24-0.54,0.54-0.54h0l0,0H87.2L88.28,12.64z"/>
			<path d="M86.74,17.24l-8.18,0v0c-1.81,0-3.28,1.47-3.28,3.28c0,0.62,0.17,1.2,0.47,1.7l2.17,3.87c0.04,0.08,0.07,0.17,0.07,0.27
				c0,0.3-0.24,0.54-0.54,0.54h-2.65v3.24l6.54,0l0,0c1.81,0,3.28-1.47,3.28-3.28c0-0.62-0.17-1.2-0.47-1.7l-2.17-3.87l0,0
				c-0.04-0.08-0.07-0.17-0.07-0.27c0-0.3,0.24-0.54,0.54-0.54h0l0,0h3.2L86.74,17.24z"/>
		</g>
		<g>
			<path d="M157.35,18.55h-8.43c-0.15,0-0.26-0.12-0.25-0.27l0.34-3.92c0.01-0.15,0.15-0.27,0.3-0.27h8.92
				c0.15,0,0.27-0.12,0.27-0.27v-0.89c0-0.15-0.12-0.27-0.27-0.27h-13.58c-0.15,0-0.29,0.12-0.3,0.27l-1.76,20.03
				c-0.01,0.15,0.1,0.27,0.25,0.27h4.23c0.15,0,0.29-0.12,0.3-0.27l1.1-12.49c0.01-0.15,0.08-0.17,0.16-0.03l3.18,5.65
				c0.07,0.13,0.09,0.35,0.03,0.49l-2.58,6.4c-0.06,0.14,0.02,0.26,0.17,0.26h4.08c0.15,0,0.32-0.11,0.38-0.26l0.65-1.61
				c0.06-0.14,0.16-0.15,0.24-0.02l0.93,1.65c0.07,0.13,0.26,0.24,0.41,0.24h1.1c0.15,0,0.21-0.11,0.14-0.24l-1.89-3.36
				c-0.07-0.13-0.09-0.35-0.03-0.49l2.26-5.61l1.12-2.78C159.31,19.54,158.65,18.55,157.35,18.55z M154.4,20.25l-1.65,4.09
				c-0.06,0.14-0.16,0.15-0.24,0.02l-2.32-4.12c-0.07-0.13-0.01-0.24,0.14-0.24h3.89C154.38,19.99,154.45,20.11,154.4,20.25z"/>
			<path d="M216.08,31.77h-6.44c-0.15,0-0.27-0.12-0.27-0.27v-2.12c0-0.15,0.12-0.27,0.27-0.27h2.05c0.15,0,0.27-0.12,0.27-0.27
				v-0.89c0-0.15-0.12-0.27-0.27-0.27h-2.05c-0.15,0-0.27-0.12-0.27-0.27v-1.78c0-0.15,0.12-0.27,0.27-0.27h3.67
				c0.15,0,0.28-0.12,0.28-0.27v-0.89c0-0.15-0.12-0.27-0.28-0.27h-3.67c-0.15,0-0.27-0.12-0.27-0.27v-1.36
				c0-0.15-0.12-0.27-0.27-0.27h-4.22c-0.15,0-0.28,0.12-0.28,0.27v1.36c0,0.15-0.12,0.27-0.27,0.27h-2.86
				c-0.15,0-0.23-0.12-0.17-0.26l0.55-1.4c0.06-0.14-0.02-0.26-0.17-0.26h-1.8c-0.15,0-0.32,0.12-0.38,0.26l-1.58,3.99
				c-0.06,0.14,0.02,0.26,0.17,0.26h1.8c0.15,0,0.32-0.12,0.38-0.26l0.25-0.63c0.06-0.14,0.22-0.26,0.38-0.26h3.43
				c0.15,0,0.27,0.12,0.27,0.27v1.78c0,0.15-0.12,0.27-0.27,0.27h-1.97c-0.15,0-0.27,0.12-0.27,0.27v0.89
				c0,0.15,0.12,0.27,0.27,0.27h1.97c0.15,0,0.27,0.12,0.27,0.27v2.12c0,0.15-0.12,0.27-0.27,0.27h-6.44
				c-0.15,0-0.27,0.12-0.27,0.27v0.89c0,0.15,0.12,0.27,0.27,0.27h6.44c0.15,0,0.4,0,0.55,0h4.22c0.15,0,0.4,0,0.55,0h6.44
				c0.15,0,0.27-0.12,0.27-0.27v-0.89C216.35,31.89,216.23,31.77,216.08,31.77z"/>
			<path d="M239.53,16.92c0.06-0.14,0.23-0.25,0.38-0.25h4.23c0.15,0,0.27-0.12,0.27-0.27V15.5c0-0.15-0.12-0.27-0.27-0.27h-2.26
				c-0.15,0-0.22-0.11-0.15-0.24l1.13-2.1c0.07-0.13,0.01-0.24-0.15-0.24h-3.03c-0.15,0-0.33,0.11-0.4,0.24l-1.13,2.1
				c-0.07,0.13-0.25,0.24-0.4,0.24h-0.33c-0.15,0-0.27-0.12-0.27-0.27v-2.04c0-0.15-0.12-0.27-0.27-0.27h-3.49
				c-0.15,0-0.27,0.12-0.27,0.27v2.04c0,0.15-0.12,0.27-0.27,0.27h-1.22c-0.15,0-0.28-0.12-0.28-0.27v-2.04
				c0-0.15-0.12-0.27-0.27-0.27h-3.49c-0.15,0-0.27,0.12-0.27,0.27v2.04c0,0.15-0.12,0.27-0.27,0.27h-0.33
				c-0.15,0-0.33-0.11-0.4-0.24l-1.13-2.1c-0.07-0.13-0.25-0.24-0.4-0.24h-3.03c-0.15,0-0.22,0.11-0.15,0.24l1.13,2.1
				c0.07,0.13,0.01,0.24-0.15,0.24h-2.26c-0.15,0-0.27,0.12-0.27,0.27v0.89c0,0.15,0.12,0.27,0.27,0.27h4.23
				c0.15,0,0.32,0.11,0.38,0.25l1.06,2.59c0.06,0.14-0.02,0.25-0.17,0.25h-5.5c-0.15,0-0.27,0.12-0.27,0.27v0.89
				c0,0.15,0.12,0.27,0.27,0.27h9.27c0.15,0,0.27,0.12,0.27,0.27v1.55c0,0.15-0.12,0.27-0.27,0.27h-5.02
				c-0.15,0-0.27,0.12-0.27,0.27v0.89c0,0.15,0.12,0.27,0.27,0.27h5.02c0.15,0,0.27,0.12,0.27,0.27v1.55c0,0.15-0.12,0.27-0.27,0.27
				h-9.27c-0.15,0-0.27,0.12-0.27,0.27v0.89c0,0.15,0.12,0.27,0.27,0.27h3.09c0.15,0,0.2,0.1,0.11,0.22l-3.31,4.49
				c-0.09,0.12-0.04,0.22,0.11,0.22h4.56c0.15,0,0.35-0.1,0.44-0.22l3.31-4.49c0.09-0.12,0.29-0.22,0.44-0.22h0.51
				c0.15,0,0.27,0.12,0.27,0.27v4.39c0,0.15,0.12,0.27,0.27,0.27h4.22c0.15,0,0.27-0.12,0.27-0.27v-4.39c0-0.15,0.12-0.27,0.28-0.27
				h0.51c0.15,0,0.35,0.1,0.44,0.22l3.31,4.49c0.09,0.12,0.29,0.22,0.44,0.22h4.56c0.15,0,0.2-0.1,0.11-0.22l-3.31-4.49
				c-0.09-0.12-0.04-0.22,0.11-0.22h3.09c0.15,0,0.27-0.12,0.27-0.27v-0.89c0-0.15-0.12-0.27-0.27-0.27h-9.27
				c-0.15,0-0.28-0.12-0.28-0.27v-1.55c0-0.15,0.12-0.27,0.28-0.27h5.02c0.15,0,0.27-0.12,0.27-0.27v-0.89
				c0-0.15-0.12-0.27-0.27-0.27h-5.02c-0.15,0-0.28-0.12-0.28-0.27v-1.55c0-0.15,0.12-0.27,0.28-0.27h9.27
				c0.15,0,0.27-0.12,0.27-0.27v-0.89c0-0.15-0.12-0.27-0.27-0.27h-5.5c-0.15,0-0.23-0.11-0.17-0.25L239.53,16.92z M235.09,16.92
				l-1.06,2.59c-0.06,0.14-0.23,0.25-0.38,0.25h-2.86c-0.15,0-0.32-0.11-0.38-0.25l-1.06-2.59c-0.06-0.14,0.02-0.25,0.17-0.25h5.39
				C235.07,16.66,235.14,16.78,235.09,16.92z"/>
			<path d="M142.59,29.77l-0.32-0.83c-0.05-0.14-0.21-0.21-0.36-0.16L141.36,29c-0.14,0.05-0.26-0.02-0.26-0.18V20.2
				c0-0.15,0.12-0.27,0.27-0.27h1.14c0.15,0,0.27-0.12,0.27-0.27v-0.89c0-0.15-0.12-0.27-0.27-0.27h-1.14
				c-0.15,0-0.27-0.12-0.27-0.27v-5.3c0-0.15-0.12-0.27-0.27-0.27h-3.74c-0.15,0-0.27,0.12-0.27,0.27v5.3
				c0,0.15-0.12,0.27-0.27,0.27h-1.49c-0.15,0-0.28,0.12-0.28,0.27v0.89c0,0.15,0.12,0.27,0.28,0.27h1.49
				c0.15,0,0.27,0.12,0.27,0.27v10.28c0,0.15-0.12,0.32-0.26,0.37l-2.47,0.95c-0.14,0.05-0.21,0.21-0.16,0.36l0.32,0.83
				c0.05,0.14,0.21,0.21,0.36,0.16l7.83-3.03C142.58,30.07,142.65,29.91,142.59,29.77z"/>
			<path d="M216.29,19.29h-2.85c-0.15,0-0.22-0.11-0.16-0.25l1.27-2.84c0.06-0.14,0.24-0.25,0.39-0.25h0.94
				c0.15,0,0.27-0.12,0.27-0.27v-0.89c0-0.15-0.12-0.27-0.27-0.27h-7.41c-0.15,0-0.29-0.12-0.32-0.27l-0.2-1.32
				c-0.02-0.15-0.16-0.27-0.32-0.27h-4.51c-0.15,0-0.29,0.12-0.32,0.27l-0.2,1.32c-0.02,0.15-0.16,0.27-0.32,0.27h-8.11
				c-0.15,0-0.27,0.12-0.27,0.27v0.89c0,0.15,0.12,0.27,0.27,0.27h1.63c0.15,0,0.33,0.11,0.39,0.25l1.27,2.84
				c0.06,0.14-0.01,0.25-0.16,0.25h-4.29c-0.15,0-0.29,0.12-0.32,0.27l-2.01,13.38c-0.02,0.15,0.08,0.27,0.23,0.27h4.27
				c0.15,0,0.29-0.12,0.32-0.27L197.32,21c0.02-0.15,0.16-0.27,0.32-0.27h18.66c0.15,0,0.27-0.12,0.27-0.27v-0.89
				C216.57,19.41,216.44,19.29,216.29,19.29z M209.33,16.19l-1.27,2.84c-0.06,0.14-0.24,0.25-0.39,0.25h-4.58
				c-0.15,0-0.33-0.11-0.39-0.25l-1.27-2.84c-0.06-0.14,0.01-0.25,0.16-0.25h7.57C209.32,15.94,209.39,16.06,209.33,16.19z"/>
			<path d="M174.63,12.87c-0.08-0.13-0.27-0.23-0.42-0.23h-5.06c-0.15,0-0.21,0.11-0.13,0.23l3.81,6.12
				c0.08,0.13,0.07,0.33-0.02,0.45L162.29,33c-0.09,0.12-0.04,0.22,0.11,0.22h1.27c0.15,0,0.35-0.1,0.44-0.22l9.49-12.26
				c0.09-0.12,0.23-0.11,0.31,0.02l7.61,12.23c0.08,0.13,0.27,0.23,0.42,0.23h5.06c0.15,0,0.21-0.11,0.13-0.23L174.63,12.87z"/>
		</g>
		<path d="M113.47,15.32c-0.28,0.71-0.5,1.04-0.71,1.35l-1.05-0.63c0.13-0.16,0.18-0.23,0.3-0.4h-1.29v0.88
			c0.32,0.59,0.88,1.22,1.44,1.81l-0.66,0.97c-0.31-0.37-0.53-0.73-0.76-1.2h-0.02v4.59h-1v-4.97h-0.03
			c-0.24,0.83-0.56,1.73-1.22,2.72l-0.48-1.37c0.75-1.02,1.24-2.21,1.57-3.44h-1.37v-1.07h1.52v-1.94h1v1.94h1.29v1.07h0.02
			c0.28-0.49,0.55-1.07,0.95-2.66l1.1,0.16c-0.06,0.3-0.14,0.64-0.29,1.11h0.82v-1.63h1.04v1.63h2.22v1.06h-2.22v1.51h2.44v1.07
			h-2.11c0.73,1.38,1.32,2.03,2.27,2.81l-0.55,1.19c-0.41-0.38-1.4-1.3-2.05-2.78h-0.01v3.58h-1.04v-3.55h-0.03
			c-0.62,1.06-1.3,1.84-2.36,2.68l-0.69-0.99c0.96-0.65,2-1.53,2.79-2.94h-2.31v-1.07h2.61v-1.51H113.47z"/>
		<path d="M118.76,21.24c0.28-0.02,0.38-0.04,0.53-0.05c0.25-0.05,1.44-0.2,1.71-0.25v-3.12h-2.05v-1.06h5.09v1.06h-1.94v2.98
			c1.21-0.18,1.87-0.31,2.27-0.39v1.01c-1.72,0.38-4.15,0.76-5.42,0.92L118.76,21.24z M127.47,14.33h1.13v1.08h-3.16
			c0.07,1.87,0.46,3.8,0.82,4.68c0.12,0.31,0.59,1.27,0.96,1.27c0.37,0,0.55-1.23,0.59-1.61l0.97,0.56
			c-0.17,0.82-0.44,2.41-1.39,2.41c-1.02,0-1.72-1.24-1.97-1.74c-0.92-1.82-1-3.8-1.05-5.57h-5.61v-1.08h5.56
			c-0.02-0.57-0.05-1.53-0.07-1.71h1.13c0,0.55,0,0.94,0.01,1.71h1.91v-0.02c-0.58-0.43-1.05-0.69-1.57-0.96l0.63-0.84
			c0.84,0.44,0.86,0.44,1.71,1.03L127.47,14.33z"/>
		<path d="M110.36,26.84h5.62v-0.62c0.64,0.41,1.25,0.73,1.7,0.96l0.67-1.09c-2.06-0.81-3.78-2.02-4.56-3.27h-1.22
			c-0.9,1.39-2.87,2.72-4.56,3.33l0.62,1.03c0.45-0.2,0.93-0.42,1.73-0.93V26.84z M117.67,32.45c-0.86-1.51-1.99-2.65-2.44-3.11
			l-0.9,0.56c0.31,0.32,0.55,0.6,1.25,1.55c-1.63,0.09-2.13,0.11-4.32,0.15c0.34-0.61,0.63-1.28,1.14-2.47h5.5v-1.04h-9.5v1.04h2.71
			c-0.31,0.97-0.7,1.87-1.02,2.5c-0.51,0.01-1.29,0.02-1.52,0.02l0.16,1.12c1.6,0,1.96-0.03,7.5-0.4c0.28,0.44,0.3,0.48,0.43,0.73
			L117.67,32.45z M111.01,25.81v-0.02c1.19-0.86,1.75-1.52,2.18-2.04c0.65,0.77,1.37,1.48,2.19,2.04v0.02H111.01z"/>
		<path d="M125.01,22.87h1.11v3.05h2.26v1.16h-2.26v4.42h2.49v1.16h-6.26V31.5h2.66v-4.42h-2.2v-1.16h2.2V22.87z M121.41,33h-1.07
			v-4.16c-0.61,0.58-1.02,0.85-1.29,1.01l-0.47-1.1c1.36-0.8,2.4-1.97,2.87-3.15h-2.72v-1.05h1.61v-1.68h1.07v1.68h1.25v1.05
			c0,0.24-0.85,1.53-1.07,1.83c0.55,0.63,0.8,0.81,1.49,1.32l-0.52,1.03c-0.49-0.42-0.77-0.71-1.14-1.14V33z"/>
	</g>
</g>
</svg>
