<?xml version="1.0" encoding="utf-8"?>
<!-- Generator: Adobe Illustrator 24.0.0, SVG Export Plug-In . SVG Version: 6.00 Build 0)  -->
<svg version="1.1" id="Layer_1" xmlns="http://www.w3.org/2000/svg" xmlns:xlink="http://www.w3.org/1999/xlink" x="0px" y="0px"
	 viewBox="0 0 224.87 13.97" style="enable-background:new 0 0 224.87 13.97;" xml:space="preserve">
<style type="text/css">
	.st0{fill:#231815;}
</style>
<g>
	<g>
		<path class="st0" d="M16.01,1.17c0.81-0.03,2.1-0.09,2.81,0.02c1.41,0.22,2.09,1.08,2.09,2.41c0,1.48-1.04,2.44-2.44,2.72
			c-0.97,0.19-2.18,0.12-2.45,0.1V1.17z M14.34,13.5c0.27-0.01,0.55-0.07,0.83-0.07c0.27,0,0.54,0.06,0.84,0.07V7.14h0.72l1.52,1.78
			l2.25,2.92c0.39,0.52,0.78,1.06,1.19,1.65c0.34-0.01,0.73-0.07,1.08-0.07c0.37,0,0.72,0.06,1.13,0.07l-0.37-0.47l-0.92-1.08
			L18.7,6.99c1.93-0.35,3.92-1.41,3.92-3.62c0-1.93-1.32-2.89-4.24-2.89h-4.03V13.5z"/>
		<path class="st0" d="M26.39,6.17h2.97c0.58,0,1.12-0.07,1.71-0.09C31.06,6.24,31,6.4,31,6.58c0,0.15,0.06,0.34,0.07,0.53
			c-0.59-0.01-1.13-0.08-1.71-0.08h-2.97v5.6c1.16,0.03,2.3-0.04,3.47-0.09c0.59,0,1.16-0.07,1.76-0.18
			c-0.02,0.22-0.05,0.39-0.05,0.58c0,0.2,0.03,0.39,0.05,0.56H24.7V0.47h6.8c-0.01,0.2-0.05,0.38-0.05,0.58
			c0,0.19,0.04,0.37,0.05,0.55c-0.57-0.11-1.14-0.16-1.72-0.2l-1.93-0.05h-1.48V6.17z"/>
		<path class="st0" d="M34.93,6.17h2.98c0.56,0,1.11-0.07,1.68-0.09c-0.01,0.17-0.05,0.32-0.05,0.5c0,0.15,0.05,0.34,0.05,0.53
			c-0.57-0.01-1.13-0.08-1.68-0.08h-2.98v5.6c1.17,0.03,2.32-0.04,3.46-0.09c0.6,0,1.18-0.07,1.77-0.18
			c-0.02,0.22-0.05,0.39-0.05,0.58c0,0.2,0.04,0.39,0.05,0.56h-6.91V0.47h6.8c-0.01,0.2-0.05,0.38-0.05,0.58
			c0,0.19,0.04,0.37,0.05,0.55c-0.58-0.11-1.15-0.16-1.73-0.2L36.4,1.36h-1.47V6.17z"/>
		<path class="st0" d="M52.61,13.5h-0.59c-0.22-0.28-0.58-0.74-0.98-1.16l-8.23-9.11h-0.19V13.5c-0.17-0.01-0.36-0.07-0.53-0.07
			c-0.18,0-0.36,0.06-0.52,0.07V0.47h0.73l9.05,9.82h0.19V0.47c0.17,0,0.34,0.05,0.54,0.05c0.17,0,0.34-0.04,0.54-0.05V13.5z"/>
		<path class="st0" d="M60.5,1.21c0.57-0.04,1.92-0.07,2.74,0.02c1.51,0.12,2.15,1.15,2.15,2.44c0,1.71-1.11,2.92-3,3.1
			c-0.65,0.06-1.41,0.06-1.88,0V1.21z M60.5,7.52c0.47,0,1.71,0.14,2.57-0.05c2.68-0.53,4.07-1.56,4.07-3.88
			c0-2.31-1.21-3.12-4.9-3.12h-3.43V13.5c0.26-0.01,0.56-0.07,0.85-0.07c0.26,0,0.53,0.06,0.84,0.07V7.52z"/>
		<path class="st0" d="M72.47,7.68h-4.1l2.04-4.77L72.47,7.68z M71.08,0.47h-0.43L64.83,13.5c0.19-0.01,0.4-0.07,0.66-0.07
			c0.22,0,0.43,0.05,0.67,0.07c0.52-1.75,1.21-3.39,1.85-5.04h4.75c0.74,1.7,1.41,3.49,1.95,5.04c0.31-0.01,0.62-0.07,0.99-0.07
			c0.3,0,0.61,0.05,0.96,0.07L71.08,0.47z"/>
		<path class="st0" d="M79.33,1.17c0.81-0.03,2.1-0.09,2.81,0.02c1.44,0.22,2.09,1.08,2.09,2.41c0,1.48-1.05,2.44-2.42,2.72
			c-1,0.19-2.21,0.12-2.48,0.1V1.17z M77.65,13.5c0.29-0.01,0.57-0.07,0.85-0.07c0.28,0,0.53,0.06,0.84,0.07V7.14h0.73l1.53,1.79
			l2.24,2.92c0.4,0.52,0.79,1.06,1.2,1.65c0.35-0.01,0.73-0.07,1.1-0.07c0.36,0,0.69,0.06,1.12,0.07l-0.37-0.47l-0.93-1.08
			l-3.93-4.96c1.92-0.35,3.91-1.41,3.91-3.62c0-1.93-1.3-2.89-4.23-2.89h-4.06V13.5z"/>
		<path class="st0" d="M92.87,4.61l-1.63,1.65c1.52,1.75,3.11,3.46,4.63,5.23l1.56,1.91v0.09c-0.39-0.01-0.74-0.07-1.07-0.07
			c-0.35,0-0.71,0.06-1.06,0.07c-0.42-0.61-0.84-1.18-1.32-1.73l-4.15-4.86c-0.1-0.08-0.32-0.14-0.32-0.05v6.64
			c-0.31-0.01-0.57-0.07-0.85-0.07c-0.29,0-0.56,0.06-0.83,0.07V0.47c0.27,0,0.54,0.05,0.83,0.05c0.27,0,0.54-0.04,0.85-0.05v5.89
			c0.02,0.11,0.28,0.03,0.46-0.12c0.35-0.26,0.75-0.67,1.02-0.93l4.7-4.84c0.24,0,0.49,0.05,0.76,0.05c0.23,0,0.48-0.04,0.74-0.05
			L92.87,4.61z"/>
		<path class="st0" d="M12,2.65c-1.1-1.25-2.74-1.89-4.42-1.89c-3.33,0-5.65,2.18-5.65,6.15c0,3.89,2.01,6.3,5.89,6.3
			c1.04,0,2.15-0.19,3.05-0.67V7.5c0.28,0.02,0.56,0.07,0.86,0.07c0.27,0,0.56-0.05,0.87-0.07v5.56c-1.71,0.58-3.51,0.9-5.33,0.9
			C2.29,13.97,0,10.98,0,7.02C0,2.42,3.3,0,7.65,0c2.94,0,4.58,0.86,5.01,1.14c-0.18,0.49-0.3,1-0.44,1.5H12z"/>
	</g>
	<g>
		<path d="M104.68,3.34c0.35,0.38,0.62,0.74,1.09,0.74c1.46,0,6.5-0.57,7.76-0.73c0.35-0.04,0.56-0.38,0.87-0.38
			c0.56,0,1.83,1.08,1.83,1.62c0,0.49-0.59,0.34-1.11,0.76c-0.85,0.71-2.23,1.89-3.87,3c0.77,0.67,1.29,1.44,1.29,2.25
			c0,0.48-0.32,0.74-0.73,0.74c-0.64,0-0.62-0.97-2.02-2.58c-0.74-0.91-1.5-1.57-2.16-2.06l0.15-0.24c0.98,0.31,2.06,0.83,2.94,1.47
			c1.37-1.16,2.65-2.58,3.18-3.47c0.11-0.2,0.04-0.31-0.15-0.29c-1.54,0.13-5.45,0.69-6.67,1.01c-0.35,0.08-0.67,0.45-1.02,0.45
			c-0.49,0-1.23-0.71-1.44-1.22c-0.1-0.22-0.17-0.56-0.18-0.98L104.68,3.34z"/>
		<path d="M128.91,3.5l0.28,0.18c-1.63,3.04-4.2,5.41-7.37,7.38c-0.38,0.24-0.55,0.64-0.91,0.64c-0.7,0-1.61-0.76-1.91-1.26
			c-0.15-0.28-0.28-0.78-0.29-1.12l0.21-0.13c0.36,0.39,0.84,0.88,1.33,0.88C121.57,10.08,126.91,6.31,128.91,3.5z M118.94,2.14
			c1.78,0.32,3.92,1.19,3.92,2.49c0,0.42-0.29,0.76-0.73,0.76c-0.36,0-0.6-0.21-0.97-0.69c-0.67-0.87-1.09-1.37-2.38-2.3
			L118.94,2.14z"/>
		<path d="M130.57,4.81l0.11-0.28c0.63,0.11,1.18,0.21,1.88,0.42c0.94,0.28,1.71,0.81,1.71,1.54c0,0.28-0.15,0.63-0.6,0.63
			c-0.56,0-0.81-0.57-1.5-1.13C131.58,5.46,131.06,5.08,130.57,4.81z M141.4,3.93l0.28,0.17c-1.47,2.84-4.55,5.53-7.63,7.28
			c-0.38,0.24-0.55,0.66-0.98,0.66c-0.53,0-1.44-0.63-1.81-1.18c-0.21-0.29-0.32-0.9-0.34-1.19l0.21-0.11
			c0.34,0.36,0.78,0.88,1.3,0.88C133.76,10.44,138.96,7.07,141.4,3.93z M132.39,1.97l0.11-0.27c0.49,0.07,1.15,0.18,1.89,0.41
			c0.97,0.35,1.61,0.81,1.61,1.53c0,0.34-0.24,0.63-0.57,0.63c-0.55,0-0.81-0.55-1.55-1.19C133.36,2.61,132.83,2.24,132.39,1.97z"/>
		<path d="M143.59,4.91c0.25,0.25,0.49,0.48,0.8,0.48c0.76,0,3.36-0.28,3.96-0.36c0.38-0.06,0.5-0.34,0.79-0.34
			c0.38,0,1.51,0.76,1.51,1.18c0,0.29-0.42,0.41-0.48,0.78c-0.13,0.74-0.42,2.44-0.64,3.67c0.35,0.15,0.69,0.45,0.69,0.66
			c0,0.29-0.21,0.46-0.46,0.46c-0.28,0-1.02-0.15-1.61-0.15c-0.9,0-2.13,0.17-2.86,0.32c-0.32,0.07-0.64,0.22-0.88,0.22
			c-0.39,0-0.92-0.63-1.05-0.95c-0.06-0.15-0.11-0.38-0.11-0.66l0.14-0.08c0.28,0.28,0.5,0.5,0.88,0.5c0.67,0,2.96-0.24,4.19-0.34
			c0.07-0.53,0.14-1.22,0.21-1.89c-1.16,0.08-2.46,0.25-3.15,0.36C145.15,8.85,144.96,9,144.74,9c-0.31,0-0.77-0.48-0.92-0.8
			c-0.08-0.17-0.14-0.43-0.14-0.64l0.14-0.08c0.25,0.22,0.55,0.41,0.83,0.41c0.48,0,2.8-0.27,4.12-0.36
			c0.07-0.66,0.13-1.23,0.15-1.5c0-0.1-0.04-0.13-0.11-0.13c-0.8,0-2.46,0.21-3.4,0.41c-0.41,0.08-0.67,0.27-0.92,0.27
			c-0.38,0-0.9-0.64-0.98-0.97c-0.06-0.22-0.07-0.43-0.07-0.63L143.59,4.91z"/>
		<path d="M164.3,3.5l0.28,0.18c-1.63,3.04-4.2,5.41-7.37,7.38c-0.38,0.24-0.55,0.64-0.91,0.64c-0.7,0-1.61-0.76-1.91-1.26
			c-0.15-0.28-0.28-0.78-0.29-1.12l0.21-0.13c0.36,0.39,0.84,0.88,1.33,0.88C156.96,10.08,162.3,6.31,164.3,3.5z M154.33,2.14
			c1.78,0.32,3.92,1.19,3.92,2.49c0,0.42-0.29,0.76-0.73,0.76c-0.36,0-0.6-0.21-0.97-0.69c-0.67-0.87-1.09-1.37-2.38-2.3
			L154.33,2.14z"/>
		<path d="M168.82,1.42c0.41-0.2,0.95-0.41,1.23-0.41c0.59,0,1.54,0.38,1.58,0.73c0.03,0.32-0.18,0.46-0.14,0.88
			c0.04,0.36,0.1,0.71,0.2,1.21c0.53-0.14,0.98-0.27,1.37-0.39c0.6-0.21,0.9-0.43,1.02-0.43c0.45-0.03,1.29,0.2,1.29,0.57
			c0,0.29-0.17,0.5-0.64,0.59c-0.8,0.15-2.02,0.42-2.84,0.62c0.17,0.77,0.32,1.48,0.48,2.16c1.09-0.28,2.35-0.62,2.91-0.81
			c0.36-0.11,0.46-0.22,0.59-0.22c0.74-0.01,1.47,0.27,1.47,0.66c0,0.24-0.1,0.5-0.57,0.55c-1.42,0.13-2.42,0.29-4.2,0.73
			c0.27,1.16,0.49,2.07,0.62,2.59c0.2,0.74,0.34,1.11,0.34,1.58c0,0.29-0.17,0.56-0.59,0.58c-0.43,0-0.78-0.56-0.9-1.05
			c-0.07-0.27-0.13-1.06-0.27-1.85c-0.08-0.46-0.18-1.01-0.31-1.58c-0.95,0.27-2.13,0.63-2.79,0.91c-0.49,0.2-0.67,0.43-0.99,0.45
			c-0.43,0-1.16-0.48-1.37-0.77c-0.11-0.18-0.2-0.43-0.25-0.8l0.21-0.13c0.39,0.31,0.6,0.42,0.85,0.42c0.41,0,2.66-0.57,4.16-0.98
			c-0.17-0.83-0.34-1.63-0.46-2.16c-0.63,0.15-1.27,0.34-1.74,0.5c-0.41,0.15-0.59,0.32-0.9,0.32c-0.35,0-1.01-0.43-1.25-0.8
			c-0.14-0.21-0.17-0.36-0.22-0.66l0.18-0.1c0.28,0.21,0.46,0.39,0.8,0.39c0.32,0,1.75-0.32,2.9-0.6c-0.2-0.81-0.38-1.57-0.52-1.86
			c-0.17-0.35-0.52-0.38-1.22-0.59L168.82,1.42z M174.81,1.59c0.74,0.25,1.34,0.55,1.74,0.92c0.31,0.31,0.43,0.55,0.42,0.81
			c0,0.27-0.18,0.46-0.45,0.45c-0.22,0-0.39-0.25-0.62-0.6c-0.28-0.38-0.63-0.87-1.26-1.39L174.81,1.59z M176.06,0.67
			c0.77,0.21,1.36,0.48,1.72,0.77c0.34,0.31,0.48,0.57,0.46,0.88c0,0.28-0.15,0.43-0.41,0.43c-0.24-0.01-0.38-0.28-0.66-0.63
			c-0.28-0.35-0.59-0.73-1.26-1.26L176.06,0.67z"/>
		<path d="M180.76,4.21c0.31-0.13,0.6-0.25,1-0.25c0.49,0,1.4,0.24,1.4,0.56c0,0.25-0.08,0.5-0.07,0.8c0.01,0.2,0.1,0.64,0.18,1.06
			c0.99-0.25,2.42-0.63,2.8-0.76c0.25-0.08,0.46-0.32,0.64-0.32c0.46,0,1.34,0.78,1.34,1.22c0,0.27-0.46,0.29-0.66,0.48
			c-0.5,0.48-1.37,1.37-2.45,2.02l-0.14-0.14c0.62-0.81,1.19-1.82,1.42-2.37c0.07-0.14,0.01-0.17-0.14-0.14
			c-0.45,0.1-1.64,0.46-2.65,0.76c0.36,1.44,0.83,3.11,1.05,3.85c0.1,0.31,0.28,0.81,0.28,1.09c0,0.41-0.17,0.6-0.56,0.6
			c-0.5,0-0.84-0.43-0.9-1c-0.11-0.97-0.5-2.9-0.85-4.26c-0.5,0.17-1.05,0.35-1.28,0.45c-0.48,0.2-0.66,0.48-0.94,0.48
			c-0.41,0-0.95-0.49-1.11-0.84c-0.07-0.17-0.07-0.45-0.07-0.73l0.14-0.06c0.22,0.2,0.39,0.41,0.74,0.41
			c0.32,0.01,1.36-0.24,2.31-0.48c-0.18-0.67-0.39-1.44-0.56-1.75c-0.14-0.27-0.46-0.42-0.91-0.52L180.76,4.21z"/>
		<path d="M190.1,4.49l0.24-0.11c0.35,0.43,0.6,0.73,1.09,0.73c0.84,0,4.61-0.49,5.63-0.66c0.48-0.07,0.63-0.34,0.91-0.34
			c0.52,0,1.57,0.85,1.57,1.33c0,0.32-0.6,0.52-0.85,1c-1.34,2.58-3.56,4.89-7.49,6.18l-0.17-0.29c3.31-1.71,5.49-4.31,6.42-6.79
			c0.06-0.17,0-0.24-0.17-0.22c-0.91,0.07-3.85,0.57-4.76,0.81c-0.42,0.11-0.66,0.36-0.97,0.36c-0.49,0-1.15-0.73-1.29-1.13
			C190.15,5.06,190.11,4.81,190.1,4.49z M197.35,2.42c-1.08,0.24-3,0.57-4.23,0.57c-0.8,0-1.23-0.46-1.72-1.36l0.17-0.15
			c0.56,0.38,1.01,0.48,1.47,0.48c0.97,0,1.74-0.21,2.37-0.38c0.77-0.18,0.95-0.39,1.21-0.39c0.8,0,1.34,0.25,1.34,0.71
			C197.96,2.15,197.8,2.32,197.35,2.42z"/>
		<path d="M202.41,2.3V2.05c0.31-0.13,0.69-0.25,0.98-0.25c0.57,0,1.68,0.62,1.68,1.06c0,0.32-0.24,0.5-0.28,1.05
			c-0.04,0.6-0.01,3.33-0.01,4.12c0,0.66-0.25,0.9-0.63,0.9c-0.41,0-0.77-0.59-0.77-1.27c0-0.36,0.17-0.83,0.18-1.88
			c0.01-0.67-0.01-2.1-0.07-2.65c-0.04-0.31-0.08-0.42-0.29-0.53C202.98,2.49,202.71,2.39,202.41,2.3z M204.07,12.75l-0.15-0.28
			c2.67-1.44,4.05-3.31,4.24-6.12c0.08-1.13,0.08-2.73,0.03-3.6c-0.01-0.29-0.04-0.46-0.31-0.62c-0.18-0.11-0.5-0.18-0.84-0.25
			l-0.01-0.25c0.35-0.22,0.84-0.46,1.16-0.46c0.58,0,1.68,0.64,1.68,1.01c0,0.34-0.27,0.45-0.29,0.88c-0.04,0.83-0.1,2.45-0.15,3.31
			C209.24,9.69,207.41,11.68,204.07,12.75z"/>
		<path d="M213.69,5.64c0.36,0.52,0.6,0.92,1.29,0.92c1.39,0,5.9-0.29,6.67-0.35c0.94-0.07,1.47-0.18,1.82-0.18
			c0.7,0,1.4,0.36,1.4,0.87c0,0.34-0.27,0.52-0.8,0.52s-1.02-0.04-1.96-0.04c-0.98,0-4.46,0.21-5.52,0.34
			c-0.92,0.1-1.11,0.36-1.58,0.36c-0.49,0-1.26-0.81-1.5-1.4c-0.11-0.29-0.1-0.64-0.07-0.95L213.69,5.64z"/>
	</g>
</g>
</svg>
