<?xml version="1.0" encoding="utf-8"?>
<!-- Generator: Adobe Illustrator 25.3.1, SVG Export Plug-In . SVG Version: 6.00 Build 0)  -->
<svg version="1.1" id="Layer_1" xmlns="http://www.w3.org/2000/svg" xmlns:xlink="http://www.w3.org/1999/xlink" x="0px" y="0px"
	 viewBox="0 0 346.7 13.1" style="enable-background:new 0 0 346.7 13.1;" xml:space="preserve">
<style type="text/css">
	.st0{fill:#303030;}
</style>
<g>
	<path class="st0" d="M10.9,5.6v-2H1.2v2H0v-3h2.5C2.3,2.1,1.7,1.3,1.3,0.9l0.9-0.5c0.4,0.4,1.1,1.3,1.3,1.8C3.3,2.2,3,2.3,2.7,2.6
		h4.8c0.6-0.7,1.2-1.4,1.7-2.3l0.9,0.5c0,0,0.2,0.1,0.2,0.2c0,0.2-0.2,0.2-0.2,0.2H10C9.6,1.8,9.3,2.2,8.9,2.6h3.2v3H10.9z M9.7,13
		v-0.6H2.4V13H1.3V8.9h3.6c0.3-0.6,0.4-0.7,0.6-1.1H2.5V4.4h7v3.4H6.7C6.4,8.3,6.2,8.7,6.1,8.9h4.8V13H9.7z M9.7,9.9H2.4v1.7h7.2
		V9.9z M8.4,5.3H3.7v1.6h4.7V5.3z M5.6,2.5C5.3,1.9,4.7,1.1,4.3,0.6l0.9-0.5c0.4,0.5,1,1.2,1.4,1.9C6,2.2,5.8,2.4,5.6,2.5z"/>
	<path class="st0" d="M21.3,9.1c0.5,0.5,2.1,1.9,4.9,2.8c-0.4,0.3-0.6,0.5-0.8,0.9c-0.6-0.2-2.9-1.1-4.9-3.2v3.4h-1.1V9.8
		c-1.5,1.4-3.4,2.6-4.7,3.2c-0.4-0.5-0.7-0.7-0.9-0.8c1.1-0.4,3.1-1.3,4.9-3h-5.2V8.2h5.8V7.4h-4.2V6.5h4.2V5.7h-5.1V4.8h3.5
		c-0.1-0.3-0.4-0.9-0.6-1.3l0.8-0.3h-4.4V2.3h2.7c-0.4-0.7-0.7-1.1-1-1.3l0.9-0.5c0.4,0.5,0.8,1,1.1,1.6c-0.1,0-0.4,0.1-0.6,0.3h1.4
		v-2l1.1,0.1c0.1,0,0.3,0,0.3,0.2c0,0.1-0.1,0.2-0.3,0.2v1.6h1.6v-2l1.1,0c0.1,0,0.3,0,0.3,0.2c0,0.1-0.2,0.2-0.3,0.3v1.5h1.5
		C23.1,2.1,22.9,2,22.6,2c0.5-0.6,0.8-1.1,1.1-1.6l1.1,0.5c0.1,0,0.1,0.1,0.1,0.2c0,0.1,0,0.2-0.2,0.2c0,0-0.1,0-0.2,0
		c-0.3,0.5-0.3,0.5-0.9,1.1h2.8v0.9h-3.8L23,3.3c0.2,0,0.3,0.2,0.3,0.2c0,0,0,0.2-0.4,0.2c-0.1,0.1-0.1,0.3-0.6,1.1h3.3v0.9h-5v0.8
		h4.1v0.9h-4.1v0.8h5.8v0.9H21.3z M18.3,3.2c0.1,0.2,0.5,0.8,0.7,1.3c-0.2,0-0.4,0.1-0.8,0.3h3c0.3-0.4,0.6-1,0.8-1.6H18.3z"/>
	<path class="st0" d="M31,10.7V10h-1.8v1.2h-1.1V1.5h4v9.2H31z M31,2.5h-1.8v2.7H31V2.5z M31,6.2h-1.8V9H31V6.2z M37.8,5.7l1,0.1
		C38.8,5.9,39,5.9,39,6c0,0.2-0.2,0.2-0.3,0.3v1.1h1.7v1h-1.7v3c0,1-0.1,1.7-2.6,1.6c0-0.6-0.2-1-0.4-1.3c0.3,0.1,0.7,0.1,1,0.1
		c0.7,0,0.8-0.1,0.8-0.8V8.4h-4.6v-1h4.6V5.7h-4.9v-1h3.2V3.1H33V2h2.8V0.2l1.2,0.1c0.1,0,0.3,0.1,0.3,0.2c0,0.1-0.1,0.2-0.4,0.2V2
		h3v1h-3v1.6h3.6v1H37.8z M34.9,11.5c-0.2-0.3-0.9-1.4-1.7-2.2L34,8.6c0.5,0.5,1.3,1.4,1.8,2.1C35.6,10.9,35.4,11.1,34.9,11.5z"/>
	<path class="st0" d="M43.4,5v8h-1.1V0.5h5V5H43.4z M46.2,1.3h-2.8v0.9h2.8V1.3z M46.2,3.1h-2.8v1h2.8V3.1z M46.4,11v0.7h-1.1V6.1
		h5.4V11H46.4z M49.6,7h-3.3v1.1h3.3V7z M49.6,9h-3.3V10h3.3V9z M51.3,13.1c-0.1-0.7-0.3-1-0.5-1.3c0.3,0.1,0.7,0.1,1,0.1
		c0.7,0,0.8-0.2,0.8-1V5h-3.9V0.5h5v10.6C53.8,12.3,53.7,13.2,51.3,13.1z M52.6,1.3h-2.7v1h2.7V1.3z M52.6,3.1h-2.7v1h2.7V3.1z"/>
	<path class="st0" d="M65.6,12h-1.4V4H62V3c1.2-0.1,2.2-0.3,2.5-2.1h1.1V12z"/>
	<path class="st0" d="M78.3,6.4c0,2.2-0.6,5.8-4.2,5.8c-3.7,0-4.2-3.7-4.2-5.8c0-2.1,0.5-5.8,4.2-5.8C77.8,0.6,78.3,4.3,78.3,6.4z
		 M71.3,6.4c0,1.8,0.4,4.6,2.8,4.6c2.4,0,2.8-2.8,2.8-4.6c0-1.8-0.4-4.6-2.8-4.6C71.7,1.8,71.3,4.6,71.3,6.4z"/>
	<path class="st0" d="M81.4,5.5H80V3.9h1.5V5.5z M81.4,12H80v-1.6h1.5V12z"/>
	<path class="st0" d="M91.5,6.4c0,2.2-0.6,5.8-4.2,5.8c-3.7,0-4.2-3.7-4.2-5.8c0-2.1,0.5-5.8,4.2-5.8C91,0.6,91.5,4.3,91.5,6.4z
		 M84.5,6.4c0,1.8,0.4,4.6,2.8,4.6c2.4,0,2.8-2.8,2.8-4.6c0-1.8-0.4-4.6-2.8-4.6C84.9,1.8,84.5,4.6,84.5,6.4z"/>
	<path class="st0" d="M101.1,6.4c0,2.2-0.6,5.8-4.2,5.8c-3.7,0-4.2-3.7-4.2-5.8c0-2.1,0.5-5.8,4.2-5.8S101.1,4.3,101.1,6.4z
		 M94.1,6.4c0,1.8,0.4,4.6,2.8,4.6c2.4,0,2.8-2.8,2.8-4.6c0-1.8-0.4-4.6-2.8-4.6C94.5,1.8,94.1,4.6,94.1,6.4z"/>
	<path class="st0" d="M110.9,8.3c-0.9,0-1.5-0.3-2.4-1.1c-0.9-0.8-1.4-1.1-2.1-1.1c-1.2,0-2,1-2.5,1.8l-0.6-0.8
		c0.4-0.7,1.4-2.1,3.1-2.1c0.5,0,1.2,0.1,2.4,1.1c0.8,0.7,1.3,1.1,2.1,1.1c1.3,0,2.1-1.1,2.5-1.8l0.6,0.9
		C113.5,7,112.7,8.3,110.9,8.3z"/>
	<path class="st0" d="M121.6,12h-1.4V4H118V3c1.2-0.1,2.2-0.3,2.5-2.1h1.1V12z"/>
	<path class="st0" d="M134.1,0.9v1.2c-1.6,1.3-4.2,4.6-4.3,9.8h-1.4c0-3.8,2-7.7,4.2-9.8h-6.5V0.9H134.1z"/>
	<path class="st0" d="M137.4,5.5H136V3.9h1.5V5.5z M137.4,12H136v-1.6h1.5V12z"/>
	<path class="st0" d="M147.5,6.4c0,2.2-0.6,5.8-4.2,5.8c-3.7,0-4.2-3.7-4.2-5.8c0-2.1,0.5-5.8,4.2-5.8C147,0.6,147.5,4.3,147.5,6.4z
		 M140.5,6.4c0,1.8,0.4,4.6,2.8,4.6c2.4,0,2.8-2.8,2.8-4.6c0-1.8-0.4-4.6-2.8-4.6C140.9,1.8,140.5,4.6,140.5,6.4z"/>
	<path class="st0" d="M157.1,6.4c0,2.2-0.6,5.8-4.2,5.8c-3.7,0-4.2-3.7-4.2-5.8c0-2.1,0.5-5.8,4.2-5.8
		C156.6,0.6,157.1,4.3,157.1,6.4z M150.1,6.4c0,1.8,0.4,4.6,2.8,4.6c2.4,0,2.8-2.8,2.8-4.6c0-1.8-0.4-4.6-2.8-4.6
		C150.5,1.8,150.1,4.6,150.1,6.4z"/>
	<path class="st0" d="M175.5,12.7h-4.9c-2.9,0-4.1-1-4.8-2.4c-0.5,1.1-1.1,1.9-1.7,2.8c-0.4-0.3-0.5-0.4-1.1-0.6
		c0.7-0.7,2.4-2.6,2.6-6l1.1,0.2c0.1,0,0.3,0.1,0.3,0.2c0,0.1-0.1,0.2-0.4,0.2c-0.2,1.1-0.3,1.5-0.4,1.9c0.3,0.9,1.1,2,2.5,2.4V5.4
		h-3.8V4.4h8.9v1.1h-3.9v2h3.9v1.1h-3.9v3c0.4,0,0.9,0.1,2.2,0.1c1.5,0,2.3,0,3.8-0.2C175.7,12,175.6,12.3,175.5,12.7z M174.2,4.6
		V2.8h-9.8v1.8h-1.1V1.8h5.4V0.2l1.2,0.1c0.2,0,0.4,0.1,0.4,0.2c0,0.1-0.1,0.1-0.4,0.2v1.1h5.5v2.8H174.2z"/>
	<path class="st0" d="M181,0.9c-0.5,1.4-0.8,2.2-1.2,2.9c0.3,0.1,0.4,0.1,0.4,0.2c0,0.2-0.2,0.2-0.4,0.3V13h-1.2V5.7
		c-0.4,0.5-0.7,1-1.4,1.8c-0.1-0.1-0.4-0.6-0.9-0.9c2.6-2.9,3.4-5.6,3.6-6.5l1.1,0.4c0.1,0,0.3,0.1,0.3,0.2
		C181.4,0.9,181.2,0.9,181,0.9z M189.4,11.4c-1.6-1.5-2.8-3.4-3.7-5.5V13h-1.1V6c-0.8,2.1-2.3,4.2-3.6,5.4c-0.1-0.1-0.5-0.5-1-0.8
		c2.1-1.8,3.6-4.3,4.3-6h-3.6v-1h3.8V0.2l1.1,0.1c0.1,0,0.3,0,0.3,0.2c0,0.1-0.1,0.1-0.4,0.3v2.8h4v1h-3.7c0.4,0.9,1.8,3.8,4.4,5.9
		C189.9,10.7,189.7,10.9,189.4,11.4z"/>
	<path class="st0" d="M200.8,12.5v-0.9h-7v0.9h-1.2V1.1h9.4v11.4H200.8z M200.8,2.2h-7v3.5h7V2.2z M200.8,6.8h-7v3.7h7V6.8z"/>
	<path class="st0" d="M222,1.6v1h-9.8c-0.8,1.2-1.5,1.9-1.8,2.2c-0.5-0.4-0.8-0.6-1-0.7c1.3-1.2,2.5-2.9,2.9-4.2l1.1,0.3
		c0.1,0,0.2,0.1,0.2,0.2c0,0.1-0.1,0.2-0.4,0.2c-0.1,0.2-0.2,0.4-0.4,0.9H222z M220.8,4c0,1.6,0,2.4-0.1,2.7h1.6v1h-1.7
		c-0.1,1.1-0.1,1.2-0.2,1.9h1.5v1h-1.6c-0.5,2.5-1.1,2.5-3.1,2.5c0-0.1-0.2-0.7-0.5-1.2c0.3,0.1,0.6,0.1,1.2,0.1
		c0.8,0,1-0.2,1.2-1.4h-6.7c-0.2,0.8-0.2,0.9-0.2,1.2c-0.4-0.1-0.7-0.1-1.1-0.1c0.5-1.8,0.7-3.6,0.8-3.9h-2.4v-1h2.5
		c0.1-1,0.2-2,0.2-2.7H220.8z M213,7.7c-0.1,0.6-0.2,1.3-0.3,1.9h2.7c0.2-1,0.2-1.5,0.3-1.9H213z M215.9,5h-2.6
		c-0.1,0.7-0.1,1.1-0.2,1.8h2.6L215.9,5z M216.8,7.7c0,0.3-0.1,0.9-0.3,1.9h2.8c0-0.2,0.2-1.1,0.2-1.9H216.8z M216.9,6.7h2.8
		c0-0.6,0-1.2,0.1-1.8H217L216.9,6.7z"/>
	<path class="st0" d="M236.3,12.6h-6.1c-2.6,0-3.6-0.4-4.2-1.5c-0.2,0.2-0.5,0.5-1.6,1.3c0,0.3,0,0.4-0.2,0.4
		c-0.1,0-0.2-0.1-0.2-0.2l-0.5-1.1c1-0.5,1.5-0.9,2.1-1.4V6.6h-2V5.5h3.1V10c0,1.5,1.5,1.6,4.8,1.6c1.7,0,3.5,0,5.2-0.2
		C236.6,11.6,236.4,11.9,236.3,12.6z M226.5,3.3c-0.6-0.6-1.4-1.3-2.5-2l0.7-0.8c1.1,0.7,1.9,1.2,2.6,1.9
		C226.9,2.8,226.8,2.9,226.5,3.3z M233.5,10.9c-0.1-0.4-0.2-0.7-0.4-1.1c0.3,0.1,0.6,0.1,0.9,0.1c0.6,0,0.6-0.2,0.6-0.7V1.6h-2.6
		l0.5,0c0.1,0,0.3,0.1,0.3,0.2c0,0.2-0.3,0.2-0.4,0.2v0.6h1.8v0.8h-1.8v1h1.8v0.8h-4.6V4.5h1.8v-1h-1.7V2.6h1.7V1.6h-2.1v3.7
		c0,2.3-0.4,4.2-1.2,5.6c-0.3-0.2-0.6-0.4-1-0.5c0.6-0.9,1.1-2.1,1.1-5.2V0.6h7.4v8.7C235.6,10.6,235.1,10.9,233.5,10.9z M230.9,9.1
		v0.7h-1V6.1h3.8v3H230.9z M232.8,6.9h-1.9v1.5h1.9V6.9z"/>
	<path class="st0" d="M237.6,12.4v-1.1h5.8V5.7h-5.2V4.6h5.2V0.2l1.3,0.1c0.2,0,0.3,0,0.3,0.2c0,0.1-0.1,0.2-0.4,0.3v3.9h5.2v1.1
		h-5.2v5.6h5.9v1.1H237.6z"/>
	<path class="st0" d="M263.4,8.1v0.8h-2.5v0.9h2.5v0.8h-2.5v1h3.3v0.8h-6.5V13h-1.1V8.4c-0.5,0.6-0.6,0.7-0.8,0.9
		c-0.1-0.2-0.2-0.2-0.6-0.5v2.5h-1v-0.5h-1.4v1h-1V1h3.3v7.4c0.6-0.5,1.7-1.5,2.3-3.2l1,0.4c0.1,0,0.2,0.1,0.2,0.2
		c0,0.2-0.2,0.2-0.4,0.1c-0.1,0.2-0.2,0.3-0.3,0.5h1.9c0.3-0.4,0.5-0.9,0.6-1.3l1,0.3c0.2,0.1,0.3,0.1,0.3,0.2
		c0,0.2-0.1,0.2-0.4,0.2c-0.2,0.3-0.2,0.4-0.3,0.5h2.9v0.8h-3.2v0.9H263.4z M254.3,5.3V2h-1.4v3.3H254.3z M254.3,9.8V6.3h-1.4v3.5
		H254.3z M256,3.2V2.4h2.7v-1h-3V0.6h4v4.8h-1V5.1h-3V4.2h3v-1H256z M259.9,8.1V7.2h-2.1v0.9H259.9z M259.9,9.8V8.9h-2.1v0.9H259.9z
		 M259.9,11.5v-1h-2.1v1H259.9z M260.5,3.2V2.4h2.5v-1h-2.7V0.6h3.7v4.8h-1V5.1h-2.7V4.2h2.7v-1H260.5z"/>
	<path class="st0" d="M272,7.7c-0.6,0-1.1-0.5-1.1-1.1c0-0.6,0.5-1.1,1.1-1.1c0.6,0,1.1,0.5,1.1,1.1C273.1,7.2,272.6,7.7,272,7.7z"
		/>
	<path class="st0" d="M289.5,12.5v-0.9h-7v0.9h-1.2V1.1h9.4v11.4H289.5z M289.5,2.2h-7v3.5h7V2.2z M289.5,6.8h-7v3.7h7V6.8z"/>
	<path class="st0" d="M305.4,8.1v0.8h-2.5v0.9h2.5v0.8h-2.5v1h3.3v0.8h-6.5V13h-1.1V8.4c-0.5,0.6-0.6,0.7-0.8,0.9
		c-0.1-0.2-0.2-0.2-0.6-0.5v2.5h-1v-0.5h-1.4v1h-1V1h3.3v7.4c0.6-0.5,1.7-1.5,2.3-3.2l1,0.4c0.1,0,0.2,0.1,0.2,0.2
		c0,0.2-0.2,0.2-0.4,0.1c-0.1,0.2-0.2,0.3-0.3,0.5h1.9c0.3-0.4,0.5-0.9,0.6-1.3l1,0.3c0.2,0.1,0.3,0.1,0.3,0.2
		c0,0.2-0.1,0.2-0.4,0.2c-0.2,0.3-0.2,0.4-0.3,0.5h2.9v0.8h-3.2v0.9H305.4z M296.3,5.3V2h-1.4v3.3H296.3z M296.3,9.8V6.3h-1.4v3.5
		H296.3z M298,3.2V2.4h2.7v-1h-3V0.6h4v4.8h-1V5.1h-3V4.2h3v-1H298z M301.9,8.1V7.2h-2.1v0.9H301.9z M301.9,9.8V8.9h-2.1v0.9H301.9z
		 M301.9,11.5v-1h-2.1v1H301.9z M302.5,3.2V2.4h2.5v-1h-2.7V0.6h3.7v4.8h-1V5.1h-2.7V4.2h2.7v-1H302.5z"/>
	<path class="st0" d="M310.9,12.6c-1.1-1.4-2.1-2.2-2.8-2.7l0.8-0.8c1.3,0.9,2.4,1.9,3,2.5L310.9,12.6z"/>
	<path class="st0" d="M327.1,9.1c-0.6-0.4-1.3-1.1-2.2-2.2V13h-1.1V7.9c-0.9,0.9-1.3,1.2-1.7,1.5c-0.3-0.3-0.6-0.7-0.9-0.8
		c1.8-1.3,3.5-3.1,4.4-4.8h-4.1V2.7h2.3V0.1l1.1,0.1c0.2,0,0.3,0,0.3,0.2c0,0.1-0.2,0.2-0.3,0.3v2.1h1.8l0.5,0.5
		c-0.4,0.9-1,1.8-1.7,2.8c0.2,0.2,1.1,1.3,2.4,2.2C327.5,8.6,327.3,8.8,327.1,9.1z M330,7.2c-0.3,3.3-1.6,4.7-3.3,5.8
		c-0.3-0.4-0.7-0.7-0.9-0.8c2.4-1.3,3-3,3.1-5.8l1.1,0.3c0.2,0.1,0.3,0.1,0.3,0.2C330.3,7.1,330.2,7.2,330,7.2z M333,12.8h-0.6
		c-1.2,0-1.3-0.7-1.3-1.7V6.4h-3.4V0.8h6.1v5.6h-1.6V11c0,0.4,0,0.6,0.5,0.6c0.7,0,0.8-0.1,0.9-2c0.5,0.3,0.8,0.4,1.1,0.5
		C334.4,12.5,333.9,12.8,333,12.8z M332.6,1.8h-3.8v3.5h3.8V1.8z"/>
	<path class="st0" d="M345.5,12.5v-0.9h-7v0.9h-1.2V1.1h9.4v11.4H345.5z M345.5,2.2h-7v3.5h7V2.2z M345.5,6.8h-7v3.7h7V6.8z"/>
</g>
</svg>
