<?xml version="1.0" encoding="utf-8"?>
<!-- Generator: Adobe Illustrator 24.0.0, SVG Export Plug-In . SVG Version: 6.00 Build 0)  -->
<svg version="1.1" id="Layer_1" xmlns="http://www.w3.org/2000/svg" xmlns:xlink="http://www.w3.org/1999/xlink" x="0px" y="0px"
	 viewBox="0 0 272.24 25.64" style="enable-background:new 0 0 272.24 25.64;" xml:space="preserve">
<style type="text/css">
	.st0{fill:#303030;}
</style>
<g>
	<g>
		<g>
			<path d="M21.71,13.76c0,2.86,2,4.13,3.99,4.13c1.96,0,4.06-1.29,4.06-4.13c0-2.38-1.73-4.02-4.08-5.09
				c-0.02,0.01-0.03,0.02-0.05,0.03C23.03,9.89,21.71,11.6,21.71,13.76"/>
		</g>
		<g>
			<path d="M5.11,13.76c0,1.3,0.43,2.36,1.25,3.11c0.73,0.65,1.75,1.03,2.81,1.03c1.98,0,3.99-1.27,3.99-4.13
				c0-2.16-1.32-3.87-3.92-5.06C9.22,8.69,9.2,8.68,9.18,8.67C6.84,9.74,5.11,11.38,5.11,13.76"/>
		</g>
		<g>
			<path d="M34.87,7.16L34.87,7.16V7.15h-1.1c-1.52,0-3.01,0.15-4.41,0.42c-0.29,0.06-0.58,0.11-0.86,0.17L28.5,7.74
				c2.27,1.55,3.46,3.6,3.46,6.02c0,2.44-1.07,3.92-1.98,4.73c-1.14,1.03-2.66,1.59-4.28,1.59c-3.07,0-6.18-2.17-6.18-6.32
				c0-0.14,0-0.26,0.01-0.39c0.01-0.05,0.01-0.1,0.01-0.16c0.02-0.28,0.05-0.55,0.11-0.82c0-0.02,0-0.04,0.01-0.05
				c0.23-1.13,0.74-2.13,1.44-2.98c0.05-0.06,0.11-0.13,0.16-0.19c0.09-0.11,0.2-0.2,0.28-0.3c0.17-0.17,0.34-0.32,0.53-0.49
				c0.03-0.02,0.05-0.04,0.08-0.07c0.24-0.2,0.49-0.39,0.76-0.58l0.01-0.01c-1.85-0.45-3.81-0.66-5.47-0.66
				c-1.34,0-2.84,0.13-4.33,0.42c-0.39,0.07-0.78,0.16-1.15,0.24l0.01,0.01h-0.01c0.12,0.09,0.24,0.17,0.34,0.26
				c0.03,0.02,0.05,0.03,0.08,0.05c1.46,1.11,2.48,2.54,2.84,4.31v0.05c0.05,0.26,0.09,0.55,0.11,0.82c0.01,0.05,0.01,0.1,0.01,0.16
				c0.01,0.13,0.02,0.26,0.02,0.39c0,4.16-3.11,6.32-6.19,6.32c-3.11,0-6.26-2.17-6.26-6.32c0-1.91,0.75-3.58,2.17-4.96
				c0.38-0.37,0.8-0.72,1.28-1.05L6.36,7.75c0,0,0.01,0,0.01-0.01C4.75,7.36,2.93,7.15,1.1,7.15H0v16.81c0,0.66,0.53,1.19,1.19,1.19
				h32.48c0.66,0,1.2-0.53,1.2-1.19V7.21V7.16z"/>
		</g>
		<g>
			<path d="M9.19,6.3c2.4-0.91,5.33-1.43,8.25-1.43c2.9,0,5.85,0.52,8.24,1.43c2.4-0.91,5.26-1.34,8.1-1.34h1.1V1.19
				c0-0.66-0.54-1.19-1.2-1.19H1.19C0.53,0,0,0.53,0,1.19v3.76h1.1C3.94,4.95,6.8,5.39,9.19,6.3"/>
		</g>
		<g>
			<path d="M36.94,24.39v-2.35h1.04c0.21,0,0.37,0.03,0.48,0.07c0.1,0.04,0.19,0.11,0.26,0.22c0.07,0.11,0.1,0.23,0.1,0.36
				c0,0.16-0.05,0.3-0.17,0.42c-0.1,0.11-0.26,0.18-0.49,0.22c0.08,0.04,0.14,0.07,0.19,0.11c0.09,0.08,0.18,0.19,0.26,0.31
				l0.4,0.64h-0.39L38.3,23.9c-0.09-0.14-0.16-0.24-0.22-0.32c-0.06-0.07-0.11-0.13-0.16-0.16c-0.04-0.03-0.09-0.05-0.15-0.07
				c-0.03-0.01-0.09-0.01-0.17-0.01h-0.35v1.05H36.94z M37.26,23.08h0.66c0.14,0,0.26-0.01,0.32-0.04c0.09-0.03,0.15-0.08,0.2-0.15
				c0.03-0.06,0.05-0.13,0.05-0.2c0-0.11-0.03-0.21-0.12-0.27c-0.07-0.07-0.21-0.11-0.38-0.11h-0.74V23.08z"/>
		</g>
		<g>
			<path d="M37.8,25.36c-1.21,0-2.19-0.94-2.19-2.11c0-1.15,0.98-2.09,2.19-2.09c1.21,0,2.19,0.94,2.19,2.09
				C40,24.41,39.01,25.36,37.8,25.36 M37.8,21.56c-0.98,0-1.78,0.76-1.78,1.69c0,0.94,0.8,1.69,1.78,1.69
				c0.99,0,1.78-0.76,1.78-1.69C39.59,22.33,38.79,21.56,37.8,21.56"/>
		</g>
	</g>
	<g>
		<path class="st0" d="M51.95,8.55c0.29-1.5,0.76-2.81,1.42-3.92c0.66-1.12,1.53-2,2.61-2.66c1.08-0.66,2.4-0.99,3.96-0.99
			c1.73,0,3.14,0.33,4.23,0.99c1.09,0.66,1.95,1.55,2.57,2.66c0.62,1.12,1.05,2.42,1.28,3.92c0.23,1.5,0.34,3.1,0.34,4.81
			c0,1.66-0.17,3.23-0.5,4.72c-0.34,1.49-0.85,2.8-1.53,3.92s-1.55,2.02-2.61,2.66c-1.06,0.65-2.32,0.97-3.78,0.97
			c-1.73,0-3.14-0.31-4.23-0.94c-1.09-0.62-1.95-1.49-2.57-2.61c-0.62-1.12-1.05-2.42-1.28-3.92s-0.34-3.1-0.34-4.81
			S51.67,10.05,51.95,8.55z M54.74,17.79c0.18,1.37,0.49,2.56,0.92,3.56c0.43,1.01,1,1.8,1.69,2.38c0.7,0.58,1.56,0.86,2.59,0.86
			c1.03,0,1.9-0.29,2.59-0.86c0.7-0.58,1.26-1.37,1.69-2.38c0.43-1.01,0.74-2.2,0.92-3.56s0.27-2.84,0.27-4.43s-0.09-3.06-0.27-4.43
			c-0.18-1.37-0.49-2.56-0.92-3.56c-0.43-1.01-1-1.8-1.69-2.38c-0.7-0.58-1.56-0.86-2.59-0.86c-1.03,0-1.9,0.26-2.59,0.79
			c-0.7,0.53-1.26,1.28-1.69,2.27c-0.43,0.98-0.74,2.17-0.92,3.55c-0.18,1.38-0.27,2.92-0.27,4.63
			C54.47,14.94,54.56,16.42,54.74,17.79z"/>
		<path class="st0" d="M74.42,5.66c-0.26-0.48-0.62-0.86-1.08-1.15V4.25c1.37-0.55,2.77-1.16,4.19-1.82
			c1.43-0.66,2.77-1.3,4.01-1.93l0.25,0.18c-0.1,1.58-0.17,3.15-0.22,4.7c-0.05,1.55-0.07,3.11-0.07,4.7v6.01
			c0,1.58,0.02,3.14,0.07,4.66c0.05,1.52,0.12,3.02,0.22,4.48c-0.29-0.05-0.57-0.07-0.85-0.07c-0.28,0-0.56,0-0.85,0s-0.57,0-0.85,0
			c-0.28,0-0.56,0.02-0.85,0.07c0.12-1.49,0.2-2.99,0.23-4.5c0.04-1.51,0.05-3.06,0.05-4.64V3.28L74.42,5.66z"/>
		<path class="st0" d="M95.01,1.84c1.06-0.58,2.34-0.86,3.85-0.86c0.94,0,1.82,0.12,2.66,0.36c0.84,0.24,1.57,0.62,2.18,1.15
			c0.61,0.53,1.1,1.19,1.46,1.98s0.54,1.75,0.54,2.88c0,0.82-0.1,1.58-0.29,2.29c-0.19,0.71-0.47,1.4-0.85,2.07
			c-0.37,0.67-0.84,1.35-1.4,2.03c-0.56,0.68-1.23,1.41-2,2.18c-0.46,0.46-0.98,0.98-1.58,1.58c-0.6,0.6-1.21,1.22-1.82,1.85
			c-0.61,0.64-1.19,1.27-1.75,1.89c-0.55,0.62-1.02,1.2-1.4,1.73h3.42c1.73,0,3.26-0.03,4.59-0.09c1.33-0.06,2.5-0.13,3.51-0.2
			c-0.12,0.53-0.18,0.97-0.18,1.33c0,0.34,0.06,0.74,0.18,1.22c-1.3-0.05-2.58-0.07-3.85-0.07c-1.27,0-2.56,0-3.85,0s-2.59,0-3.87,0
			c-1.28,0-2.57,0.02-3.87,0.07v-0.43c1.68-1.66,3.14-3.11,4.37-4.37c1.24-1.26,2.29-2.39,3.15-3.4c0.86-1.01,1.57-1.92,2.11-2.74
			c0.54-0.82,0.97-1.59,1.28-2.32c0.31-0.73,0.52-1.45,0.63-2.16c0.11-0.71,0.16-1.47,0.16-2.29c0-1.78-0.4-3.09-1.21-3.94
			c-0.8-0.85-1.75-1.28-2.83-1.28c-0.77,0-1.43,0.14-1.98,0.41C95.82,3,95.37,3.33,95.01,3.73c-0.36,0.4-0.64,0.82-0.83,1.28
			c-0.19,0.46-0.32,0.86-0.4,1.22L93.53,6.3l-1.26-1.76C93.04,3.32,93.95,2.42,95.01,1.84z"/>
		<path class="st0" d="M112,8.55c0.29-1.5,0.76-2.81,1.42-3.92c0.66-1.12,1.53-2,2.61-2.66c1.08-0.66,2.4-0.99,3.96-0.99
			c1.73,0,3.14,0.33,4.23,0.99c1.09,0.66,1.95,1.55,2.57,2.66c0.62,1.12,1.05,2.42,1.28,3.92c0.23,1.5,0.34,3.1,0.34,4.81
			c0,1.66-0.17,3.23-0.5,4.72c-0.34,1.49-0.85,2.8-1.53,3.92s-1.55,2.02-2.61,2.66c-1.06,0.65-2.32,0.97-3.78,0.97
			c-1.73,0-3.14-0.31-4.23-0.94c-1.09-0.62-1.95-1.49-2.57-2.61c-0.62-1.12-1.05-2.42-1.28-3.92s-0.34-3.1-0.34-4.81
			S111.71,10.05,112,8.55z M114.79,17.79c0.18,1.37,0.49,2.56,0.92,3.56c0.43,1.01,1,1.8,1.69,2.38c0.7,0.58,1.56,0.86,2.59,0.86
			c1.03,0,1.9-0.29,2.59-0.86c0.7-0.58,1.26-1.37,1.69-2.38c0.43-1.01,0.74-2.2,0.92-3.56s0.27-2.84,0.27-4.43s-0.09-3.06-0.27-4.43
			c-0.18-1.37-0.49-2.56-0.92-3.56s-1-1.8-1.69-2.38c-0.7-0.58-1.56-0.86-2.59-0.86c-1.03,0-1.9,0.26-2.59,0.79
			c-0.7,0.53-1.26,1.28-1.69,2.27c-0.43,0.98-0.74,2.17-0.92,3.55c-0.18,1.38-0.27,2.92-0.27,4.63
			C114.52,14.94,114.61,16.42,114.79,17.79z"/>
		<path class="st0" d="M140.48,15.74v2.23h-8.96v-2.23H140.48z"/>
		<path class="st0" d="M146.45,5.66c-0.26-0.48-0.62-0.86-1.08-1.15V4.25c1.37-0.55,2.77-1.16,4.19-1.82
			c1.43-0.66,2.77-1.3,4.01-1.93l0.25,0.18c-0.1,1.58-0.17,3.15-0.22,4.7c-0.05,1.55-0.07,3.11-0.07,4.7v6.01
			c0,1.58,0.02,3.14,0.07,4.66c0.05,1.52,0.12,3.02,0.22,4.48c-0.29-0.05-0.57-0.07-0.85-0.07c-0.28,0-0.56,0-0.85,0s-0.57,0-0.85,0
			c-0.28,0-0.56,0.02-0.85,0.07c0.12-1.49,0.2-2.99,0.23-4.5c0.04-1.51,0.05-3.06,0.05-4.64V3.28L146.45,5.66z"/>
		<path class="st0" d="M167.04,1.84c1.06-0.58,2.34-0.86,3.85-0.86c0.94,0,1.82,0.12,2.66,0.36c0.84,0.24,1.57,0.62,2.18,1.15
			s1.1,1.19,1.46,1.98c0.36,0.79,0.54,1.75,0.54,2.88c0,0.82-0.1,1.58-0.29,2.29c-0.19,0.71-0.47,1.4-0.85,2.07
			c-0.37,0.67-0.84,1.35-1.4,2.03c-0.56,0.68-1.23,1.41-2,2.18c-0.46,0.46-0.98,0.98-1.58,1.58c-0.6,0.6-1.21,1.22-1.82,1.85
			c-0.61,0.64-1.19,1.27-1.75,1.89s-1.02,1.2-1.4,1.73h3.42c1.73,0,3.26-0.03,4.59-0.09c1.33-0.06,2.5-0.13,3.51-0.2
			c-0.12,0.53-0.18,0.97-0.18,1.33c0,0.34,0.06,0.74,0.18,1.22c-1.3-0.05-2.58-0.07-3.85-0.07c-1.27,0-2.56,0-3.85,0s-2.59,0-3.87,0
			s-2.57,0.02-3.87,0.07v-0.43c1.68-1.66,3.14-3.11,4.37-4.37c1.24-1.26,2.29-2.39,3.15-3.4s1.57-1.92,2.11-2.74
			c0.54-0.82,0.97-1.59,1.28-2.32c0.31-0.73,0.52-1.45,0.63-2.16c0.11-0.71,0.16-1.47,0.16-2.29c0-1.78-0.4-3.09-1.21-3.94
			c-0.8-0.85-1.75-1.28-2.83-1.28c-0.77,0-1.43,0.14-1.98,0.41c-0.55,0.28-1.01,0.61-1.37,1.01c-0.36,0.4-0.64,0.82-0.83,1.28
			c-0.19,0.46-0.32,0.86-0.4,1.22l-0.25,0.07l-1.26-1.76C165.08,3.32,165.99,2.42,167.04,1.84z"/>
		<path class="st0" d="M196.85,2.38c-0.26-0.07-0.54-0.13-0.83-0.18s-0.64-0.07-1.04-0.07c-0.94,0-1.78,0.2-2.52,0.59
			c-0.74,0.4-1.4,0.92-1.98,1.58c-0.58,0.66-1.07,1.42-1.48,2.27c-0.41,0.85-0.74,1.73-1.01,2.65c-0.26,0.91-0.46,1.81-0.58,2.68
			s-0.18,1.69-0.18,2.43h0.07c0.24-0.41,0.53-0.82,0.86-1.22s0.74-0.78,1.21-1.12s1.01-0.61,1.62-0.83s1.31-0.32,2.11-0.32
			c0.62,0,1.34,0.1,2.16,0.29c0.82,0.19,1.59,0.54,2.32,1.04c0.73,0.5,1.35,1.19,1.85,2.07c0.5,0.88,0.76,2,0.76,3.37
			c0,1.2-0.19,2.3-0.56,3.29s-0.91,1.85-1.6,2.56c-0.7,0.71-1.54,1.25-2.52,1.62s-2.09,0.56-3.31,0.56c-1.03,0-2.03-0.17-2.99-0.52
			s-1.81-0.93-2.54-1.75c-0.73-0.82-1.31-1.88-1.75-3.19c-0.43-1.31-0.65-2.91-0.65-4.81c0-1.99,0.23-3.87,0.7-5.63
			c0.47-1.76,1.15-3.3,2.05-4.61c0.9-1.31,2.02-2.33,3.35-3.08c1.33-0.74,2.86-1.1,4.59-1.08c0.41,0,0.71,0.01,0.92,0.02
			s0.4,0.04,0.59,0.09l0.54,1.15L196.85,2.38z M195.9,13.9c-0.76-1.15-1.9-1.73-3.44-1.73c-0.7,0-1.35,0.15-1.96,0.45
			c-0.61,0.3-1.14,0.73-1.58,1.28c-0.44,0.55-0.8,1.21-1.06,1.96c-0.26,0.76-0.4,1.59-0.4,2.5s0.12,1.75,0.36,2.52
			c0.24,0.77,0.58,1.43,1.01,1.98c0.43,0.55,0.94,0.98,1.53,1.28c0.59,0.3,1.22,0.45,1.89,0.45c0.77,0,1.45-0.15,2.03-0.45
			c0.59-0.3,1.09-0.73,1.49-1.28s0.72-1.21,0.94-1.98c0.22-0.77,0.32-1.61,0.32-2.52C197.03,16.54,196.65,15.05,195.9,13.9z"/>
		<path class="st0" d="M212.51,15.74v2.23h-8.96v-2.23H212.51z"/>
		<path class="st0" d="M221.28,11.04c0.56-0.18,1.39-0.27,2.47-0.27c1.06,0,2.01,0.18,2.86,0.54c0.85,0.36,1.58,0.85,2.18,1.48
			s1.06,1.34,1.39,2.16c0.32,0.81,0.49,1.68,0.49,2.59c0,1.13-0.22,2.19-0.65,3.19c-0.43,1-1.04,1.86-1.84,2.59
			c-0.79,0.73-1.73,1.3-2.83,1.71c-1.09,0.41-2.31,0.61-3.65,0.61c-1.08,0-2.12-0.09-3.11-0.27c-1-0.18-1.88-0.53-2.65-1.06v-0.29
			c0.12-0.31,0.23-0.67,0.32-1.06c0.1-0.4,0.17-0.74,0.22-1.03h0.25c0.22,0.43,0.51,0.82,0.88,1.15s0.79,0.62,1.26,0.85
			c0.47,0.23,0.96,0.4,1.48,0.5c0.52,0.11,1.01,0.16,1.49,0.16c0.72,0,1.41-0.13,2.07-0.4s1.24-0.67,1.75-1.22
			c0.5-0.55,0.91-1.25,1.22-2.09c0.31-0.84,0.47-1.82,0.47-2.95c0-1.01-0.14-1.87-0.43-2.59c-0.29-0.72-0.67-1.31-1.13-1.76
			c-0.47-0.46-1-0.79-1.6-0.99c-0.6-0.2-1.22-0.31-1.87-0.31c-1.01,0-1.82,0.16-2.45,0.49c-0.62,0.32-1.04,0.56-1.26,0.7l-0.4-0.25
			c0.17-0.94,0.27-1.93,0.31-2.97s0.05-2.08,0.05-3.11c0-1.01-0.02-2.05-0.05-3.11c-0.04-1.07-0.11-2.01-0.23-2.83l0.32-0.22
			c0.41,0.07,1.08,0.14,2.02,0.22c1.06,0.07,2.52,0.11,4.39,0.11c1.15,0,2.17-0.01,3.06-0.02c0.89-0.01,1.55-0.03,1.98-0.05
			l0.18,0.14c-0.1,0.31-0.16,0.64-0.2,0.99c-0.04,0.35-0.05,0.69-0.05,1.03c0,0.34,0.01,0.54,0.04,0.61
			c-0.53-0.1-1.23-0.17-2.11-0.23c-0.88-0.06-1.79-0.11-2.75-0.14s-1.88-0.06-2.77-0.07c-0.89-0.01-1.61-0.02-2.16-0.02l-0.5,8.17
			C220.19,11.44,220.71,11.22,221.28,11.04z"/>
		<path class="st0" d="M241.29,11.04c0.56-0.18,1.39-0.27,2.47-0.27c1.06,0,2.01,0.18,2.86,0.54c0.85,0.36,1.58,0.85,2.18,1.48
			s1.06,1.34,1.39,2.16c0.32,0.81,0.49,1.68,0.49,2.59c0,1.13-0.22,2.19-0.65,3.19c-0.43,1-1.04,1.86-1.84,2.59
			c-0.79,0.73-1.73,1.3-2.83,1.71c-1.09,0.41-2.31,0.61-3.65,0.61c-1.08,0-2.12-0.09-3.11-0.27c-1-0.18-1.88-0.53-2.65-1.06v-0.29
			c0.12-0.31,0.23-0.67,0.32-1.06c0.09-0.4,0.17-0.74,0.22-1.03h0.25c0.22,0.43,0.51,0.82,0.88,1.15s0.79,0.62,1.26,0.85
			c0.47,0.23,0.96,0.4,1.48,0.5c0.52,0.11,1.01,0.16,1.49,0.16c0.72,0,1.41-0.13,2.07-0.4s1.24-0.67,1.75-1.22
			c0.5-0.55,0.91-1.25,1.22-2.09c0.31-0.84,0.47-1.82,0.47-2.95c0-1.01-0.14-1.87-0.43-2.59c-0.29-0.72-0.67-1.31-1.13-1.76
			s-1-0.79-1.6-0.99c-0.6-0.2-1.22-0.31-1.87-0.31c-1.01,0-1.82,0.16-2.45,0.49c-0.62,0.32-1.04,0.56-1.26,0.7l-0.4-0.25
			c0.17-0.94,0.27-1.93,0.31-2.97c0.04-1.04,0.05-2.08,0.05-3.11c0-1.01-0.02-2.05-0.05-3.11c-0.04-1.07-0.11-2.01-0.23-2.83
			l0.32-0.22c0.41,0.07,1.08,0.14,2.02,0.22c1.06,0.07,2.52,0.11,4.39,0.11c1.15,0,2.17-0.01,3.06-0.02
			c0.89-0.01,1.55-0.03,1.98-0.05l0.18,0.14c-0.1,0.31-0.16,0.64-0.2,0.99s-0.05,0.69-0.05,1.03c0,0.34,0.01,0.54,0.04,0.61
			c-0.53-0.1-1.23-0.17-2.11-0.23c-0.88-0.06-1.79-0.11-2.75-0.14s-1.88-0.06-2.77-0.07c-0.89-0.01-1.61-0.02-2.16-0.02l-0.5,8.17
			C240.21,11.44,240.73,11.22,241.29,11.04z"/>
		<path class="st0" d="M268.89,2.38c-0.26-0.07-0.54-0.13-0.83-0.18s-0.64-0.07-1.04-0.07c-0.94,0-1.78,0.2-2.52,0.59
			c-0.74,0.4-1.4,0.92-1.98,1.58c-0.58,0.66-1.07,1.42-1.48,2.27c-0.41,0.85-0.74,1.73-1.01,2.65c-0.26,0.91-0.46,1.81-0.58,2.68
			c-0.12,0.88-0.18,1.69-0.18,2.43h0.07c0.24-0.41,0.53-0.82,0.86-1.22c0.34-0.41,0.74-0.78,1.21-1.12
			c0.47-0.34,1.01-0.61,1.62-0.83c0.61-0.22,1.31-0.32,2.11-0.32c0.62,0,1.34,0.1,2.16,0.29c0.82,0.19,1.59,0.54,2.32,1.04
			c0.73,0.5,1.35,1.19,1.85,2.07s0.76,2,0.76,3.37c0,1.2-0.19,2.3-0.56,3.29s-0.91,1.85-1.6,2.56s-1.54,1.25-2.52,1.62
			c-0.98,0.37-2.09,0.56-3.31,0.56c-1.03,0-2.03-0.17-2.99-0.52c-0.96-0.35-1.81-0.93-2.54-1.75c-0.73-0.82-1.31-1.88-1.75-3.19
			c-0.43-1.31-0.65-2.91-0.65-4.81c0-1.99,0.23-3.87,0.7-5.63c0.47-1.76,1.15-3.3,2.05-4.61c0.9-1.31,2.02-2.33,3.35-3.08
			c1.33-0.74,2.86-1.1,4.59-1.08c0.41,0,0.71,0.01,0.92,0.02s0.4,0.04,0.59,0.09l0.54,1.15L268.89,2.38z M267.93,13.9
			c-0.76-1.15-1.9-1.73-3.44-1.73c-0.7,0-1.35,0.15-1.96,0.45c-0.61,0.3-1.14,0.73-1.58,1.28s-0.8,1.21-1.06,1.96
			c-0.26,0.76-0.4,1.59-0.4,2.5s0.12,1.75,0.36,2.52c0.24,0.77,0.58,1.43,1.01,1.98c0.43,0.55,0.94,0.98,1.53,1.28
			c0.59,0.3,1.22,0.45,1.89,0.45c0.77,0,1.45-0.15,2.03-0.45c0.59-0.3,1.09-0.73,1.49-1.28s0.72-1.21,0.94-1.98
			c0.22-0.77,0.32-1.61,0.32-2.52C269.07,16.54,268.69,15.05,267.93,13.9z"/>
	</g>
</g>
</svg>
