<?xml version="1.0" encoding="utf-8"?>
<!-- Generator: Adobe Illustrator 24.0.0, SVG Export Plug-In . SVG Version: 6.00 Build 0)  -->
<svg version="1.1" id="Layer_1" xmlns="http://www.w3.org/2000/svg" xmlns:xlink="http://www.w3.org/1999/xlink" x="0px" y="0px"
	 viewBox="0 0 232.5 13.97" style="enable-background:new 0 0 232.5 13.97;" xml:space="preserve">
<style type="text/css">
	.st0{fill:#231815;}
</style>
<g>
	<g>
		<path class="st0" d="M16.02,1.18c0.81-0.03,2.1-0.09,2.81,0.02c1.41,0.22,2.09,1.08,2.09,2.41c0,1.48-1.04,2.44-2.44,2.72
			c-0.97,0.19-2.18,0.12-2.45,0.1V1.18z M14.34,13.51c0.27-0.01,0.55-0.07,0.83-0.07c0.27,0,0.54,0.06,0.84,0.07V7.15h0.72
			l1.52,1.78l2.25,2.92c0.39,0.52,0.78,1.06,1.19,1.65c0.34-0.01,0.73-0.07,1.08-0.07c0.37,0,0.72,0.06,1.13,0.07l-0.37-0.47
			l-0.92-1.08L18.7,7c1.93-0.35,3.92-1.41,3.92-3.62c0-1.93-1.32-2.89-4.24-2.89h-4.03V13.51z"/>
		<path class="st0" d="M26.39,6.17h2.97c0.58,0,1.12-0.07,1.71-0.09C31.06,6.25,31,6.4,31,6.58c0,0.15,0.06,0.34,0.07,0.53
			c-0.59-0.01-1.13-0.08-1.71-0.08h-2.97v5.6c1.16,0.03,2.3-0.04,3.47-0.09c0.59,0,1.16-0.07,1.76-0.18
			c-0.02,0.22-0.05,0.39-0.05,0.58c0,0.2,0.03,0.39,0.05,0.56H24.7V0.48h6.8c-0.01,0.2-0.05,0.38-0.05,0.58
			c0,0.19,0.04,0.37,0.05,0.55c-0.57-0.11-1.14-0.16-1.72-0.2l-1.93-0.05h-1.48V6.17z"/>
		<path class="st0" d="M34.93,6.17h2.98c0.56,0,1.11-0.07,1.68-0.09c-0.01,0.17-0.05,0.32-0.05,0.5c0,0.15,0.05,0.34,0.05,0.53
			c-0.57-0.01-1.13-0.08-1.68-0.08h-2.98v5.6c1.17,0.03,2.32-0.04,3.46-0.09c0.6,0,1.18-0.07,1.77-0.18
			c-0.02,0.22-0.05,0.39-0.05,0.58c0,0.2,0.04,0.39,0.05,0.56h-6.91V0.48h6.8c-0.01,0.2-0.05,0.38-0.05,0.58
			c0,0.19,0.04,0.37,0.05,0.55c-0.58-0.11-1.15-0.16-1.73-0.2L36.4,1.36h-1.47V6.17z"/>
		<path class="st0" d="M52.61,13.51h-0.59c-0.22-0.28-0.58-0.74-0.98-1.16l-8.23-9.11h-0.19v10.27c-0.17-0.01-0.36-0.07-0.53-0.07
			c-0.18,0-0.36,0.06-0.52,0.07V0.47h0.73l9.05,9.82h0.19V0.47c0.17,0,0.34,0.05,0.54,0.05c0.17,0,0.34-0.04,0.54-0.05V13.51z"/>
		<path class="st0" d="M60.5,1.21c0.57-0.04,1.92-0.07,2.74,0.02c1.51,0.12,2.15,1.15,2.15,2.44c0,1.71-1.11,2.92-3,3.1
			c-0.65,0.06-1.41,0.06-1.88,0V1.21z M60.5,7.53c0.47,0,1.71,0.14,2.57-0.05c2.68-0.53,4.07-1.56,4.07-3.88
			c0-2.31-1.21-3.12-4.9-3.12h-3.43v13.03c0.26-0.01,0.56-0.07,0.85-0.07c0.26,0,0.53,0.06,0.84,0.07V7.53z"/>
		<path class="st0" d="M72.47,7.69h-4.1l2.04-4.77L72.47,7.69z M71.08,0.48h-0.43l-5.82,13.03c0.19-0.01,0.4-0.07,0.66-0.07
			c0.22,0,0.43,0.05,0.67,0.07c0.52-1.75,1.21-3.39,1.85-5.04h4.75c0.74,1.7,1.41,3.49,1.95,5.04c0.31-0.01,0.62-0.07,0.99-0.07
			c0.3,0,0.61,0.05,0.96,0.07L71.08,0.48z"/>
		<path class="st0" d="M79.34,1.18c0.81-0.03,2.1-0.09,2.81,0.02c1.44,0.22,2.09,1.08,2.09,2.41c0,1.48-1.05,2.44-2.42,2.72
			c-1,0.19-2.21,0.12-2.48,0.1V1.18z M77.65,13.51c0.29-0.01,0.57-0.07,0.85-0.07c0.28,0,0.53,0.06,0.84,0.07V7.15h0.73l1.53,1.79
			l2.24,2.92c0.4,0.52,0.79,1.06,1.2,1.65c0.35-0.01,0.73-0.07,1.1-0.07c0.36,0,0.69,0.06,1.12,0.07l-0.37-0.47l-0.93-1.08
			l-3.93-4.96c1.92-0.35,3.91-1.41,3.91-3.62c0-1.93-1.3-2.89-4.23-2.89h-4.06V13.51z"/>
		<path class="st0" d="M92.88,4.62l-1.63,1.65c1.52,1.75,3.11,3.46,4.63,5.23l1.56,1.91v0.09c-0.39-0.01-0.74-0.07-1.07-0.07
			c-0.35,0-0.71,0.06-1.06,0.07c-0.42-0.61-0.84-1.18-1.32-1.73l-4.15-4.86c-0.1-0.08-0.32-0.14-0.32-0.05v6.64
			c-0.31-0.01-0.57-0.07-0.85-0.07c-0.29,0-0.56,0.06-0.83,0.07V0.48c0.27,0,0.54,0.05,0.83,0.05c0.27,0,0.54-0.04,0.85-0.05v5.89
			c0.02,0.11,0.28,0.03,0.46-0.12c0.35-0.26,0.75-0.67,1.02-0.93l4.7-4.84c0.24,0,0.49,0.05,0.76,0.05c0.23,0,0.48-0.04,0.74-0.05
			L92.88,4.62z"/>
		<path class="st0" d="M12,2.65c-1.1-1.25-2.74-1.89-4.42-1.89c-3.33,0-5.65,2.18-5.65,6.15c0,3.89,2.01,6.3,5.89,6.3
			c1.04,0,2.15-0.19,3.05-0.67V7.51c0.28,0.02,0.56,0.07,0.86,0.07c0.27,0,0.56-0.05,0.87-0.07v5.56c-1.71,0.58-3.51,0.9-5.33,0.9
			C2.29,13.97,0,10.99,0,7.02c0-4.6,3.3-7.02,7.65-7.02c2.94,0,4.58,0.86,5.01,1.14c-0.18,0.49-0.3,1-0.44,1.5H12z"/>
	</g>
	<g>
		<path d="M114.49,3.52c-0.6,2.24-1.64,4.19-3.22,5.76c1.58,1.19,3.53,2,5.66,2.51l-0.03,0.17c-0.67,0.07-1.19,0.48-1.46,1.13
			c-2.02-0.67-3.73-1.64-5.08-3c-1.61,1.3-3.7,2.31-6.35,2.97l-0.08-0.17c2.42-0.9,4.33-2.09,5.76-3.54
			c-1.23-1.49-2.13-3.4-2.62-5.83h-2.93l-0.11-0.41h5.7V0.1l1.89,0.17c-0.03,0.2-0.15,0.34-0.52,0.38v2.47h3.31l0.88-1.15
			c0,0,0.99,0.8,1.57,1.33c-0.04,0.15-0.18,0.22-0.39,0.22H114.49z M107.36,3.52c0.59,2.1,1.64,3.75,3.04,5.04
			c1.22-1.49,2-3.18,2.42-5.04H107.36z"/>
		<path d="M122.78,9.5c-0.08,0.14-0.21,0.21-0.52,0.14c-0.94,0.97-2.56,2.07-4.29,2.72l-0.13-0.18c1.36-0.94,2.73-2.45,3.38-3.57
			L122.78,9.5z M129.25,0.97c0,0,1,0.76,1.58,1.3c-0.04,0.15-0.18,0.22-0.39,0.22h-12.24l-0.11-0.41h5.62V0.07l1.88,0.17
			c-0.01,0.2-0.14,0.34-0.5,0.39v1.46h3.31L129.25,0.97z M125.09,7.4v3.98c0,0.95-0.25,1.58-1.93,1.72
			c-0.03-0.41-0.11-0.73-0.32-0.94c-0.22-0.21-0.59-0.36-1.33-0.46v-0.2c0,0,1.57,0.1,1.89,0.1c0.27,0,0.34-0.08,0.34-0.25V7.4
			h-2.09v0.46c0,0.13-0.6,0.42-1.16,0.42h-0.18V3.4l1.44,0.57h5.27l0.67-0.74l1.44,1.11c-0.1,0.11-0.31,0.22-0.6,0.29v3.1
			c-0.01,0.1-0.67,0.38-1.15,0.38h-0.22V7.4H125.09z M127.15,6.99V4.38h-5.5v2.61H127.15z M126.33,8.88
			c4.96,1.15,4.34,4.06,2.83,3.32c-0.56-1.05-1.93-2.38-2.96-3.21L126.33,8.88z"/>
		<path d="M143.34,4.61c0,0,1.01,0.78,1.63,1.36c-0.04,0.15-0.2,0.22-0.39,0.22h-5.44v6.46c0,0.1-0.48,0.42-1.18,0.42h-0.27V6.19
			h-5.57l-0.11-0.41h5.69V2.23c-1.53,0.14-3.12,0.24-4.66,0.24l-0.04-0.24c3.21-0.35,7.06-1.25,9.05-2.04l1.42,1.33
			c-0.14,0.13-0.43,0.14-0.87-0.01c-0.98,0.21-2.17,0.41-3.45,0.57v3.71h3.29L143.34,4.61z"/>
		<path d="M157.29,0.36c0,0,1.02,0.76,1.64,1.3c-0.04,0.15-0.2,0.22-0.39,0.22h-6.4c-0.48,1.4-1.2,2.77-2.14,4.03l0.56,0.22h5.48
			l0.69-0.78l1.48,1.15c-0.11,0.13-0.35,0.25-0.66,0.32v5.74c-0.03,0.11-0.7,0.38-1.15,0.38h-0.21v-1.25h-5.8v0.95
			c0,0.1-0.42,0.41-1.11,0.41h-0.22v-6c-0.92,1.02-1.99,1.92-3.17,2.66l-0.13-0.14c2.23-2.03,3.99-5.03,4.65-7.7h-4.23l-0.13-0.41
			h10.34L157.29,0.36z M150.38,6.56v4.75h5.8V6.56H150.38z"/>
		<path d="M165.38,9.61c0,0.03-0.03,0.06-0.07,0.1l1.37,0.66c-0.07,0.14-0.2,0.22-0.52,0.2c-0.53,0.84-1.46,1.88-2.56,2.51
			l-0.14-0.17c0.7-0.81,1.29-2.09,1.57-3.05c-0.17,0.07-0.39,0.11-0.66,0.11h-0.2V0.45L165.54,1h1.67l0.63-0.74l1.25,0.99
			c-0.1,0.11-0.25,0.21-0.57,0.27v7.87c0,0.08-0.45,0.35-1.04,0.35h-0.21V9.02h-1.89V9.61z M165.38,1.4v2.09h1.89V1.4H165.38z
			 M167.27,6.04V3.89h-1.89v2.14H167.27z M167.27,8.63V6.44h-1.89v2.18H167.27z M166.71,9.69c2.98,0.88,1.76,3.05,0.69,2.13
			c-0.06-0.7-0.46-1.53-0.84-2.05L166.71,9.69z M176.3,4.75c-0.11,0.14-0.25,0.17-0.55,0.21c-0.37,1.75-0.92,3.42-1.96,4.83
			c0.81,0.88,1.79,1.54,2.94,2.03l-0.04,0.14c-0.56,0.07-1.01,0.43-1.25,1.01c-0.98-0.63-1.75-1.37-2.37-2.3
			c-0.88,0.92-2,1.71-3.49,2.31l-0.13-0.17c1.33-0.8,2.35-1.82,3.11-3c-0.66-1.32-1.08-2.96-1.3-5.06h-0.41v0.42
			c0,2.56-0.21,5.77-2.83,7.89l-0.17-0.13c1.6-2.21,1.78-5.03,1.78-7.76V0.67l1.41,0.55h3.33l0.76-0.94c0,0,0.83,0.64,1.35,1.12
			c-0.04,0.15-0.18,0.22-0.38,0.22h-5.25v2.73h3.42l0.74-0.76L176.3,4.75z M171.55,4.76c0.27,1.7,0.8,3.05,1.54,4.15
			c0.64-1.26,1.05-2.68,1.29-4.15H171.55z"/>
		<path d="M177.43,12.87c3.82-1.22,4.37-3.39,4.19-5.87l1.97,0.18c-0.04,0.24-0.21,0.36-0.52,0.39c-0.13,2.55-1.01,4.55-5.56,5.49
			L177.43,12.87z M179.8,6.15c0.1,1.08-0.32,1.79-0.83,2.1c-0.45,0.28-1.04,0.22-1.22-0.24c-0.15-0.43,0.11-0.78,0.48-0.98
			c0.59-0.29,1.15-1.12,1.09-2.06h0.21c0.1,0.27,0.17,0.53,0.21,0.77h8.54l0.8-0.8l1.37,1.33c-0.11,0.11-0.27,0.14-0.54,0.15
			c-0.55,0.56-1.54,1.3-2.26,1.75l-0.14-0.1c0.27-0.52,0.59-1.32,0.8-1.93H179.8z M177.85,1.77h5.42V0.06l1.93,0.17
			c-0.03,0.21-0.17,0.36-0.56,0.42v1.12h3.4l0.81-1.04c0,0,0.91,0.7,1.46,1.21c-0.04,0.15-0.18,0.22-0.38,0.22h-5.29v1.71h2.54
			l0.8-1.04c0,0,0.92,0.71,1.47,1.22c-0.04,0.15-0.18,0.22-0.38,0.22h-9.96L179,3.87h4.27V2.16h-5.29L177.85,1.77z M190.12,11.42
			c0.38,0.15,0.48,0.29,0.48,0.55c0,0.57-0.56,0.81-2.79,0.81h-1.47c-1.28,0-1.55-0.25-1.55-1.19V6.99l1.72,0.17
			c-0.01,0.18-0.15,0.31-0.43,0.35v3.77c0,0.21,0.07,0.28,0.53,0.28h1.3c0.53,0,0.97,0,1.15-0.01c0.18-0.01,0.24-0.06,0.32-0.2
			c0.13-0.24,0.32-0.94,0.55-1.78h0.15L190.12,11.42z"/>
		<path d="M191.48,2.03c3.05,0.15,2.2,2.37,1.04,1.67c-0.17-0.56-0.69-1.2-1.15-1.57L191.48,2.03z M202.96,8.52
			c0,0,0.94,0.7,1.51,1.2c-0.04,0.15-0.18,0.22-0.39,0.22h-5.44v2.79c0,0.11-0.62,0.35-1.11,0.35h-0.25V9.95h-5.64l-0.11-0.41h5.76
			V8.22c-0.18,0.07-0.41,0.13-0.67,0.13h-0.22V3.68c-0.48,0.46-0.98,0.84-1.5,1.16l-0.18-0.15c0.99-1.06,1.96-2.82,2.49-4.69
			l1.74,0.67c-0.06,0.15-0.24,0.27-0.55,0.24c-0.17,0.36-0.36,0.7-0.57,1.02l0.06,0.01h1.61c0.17-0.57,0.34-1.3,0.44-1.86l1.82,0.46
			c-0.04,0.17-0.21,0.29-0.52,0.28c-0.31,0.34-0.79,0.76-1.25,1.12h2.02L202.76,1c0,0,0.87,0.66,1.39,1.13
			c-0.03,0.15-0.17,0.22-0.36,0.22h-3.05v1.3h1.09l0.69-0.88c0,0,0.78,0.6,1.27,1.06c-0.04,0.15-0.18,0.22-0.36,0.22h-2.69v1.33
			h1.12l0.69-0.88c0,0,0.78,0.62,1.26,1.06c-0.04,0.15-0.18,0.22-0.38,0.22h-2.69v1.39h1.64l0.76-0.97c0,0,0.83,0.67,1.34,1.15
			c-0.04,0.15-0.18,0.22-0.38,0.22h-6.4v0.35c0,0.03-0.07,0.11-0.2,0.18l1.54,0.15c-0.03,0.14-0.11,0.27-0.39,0.31v0.95h3.46
			L202.96,8.52z M192.38,5.59c0.2,0,0.25,0,0.42-0.22c0.32-0.38,0.32-0.38,2.87-3.84l0.21,0.1c-0.53,1-1.76,3.08-1.96,3.5
			c-0.15,0.32-0.28,0.69-0.27,0.95c0,0.48,0.42,0.85,0.38,1.68c-0.01,0.5-0.32,0.83-0.92,0.83c-0.27,0-0.48-0.2-0.55-0.55
			c0.15-1.12,0.08-1.82-0.21-1.99c-0.2-0.1-0.38-0.14-0.64-0.17V5.59H192.38z M192.63,0.14c3.08,0.27,2.17,2.48,1.02,1.75
			c-0.14-0.59-0.69-1.26-1.15-1.65L192.63,0.14z M197.69,2.35v1.3h1.78v-1.3H197.69z M199.47,4.06h-1.78v1.33h1.78V4.06z
			 M199.47,5.8h-1.78v1.39h1.78V5.8z"/>
		<path d="M208.52,4.16c-0.04,0.13-0.18,0.22-0.43,0.27v8.28c-0.01,0.1-0.52,0.36-0.99,0.36h-0.22v-7.4
			c-0.42,0.63-0.87,1.22-1.34,1.71l-0.2-0.11c0.97-1.81,1.93-4.57,2.42-7.21l1.85,0.56c-0.06,0.17-0.22,0.29-0.55,0.29
			c-0.34,1.06-0.73,2.07-1.19,3L208.52,4.16z M217.17,2.98c0,0,0.87,0.67,1.39,1.15c-0.03,0.15-0.18,0.22-0.38,0.22h-7.66v1.91
			c0,1.93-0.11,4.83-1.95,6.78l-0.18-0.14c0.95-2.04,0.98-4.54,0.98-6.64V3.42l1.34,0.53h5.69L217.17,2.98z M209.22,1.81h2.31V0.07
			l1.67,0.15c-0.01,0.2-0.13,0.34-0.46,0.38v1.21h1.84V0.07l1.67,0.15c-0.01,0.18-0.14,0.34-0.46,0.38v1.21h0.85l0.66-0.87
			c0,0,0.77,0.6,1.22,1.05c-0.03,0.15-0.17,0.22-0.36,0.22h-2.37v0.97c0,0.08-0.31,0.28-1,0.29h-0.21V2.21h-1.84v1.04
			c0,0.08-0.34,0.27-0.98,0.27h-0.22v-1.3h-2.21L209.22,1.81z M216.87,4.78l1.37,1.04c-0.1,0.11-0.31,0.22-0.57,0.29v5.37
			c0,0.91-0.17,1.42-1.51,1.54c-0.03-0.38-0.07-0.69-0.2-0.88c-0.11-0.18-0.32-0.32-0.77-0.39v-0.22c0,0,0.77,0.07,0.98,0.07
			c0.2,0,0.24-0.08,0.24-0.25V9.99h-1.57v2.58c0,0.08-0.35,0.34-0.91,0.34h-0.18V9.99h-1.55v2.65c0,0.13-0.45,0.38-0.95,0.38h-0.18
			V4.93l1.22,0.53h3.99L216.87,4.78z M212.19,5.87v1.62h1.55V5.87H212.19z M213.75,9.58V7.9h-1.55v1.68H213.75z M214.84,5.87v1.62
			h1.57V5.87H214.84z M216.41,9.58V7.9h-1.57v1.68H216.41z"/>
		<path d="M230.93,11.25c0,0,0.91,0.69,1.46,1.18c-0.03,0.15-0.18,0.22-0.39,0.22h-12.3l-0.11-0.41h5.69V9.89h-4.29l-0.11-0.41h4.4
			V7.52l1.86,0.15c-0.03,0.2-0.14,0.34-0.49,0.39v1.42h2.42l0.77-0.94c0,0,0.87,0.63,1.4,1.12c-0.04,0.15-0.18,0.22-0.38,0.22h-4.22
			v2.35h3.49L230.93,11.25z M221.57,2.28c0.03,0.87-0.27,1.48-0.66,1.78c-0.38,0.29-0.97,0.27-1.16-0.15
			c-0.15-0.39,0.07-0.77,0.42-0.98c0.48-0.31,0.97-1.12,0.92-1.95h0.21c0.11,0.32,0.18,0.62,0.22,0.9h3.74V0.06l1.89,0.17
			c-0.03,0.2-0.15,0.34-0.52,0.39v1.26h3.84l0.73-0.73l1.29,1.23c-0.11,0.11-0.27,0.13-0.55,0.15c-0.39,0.35-1.05,0.84-1.61,1.16
			c0.15,0.13,0.31,0.25,0.45,0.38c-0.04,0.15-0.18,0.22-0.38,0.22h-4.51c-0.64,0.8-1.43,1.64-2.19,2.23
			c1.51-0.07,3.31-0.17,5.15-0.29c-0.5-0.5-1.05-0.99-1.53-1.34l0.13-0.13c4.62,1.08,4.1,3.85,2.7,3.17
			c-0.22-0.43-0.59-0.91-1.01-1.39c-1.83,0.39-4.23,0.81-7.52,1.27c-0.1,0.17-0.24,0.28-0.39,0.31l-0.63-1.51
			c0.59,0,1.46-0.03,2.48-0.06c0.41-0.64,0.81-1.53,1.08-2.25h-2.65l-0.13-0.41h7.23l0.77-0.92c0,0,0.32,0.24,0.7,0.53
			c0.14-0.36,0.31-0.83,0.42-1.22H221.57z"/>
	</g>
</g>
</svg>
