<?xml version="1.0" encoding="utf-8"?>
<!-- Generator: Adobe Illustrator 26.4.1, SVG Export Plug-In . SVG Version: 6.00 Build 0)  -->
<svg version="1.1" id="Layer_1" xmlns="http://www.w3.org/2000/svg" xmlns:xlink="http://www.w3.org/1999/xlink" x="0px" y="0px"
	 viewBox="0 0 389.4 162.1" style="enable-background:new 0 0 389.4 162.1;" xml:space="preserve">
<style type="text/css">
	.st0{fill:#58595B;}
	.st1{fill:#231F20;}
	.st2{fill:#285B6E;}
	.st3{fill:none;stroke:#231F20;stroke-width:0.2835;}
	.st4{fill:#FFFFFF;}
</style>
<g>
	<g>
		<g>
			<path class="st0" d="M36.3,162.1c-0.5-0.4-2.3-2.1-2.3-4.7c0-2.7,1.8-4.4,2.3-4.7l0.1,0.1c-1.6,1.7-2,3.5-2,4.6
				c0,1.1,0.4,3,2,4.6L36.3,162.1z"/>
			<path class="st0" d="M46.1,161.5c-0.4,0-0.6,0-1.2,0c-2,0-2.4,0-3-0.1c-1.4-0.2-1.8-0.7-2.3-1.3c-0.1,0.2-0.3,0.4-0.5,0.6
				c-0.3,0.3-0.3,0.4-0.4,0.5c0,0,0,0.3-0.1,0.3c0,0,0,0.1-0.1,0.1c0,0-0.1,0-0.1-0.1l-0.5-0.7c0.3,0,0.4-0.1,0.5-0.1
				c0.3-0.1,0.6-0.3,0.9-0.5v-2.7c-0.6,0-1.1,0.1-1.4,0.1l-0.2-0.4c0.3,0,0.8,0.1,1.5,0.1l0.3-0.3c0,0,0.1-0.1,0.1-0.1
				c0,0,0,0,0.1,0.1l0.3,0.3c0,0,0.1,0.1,0.1,0.1c0,0,0,0.1-0.1,0.1c0,0-0.2,0.1-0.3,0.2v0.6c0,0.3,0,0.8,0,1.2c0,0.4,0,1,0.9,1.4
				c0.5,0.2,1,0.3,1.9,0.3c1.5,0,3.4-0.2,4.1-0.3l0,0C46.1,161,46.1,161.3,46.1,161.5z M39.5,154.8c-0.2,0-0.3-0.2-0.3-0.3
				c-0.1-0.5-0.4-0.9-0.7-1.3l0-0.1c1,0.3,1.3,0.9,1.3,1.3C39.9,154.8,39.6,154.8,39.5,154.8z M46,154c-0.1,0-0.2,0-0.3-0.1
				c-0.1,0.1-0.2,0.1-0.4,0.2c-0.3,0.2-0.4,0.2-0.4,0.3h-0.1c0.1-0.1,0.3-0.7,0.3-0.7h-3.8c0,0.7-0.3,1-0.6,1
				c-0.1,0-0.3-0.1-0.3-0.3c0-0.2,0-0.2,0.4-0.6c0.1-0.1,0.3-0.5,0.4-0.7h0c0.1,0.2,0.1,0.2,0.1,0.4h3.9l0.2-0.2
				c0,0,0.1-0.1,0.1-0.1c0,0,0.1,0,0.1,0.1l0.5,0.4c0,0,0.1,0.1,0.1,0.2C46.2,154,46.1,154,46,154z M46.4,159.3h-2.8
				c0,0.1,0,0.8,0,0.9c0,0.2-0.2,0.3-0.4,0.3c-0.1,0-0.2-0.1-0.2-0.2c0,0,0-0.2,0-0.3c0-0.1,0-0.6,0-0.7h-1c-0.2,0-0.8,0-1.3,0.1
				l-0.2-0.4c0.5,0,1.1,0.1,1.6,0.1H43l0-0.9h-1.1c0,0.1,0,0.2-0.1,0.3c-0.1,0.1-0.2,0.1-0.3,0.1c-0.2,0-0.2-0.1-0.2-0.2
				c0-0.2,0-1.2,0-1.5c0-0.4,0-0.8-0.1-1.2L42,156H43c0-0.1,0-0.6,0-0.7h-0.6c-0.2,0-0.8,0-1.3,0.1l-0.2-0.4c0.5,0,1.1,0.1,1.6,0.1
				H43c0-0.6,0-0.8-0.2-1.2l0.8,0.2c0.1,0,0.2,0,0.2,0.1c0,0.1-0.1,0.2-0.3,0.2c0,0.1,0,0.5,0,0.6h1.3l0.3-0.3
				c0.1-0.1,0.1-0.1,0.2-0.1c0,0,0.1,0,0.2,0.1l0.4,0.3c0,0,0.1,0.1,0.1,0.1c0,0.1-0.1,0.1-0.1,0.1h-2.3v0.7h1.2l0.1-0.1
				c0,0,0.1-0.1,0.1-0.1c0,0,0.1,0,0.1,0l0.4,0.3c0,0,0.1,0,0.1,0.1c0,0.1-0.1,0.1-0.3,0.2v0.8c0,0.1,0.1,0.9,0.1,0.9
				c0,0.1,0,0.4-0.4,0.4c-0.2,0-0.2-0.1-0.2-0.3h-1.2l0,0.9h1.8l0.3-0.4c0.1-0.1,0.1-0.1,0.2-0.1c0.1,0,0.1,0.1,0.2,0.1l0.4,0.4
				c0,0,0.1,0.1,0.1,0.1C46.6,159.3,46.5,159.3,46.4,159.3z M43,156.2h-1.2v0.8H43V156.2z M41.9,157.2v0.8H43l0-0.8H41.9z
				 M44.8,156.2h-1.3c0,0.1,0,0.5,0,0.6c0,0,0,0,0,0.2h1.3V156.2z M44.8,157.2h-1.3l0,0.8h1.2V157.2z"/>
			<path class="st0" d="M50.7,155.5c-0.1,0.2-0.3,0.5-0.7,0.9l0.1,0.1c0,0,0.1,0.1,0.1,0.1c0,0-0.2,0.2-0.2,0.3c0,0.8-0.1,2.2-0.1,3
				c0,0.2,0,1.2,0,1.4c0,0.2,0,0.4-0.4,0.4c-0.2,0-0.2-0.1-0.2-0.2c0-0.3,0.1-0.7,0.1-1c0-0.8,0-1.1,0.1-3.6
				c-0.1,0.1-1.2,1.2-2.1,1.5l0,0c1.4-1.2,2.2-2.3,2.7-3.1c0.1-0.2,0.1-0.2,0.2-0.6l0.7,0.6c0,0,0.1,0.1,0.1,0.1
				C51.2,155.5,51.1,155.5,50.7,155.5z M50.4,153.6c-1.2,1.3-2.1,1.7-2.8,1.9l0-0.1c1.2-0.9,1.9-1.8,2.2-2.1
				c0.2-0.2,0.2-0.3,0.3-0.6l0.6,0.6c0,0,0.1,0.1,0.1,0.1C50.8,153.6,50.8,153.6,50.4,153.6z M56.4,156.4h-1.9c0,2.8,0,3.1,0,3.8
				c0,0.1,0,0.6,0,0.7c0,0.7-0.9,0.9-1,0.9c-0.1-0.5-0.7-0.8-0.9-0.8v-0.1c0.3,0,0.7,0,1.1,0c0.1,0,0.2,0,0.2-0.2c0-0.1,0-3.8,0-4.3
				h-1.5c-0.2,0-0.8,0-1.3,0.1l-0.2-0.4c0.5,0,1.1,0.1,1.6,0.1h2.7l0.3-0.4c0-0.1,0.1-0.1,0.2-0.1c0.1,0,0.1,0.1,0.2,0.1l0.5,0.4
				c0.1,0,0.1,0.1,0.1,0.2C56.6,156.4,56.5,156.4,56.4,156.4z M55.9,153.9H53c-0.3,0-0.9,0-1.3,0.1l-0.2-0.4
				c0.7,0.1,1.5,0.1,1.6,0.1h1.6l0.3-0.4c0.1-0.1,0.1-0.1,0.2-0.1c0,0,0.1,0.1,0.2,0.1l0.5,0.4c0,0,0.1,0.1,0.1,0.1
				C56,153.8,55.9,153.9,55.9,153.9z"/>
			<path class="st0" d="M65.7,156.9c-1.3-0.5-2.8-1.9-3.6-3.5c-0.1,0-0.1,0-0.2,0c-1.3,2-3.2,3.5-4.5,4l0-0.1
				c1.3-0.8,2.6-2.2,3.7-3.8c0.3-0.4,0.3-0.5,0.3-0.7l0.9,0.3c0.1,0,0.2,0.1,0.2,0.2c0,0.1-0.1,0.1-0.2,0.2c0.6,1,2.1,2.4,4.3,2.8
				v0.1C66.3,156.4,66,156.5,65.7,156.9z M65.7,158.3h-4c-0.1,0.2-0.1,0.3-0.3,0.5c-0.4,0.7-0.8,1.3-1.3,1.9c1.1-0.1,1.2-0.1,4-0.4
				c-0.3-0.5-0.6-1-1.1-1.4l0.1-0.1c2.2,1.1,2.3,2.3,2.3,2.4c0,0.2-0.1,0.4-0.4,0.4c-0.3,0-0.4-0.2-0.4-0.4
				c-0.1-0.4-0.2-0.6-0.4-0.9c-3.5,0.8-4,0.9-5.1,1c-0.1,0.2-0.1,0.2-0.2,0.2c0,0-0.1,0-0.1-0.1l-0.4-0.9c0.3,0,0.5,0.1,0.7,0.1
				c0.3,0,0.6,0,0.9,0c0.3-0.8,0.6-1.6,0.9-2.4h-1.3c-0.2,0-0.8,0-1.3,0.1L58,158c0.5,0,1.1,0.1,1.6,0.1h4.8l0.5-0.5
				c0.1-0.1,0.1-0.1,0.1-0.1c0.1,0,0.1,0.1,0.2,0.1l0.6,0.5c0,0,0.1,0.1,0.1,0.1C65.9,158.3,65.8,158.3,65.7,158.3z M63.6,156.6
				h-2.4c-0.3,0-0.9,0-1.3,0.1l-0.2-0.4c0.7,0.1,1.4,0.1,1.6,0.1h1.1l0.4-0.4c0.1-0.1,0.1-0.1,0.2-0.1c0,0,0.1,0.1,0.2,0.1l0.5,0.4
				c0,0,0.1,0.1,0.1,0.1C63.8,156.6,63.7,156.6,63.6,156.6z"/>
			<path class="st0" d="M71,158.2c-0.2,0-0.2,0-0.5-0.6c-0.2-0.4-0.4-0.7-0.7-1v2c0,0.4,0,2.2,0,2.5c0,0.1,0,0.4-0.4,0.4
				c-0.2,0-0.2-0.1-0.2-0.3c0-0.4,0-1.1,0-1.5c0-0.7,0-1.5,0-2.7c-0.6,0.6-1.2,1.2-2,1.6l0-0.1c0.7-0.6,2.2-2.4,3-3.8h-1.3
				c-0.3,0-0.9,0-1.3,0.1l-0.2-0.4c0.5,0,1.1,0.1,1.6,0.1h0.2c-0.1-1.2-0.1-1.4-0.2-1.8l1,0.3c0,0,0.1,0.1,0.1,0.1
				c0,0.1-0.1,0.2-0.3,0.3c0,0,0,0.2,0,1.2h0.5l0.2-0.2c0.1-0.1,0.1-0.1,0.2-0.1c0.1,0,0.1,0,0.2,0.1l0.3,0.3c0,0,0,0.1,0,0.1
				c0,0.1-0.1,0.2-0.5,0.2c-0.4,0.7-0.7,1.1-1,1.5c0.4,0.1,0.9,0.4,0.9,0.4c0.3,0.2,0.6,0.4,0.6,0.8C71.3,157.9,71.3,158.2,71,158.2
				z M76.3,161.1h-4.1c-0.3,0-0.9,0-1.3,0.1l-0.2-0.4c0.5,0,1.1,0.1,1.6,0.1h1c0-0.5,0-2.6,0-3v-0.6c0,0,0-0.8,0-0.9h-0.5
				c-0.3,0-0.9,0-1.3,0.1l-0.2-0.4c0.5,0,1.1,0.1,1.6,0.1h0.4c0-0.3,0-1.9,0-2.2c0-0.6-0.2-0.9-0.2-1.1l1,0.2c0.1,0,0.2,0,0.2,0.1
				c0,0.1-0.2,0.2-0.4,0.3c0,0.1,0,2.2,0,2.6H75l0.3-0.4c0-0.1,0.1-0.1,0.1-0.1c0,0,0.1,0.1,0.2,0.1l0.5,0.4c0.1,0,0.1,0.1,0.1,0.2
				c0,0.1-0.1,0.1-0.1,0.1h-2.2c0,1.5,0,3,0,4.5h1.3l0.4-0.5c0.1-0.1,0.1-0.1,0.1-0.1c0,0,0.1,0.1,0.2,0.1l0.5,0.4
				c0,0,0.1,0.1,0.1,0.1C76.4,161.1,76.3,161.1,76.3,161.1z"/>
			<path class="st0" d="M79,155.3c0-0.2,0.2-0.5,0.5-0.5c0.3,0,0.5,0.3,0.5,0.5c0,0.3-0.2,0.5-0.5,0.5C79.2,155.8,79,155.6,79,155.3
				z M79,159.3c0-0.3,0.2-0.5,0.5-0.5c0.3,0,0.5,0.3,0.5,0.5c0,0.3-0.2,0.5-0.5,0.5C79.2,159.8,79,159.6,79,159.3z"/>
			<path class="st0" d="M90.7,161.2c-0.4-0.2-1.4-0.8-1.4-0.8c-0.9-0.5-1.5-1.3-2-2.1c0,0.4,0,2.4,0,2.8c0,0,0,0.3,0,0.3
				c0,0.2,0,0.3-0.1,0.3c-0.1,0.1-0.3,0.1-0.3,0.1c-0.2,0-0.2-0.2-0.2-0.3c0-0.1,0-0.4,0-0.5c0-0.4,0-2.1,0-2.5
				c-1.3,1.5-3.1,2.4-4.1,2.7l0-0.1c1.2-0.5,3-2,3.8-3h-1.5c0,0.2,0,0.3,0,0.3c-0.1,0.1-0.2,0.2-0.4,0.2c-0.2,0-0.2-0.1-0.2-0.2
				c0,0,0-0.1,0-0.2c0-0.5,0.1-1.4,0.1-1.8c0-0.9,0-1-0.1-1.6l0.7,0.3h1.9c0-0.1,0-0.4,0-1h-2.6c-0.3,0-0.9,0-1.3,0.1l-0.2-0.4
				c0.7,0.1,1.5,0.1,1.6,0.1h2.5c0-0.5,0-1-0.2-1.3l0.9,0.2c0.1,0,0.1,0,0.1,0.1c0,0.1,0,0.1-0.1,0.2c-0.1,0.1-0.1,0.1-0.2,0.2
				c0,0,0,0.4,0,0.6h2.9l0.3-0.5c0-0.1,0.1-0.1,0.1-0.1c0.1,0,0.1,0.1,0.2,0.1l0.5,0.5c0,0,0.1,0.1,0.1,0.1c0,0.1-0.1,0.1-0.1,0.1
				h-4.1v1H89l0.3-0.3c0,0,0.1,0,0.1,0c0,0,0.1,0,0.1,0l0.4,0.3c0.1,0,0.1,0.1,0.1,0.1c0,0,0,0.1-0.1,0.1c-0.1,0.1-0.1,0.1-0.2,0.2
				c0,0.7,0,0.8,0.1,2.3c0,0.1,0,0.2,0,0.2c0,0.2,0,0.2-0.2,0.3c-0.1,0-0.2,0.1-0.2,0.1c-0.2,0-0.2-0.1-0.2-0.4h-1.8
				c0.7,0.8,2.2,2.1,4.2,2.1v0.1C91.1,160.6,91,160.8,90.7,161.2z M86.7,155.6h-1.9v1.1h1.9V155.6z M86.7,156.9h-1.9v1.2h1.9V156.9z
				 M89.3,155.6h-2v1.1h2V155.6z M89.3,156.9h-2v1.1v0.1h2V156.9z"/>
			<path class="st0" d="M95.6,159.6c-1.4,1.3-2.1,1.7-3,2l0-0.1c0.9-0.4,2.2-1.9,2.5-2.3c0,0,0.1-0.2,0.1-0.4l0.8,0.5
				c0.1,0.1,0.1,0.1,0.1,0.1C96,159.6,95.9,159.6,95.6,159.6z M101.3,154.5h-7.3c-0.4,0-0.9,0-1.3,0.1l-0.2-0.4
				c0.7,0.1,1.5,0.1,1.6,0.1h2.5c0-0.5,0-1.1-0.2-1.5l1,0.2c0.1,0,0.1,0,0.1,0.1c0,0.1,0,0.1-0.4,0.3v0.1v0.7h2.8l0.4-0.5
				c0.1-0.1,0.1-0.1,0.1-0.1c0.1,0,0.1,0.1,0.2,0.1l0.6,0.5c0,0,0.1,0.1,0.1,0.2C101.5,154.5,101.4,154.5,101.3,154.5z M99.5,156.1
				c0,0.2,0,0.4,0,1c0,0.2,0.1,0.9,0.1,1.1c0,0.3-0.4,0.4-0.4,0.4c-0.2,0-0.2-0.1-0.2-0.4h-1.6v0.6c0,0.5,0,1.4,0,2
				c0,0.5-0.1,0.7-0.3,0.9c-0.1,0-0.3,0.3-0.7,0.3c-0.1-0.2-0.4-0.6-1.1-0.9v-0.1c0.5,0.1,1,0.1,1.1,0.1c0.3,0,0.3,0,0.3-0.7v-2.2
				H95c0,0.3,0,0.3,0,0.4c-0.1,0.1-0.3,0.2-0.4,0.2c-0.2,0-0.2-0.1-0.2-0.2c0,0,0-0.2,0-0.2c0-0.7,0-1.3,0-2c0-0.5,0-0.7-0.1-1.1
				l0.8,0.5h3.8l0.2-0.3c0,0,0.1-0.1,0.1-0.1c0,0,0.1,0,0.1,0l0.4,0.3c0.1,0,0.1,0.1,0.1,0.1C99.9,156,99.8,156,99.5,156.1z
				 M99,155.9h-4v2h4V155.9z M100.5,161.3c-0.2,0-0.4-0.2-0.5-0.4c-0.3-0.4-1-1.5-1.7-1.8l0-0.1c1.2,0.3,2.5,1.1,2.5,1.8
				C100.8,161.1,100.7,161.3,100.5,161.3z"/>
			<path class="st0" d="M111.3,161.3h-7.1c-0.2,0-0.8,0-1.3,0.1l-0.2-0.4c0.5,0,1.1,0.1,1.6,0.1h2.5v-2.3h-1.7c-0.2,0-0.8,0-1.3,0.1
				l-0.2-0.4c0.5,0,1.1,0.1,1.6,0.1h3.9l0.4-0.4c0.1-0.1,0.1-0.1,0.2-0.1c0,0,0.1,0.1,0.2,0.1l0.5,0.4c0,0,0.1,0.1,0.1,0.1
				c0,0.1-0.1,0.1-0.1,0.1h-3v2.3h2.8l0.4-0.4c0.1-0.1,0.1-0.1,0.1-0.1c0,0,0.1,0.1,0.2,0.1l0.5,0.4c0,0,0.1,0.1,0.1,0.1
				C111.4,161.3,111.3,161.3,111.3,161.3z M110.9,157.1c-0.4,0.1-1.7,0.1-2.2,0.1c-0.9,0-1.1,0-1.2-0.5c0-0.1,0-2,0-2.2h-3.4
				c0,0.2-0.1,0.4-0.2,0.6c-0.2,0.3-0.5,0.4-0.6,0.4c-0.2,0-0.3-0.2-0.3-0.3c0-0.2,0.2-0.4,0.5-0.6c0.5-0.3,0.5-0.7,0.5-0.9h0.1
				c0,0.1,0,0.2,0,0.5h2.6c0-0.8,0-1.1-0.1-1.4l0.8,0.2c0.1,0,0.2,0,0.2,0.2c0,0.1,0,0.1-0.1,0.1c0,0-0.2,0.1-0.2,0.1v0.8h2.5
				l0.3-0.3c0.1,0,0.1-0.1,0.2-0.1c0.1,0,0.1,0,0.2,0.1l0.5,0.5c0.1,0.1,0.1,0.1,0.1,0.2c0,0.2-0.2,0.2-0.6,0.2
				c-0.1,0.1-0.8,0.5-0.9,0.6l0,0c0.1-0.4,0.2-0.5,0.2-0.9H108v1.1c0,0.8,0,0.9,0,1c0,0.1,0.1,0.1,0.1,0.1c0,0,0.4,0.1,0.9,0.1
				c0.6,0,1-0.1,1.2-0.1c0.2-0.1,0.4-0.3,0.6-1.1h0.1c0,0.1,0.2,0.7,0.2,0.8c0,0.1,0.1,0.1,0.2,0.2c0,0,0.1,0.1,0.1,0.2
				C111.5,156.9,111.2,157,110.9,157.1z M106.2,155.3c-0.6,1.1-1.2,2-3.2,2.4l0-0.1c1.3-0.5,2.5-1.6,2.8-3.1l0.7,0.4
				c0.1,0,0.1,0.1,0.1,0.2C106.6,155.2,106.6,155.2,106.2,155.3z"/>
			<path class="st0" d="M113.4,156.7c-0.2,0-0.2-0.1-0.3-0.3c-0.1-0.2-0.3-0.6-0.6-0.8l0-0.1c0.1,0,1.3,0.2,1.3,0.8
				C113.7,156.5,113.6,156.7,113.4,156.7z M114.2,157.1c-0.1,0.4-0.6,1.9-0.6,2.2c0,0.2,0.1,0.7,0.1,0.8c0.2,0.7,0.2,0.8,0.2,1
				c0,0.4-0.2,0.5-0.4,0.5c-0.4,0-0.4-0.4-0.4-0.6c0-0.1,0-0.7,0-0.8c0-0.7-0.2-0.9-0.6-1.1V159c0.3,0,0.5-0.1,0.6-0.2
				c0.2-0.2,1.4-3.5,1.4-3.8l0.1,0C114.6,155.8,114.3,156.7,114.2,157.1z M114.2,154.3c-0.2,0-0.3-0.1-0.4-0.5
				c-0.1-0.2-0.3-0.7-0.4-0.8l0,0c0.5,0.2,1.2,0.5,1.2,1C114.5,154.2,114.4,154.3,114.2,154.3z M120.8,158.9
				c-1.1-0.4-2.1-1.6-2.4-2.5h-1.5c-0.4,0.8-1.5,2.2-2.7,2.9l0,0c0.6-0.5,1.8-2,2.1-2.9c-0.3,0-0.9,0-1.3,0.1l-0.2-0.4
				c0.6,0,1.1,0.1,1.2,0.1c0,0,0.3,0,0.4,0v-1.7c-0.4,0-0.7,0-1.1,0.1l-0.2-0.4c0.7,0,1.2,0.1,1.3,0.1c0-1,0-1.1-0.1-1.5l0.8,0.2
				c0,0,0.1,0,0.1,0.1c0,0.1-0.1,0.1-0.3,0.3c0,0.3,0,0.5,0,0.8h1.4c0-0.2,0-0.9,0-1.1c0-0.1-0.1-0.3-0.1-0.4l0.8,0.2
				c0,0,0.2,0,0.2,0.1c0,0.1-0.2,0.2-0.3,0.3v0.8h0.7l0.3-0.3c0,0,0.1-0.1,0.1-0.1c0.1,0,0.1,0.1,0.2,0.1l0.4,0.3
				c0.1,0,0.1,0.1,0.1,0.2c0,0.1-0.1,0.1-0.1,0.1h-1.7v0.5c0,0.3,0,0.9,0,1.2h1.3l0.3-0.4c0-0.1,0.1-0.1,0.1-0.1
				c0,0,0.1,0.1,0.2,0.1l0.4,0.4c0,0,0.1,0.1,0.1,0.1c0,0.1-0.1,0.1-0.2,0.1h-2.5c0.2,0.4,1.2,1.6,3,1.8v0.1
				C121.1,158.5,121,158.5,120.8,158.9z M120.2,161.4c-0.5,0.1-0.8,0.2-1.8,0.2c-1.9,0-2-0.1-2.2-0.2c-0.1-0.1-0.1-0.2-0.1-0.4v-1.3
				c0-0.3,0-0.3,0-0.5l0.8,0.3h1.2v-1.2h-0.7c-0.4,0-0.9,0-1.3,0.1l-0.2-0.4c0.7,0.1,1.5,0.1,1.6,0.1h0.5l0.1-0.1
				c0.1-0.1,0.1-0.1,0.2-0.1c0,0,0.1,0,0.1,0.1l0.3,0.2c0.1,0.1,0.1,0.1,0.1,0.2c0,0.1-0.1,0.1-0.2,0.2c0,0.2,0,1,0,1.2
				c0,0.1-0.1,0.2-0.1,0.2c-0.1,0-0.2,0.1-0.3,0.1c-0.1,0-0.1-0.1-0.1-0.2h-1.5v0.6v0.5c0,0.4,0,0.4,1.1,0.4c0.3,0,1.7,0,1.9-0.2
				c0.1-0.1,0.4-0.5,0.5-1.4l0,0c0.1,0.6,0.1,1.1,0.2,1.2c0,0,0.1,0.1,0.2,0.2c0,0,0.1,0.1,0.1,0.1
				C120.7,161.1,120.5,161.3,120.2,161.4z M118.3,155v-0.5h-1.4c0,0.2,0,1,0,1.2c0,0.1,0,0.4,0,0.5h1.4V155z"/>
			<path class="st0" d="M125.7,155.7c-1,1.1-2.2,1.9-3.2,2.3l0-0.1c0.9-0.5,2-1.6,2.4-2.2c0.3-0.3,0.3-0.6,0.4-0.7l0.7,0.5
				c0.1,0,0.1,0.1,0.1,0.1C126.1,155.7,126,155.8,125.7,155.7z M130.6,161.6c-1.4-0.4-2.6-1-3.6-2.1c-1.2,1.2-2.7,2.1-4.4,2.2v-0.1
				c1.9-0.4,3.4-1.7,4.1-2.5c-1-1.2-1.2-2.3-1.2-2.7h0.1c0.5,1.2,1,1.9,1.4,2.3c0.5-0.7,1.1-1.7,1.2-2.5l0.8,0.5
				c0.1,0.1,0.1,0.1,0.1,0.1c0,0.1,0,0.1-0.4,0.2c-0.5,1-0.9,1.5-1.3,1.9c0.6,0.6,2,1.7,4.2,1.6v0.1
				C131.2,161,130.8,161.3,130.6,161.6z M131.2,154.7h-7.2c-0.3,0-0.9,0-1.3,0.1l-0.2-0.4c0.7,0.1,1.4,0.1,1.6,0.1h2.4
				c0-1.1,0-1.3-0.3-1.7l1,0.2c0.1,0,0.2,0.1,0.2,0.2c0,0.2-0.3,0.2-0.4,0.3v1h2.8l0.4-0.5c0.1-0.1,0.1-0.1,0.2-0.1
				c0.1,0,0.1,0.1,0.2,0.1l0.5,0.5c0.1,0.1,0.1,0.1,0.1,0.2C131.4,154.7,131.3,154.7,131.2,154.7z M130.4,157.4
				c-0.2,0-0.2,0-0.4-0.4c-0.3-0.4-1.1-1.4-1.7-1.6l0.1-0.1c1.4,0.3,2.4,1.2,2.4,1.7C130.8,157.2,130.6,157.4,130.4,157.4z"/>
			<path class="st0" d="M140.8,161.5c-0.2,0-0.5,0-0.6,0c-2.5,0-2.6,0-3.4-0.1c-1.3-0.2-1.8-0.5-2.3-1.2c-0.2,0.2-0.9,0.9-1,1
				c0,0.2,0,0.4-0.2,0.4c0,0-0.1,0-0.1-0.1l-0.6-0.7c0.6,0,1.3-0.4,1.5-0.5v-3c-0.4,0-1,0-1.3,0.1l-0.2-0.4c0.4,0,1.1,0.1,1.4,0.1
				l0.3-0.2c0.1-0.1,0.1-0.1,0.2-0.1c0,0,0.1,0,0.1,0.1l0.3,0.3c0.1,0,0.1,0.1,0.1,0.1c0,0.1-0.1,0.2-0.3,0.3c0,0.1,0,0.2,0,1.4
				c0,1.3,0,2,2.7,2c0.6,0,1.9-0.1,2.8-0.2c0.7-0.1,0.9-0.1,1.3-0.2l0,0C141.2,160.7,140.9,161.1,140.8,161.5z M134.5,154.7
				c-0.2,0-0.2-0.1-0.4-0.5c-0.1-0.4-0.4-0.9-0.7-1.1l0-0.1c0.7,0.2,1.4,0.7,1.4,1.3C134.8,154.5,134.7,154.7,134.5,154.7z
				 M140,153.9c-0.2,0-0.3,0-0.8,0.3c0,0-0.7,0.4-0.8,0.5c0.1,0.1,0.2,0.2,0.2,0.4c0,0.2-0.1,0.3-0.3,0.3c-0.2,0-0.3-0.1-0.4-0.3
				c-0.2-0.4-0.5-0.7-0.9-0.9v-0.1c0.6,0.1,1,0.4,1.1,0.5c0.2-0.2,0.5-0.5,0.9-0.9H137c-0.3,0-0.9,0-1.3,0.1l-0.2-0.4
				c0.5,0,1.1,0.1,1.6,0.1h2.1l0.3-0.2c0,0,0.1-0.1,0.2-0.1s0.1,0,0.2,0.1l0.5,0.4c0.1,0,0.1,0.1,0.1,0.1
				C140.4,153.8,140.3,153.8,140,153.9z M140.9,155.7c0,0-0.2,0.1-0.3,0.2c0,0.5,0,2.8,0,3.3c0,0.3,0,0.5-0.1,0.7
				c0,0-0.2,0.3-0.7,0.4c-0.1-0.4-0.5-0.7-0.7-0.8l0-0.1c0.3,0,0.4,0,0.6,0c0.4,0,0.5-0.1,0.5-0.4v-0.6h-1.6c0,0.2,0,1.4,0,1.5
				c0,0.4-0.3,0.4-0.4,0.4c-0.2,0-0.2-0.1-0.2-0.2c0-0.4,0-1.3,0-1.7h-1.7c0,0.2,0,1.1,0,1.3c0,0.5-0.4,0.5-0.4,0.5
				c-0.2,0-0.2-0.1-0.2-0.2c0-0.2,0-0.6,0-0.8c0-0.4,0-1.1,0-1.6c0-0.6,0-2-0.1-2.5l0.8,0.4h3.5l0.2-0.2c0,0,0.1-0.1,0.1-0.1
				c0,0,0.1,0,0.1,0l0.4,0.3c0,0,0.1,0.1,0.1,0.1C141,155.6,140.9,155.7,140.9,155.7z M138,155.7h-1.7v0.3v0.9h1.7V155.7z
				 M136.2,157.1c0,0.4,0,0.8,0,1.2h1.7c0-0.2,0-1,0-1.2H136.2z M140.1,155.7h-1.7v1.2h1.7V155.7z M140.1,157.1h-1.7
				c0,0.8,0,0.9,0,1.2h1.6V157.1z"/>
			<path class="st0" d="M142.5,161.9c1.6-1.7,2-3.5,2-4.6c0-1.1-0.4-3-2-4.6l0.1-0.1c0.5,0.4,2.3,2.1,2.3,4.7c0,2.7-1.8,4.4-2.3,4.7
				L142.5,161.9z"/>
			<path class="st0" d="M148.7,160.8l-0.3-0.3l3.2-3.2l-3.2-3.2l0.3-0.3l3.2,3.2l3.2-3.2l0.3,0.3l-3.2,3.2l3.2,3.2l-0.3,0.3
				l-3.2-3.2L148.7,160.8z M150,157.3c0,0.4-0.4,0.8-0.8,0.8c-0.5,0-0.8-0.4-0.8-0.8c0-0.5,0.4-0.8,0.8-0.8
				C149.7,156.5,150,156.9,150,157.3z M152.7,154.7c0,0.4-0.4,0.8-0.8,0.8c-0.5,0-0.8-0.4-0.8-0.8c0-0.5,0.4-0.8,0.8-0.8
				C152.4,153.8,152.7,154.2,152.7,154.7z M152.7,160c0,0.4-0.4,0.8-0.8,0.8c-0.5,0-0.8-0.4-0.8-0.8c0-0.5,0.4-0.8,0.8-0.8
				C152.4,159.2,152.7,159.5,152.7,160z M155.4,157.3c0,0.4-0.4,0.8-0.8,0.8c-0.4,0-0.8-0.4-0.8-0.8c0-0.5,0.4-0.8,0.8-0.8
				C155,156.5,155.4,156.9,155.4,157.3z"/>
			<path class="st0" d="M160.3,157.9c-0.8,0.8-0.9,0.9-1.7,1.7c0,0-0.1,0.1-0.1,0.1c0,0.1,0,0.4-0.1,0.4c-0.1,0-0.1-0.1-0.1-0.1
				l-0.6-0.7c0.3,0,0.4,0,0.9-0.3c0.5-0.3,1.6-0.9,1.9-1.2L160.3,157.9L160.3,157.9z M161.4,154.2c0,1.1,0,5,0,5.7
				c0,0.5,0,0.8-0.2,1c-0.1,0.1-0.4,0.5-1,0.5c-0.1-0.2-0.2-0.5-0.9-0.8l0-0.1c0.2,0,0.4,0,0.6,0c0.7,0,0.8,0,0.8-0.5
				c0-0.4,0-3.1,0-4.3c0-0.6,0-1.5,0-1.9h-1.8c-0.3,0-0.9,0-1.3,0.1l-0.2-0.4c0.7,0.1,1.4,0.1,1.6,0.1h1.4l0.3-0.3
				c0.1,0,0.1-0.1,0.2-0.1c0,0,0.1,0.1,0.2,0.1l0.3,0.2c0.1,0.1,0.1,0.1,0.1,0.2C161.8,154,161.5,154.1,161.4,154.2z M159.2,156.7
				c-0.2,0-0.2-0.1-0.5-0.7c-0.2-0.5-0.4-0.7-0.5-0.8l0,0c0.9,0.2,1.3,0.8,1.3,1.1C159.6,156.6,159.4,156.7,159.2,156.7z
				 M163.7,158.6c-0.2,0.2-0.6,0.6-0.9,0.9c0,0.1,0,0.3-0.1,0.3c0,0-0.1,0-0.1-0.1L162,159c0.3,0,0.4-0.1,0.9-0.3
				c0.6-0.3,1.5-0.8,1.8-1l0,0C164.4,158,164.1,158.3,163.7,158.6z M165.6,154.2v4.1c0,0.4,0,1.4,0,1.7c0,0.1,0,0.2,0,0.3
				c0,0.3,0,0.5-0.4,0.9c-0.3,0.3-0.6,0.3-0.8,0.4c-0.1-0.3-0.2-0.4-0.9-0.8l0,0c0.1,0,0.4,0,0.7,0h0.5c0.2,0,0.2-0.3,0.2-0.4
				c0-1.3,0-2.6,0-4.4c0-0.3,0-1.7,0-1.9h-1.5c-0.3,0-0.9,0-1.3,0.1l-0.2-0.4c0.7,0.1,1.5,0.1,1.6,0.1h1.2l0.2-0.2
				c0.1-0.1,0.1-0.1,0.1-0.1c0,0,0.1,0,0.1,0.1l0.4,0.3c0,0,0.1,0.1,0.1,0.1C165.9,154,165.6,154.1,165.6,154.2z M163.6,156.6
				c-0.1,0-0.2-0.1-0.3-0.4c-0.5-0.9-0.7-1-0.8-1.1l0,0c0.5,0.1,1.4,0.6,1.4,1.1C164,156.4,163.8,156.6,163.6,156.6z"/>
			<path class="st0" d="M175.2,154.3c0,0.5,0,0.9,0,1.8c0,0.8,0.1,4.2,0.1,4.8c0,0,0,0.1,0,0.1c0,0.3-0.4,0.4-0.5,0.4
				c-0.2,0-0.2,0-0.2-0.5h-5.9c0,0.3,0,0.6-0.4,0.6c-0.2,0-0.2-0.1-0.2-0.3c0-0.1,0.1-4.3,0.1-5.2c0-1.6-0.1-2.1-0.1-2.8l0.8,0.5
				h5.8l0.2-0.2c0.1-0.1,0.1-0.1,0.1-0.1c0,0,0.1,0,0.2,0.1l0.5,0.3c0.1,0,0.1,0.1,0.1,0.2C175.7,154.1,175.5,154.2,175.2,154.3z
				 M171.4,154h-2.7v3.1h2.7V154z M171.4,157.4h-2.7v3.3h2.7V157.4z M174.6,154h-2.7v3.1h2.7V154z M174.6,157.4h-2.7v3.3h2.7V157.4z
				"/>
			<path class="st0" d="M185.7,161.3h-7.1c-0.2,0-0.8,0-1.3,0.1l-0.2-0.4c0.5,0,1.1,0.1,1.6,0.1h2.5v-2.3h-1.7c-0.2,0-0.8,0-1.3,0.1
				l-0.2-0.4c0.5,0,1.1,0.1,1.6,0.1h3.9l0.4-0.4c0.1-0.1,0.1-0.1,0.2-0.1c0,0,0.1,0.1,0.2,0.1l0.5,0.4c0,0,0.1,0.1,0.1,0.1
				c0,0.1-0.1,0.1-0.1,0.1h-3v2.3h2.8l0.4-0.4c0.1-0.1,0.1-0.1,0.1-0.1c0,0,0.1,0.1,0.2,0.1l0.5,0.4c0,0,0.1,0.1,0.1,0.1
				C185.9,161.3,185.8,161.3,185.7,161.3z M185.4,157.1c-0.4,0.1-1.7,0.1-2.2,0.1c-0.9,0-1.1,0-1.2-0.5c0-0.1,0-2,0-2.2h-3.4
				c0,0.2-0.1,0.4-0.2,0.6c-0.2,0.3-0.5,0.4-0.6,0.4c-0.2,0-0.3-0.2-0.3-0.3c0-0.2,0.2-0.4,0.5-0.6c0.5-0.3,0.5-0.7,0.5-0.9h0.1
				c0,0.1,0,0.2,0,0.5h2.6c0-0.8,0-1.1-0.1-1.4l0.8,0.2c0.1,0,0.2,0,0.2,0.2c0,0.1,0,0.1-0.1,0.1c0,0-0.2,0.1-0.2,0.1v0.8h2.5
				l0.3-0.3c0.1,0,0.1-0.1,0.2-0.1c0.1,0,0.1,0,0.2,0.1l0.5,0.5c0.1,0.1,0.1,0.1,0.1,0.2c0,0.2-0.2,0.2-0.6,0.2
				c-0.1,0.1-0.8,0.5-0.9,0.6l0,0c0.1-0.4,0.2-0.5,0.2-0.9h-1.9v1.1c0,0.8,0,0.9,0,1c0,0.1,0.1,0.1,0.1,0.1c0,0,0.4,0.1,0.9,0.1
				c0.6,0,1-0.1,1.2-0.1c0.2-0.1,0.4-0.3,0.6-1.1h0.1c0,0.1,0.2,0.7,0.2,0.8c0,0.1,0.1,0.1,0.2,0.2c0,0,0.1,0.1,0.1,0.2
				C185.9,156.9,185.6,157,185.4,157.1z M180.6,155.3c-0.6,1.1-1.2,2-3.2,2.4l0-0.1c1.3-0.5,2.5-1.6,2.8-3.1l0.7,0.4
				c0.1,0,0.1,0.1,0.1,0.2C181.1,155.2,181,155.2,180.6,155.3z"/>
			<path class="st0" d="M187.9,156.7c-0.2,0-0.2-0.1-0.3-0.3c-0.1-0.2-0.3-0.6-0.6-0.8l0-0.1c0.1,0,1.3,0.2,1.3,0.8
				C188.2,156.5,188.1,156.7,187.9,156.7z M188.6,157.1c-0.1,0.4-0.6,1.9-0.6,2.2c0,0.2,0.1,0.7,0.1,0.8c0.2,0.7,0.2,0.8,0.2,1
				c0,0.4-0.2,0.5-0.4,0.5c-0.4,0-0.4-0.4-0.4-0.6c0-0.1,0-0.7,0-0.8c0-0.7-0.2-0.9-0.6-1.1V159c0.3,0,0.5-0.1,0.6-0.2
				c0.2-0.2,1.4-3.5,1.4-3.8l0.1,0C189,155.8,188.8,156.7,188.6,157.1z M188.6,154.3c-0.2,0-0.3-0.1-0.4-0.5
				c-0.1-0.2-0.3-0.7-0.4-0.8l0,0c0.5,0.2,1.2,0.5,1.2,1C189,154.2,188.8,154.3,188.6,154.3z M195.2,158.9c-1.1-0.4-2.1-1.6-2.4-2.5
				h-1.5c-0.4,0.8-1.5,2.2-2.7,2.9l0,0c0.6-0.5,1.8-2,2.1-2.9c-0.3,0-0.9,0-1.3,0.1l-0.2-0.4c0.6,0,1.1,0.1,1.2,0.1c0,0,0.3,0,0.4,0
				v-1.7c-0.4,0-0.7,0-1.1,0.1l-0.2-0.4c0.7,0,1.2,0.1,1.3,0.1c0-1,0-1.1-0.1-1.5l0.8,0.2c0,0,0.1,0,0.1,0.1c0,0.1-0.1,0.1-0.3,0.3
				c0,0.3,0,0.5,0,0.8h1.4c0-0.2,0-0.9,0-1.1c0-0.1-0.1-0.3-0.1-0.4l0.8,0.2c0,0,0.2,0,0.2,0.1c0,0.1-0.2,0.2-0.3,0.3v0.8h0.7
				l0.3-0.3c0,0,0.1-0.1,0.1-0.1c0.1,0,0.1,0.1,0.2,0.1l0.4,0.3c0.1,0,0.1,0.1,0.1,0.2c0,0.1-0.1,0.1-0.1,0.1h-1.7v0.5
				c0,0.3,0,0.9,0,1.2h1.3l0.3-0.4c0-0.1,0.1-0.1,0.1-0.1c0,0,0.1,0.1,0.2,0.1l0.4,0.4c0,0,0.1,0.1,0.1,0.1c0,0.1-0.1,0.1-0.2,0.1
				H193c0.2,0.4,1.2,1.6,3,1.8v0.1C195.6,158.5,195.5,158.5,195.2,158.9z M194.7,161.4c-0.5,0.1-0.8,0.2-1.8,0.2
				c-1.9,0-2-0.1-2.2-0.2c-0.1-0.1-0.1-0.2-0.1-0.4v-1.3c0-0.3,0-0.3,0-0.5l0.8,0.3h1.2v-1.2h-0.7c-0.4,0-0.9,0-1.3,0.1l-0.2-0.4
				c0.7,0.1,1.5,0.1,1.6,0.1h0.5l0.1-0.1c0.1-0.1,0.1-0.1,0.2-0.1c0,0,0.1,0,0.1,0.1l0.3,0.2c0.1,0.1,0.1,0.1,0.1,0.2
				c0,0.1-0.1,0.1-0.2,0.2c0,0.2,0,1,0,1.2c0,0.1-0.1,0.2-0.1,0.2c-0.1,0-0.2,0.1-0.3,0.1c-0.1,0-0.1-0.1-0.1-0.2h-1.5v0.6v0.5
				c0,0.4,0,0.4,1.1,0.4c0.3,0,1.7,0,1.9-0.2c0.1-0.1,0.4-0.5,0.5-1.4l0,0c0.1,0.6,0.1,1.1,0.2,1.2c0,0,0.1,0.1,0.2,0.2
				c0,0,0.1,0.1,0.1,0.1C195.1,161.1,195,161.3,194.7,161.4z M192.7,155v-0.5h-1.4c0,0.2,0,1,0,1.2c0,0.1,0,0.4,0,0.5h1.4V155z"/>
			<path class="st0" d="M196.7,160c1.9-1.8,2.8-3.9,2.8-4.1c0-0.4-0.3-0.6-0.6-0.7c0.1,0,0.3-0.1,0.4-0.1c0.5,0,1.1,0.6,1.1,0.8
				c0,0.1,0,0.1-0.1,0.2c-0.1,0.1-0.2,0.3-0.3,0.4C198.9,158.5,198,159.4,196.7,160L196.7,160z M203.7,156.5
				c0.4,0.5,1.3,1.6,1.3,2.5c0,0.2-0.1,0.5-0.3,0.5c-0.3,0-0.3-0.2-0.5-0.8c-0.2-0.7-0.6-2-2.3-3.6
				C202.5,155.3,203,155.7,203.7,156.5z M204.5,154.9c0.1,0.1,0.3,0.3,0.3,0.5c0,0.1,0,0.3-0.2,0.3c-0.2,0-0.3-0.1-0.4-0.4
				c-0.1-0.2-0.6-0.7-1-1C203.8,154.4,204.4,154.9,204.5,154.9z M205.3,154.1c0.2,0.1,0.4,0.3,0.4,0.5c0,0.1,0,0.3-0.1,0.3
				c-0.1,0-0.2-0.1-0.4-0.4c-0.1-0.2-0.4-0.5-1-0.8C204.3,153.7,204.7,153.7,205.3,154.1z"/>
			<path class="st0" d="M206,160.6c2.2-0.9,4.5-3.4,5.4-5.9c-0.3,0.1-1.6,0.3-1.9,0.3c-0.4,0.1-0.8,0.2-1.1,0.4
				c-0.1,0.1-0.2,0.1-0.2,0.1c-0.1,0-0.3-0.2-0.4-0.4c-0.1-0.1-0.2-0.3-0.2-0.5c0-0.1,0-0.3,0.1-0.4c0,0.1,0.1,0.2,0.2,0.3
				c0.2,0.2,0.3,0.3,0.5,0.3c0.4,0,2.4-0.3,2.7-0.4c0.1,0,0.2-0.1,0.4-0.2c0.1-0.1,0.1-0.1,0.1-0.1c0.1,0,0.8,0.5,0.8,0.7
				c0,0.1-0.1,0.1-0.4,0.2c0,0-0.1,0.1-0.1,0.1c-0.5,1.2-1.1,2-1.4,2.4c1.3,0.6,2.9,1.7,2.9,2.7c0,0.1,0,0.4-0.3,0.4
				c-0.1,0-0.2-0.1-0.3-0.2c-0.6-1.1-1.3-1.9-2.4-2.7C209.7,158.4,208.3,160.2,206,160.6L206,160.6z"/>
			<path class="st0" d="M217.3,154.3c0,0.2,0,0.5,0,0.9c0,1.1,0,2.5,0.1,3.6c0,0.1,0,0.7,0,0.8c0,0.1,0,0.2-0.1,0.3
				c-0.1,0.1-0.2,0.1-0.2,0.1c-0.2,0-0.2-0.1-0.2-0.7h-1.4c0,0.2,0,0.8,0,1c0,0.2-0.3,0.3-0.4,0.3c-0.2,0-0.2-0.1-0.2-0.2
				c0-0.1,0-0.4,0-0.5c0-1.3,0-2.6,0-4c0-1.4,0-1.6-0.1-2.3l0.7,0.4h1.2l0.3-0.2c0.1-0.1,0.1-0.1,0.2-0.1c0.1,0,0.1,0.1,0.2,0.1
				l0.2,0.2c0,0,0.1,0.1,0.1,0.2C217.7,154.1,217.4,154.2,217.3,154.3z M216.8,154.1h-1.4v2.3h1.4V154.1z M216.8,156.6h-1.4v2.4h1.4
				V156.6z M223.2,156.5H219c-0.3,0-0.9,0-1.3,0.1l-0.2-0.4c0.5,0,1.1,0.1,1.6,0.1h0.8v-1.5h-0.4c-0.3,0-0.9,0-1.3,0.1l-0.2-0.4
				c0.5,0,1.1,0.1,1.6,0.1h0.3c0-0.9,0-1.1-0.2-1.6l0.9,0.3c0.1,0,0.1,0,0.1,0.1c0,0,0,0.1-0.1,0.1c-0.1,0.1-0.1,0.1-0.2,0.2
				c0,0.1,0,0.4,0,0.9h1.2l0.3-0.3c0,0,0.1-0.1,0.1-0.1c0.1,0,0.1,0,0.2,0.1l0.4,0.3c0,0,0.1,0.1,0.1,0.1c0,0.1-0.1,0.1-0.1,0.1
				h-2.1c0,0.5,0,1.1,0,1.5h1.7l0.3-0.4c0.1-0.1,0.1-0.1,0.1-0.1c0.1,0,0.1,0.1,0.2,0.1l0.4,0.4c0.1,0.1,0.1,0.1,0.1,0.1
				C223.4,156.5,223.3,156.5,223.2,156.5z M223.2,158.4h-1.7c0,0.7,0,1.6,0,2.3c0,0.3,0,0.5-0.4,0.8c-0.3,0.2-0.6,0.3-0.8,0.3
				c-0.1-0.2-0.1-0.4-0.9-0.8v-0.1c0.5,0,0.9,0.1,1,0.1c0.1,0,0.5,0,0.5-0.1c0-0.1,0-0.6,0-0.7c0-0.3,0-0.9,0-1.7h-1.9
				c-0.3,0-0.9,0-1.3,0.1l-0.2-0.4c0.5,0,1.1,0.1,1.6,0.1h1.8c0-1,0-1.1-0.1-1.4l0.7,0.2c0.1,0,0.1,0,0.1,0.1c0,0.1-0.2,0.3-0.3,0.3
				c0,0.1,0,0.2,0,0.8h0.7l0.3-0.4c0,0,0.1-0.1,0.2-0.1c0.1,0,0.1,0.1,0.2,0.1l0.4,0.4c0,0,0.1,0.1,0.1,0.1
				C223.4,158.4,223.3,158.4,223.2,158.4z M219.5,160.2c-0.2,0-0.3-0.1-0.4-0.5c0-0.2-0.1-0.3-0.1-0.4c-0.1-0.4-0.2-0.4-0.3-0.5
				l0-0.1c0.5,0.2,1,0.7,1,1.1C219.8,160.1,219.6,160.2,219.5,160.2z"/>
			<path class="st0" d="M229,158.2c-0.3,0.4-0.7,0.9-1.2,1.3c0.3,0.2,0.9,0.6,1,0.6c0.2,0.2,0.6,0.5,0.6,0.8c0,0.2-0.1,0.5-0.4,0.5
				c0,0-0.2,0-0.3-0.3c-0.3-0.8-0.4-1-1-1.6c-0.4,0.4-1.6,1.6-3.4,1.9l0-0.1c1.5-0.5,3.1-2,4.2-3.6c0.2-0.3,0.2-0.4,0.2-0.6l0.7,0.6
				c0.1,0,0.1,0.1,0.1,0.1C229.5,158.2,229.3,158.2,229,158.2z M229.5,154.8h-2.4l0.4,0.2c0.1,0,0.1,0.1,0.1,0.1
				c0,0.1-0.2,0.1-0.3,0.1c-0.1,0.2-0.5,0.8-1,1.3c0.5,0.3,0.5,0.5,0.5,0.7c0,0.2-0.1,0.3-0.3,0.3c-0.1,0-0.3-0.1-0.5-0.4
				c-0.2-0.3-0.4-0.6-1.2-1V156c0.4,0.1,1,0.3,1.3,0.4c0.3-0.6,0.5-1.1,0.6-1.6h-0.9c-0.2,0-0.8,0-1.3,0.1l-0.2-0.4
				c0.5,0,1.1,0.1,1.6,0.1h0.7c0-0.5,0-1.2-0.1-1.7l0.7,0.2c0,0,0.2,0.1,0.2,0.1c0,0.1,0,0.1-0.3,0.3c0,0.1,0,0.8,0,1h1.3l0.3-0.4
				c0.1-0.1,0.1-0.1,0.2-0.1c0,0,0.1,0.1,0.2,0.1l0.4,0.4c0,0,0.1,0.1,0.1,0.1C229.7,154.8,229.6,154.8,229.5,154.8z M228.9,156.5
				c-0.1,0-0.2,0-0.2,0c-1.5,2-3.3,3-4.3,3.3l0-0.1c0.3-0.2,1.8-1.1,3.3-2.9c0.3-0.4,0.6-0.8,0.7-1.2l0.7,0.6c0.1,0,0.1,0.1,0.1,0.2
				C229.2,156.5,229.1,156.5,228.9,156.5z M230.9,154.3c-0.1,0-0.1,0.1-0.1,0.1v2.6c0,0.3,0,1.3,0,1.5c0,0.6,0,0.7-0.1,0.8
				c-0.1,0.1-0.2,0.1-0.3,0.1c-0.2,0-0.2-0.1-0.2-0.2c0,0,0,0,0-0.1c0.1-2.2,0.1-2.4,0.1-3c0-0.6,0-1.9-0.1-2.4l0.8,0.2
				c0.1,0,0.1,0,0.1,0.1C231,154.3,231,154.3,230.9,154.3z M232.8,153.5c-0.1,0.1-0.1,0.1-0.2,0.1c0,1.4,0,2.7,0,3.2
				c0,0.6,0,3.5,0,3.7c0,0.3,0,1.2-1.1,1.3c0-0.3-0.2-0.5-1.2-0.8v-0.1c0.3,0,0.6,0,1,0c0.5,0,0.7,0,0.7-0.5c0-0.8,0-6.5,0-7
				c0-0.2-0.1-0.4-0.1-0.5l0.9,0.2c0.1,0,0.2,0.1,0.2,0.1C233,153.4,232.9,153.4,232.8,153.5z"/>
			<path class="st0" d="M242.7,161.5c-2.5-1.2-3.4-2.9-3.8-4.2c-0.4,0.4-0.8,0.7-1.3,1.1v2.4c1-0.3,1.5-0.4,2.5-0.7l0,0.1
				c-0.6,0.4-1.6,0.7-2.1,0.9c-0.5,0.2-1.3,0.4-1.9,0.7c0,0.2,0,0.3-0.2,0.3c-0.1,0-0.1-0.1-0.2-0.1l-0.5-0.7c0.4,0,0.6,0,1.8-0.3
				v-2.2c-0.8,0.5-1.7,1-2.5,1.2l0-0.1c1.1-0.5,2.9-1.9,3.5-2.7H236c-0.2,0-0.8,0-1.3,0.1l-0.2-0.4c0.5,0,1.1,0.1,1.6,0.1h2.4v-1.3
				h-1.4c-0.2,0-0.8,0-1.3,0.1l-0.2-0.4c0.5,0,1.1,0.1,1.6,0.1h1.3c0-0.2,0-0.9,0-1.1h-2c-0.2,0-0.8,0-1.3,0.1L235,154
				c0.5,0,1.1,0.1,1.6,0.1h1.9c0-0.2,0-0.5,0-0.5c0-0.5-0.1-0.6-0.2-0.8l0.9,0.2c0,0,0.2,0.1,0.2,0.1c0,0.1-0.3,0.3-0.4,0.3
				c0,0.2,0,0.3,0,0.7h2.6l0.3-0.4c0,0,0.1-0.1,0.1-0.1c0.1,0,0.1,0.1,0.2,0.1l0.4,0.4c0.1,0,0.1,0.1,0.1,0.2c0,0.1-0.1,0.1-0.1,0.1
				h-3.6v1.1h1.8l0.2-0.3c0-0.1,0.1-0.1,0.2-0.1c0.1,0,0.1,0.1,0.2,0.1l0.5,0.3c0,0,0.1,0.1,0.1,0.1c0,0.1-0.1,0.1-0.1,0.1h-2.8
				c0,0.1,0,1.2,0,1.3h3l0.3-0.4c0,0,0.1-0.1,0.2-0.1c0.1,0,0.1,0.1,0.2,0.1l0.5,0.4c0,0,0.1,0.1,0.1,0.2c0,0.1-0.1,0.1-0.1,0.1H239
				c0.1,0.3,0.3,0.9,0.9,1.6c0.2-0.2,1-0.8,1.1-1.3l0.7,0.5c0,0,0.1,0.1,0.1,0.1c0,0.1-0.2,0.1-0.2,0.1c-0.1,0-0.2,0-0.3,0
				c-0.4,0.3-0.8,0.4-1.3,0.6c0.8,0.9,1.9,1.6,3.6,2v0.1C243,161.2,242.9,161.2,242.7,161.5z"/>
			<path class="st0" d="M247.8,161.3c1.7-1.4,1.8-3.6,1.8-5.2c-0.9,0.1-1.5,0.1-2.3,0.2c0,0.3,0.1,1.7,0.1,2c0,0.2,0,0.5-0.2,0.5
				c-0.2,0-0.3-0.5-0.3-0.6c0-0.1,0-0.6,0.1-0.6c0-0.4,0-0.9,0-1.1c-0.7,0.1-1,0.2-1.4,0.4c-0.2,0.1-0.2,0.1-0.3,0.1
				c-0.2,0-0.7-0.4-0.7-0.9c0-0.1,0-0.2,0-0.3c0.4,0.5,0.5,0.5,0.7,0.5c0.1,0,1.4-0.1,1.6-0.2c0-0.3,0-1.6-0.1-1.8
				c-0.1-0.1-0.2-0.2-0.7-0.3c0.1-0.1,0.3-0.2,0.6-0.2c0.2,0,0.8,0.2,0.8,0.5c0,0,0,0.1,0,0.1c-0.1,0.2-0.1,0.4-0.1,1
				c0,0.1,0,0.5,0,0.7c1-0.1,1.1-0.1,2.3-0.2c0-1.5,0-1.8-0.2-2c-0.1-0.1-0.3-0.2-0.7-0.3c0.1-0.1,0.4-0.2,0.6-0.2
				c0.2,0,0.9,0.2,0.9,0.5c0,0.1-0.1,0.4-0.1,0.5c0,0.3-0.1,1-0.1,1.5c0.8-0.1,1.2-0.1,1.3-0.1c0.4-0.1,0.4-0.1,0.4-0.1
				c0.2,0,0.7,0.3,0.7,0.3c0.1,0.1,0.1,0.2,0.1,0.2c0,0.2-0.1,0.2-0.2,0.2c-0.1,0-0.5-0.1-0.6-0.1c-0.6-0.1-1.2-0.1-1.8-0.1
				c0,0.7,0,1.4-0.1,2.1C249.9,159.2,249.3,160.7,247.8,161.3L247.8,161.3z"/>
			<path class="st0" d="M253.7,158.7c2.3-1.7,4.2-3.5,5-4.5c0.1-0.2,0.2-0.3,0.2-0.4c0-0.1,0-0.2-0.1-0.3c-0.1,0-0.3-0.2-0.4-0.2
				c0.1,0,0.2-0.1,0.4-0.1c0.4,0,0.8,0.3,1,0.5c0.1,0.1,0.2,0.2,0.2,0.3c0,0.1-0.1,0.1-0.2,0.2c-0.2,0.1-0.2,0.1-0.5,0.4
				c-1.1,1.1-1.2,1.2-1.6,1.5c0.2,0.1,0.5,0.2,0.5,0.4c0,0-0.1,0.3-0.1,0.3c0,0.1,0,0.3,0,0.6v3.4c0,0.4,0,0.6-0.2,0.6
				c-0.3,0-0.5-0.6-0.5-0.7c0-0.1,0.1-0.4,0.1-0.4c0.1-0.4,0.1-1.4,0.1-1.8c0-0.2-0.1-1.7-0.1-1.8c0-0.1,0-0.1-0.1-0.2
				C256.2,157.3,255,158.2,253.7,158.7L253.7,158.7z"/>
			<path class="st0" d="M265,157.4c0.1,0.1,0.2,0.3,0.2,0.6c0,0.2-0.1,0.4-0.2,0.4c-0.1,0-0.2-0.1-0.4-0.3c-0.7-0.7-1.4-1.2-2.2-1.6
				c0,0.9,0,1.8,0,2.7c0,0.2,0,1.1,0,1.3c0,0.5,0,0.9-0.3,0.9c-0.3,0-0.4-0.6-0.4-0.7c0,0,0.1-0.5,0.1-0.6c0.1-0.5,0.1-4.1,0.1-4.5
				c0-0.3,0-1.3-0.1-1.6c-0.1-0.3-0.3-0.4-0.8-0.5c0.3-0.2,0.6-0.2,0.6-0.2c0.1,0,1,0.2,1,0.5c0,0-0.1,0.3-0.1,0.5
				c-0.1,0.3-0.1,1.5-0.1,1.9C263.1,156.4,264.3,156.8,265,157.4z"/>
			<path class="st0" d="M271,154.9c0.1,0,0.1,0,0.2,0c0,0,0.5,0,0.5,0.3c0,0.1-0.1,0.2-0.2,0.2c-0.2,0.1-1,0.3-1.6,0.3
				c-0.1,0-0.3,0-0.6-0.1c0,0.2,0,0.4,0,0.9c0,0.9,0.1,1.7,0.2,2.6c0.3,0.1,2.5,0.5,2.5,1.3c0,0.1-0.1,0.3-0.2,0.3
				c-0.2,0-0.5-0.2-0.7-0.4c-0.5-0.3-1-0.6-1.6-0.7c0,0.5-0.2,1.4-1.6,1.4c-0.9,0-1.6-0.4-1.6-1c0-0.4,0.5-0.8,0.9-0.9
				c0.3-0.1,0.7-0.2,1.4-0.2c0.2,0,0.3,0,0.5,0c0-0.6-0.1-2-0.1-2.4c0-0.3,0-2,0-2.1c-0.1-0.6-0.1-0.7-0.7-0.9
				c0.1-0.1,0.3-0.2,0.5-0.2c0.3,0,1,0.3,1,0.6c0,0.1-0.1,0.4-0.1,0.5c-0.1,0.3-0.1,0.5-0.1,0.9C270,155.3,270.5,155.1,271,154.9z
				 M268.2,159.4c-1.1,0-1.6,0.3-1.6,0.6c0,0.3,0.4,0.5,1.1,0.5c0.1,0,0.6,0,1-0.3c0.3-0.2,0.3-0.7,0.3-0.8
				C268.9,159.4,268.7,159.4,268.2,159.4z"/>
			<path class="st0" d="M274.9,161.8c0.7-0.5,1.3-1.3,1.7-2.2c0.4-0.9,0.5-1.8,0.5-2.7c0-1-0.2-1.9-0.3-2.1
				c-0.1-0.2-0.3-0.3-0.5-0.3c-0.1,0-0.3,0-0.4,0.2c-0.9,0.9-1.4,2.8-1.4,2.9c-0.1,0.3-0.1,1-0.1,1.1c0,0.1,0,0.4,0,0.5
				c0,0.1-0.1,0.2-0.1,0.2c-0.1,0-0.3-0.1-0.3-0.2c-0.4-0.5-0.4-1.5-0.4-1.7c0-0.6,0.3-2.3,0.4-2.9c0-0.2,0-0.4,0-0.4
				c0-0.5-0.3-0.7-0.6-0.9c0.1,0,0.1,0,0.2,0c0.3,0,0.9,0.2,0.9,0.7c0,0.1,0,0.2-0.1,0.5c-0.1,0.2-0.5,1.6-0.5,2.8
				c0,0.1,0,0.7,0.1,0.7c0,0,0,0,0,0c0,0,0.1,0,0.1-0.1c0.1-0.6,0.7-2.6,1.8-3.3c0.2-0.1,0.4-0.1,0.4-0.1c1.2,0,1.3,1.9,1.3,2.8
				c0,1.3-0.2,2.9-1.6,4.1C275.8,161.4,275.3,161.7,274.9,161.8L274.9,161.8z"/>
		</g>
	</g>
	<g>
		<g>
			<g>
				<path class="st1" d="M46.1,57.8c-1.1,1.5-2.7,3-3.3,3.6c0,0.4-0.1,0.6-0.4,0.6c-0.1,0-0.2-0.1-0.3-0.2L41,60.4
					C41.6,60.4,42.1,60.5,46.1,57.8L46.1,57.8z M43.6,51.8c-0.3,0-1.1,0-1.9,0.1l-0.3-0.7c0.8,0.1,1.7,0.1,2.5,0.1h2.6l0.5-0.4
					c0.1-0.1,0.2-0.1,0.3-0.1c0.1,0,0.2,0.1,0.3,0.2l0.6,0.5c0.1,0.1,0.2,0.2,0.2,0.3c0,0.2,0,0.2-0.5,0.6c0,0.5,0,8.7,0,9.7
					c0,0.7,0,2.1-2.2,2.4c-0.2-0.5-0.5-1.1-1.5-1.6l0-0.1c0.3,0,0.6,0.1,1.3,0.1c1.1,0,1.1,0,1.1-0.5c0-0.2,0.1-7.6,0.1-7.7
					c0-1.2,0-2.3,0-2.8H43.6z M42.2,53.8c1.7,0.3,2.5,1.3,2.5,2c0,0.5-0.4,0.8-0.7,0.8c-0.5,0-0.6-0.3-1-1.1
					C42.8,54.7,42.5,54.3,42.2,53.8L42.2,53.8z M53.2,57.8c-0.8,1-2.4,2.6-3.2,3.4c0,0.2-0.1,0.5-0.3,0.5c-0.1,0-0.2-0.1-0.2-0.2
					L48.4,60C49.1,60,49.7,60,53.2,57.8L53.2,57.8z M51.1,51.8c-0.3,0-1.1,0-1.9,0.1l-0.3-0.7c0.8,0.1,1.7,0.1,2.5,0.1h2.1l0.4-0.5
					c0-0.1,0.2-0.1,0.3-0.1c0.1,0,0.2,0.1,0.2,0.1l0.7,0.5c0.1,0.1,0.1,0.1,0.1,0.2c0,0.1-0.1,0.2-0.5,0.6v2.4
					c0,1.2,0.1,6.4,0.1,7.4c0,0.9,0,1.8-2.2,2.4c-0.1-0.3-0.2-0.8-1.5-1.7l0-0.1c0.4,0,1.2,0.1,1.8,0.1c0.6,0,0.7-0.1,0.7-0.7
					c0-1.6,0-9,0-10.3H51.1z M49.4,53.6c1.1,0.2,2.7,0.9,2.7,1.9c0,0.5-0.3,0.8-0.7,0.8c-0.4,0-0.5-0.2-0.9-1.1
					C50.3,55,49.9,54.3,49.4,53.6L49.4,53.6z"/>
				<path class="st1" d="M70.8,51.7l0.5-0.4c0.1-0.1,0.1-0.2,0.2-0.2c0.1,0,0.2,0.1,0.2,0.1l0.9,0.7c0.1,0.1,0.2,0.1,0.2,0.3
					c0,0.2-0.5,0.5-0.7,0.5c0,1.6,0,6.3,0.1,9c0,0.2,0.1,1.4,0.1,1.6c0,0.7-0.6,0.9-0.9,0.9c-0.5,0-0.5-0.3-0.5-1h-9.3
					c0,0.1,0,0.6,0,0.7c-0.1,0.4-0.6,0.5-0.9,0.5c-0.2,0-0.5-0.1-0.5-0.5c0-0.2,0-1,0-1.2c0.1-2.4,0.1-4.8,0.1-7.1
					c0-3.2-0.1-3.8-0.2-4.7l1.6,0.9H70.8z M61.6,52v5.1h4V52H61.6z M61.6,57.5v5.3h4v-5.3H61.6z M70.9,57.1V52h-4.1v5.1H70.9z
					 M70.9,62.8v-5.3h-4.1v5.3H70.9z"/>
				<path class="st1" d="M91.1,64.1H79c-0.1,0-1.2,0-1.9,0.1l-0.3-0.7c0.8,0.1,1.7,0.1,2.5,0.1h4.1v-3.9h-2.8c-0.4,0-1.2,0-1.9,0.1
					l-0.3-0.7c1.3,0.1,2.2,0.1,2.5,0.1h6.4l0.7-0.8c0.1-0.1,0.2-0.2,0.3-0.2c0.1,0,0.2,0.1,0.3,0.2l1,0.8c0.1,0.1,0.2,0.1,0.2,0.2
					c0,0.2-0.2,0.2-0.3,0.2h-4.8v3.9h4.2l0.7-0.9c0.1-0.1,0.1-0.2,0.2-0.2c0.1,0,0.1,0,0.3,0.2l1,0.9c0.1,0,0.2,0.1,0.2,0.2
					C91.3,64.1,91.2,64.1,91.1,64.1z M90.5,57.2c-0.7,0.1-3.2,0.1-4.1,0.1c-1.7,0-1.7-0.4-1.7-2c0-0.4,0-2.2,0-2.6h-5.4
					c-0.2,1.8-1.5,1.8-1.5,1.8c-0.3,0-0.7-0.2-0.7-0.6c0-0.4,0.3-0.6,0.9-1c1-0.6,1.1-1.2,1.1-1.5h0.1c0.1,0.2,0.1,0.3,0.1,0.8h4.1
					c0-1.1,0-1.6-0.3-2.4l1.6,0.4c0.1,0,0.4,0.1,0.4,0.3c0,0.1,0,0.2-0.1,0.2c-0.1,0-0.3,0.2-0.4,0.3v1.2h3.9l0.6-0.5
					c0.1-0.1,0.2-0.2,0.3-0.2c0.1,0,0.2,0.1,0.3,0.1l1,0.9c0.1,0,0.1,0.2,0.1,0.3c0,0.3-0.2,0.3-0.9,0.4c-0.3,0.2-1.4,0.9-1.7,1.1
					l-0.1-0.1c0.1-0.5,0.2-0.7,0.4-1.6h-2.8c0,0.6,0,3.3,0.1,3.4c0.1,0.1,1.3,0.1,1.6,0.1c0.6,0,1.8,0,2.1-0.3
					c0.4-0.3,0.6-1.2,0.7-1.7h0.1c0.3,1.1,0.4,1.5,0.6,1.6c0.2,0.1,0.3,0.3,0.3,0.5C91.4,56.8,90.8,57.1,90.5,57.2z M82.8,54.1
					c-1,1.9-2.3,3.4-5.5,4.1L77.3,58c3.6-1.8,4.4-4.3,4.5-5.3l1.4,0.7c0.2,0.1,0.2,0.1,0.2,0.2C83.4,53.9,83.4,53.9,82.8,54.1z"/>
				<path class="st1" d="M96.3,56.4c-0.4,0-0.5-0.2-1-1.2c-0.2-0.4-0.5-0.8-0.8-1.1l0-0.1c0.6,0.1,2.4,0.5,2.4,1.6
					C96.9,56,96.7,56.4,96.3,56.4z M97.1,59.2c-0.3,1.1-0.3,1.2-0.3,1.6c0,0.4,0.1,1,0.2,1.5c0.2,1,0.3,1.2,0.3,1.5
					c0,0.5-0.2,0.9-0.7,0.9c-0.8,0-0.8-0.8-0.8-1.2c0-0.2,0-1.1,0-1.3c0-0.6,0-1.3-1.1-1.8v-0.1c0.3,0,0.8-0.1,1.1-0.5
					c0.4-0.5,2.2-5.7,2.3-6.2l0.1,0C98.1,54.9,98,55.3,97.1,59.2z M97.5,52.6c-0.5,0-0.6-0.4-1-1.2c-0.2-0.4-0.4-0.8-0.7-1.2l0-0.1
					c0.3,0.1,2.3,0.6,2.3,1.7C98.2,52.2,97.9,52.6,97.5,52.6z M109.1,59.3c-0.4,0.3-0.5,0.6-0.7,0.9c-1.8-0.7-3.5-2.8-4.1-4.3h-2.1
					c-0.2,0.4-0.7,1.2-1.7,2.4c1.2,0.1,2.3,0.1,2.5,0.1h0.8l0.3-0.3c0.1-0.1,0.2-0.2,0.3-0.2c0.1,0,0.2,0.1,0.3,0.2l0.5,0.4
					c0.1,0.1,0.2,0.2,0.2,0.3c0,0.2-0.1,0.2-0.4,0.5c0,0.2,0.1,1.3,0.1,1.5c0,0.3,0,0.5-0.2,0.7c-0.1,0.1-0.5,0.2-0.6,0.2
					c-0.3,0-0.3-0.2-0.3-0.4h-2.2c-0.1,2.2,0,2.2,0.9,2.2c2.8,0,3.4,0,3.7-0.3c0.4-0.4,0.5-1,0.9-2.2h0.1c0.1,0.5,0.3,1.6,0.5,1.9
					c0.1,0.1,0.1,0.1,0.3,0.2c0.1,0.1,0.1,0.1,0.1,0.2c0,0.1,0,0.5-0.7,0.8c-0.8,0.4-2.4,0.4-3.3,0.4c-3.1,0-3.6-0.1-3.6-1.3
					c0-1,0-2.6-0.1-3.1l1.5,0.7h1.9v-2.1h-1.3c-0.4,0-1.2,0-1.9,0.1l-0.3-0.6c-0.8,0.9-2,2-3,2.6l0-0.1c1.5-1.5,2.9-3.6,3.4-4.8
					c-0.3,0-1.3,0-2.1,0.1l-0.3-0.7c0.9,0.1,1,0.1,2.5,0.1v-2.8c-0.6,0-1.1,0-1.7,0.1l-0.3-0.7c0.4,0,1,0.1,2,0.1
					c0-1.3,0-1.5-0.3-2.5l1.5,0.4c0.2,0.1,0.3,0.1,0.3,0.2c0,0.2-0.1,0.3-0.5,0.5c0,0.3,0,0.4,0,1.3h2.1c0-1.3,0-1.5-0.3-2.5
					l1.6,0.4c0.2,0,0.3,0.1,0.3,0.2c0,0.2-0.3,0.4-0.5,0.5c0,0.2,0,1.1,0,1.3h0.9l0.5-0.7c0.1-0.1,0.1-0.2,0.2-0.2
					c0.1,0,0.2,0.1,0.3,0.2l0.7,0.7c0.1,0.1,0.2,0.1,0.2,0.2c0,0.2-0.1,0.2-0.2,0.2h-2.7v2.8h1.8l0.6-0.7c0.1-0.1,0.1-0.2,0.2-0.2
					c0.1,0,0.2,0.1,0.3,0.2l0.8,0.7c0.1,0.1,0.2,0.2,0.2,0.2c0,0.2-0.1,0.2-0.2,0.2h-4.2c0.6,1,2.4,2.6,5.1,2.9v0.1
					C109.6,59,109.2,59.2,109.1,59.3z M104.1,52.7H102v2.8h2.1C104.1,55.1,104.1,53.2,104.1,52.7z"/>
				<path class="st1" d="M138,52.6h-2.9c0.9,0.6,1.3,0.9,1.3,1.5c0,0.3-0.2,0.7-0.6,0.7c-0.5,0-0.5-0.2-0.6-1
					c-0.1-0.7-0.3-1.1-0.4-1.2h-0.7c-0.8,1.1-1.5,1.9-2.9,2.8l-0.1-0.1c1-1.2,2.4-3.6,2.9-4.7c0-0.1,0.1-0.4,0.1-0.9l1.5,0.8
					c0.1,0.1,0.1,0.1,0.1,0.2c0,0.2-0.2,0.2-0.7,0.4c-0.2,0.3-0.6,0.9-0.7,1.1h1.8l0.5-0.6c0.1-0.1,0.2-0.2,0.2-0.2
					c0.1,0,0.2,0.1,0.3,0.2l0.7,0.6c0.1,0.1,0.2,0.2,0.2,0.2C138.3,52.6,138.1,52.6,138,52.6z M144.6,60c-0.5,2.1-0.7,3.3-3,3.6
					c0-0.6-0.6-1.3-1.2-1.7l0-0.1c0.7,0.1,1.4,0.3,1.9,0.3c0.5,0,1-0.1,1.2-2.4h-4.8c0,0.6,0,3.4,0.1,4c0,0.1,0,0.6,0,0.7
					c0,0.5-0.4,0.7-0.8,0.7c-0.2,0-0.4-0.1-0.4-0.5c0-0.8,0.1-3.5,0.1-4.4c-1.6,2-3.7,3.4-6.1,4.3l0-0.1c1.1-0.6,3.5-2.5,5.2-4.7
					h-3.3c-0.2,0.8-0.3,1.1-0.8,1.1c-0.4,0-0.6-0.1-0.6-0.4c0,0,0.2-0.6,0.3-0.9c0.6-1.7,0.6-2.2,0.7-3.1l1.3,0.8h3.3
					c0-0.1,0-1.4,0-1.6h-2.5c-0.1,0-1.2,0-1.9,0.2l-0.3-0.7c0.8,0.1,1.7,0.1,2.5,0.1h6.7l0.4-0.4c0,0,0.1-0.1,0.2-0.1
					c0.1,0,0.2,0,0.2,0.1l0.8,0.6c0,0,0.1,0.1,0.1,0.2c0,0.1-0.2,0.3-0.5,0.5c0,0.2,0.1,1.4,0.1,1.5c0,0.6-0.7,0.6-0.8,0.6
					c-0.4,0-0.4-0.4-0.4-0.6h-3.5v1.8h4.7l0.6-0.6c0.1-0.1,0.1-0.2,0.2-0.2c0.1,0,0.2,0.1,0.2,0.2l0.8,0.7c0.1,0,0.1,0.1,0.1,0.2
					C145.3,59.7,145,59.8,144.6,60z M137.7,57.4H134c-0.2,0.5-0.2,0.6-0.5,1.8h4.1V57.4z M145.2,52.8h-4.8c1.2,0.5,1.7,0.7,1.7,1.4
					c0,0.4-0.3,0.6-0.6,0.6c-0.4,0-0.5-0.2-0.7-1c-0.1-0.3-0.4-0.7-0.6-1h-0.6c-0.5,0.7-1.1,1.5-1.9,2l-0.1-0.1c1-1.7,2-3.5,1.9-4.9
					l1.6,0.7c0.1,0,0.1,0.1,0.1,0.2c0,0.2-0.2,0.3-0.7,0.4c-0.2,0.3-0.3,0.6-0.7,1.2h3.5l0.5-0.8c0.1-0.1,0.1-0.2,0.2-0.2
					c0.1,0,0.2,0.1,0.3,0.2l0.9,0.8c0.1,0.1,0.2,0.1,0.2,0.2C145.5,52.7,145.3,52.8,145.2,52.8z M142.3,55.4h-3.5V57h3.5V55.4z"/>
				<path class="st1" d="M154.9,63.6h-6.5v-0.4c0.3-1,1.1-2.2,2.4-3.7c2.4-2.8,3.2-3.7,3.2-5.4c0-1.2-0.8-2.2-2.2-2.2
					c-1.1,0-1.8,0.7-1.8,1.3c0,0,0,0.3,0.2,0.5c0.2,0.3,0.3,0.5,0.3,0.8c0,0.5-0.4,0.9-0.9,0.9c-0.6,0-0.9-0.5-0.9-1.2
					c0-1.2,1.2-2.9,3.5-2.9c2,0,3.3,1.3,3.3,3.1c0,1.7-1,2.6-2.4,3.8c-0.6,0.5-2.7,2.3-3.5,4.1h2.3c2.3,0,2.8-0.9,3.3-2.2l0.5,0.2
					L154.9,63.6z"/>
				<path class="st1" d="M168.5,54.3c-0.3,0.1-0.4,0.2-1,1.3c-2.5,4.9-5.1,7.2-8.7,8.2l0-0.1c2.2-1.3,4.2-2.9,5.6-4.9
					c-0.2,0-0.3-0.2-0.6-0.5c-1.1-1.3-1.3-1.5-2.2-2c-0.9,1-1.8,1.7-2.7,2.1l0-0.1c2.1-2,4-5.4,4-6c0-0.5-0.6-0.8-1-0.9
					c0.2-0.1,0.4-0.2,0.8-0.2c0.9,0,1.8,0.8,1.8,1.1c0,0.2,0,0.2-0.4,0.5c-0.1,0.1-0.3,0.4-0.4,0.6c0.1,0,0.3,0,0.6,0
					c0.8,0,2.5-0.3,2.7-0.4c0.1-0.1,0.6-0.4,0.7-0.4c0.2,0,1.3,1.1,1.3,1.3C168.9,54.1,168.9,54.2,168.5,54.3z M164.2,54.2
					c-0.1,0-0.3,0-0.9-0.3c-0.9,1.3-1.5,2-1.6,2.1c0.9,0.1,3,0.5,3.1,2c0.4-0.6,1.2-1.8,2.1-4.2C166.5,53.9,164.6,54.2,164.2,54.2z"
					/>
				<path class="st1" d="M184.4,57.9c-0.1,0-0.5,0-0.6,0c-0.6,0-0.8-0.1-1.9-0.1c-5,0-6.5,0.1-7.2,0.3c0,0-0.6,0.1-0.6,0.1
					c-0.4,0-1.3-1.1-1.3-1.8c0-0.1,0-0.4,0.2-0.8c0.6,1.2,1.1,1.2,2.8,1.2c1.1,0,6.5,0,7.2-0.2c0.1,0,0.6-0.1,0.7-0.1
					c0.1,0,1.7,0.2,1.7,0.8C185.4,57.9,184.6,57.9,184.4,57.9z"/>
				<path class="st1" d="M196.4,63.5c-0.2,0-0.4-0.1-1-0.6c-0.8-0.7-1.6-1.5-4.1-2.5c-0.9-0.4-1.6-0.6-2.3-0.8
					c3.9-0.1,7.9,1.7,7.9,3.3C196.9,63.2,196.7,63.5,196.4,63.5z M195.9,54.3c-0.2,0-0.3,0-0.9-0.5c-1.7-1.2-3.4-1.7-5.3-2.2
					c0.3,0,0.7,0,1.1,0c1.8,0,5.5,0.7,5.5,2.2C196.3,54,196.2,54.3,195.9,54.3z M195.5,58.1c-0.2,0-0.3-0.1-0.9-0.5
					c-1.1-0.8-2.9-1.5-4.4-2c0.3,0,0.4,0,0.8,0c0.2,0,5,0,5,2C195.9,57.6,195.9,58.1,195.5,58.1z"/>
				<path class="st1" d="M212.5,56.2c-0.1,0-1.4-0.2-1.6-0.2c-0.6-0.1-1.1-0.1-1.5-0.1c-0.9,0-1.4,0-1.8,0.1c0,0.3-0.1,2.2-0.5,3.8
					c-0.4,1.5-1.8,3.9-4.5,4.6l0-0.1c2.9-1.9,3.8-4.8,4-8.3c-1,0.1-3.2,0.4-3.9,0.8c-0.3,0.2-0.4,0.2-0.6,0.2
					c-0.4,0-1.6-0.7-1.6-1.9c0-0.2,0-0.3,0-0.5c0.6,0.9,1.1,1.1,1.7,1.1c0.3,0,0.3,0,1.1-0.1c0.5,0,2.8-0.3,3.2-0.3
					c0-0.7,0-2.4-0.1-3c-0.1-0.4-0.5-0.6-1.3-0.8c0.4-0.4,0.9-0.4,1.1-0.4c0.7,0,1.8,0.4,1.8,1c0,0.1-0.2,0.6-0.3,0.7
					c0,0.1-0.1,1.2-0.1,1.7c0,0.4,0,0.6,0,0.8c0.3,0,2.8-0.1,2.9-0.2c0.2,0,0.9-0.2,1-0.2c0.1,0,1.6,0.2,1.6,0.9
					C213.1,56.2,212.7,56.2,212.5,56.2z"/>
				<path class="st1" d="M220.5,54.6c0,0.4-0.2,2.1-0.2,2.4c-0.4,3.5-2.5,5.4-3.9,6l-0.1-0.1c3-2.9,3-6.4,3-7.8c0-1.4,0-1.4-1.3-1.7
					c0.3-0.2,0.6-0.4,1.1-0.4c0.4,0,1.5,0.4,1.5,0.8C220.7,53.9,220.5,54.5,220.5,54.6z M224.5,61.4c-0.6,0.4-0.6,0.5-1,0.9
					c-0.1,0.1-0.2,0.2-0.3,0.2c-0.3,0-1.1-1.3-1.1-1.6c0-0.1,0.2-0.6,0.2-0.7c0.1-0.7,0.1-2.8,0.1-3.3c0-0.6,0-3.6-0.1-4
					c-0.1-0.3-0.4-0.5-1.2-0.8c0.2-0.1,0.5-0.3,0.9-0.3c0.5,0,1.8,0.5,1.8,1c0,0.1-0.2,0.8-0.2,0.9c-0.2,0.8-0.2,5.4-0.2,6.4
					c0,0.1,0,0.3,0.1,0.3c0.4,0,3.4-1.9,5.9-5.2l0.1,0.1C228.5,58.1,226.1,60.2,224.5,61.4z"/>
				<path class="st1" d="M246.7,61.2c-0.7,0-3.8-2.2-5-3.3c-0.5-0.4-2.9-2.7-3.4-3.1c-0.1-0.1-0.3-0.2-0.6-0.2
					c-0.7,0-2.1,1.6-2.7,2.4c-0.9,1.1-1.1,1.2-1.4,1.2c-0.6,0-1.5-0.6-1.5-1.4c0-0.1,0-0.1,0-0.3c0.2,0.1,0.5,0.3,0.9,0.3
					c0.5,0,1.2-0.6,1.8-1.1c0.3-0.2,1.5-1.3,1.7-1.5c0.5-0.4,0.8-0.6,1.3-0.6c0.6,0,1,0.3,1.4,0.8c3.1,2.9,4,3.3,6.9,4.9
					c0.3,0.1,1.1,0.6,1.1,1.3C247.2,61.2,246.9,61.2,246.7,61.2z"/>
			</g>
		</g>
	</g>
	<g>
		<g>
			<g>
				<path class="st1" d="M283.9,49.7c0.2,0.1,0.3,0.2,0.3,0.4c0,0.2-0.2,0.3-0.8,0.4c-0.3,0.3-0.8,1-1.6,2c-0.7,0.9-1.4,1.6-1.9,2.2
					c0.1,0,1.7-0.1,2.8-0.2c-0.1-0.1-0.3-0.6-0.8-1.1l0.1-0.1c1.5,0.6,2.7,1.5,2.7,2.4c0,0.4-0.2,0.8-0.7,0.8
					c-0.5,0-0.7-0.2-0.8-0.9c0-0.1-0.1-0.3-0.2-0.6l-1.8,0.4c0,0.8,0.1,4.8,0.1,5.2c0,0.4,0.1,2.1,0.1,2.5c0,0.5-0.4,0.8-0.9,0.8
					c-0.4,0-0.5-0.3-0.5-0.6c0-0.3,0.1-1.6,0.1-1.9c0-0.6,0-2.5,0.1-5.8c-1.2,0.3-2.2,0.5-2.4,0.5c-0.1,0.2-0.3,0.6-0.5,0.6
					c-0.2,0-0.3-0.2-0.4-0.4l-0.4-1.7c0.3,0.1,0.9,0.1,1.4,0.1c0.6,0,1.5,0,1.8,0c1.3-1.8,2.5-4.3,2.8-5c0.1-0.2,0.1-0.5,0.1-0.8
					L283.9,49.7z M276.2,62.5c0.8-1.9,1.4-4.4,1.4-5.7l1.6,0.6c0.1,0.1,0.3,0.2,0.3,0.3c0,0.1-0.1,0.2-0.6,0.4
					C278.2,59.9,277.7,61,276.2,62.5L276.2,62.5z M277,49.7c0.5,0.1,1.2,0.3,1.7,0.5c0.5-1.1,1.4-3.2,1.3-4.4l1.8,0.9
					c0.2,0.1,0.2,0.2,0.2,0.3c0,0.3-0.3,0.4-0.7,0.4c-0.9,1.2-1,1.3-2.4,2.9c0.6,0.3,1.1,0.9,1.1,1.5c0,0.4-0.3,0.9-0.8,0.9
					c-0.4,0-0.6-0.2-1-1.2c-0.4-1-0.9-1.4-1.3-1.8L277,49.7z M281.6,57.1c0.8,0.4,2.7,1.2,2.7,2.5c0,0.6-0.4,1-0.9,1
					c-0.5,0-0.6-0.4-0.9-1.3C282.3,58.3,281.9,57.7,281.6,57.1L281.6,57.1z M290.9,50.8l0.6-0.5c0.1-0.1,0.2-0.2,0.3-0.2
					c0.1,0,0.2,0.1,0.3,0.2l0.9,0.8c0.1,0.1,0.2,0.2,0.2,0.3c0,0.1-0.4,0.4-0.7,0.7c-0.1,5.4-0.2,7.8-1.2,9.8
					c-0.7,1.4-1.9,1.9-3,1.9c-0.2-0.9-0.8-1.5-1.8-2.2l0-0.1c0.9,0.2,2.1,0.4,2.6,0.4c2,0,2.1-6.4,2.1-8.4c0-0.3,0-1.7,0-2h-5.2
					c-1,1.8-1.6,2.5-1.9,2.8l-0.1-0.1c1.4-2.9,2.1-6.1,2.1-7.2c0-0.2-0.1-0.6-0.1-0.7l2.1,0.9c0.1,0,0.2,0.1,0.2,0.3
					c0,0.2-0.3,0.3-0.8,0.5c-0.2,0.6-0.6,1.6-1.3,3H290.9z M285.6,54.5c1.8,0.8,2.8,1.4,2.8,2.4c0,0.5-0.2,0.9-0.8,0.9
					c-0.5,0-0.7-0.2-1.1-1.6c-0.2-0.5-0.5-1.2-1-1.7L285.6,54.5z"/>
				<path class="st1" d="M304.6,41.8h1.2v14.8h3.3v0.9h-3.3v3.4c0,1.3,0.6,1.8,2,1.8h0.5v0.9h-7.4v-0.9h0.5c1.4,0,2-0.5,2-1.8v-3.4
					h-7.8v-1L304.6,41.8z M303.4,45.6l-6.7,11h6.7V45.6z"/>
				<path class="st1" d="M317.5,64.2c-2,0-3.7-1.4-4.8-3.1c-1.2-2-1.8-5.6-1.8-8.3c0-6.2,2.7-10.9,6.6-10.9c3,0,6.6,3.2,6.6,11.2
					C324.1,60.1,321.1,64.2,317.5,64.2z M314.2,46.7c-0.4,1.5-0.7,3.9-0.7,6.3c0,6.5,1.5,10.2,3.9,10.2c2,0,2.9-2.7,3.2-3.8
					c0.4-1.5,0.7-4,0.7-6.4c0-6.6-1.6-10.2-3.9-10.2C315.4,42.8,314.5,45.6,314.2,46.7z"/>
				<path class="st1" d="M332.3,48.8c-1.6,3.3-4.5,5.8-6,6.6l-0.1-0.1c2.7-3.1,4.3-5.8,4.7-7.1c0.2-0.5,0.3-0.9,0.3-1.2l1.7,1.1
					c0.1,0.1,0.3,0.2,0.3,0.3C333.2,48.6,332.7,48.7,332.3,48.8z M339.4,54.9c-0.2,7-0.6,8.4-4.1,8.7c-0.1-1.2-1-1.9-1.5-2.1l0-0.1
					c0.8,0.2,1.7,0.3,2.3,0.3c0.9,0,1.3-0.2,1.6-2c0.2-1.4,0.4-4.7,0.3-5.6h-3.9c-0.1,3.1-1.4,8.3-7.5,9.4l0-0.2
					c3.9-1.8,5.9-4.8,6.1-9.3h-0.6c-0.5,0-1.4,0-2.3,0.2l-0.4-0.8c1.2,0.1,2.4,0.1,3,0.1h5.5l0.5-0.5c0.1-0.1,0.2-0.2,0.3-0.2
					c0.1,0,0.2,0.1,0.3,0.2l0.8,0.9c0.1,0.1,0.2,0.2,0.2,0.3C340,54.5,339.9,54.5,339.4,54.9z M342.9,54.9c-2.1-0.9-4.4-3-5.9-7.4
					h-1.6c-1,0-1.4,0.1-1.6,0.1l-0.3-0.7c0.9,0.1,1.7,0.1,2.1,0.1h1l0.6-0.6c0.2-0.2,0.3-0.2,0.3-0.2c0.1,0,0.2,0.1,0.3,0.2l0.7,0.7
					c0.1,0.1,0.2,0.2,0.2,0.3c0,0.4-0.9,0.5-1.2,0.6c0.9,2.5,4.2,5,7.1,5.2l0,0.2C343.7,53.7,343.3,54.4,342.9,54.9z"/>
			</g>
		</g>
	</g>
	<g>
		<g>
			<g>
				<path class="st1" d="M46.1,93.3c-1.1,1.5-2.7,3-3.3,3.6c0,0.4-0.1,0.6-0.4,0.6c-0.1,0-0.2-0.1-0.3-0.2L41,95.9
					C41.6,95.9,42.1,95.9,46.1,93.3L46.1,93.3z M43.6,87.2c-0.3,0-1.1,0-1.9,0.1l-0.3-0.7c0.8,0.1,1.7,0.1,2.5,0.1h2.6l0.5-0.4
					c0.1-0.1,0.2-0.1,0.3-0.1c0.1,0,0.2,0.1,0.3,0.2l0.6,0.5c0.1,0.1,0.2,0.2,0.2,0.3c0,0.2,0,0.2-0.5,0.6c0,0.5,0,8.7,0,9.7
					c0,0.7,0,2.1-2.2,2.4c-0.2-0.5-0.5-1.1-1.5-1.6l0-0.1c0.3,0,0.6,0.1,1.3,0.1c1.1,0,1.1,0,1.1-0.5c0-0.2,0.1-7.6,0.1-7.7
					c0-1.2,0-2.3,0-2.8H43.6z M42.2,89.3c1.7,0.3,2.5,1.3,2.5,2c0,0.5-0.4,0.8-0.7,0.8c-0.5,0-0.6-0.3-1-1.1
					C42.8,90.2,42.5,89.8,42.2,89.3L42.2,89.3z M53.2,93.3c-0.8,1-2.4,2.6-3.2,3.4c0,0.2-0.1,0.5-0.3,0.5c-0.1,0-0.2-0.1-0.2-0.2
					l-1.1-1.4C49.1,95.5,49.7,95.5,53.2,93.3L53.2,93.3z M51.1,87.3c-0.3,0-1.1,0-1.9,0.1l-0.3-0.7c0.8,0.1,1.7,0.1,2.5,0.1h2.1
					l0.4-0.5c0-0.1,0.2-0.1,0.3-0.1c0.1,0,0.2,0.1,0.2,0.1l0.7,0.5c0.1,0.1,0.1,0.1,0.1,0.2c0,0.1-0.1,0.2-0.5,0.6v2.4
					c0,1.2,0.1,6.4,0.1,7.4c0,0.9,0,1.8-2.2,2.4c-0.1-0.3-0.2-0.8-1.5-1.7l0-0.1c0.4,0,1.2,0.1,1.8,0.1c0.6,0,0.7-0.1,0.7-0.7
					c0-1.6,0-9,0-10.3H51.1z M49.4,89.1c1.1,0.2,2.7,0.9,2.7,1.9c0,0.5-0.3,0.8-0.7,0.8c-0.4,0-0.5-0.2-0.9-1.1
					C50.3,90.5,49.9,89.8,49.4,89.1L49.4,89.1z"/>
				<path class="st1" d="M70.8,87.1l0.5-0.4c0.1-0.1,0.1-0.2,0.2-0.2c0.1,0,0.2,0.1,0.2,0.1l0.9,0.7c0.1,0.1,0.2,0.1,0.2,0.3
					c0,0.2-0.5,0.5-0.7,0.5c0,1.6,0,6.3,0.1,9c0,0.2,0.1,1.4,0.1,1.6c0,0.7-0.6,0.9-0.9,0.9c-0.5,0-0.5-0.3-0.5-1h-9.3
					c0,0.1,0,0.6,0,0.7c-0.1,0.4-0.6,0.5-0.9,0.5c-0.2,0-0.5-0.1-0.5-0.5c0-0.2,0-1,0-1.2c0.1-2.4,0.1-4.8,0.1-7.1
					c0-3.2-0.1-3.8-0.2-4.7l1.6,0.9H70.8z M61.6,87.5v5.1h4v-5.1H61.6z M61.6,93v5.3h4V93H61.6z M70.9,92.6v-5.1h-4.1v5.1H70.9z
					 M70.9,98.3V93h-4.1v5.3H70.9z"/>
				<path class="st1" d="M91.1,99.6H79c-0.1,0-1.2,0-1.9,0.1l-0.3-0.7c0.8,0.1,1.7,0.1,2.5,0.1h4.1v-3.9h-2.8c-0.4,0-1.2,0-1.9,0.1
					l-0.3-0.7c1.3,0.1,2.2,0.1,2.5,0.1h6.4l0.7-0.8c0.1-0.1,0.2-0.2,0.3-0.2c0.1,0,0.2,0.1,0.3,0.2l1,0.8c0.1,0.1,0.2,0.1,0.2,0.2
					c0,0.2-0.2,0.2-0.3,0.2h-4.8v3.9h4.2l0.7-0.9c0.1-0.1,0.1-0.2,0.2-0.2c0.1,0,0.1,0,0.3,0.2l1,0.9c0.1,0,0.2,0.1,0.2,0.2
					C91.3,99.5,91.2,99.6,91.1,99.6z M90.5,92.7c-0.7,0.1-3.2,0.1-4.1,0.1c-1.7,0-1.7-0.4-1.7-2c0-0.4,0-2.2,0-2.6h-5.4
					C79.1,90,77.9,90,77.8,90c-0.3,0-0.7-0.2-0.7-0.6c0-0.4,0.3-0.6,0.9-1c1-0.6,1.1-1.2,1.1-1.5h0.1c0.1,0.2,0.1,0.3,0.1,0.8h4.1
					c0-1.1,0-1.6-0.3-2.4l1.6,0.4c0.1,0,0.4,0.1,0.4,0.3c0,0.1,0,0.2-0.1,0.2s-0.3,0.2-0.4,0.3v1.2h3.9l0.6-0.5
					c0.1-0.1,0.2-0.2,0.3-0.2c0.1,0,0.2,0.1,0.3,0.1l1,0.9c0.1,0,0.1,0.2,0.1,0.3c0,0.3-0.2,0.3-0.9,0.4c-0.3,0.2-1.4,0.9-1.7,1.1
					l-0.1-0.1c0.1-0.5,0.2-0.7,0.4-1.6h-2.8c0,0.6,0,3.3,0.1,3.4c0.1,0.1,1.3,0.1,1.6,0.1c0.6,0,1.8,0,2.1-0.3
					c0.4-0.3,0.6-1.2,0.7-1.7h0.1c0.3,1.1,0.4,1.5,0.6,1.6c0.2,0.1,0.3,0.3,0.3,0.5C91.4,92.3,90.8,92.6,90.5,92.7z M82.8,89.6
					c-1,1.9-2.3,3.4-5.5,4.1l-0.1-0.1c3.6-1.8,4.4-4.3,4.5-5.3l1.4,0.7c0.2,0.1,0.2,0.1,0.2,0.2C83.4,89.4,83.4,89.4,82.8,89.6z"/>
				<path class="st1" d="M96.3,91.9c-0.4,0-0.5-0.2-1-1.2c-0.2-0.4-0.5-0.8-0.8-1.1l0-0.1c0.6,0.1,2.4,0.5,2.4,1.6
					C96.9,91.5,96.7,91.9,96.3,91.9z M97.1,94.7c-0.3,1.1-0.3,1.2-0.3,1.6c0,0.4,0.1,1,0.2,1.5c0.2,1,0.3,1.2,0.3,1.5
					c0,0.5-0.2,0.9-0.7,0.9c-0.8,0-0.8-0.8-0.8-1.2c0-0.2,0-1.1,0-1.3c0-0.6,0-1.3-1.1-1.8v-0.1c0.3,0,0.8-0.1,1.1-0.5
					c0.4-0.5,2.2-5.7,2.3-6.2l0.1,0C98.1,90.4,98,90.8,97.1,94.7z M97.5,88.1c-0.5,0-0.6-0.4-1-1.2c-0.2-0.4-0.4-0.8-0.7-1.2l0-0.1
					c0.3,0.1,2.3,0.6,2.3,1.7C98.2,87.7,97.9,88.1,97.5,88.1z M109.1,94.8c-0.4,0.3-0.5,0.6-0.7,0.9c-1.8-0.7-3.5-2.8-4.1-4.3h-2.1
					c-0.2,0.4-0.7,1.2-1.7,2.4c1.2,0.1,2.3,0.1,2.5,0.1h0.8l0.3-0.3c0.1-0.1,0.2-0.2,0.3-0.2c0.1,0,0.2,0.1,0.3,0.2l0.5,0.4
					c0.1,0.1,0.2,0.2,0.2,0.3c0,0.2-0.1,0.2-0.4,0.5c0,0.2,0.1,1.3,0.1,1.5c0,0.3,0,0.5-0.2,0.7c-0.1,0.1-0.5,0.2-0.6,0.2
					c-0.3,0-0.3-0.2-0.3-0.4h-2.2c-0.1,2.2,0,2.2,0.9,2.2c2.8,0,3.4,0,3.7-0.3c0.4-0.4,0.5-1,0.9-2.2h0.1c0.1,0.5,0.3,1.6,0.5,1.9
					c0.1,0.1,0.1,0.1,0.3,0.2c0.1,0.1,0.1,0.1,0.1,0.2c0,0.1,0,0.5-0.7,0.8c-0.8,0.4-2.4,0.4-3.3,0.4c-3.1,0-3.6-0.1-3.6-1.3
					c0-1,0-2.6-0.1-3.1l1.5,0.7h1.9v-2.1h-1.3c-0.4,0-1.2,0-1.9,0.1l-0.3-0.6c-0.8,0.9-2,2-3,2.6l0-0.1c1.5-1.5,2.9-3.6,3.4-4.8
					c-0.3,0-1.3,0-2.1,0.1l-0.3-0.7c0.9,0.1,1,0.1,2.5,0.1v-2.8c-0.6,0-1.1,0-1.7,0.1l-0.3-0.7c0.4,0,1,0.1,2,0.1
					c0-1.3,0-1.5-0.3-2.5l1.5,0.4c0.2,0.1,0.3,0.1,0.3,0.2c0,0.2-0.1,0.3-0.5,0.5c0,0.3,0,0.4,0,1.3h2.1c0-1.3,0-1.5-0.3-2.5
					l1.6,0.4c0.2,0,0.3,0.1,0.3,0.2c0,0.2-0.3,0.4-0.5,0.5c0,0.2,0,1.1,0,1.3h0.9l0.5-0.7c0.1-0.1,0.1-0.2,0.2-0.2
					c0.1,0,0.2,0.1,0.3,0.2l0.7,0.7c0.1,0.1,0.2,0.1,0.2,0.2c0,0.2-0.1,0.2-0.2,0.2h-2.7V91h1.8l0.6-0.7c0.1-0.1,0.1-0.2,0.2-0.2
					c0.1,0,0.2,0.1,0.3,0.2l0.8,0.7c0.1,0.1,0.2,0.2,0.2,0.2c0,0.2-0.1,0.2-0.2,0.2h-4.2c0.6,1,2.4,2.6,5.1,2.9v0.1
					C109.6,94.5,109.2,94.7,109.1,94.8z M104.1,88.2H102V91h2.1C104.1,90.6,104.1,88.7,104.1,88.2z"/>
				<path class="st1" d="M138,88.1h-2.9c0.9,0.6,1.3,0.9,1.3,1.5c0,0.3-0.2,0.7-0.6,0.7c-0.5,0-0.5-0.2-0.6-1
					c-0.1-0.7-0.3-1.1-0.4-1.2h-0.7c-0.8,1.1-1.5,1.9-2.9,2.8l-0.1-0.1c1-1.2,2.4-3.6,2.9-4.7c0-0.1,0.1-0.4,0.1-0.9l1.5,0.8
					c0.1,0.1,0.1,0.1,0.1,0.2c0,0.2-0.2,0.2-0.7,0.4c-0.2,0.3-0.6,0.9-0.7,1.1h1.8l0.5-0.6c0.1-0.1,0.2-0.2,0.2-0.2
					c0.1,0,0.2,0.1,0.3,0.2l0.7,0.6c0.1,0.1,0.2,0.2,0.2,0.2C138.3,88.1,138.1,88.1,138,88.1z M144.6,95.5c-0.5,2.1-0.7,3.3-3,3.6
					c0-0.6-0.6-1.3-1.2-1.7l0-0.1c0.7,0.1,1.4,0.3,1.9,0.3c0.5,0,1-0.1,1.2-2.4h-4.8c0,0.6,0,3.4,0.1,4c0,0.1,0,0.6,0,0.7
					c0,0.5-0.4,0.7-0.8,0.7c-0.2,0-0.4-0.1-0.4-0.5c0-0.8,0.1-3.5,0.1-4.4c-1.6,2-3.7,3.4-6.1,4.3l0-0.1c1.1-0.6,3.5-2.5,5.2-4.7
					h-3.3c-0.2,0.8-0.3,1.1-0.8,1.1c-0.4,0-0.6-0.1-0.6-0.4c0,0,0.2-0.6,0.3-0.9c0.6-1.7,0.6-2.2,0.7-3.1l1.3,0.8h3.3
					c0-0.1,0-1.4,0-1.6h-2.5c-0.1,0-1.2,0-1.9,0.2l-0.3-0.7c0.8,0.1,1.7,0.1,2.5,0.1h6.7l0.4-0.4c0,0,0.1-0.1,0.2-0.1
					c0.1,0,0.2,0,0.2,0.1l0.8,0.6c0,0,0.1,0.1,0.1,0.2c0,0.1-0.2,0.3-0.5,0.5c0,0.2,0.1,1.4,0.1,1.5c0,0.6-0.7,0.6-0.8,0.6
					c-0.4,0-0.4-0.4-0.4-0.6h-3.5v1.8h4.7l0.6-0.6c0.1-0.1,0.1-0.2,0.2-0.2c0.1,0,0.2,0.1,0.2,0.2l0.8,0.7c0.1,0,0.1,0.1,0.1,0.2
					C145.3,95.2,145,95.3,144.6,95.5z M137.7,92.9H134c-0.2,0.5-0.2,0.6-0.5,1.8h4.1V92.9z M145.2,88.2h-4.8
					c1.2,0.5,1.7,0.7,1.7,1.4c0,0.4-0.3,0.6-0.6,0.6c-0.4,0-0.5-0.2-0.7-1c-0.1-0.3-0.4-0.7-0.6-1h-0.6c-0.5,0.7-1.1,1.5-1.9,2
					l-0.1-0.1c1-1.7,2-3.5,1.9-4.9l1.6,0.7c0.1,0,0.1,0.1,0.1,0.2c0,0.2-0.2,0.3-0.7,0.4c-0.2,0.3-0.3,0.6-0.7,1.2h3.5l0.5-0.8
					c0.1-0.1,0.1-0.2,0.2-0.2c0.1,0,0.2,0.1,0.3,0.2l0.9,0.8c0.1,0.1,0.2,0.1,0.2,0.2C145.5,88.2,145.3,88.2,145.2,88.2z
					 M142.3,90.9h-3.5v1.6h3.5V90.9z"/>
				<path class="st1" d="M149.4,98.6h0.9c0.9,0,1.1-0.3,1.1-1v-8.9c0-0.5-0.5-0.6-0.8-0.6h-1.2v-0.5h0.3c1.3,0,2.5-0.6,2.7-0.7
					c0.1-0.1,0.2-0.1,0.2-0.1c0.1,0,0.2,0.1,0.2,0.2v10.5c0,0.7,0.3,1,1.1,1h0.9v0.5h-5.5V98.6z"/>
				<path class="st1" d="M168.5,89.8c-0.3,0.1-0.4,0.2-1,1.3c-2.5,4.9-5.1,7.2-8.7,8.2l0-0.1c2.2-1.3,4.2-2.9,5.6-4.9
					c-0.2,0-0.3-0.2-0.6-0.5c-1.1-1.3-1.3-1.5-2.2-2c-0.9,1-1.8,1.7-2.7,2.1l0-0.1c2.1-2,4-5.4,4-6c0-0.5-0.6-0.8-1-0.9
					c0.2-0.1,0.4-0.2,0.8-0.2c0.9,0,1.8,0.8,1.8,1.1c0,0.2,0,0.2-0.4,0.5c-0.1,0.1-0.3,0.4-0.4,0.6c0.1,0,0.3,0,0.6,0
					c0.8,0,2.5-0.3,2.7-0.4c0.1-0.1,0.6-0.4,0.7-0.4c0.2,0,1.3,1.1,1.3,1.3C168.9,89.6,168.9,89.6,168.5,89.8z M164.2,89.7
					c-0.1,0-0.3,0-0.9-0.3c-0.9,1.3-1.5,2-1.6,2.1c0.9,0.1,3,0.5,3.1,2c0.4-0.6,1.2-1.8,2.1-4.2C166.5,89.4,164.6,89.7,164.2,89.7z"
					/>
				<path class="st1" d="M184.4,93.4c-0.1,0-0.5,0-0.6,0c-0.6,0-0.8-0.1-1.9-0.1c-5,0-6.5,0.1-7.2,0.3c0,0-0.6,0.1-0.6,0.1
					c-0.4,0-1.3-1.1-1.3-1.8c0-0.1,0-0.4,0.2-0.8c0.6,1.2,1.1,1.2,2.8,1.2c1.1,0,6.5,0,7.2-0.2c0.1,0,0.6-0.1,0.7-0.1
					c0.1,0,1.7,0.2,1.7,0.8C185.4,93.4,184.6,93.4,184.4,93.4z"/>
				<path class="st1" d="M196.4,99c-0.2,0-0.4-0.1-1-0.6c-0.8-0.7-1.6-1.5-4.1-2.5c-0.9-0.4-1.6-0.6-2.3-0.8
					c3.9-0.1,7.9,1.7,7.9,3.3C196.9,98.7,196.7,99,196.4,99z M195.9,89.8c-0.2,0-0.3,0-0.9-0.5c-1.7-1.2-3.4-1.7-5.3-2.2
					c0.3,0,0.7,0,1.1,0c1.8,0,5.5,0.7,5.5,2.2C196.3,89.5,196.2,89.8,195.9,89.8z M195.5,93.6c-0.2,0-0.3-0.1-0.9-0.5
					c-1.1-0.8-2.9-1.5-4.4-2c0.3,0,0.4,0,0.8,0c0.2,0,5,0,5,2C195.9,93.1,195.9,93.6,195.5,93.6z"/>
				<path class="st1" d="M212.5,91.7c-0.1,0-1.4-0.2-1.6-0.2c-0.6-0.1-1.1-0.1-1.5-0.1c-0.9,0-1.4,0-1.8,0.1c0,0.3-0.1,2.2-0.5,3.8
					c-0.4,1.5-1.8,3.9-4.5,4.6l0-0.1c2.9-1.9,3.8-4.8,4-8.3c-1,0.1-3.2,0.4-3.9,0.8c-0.3,0.2-0.4,0.2-0.6,0.2
					c-0.4,0-1.6-0.7-1.6-1.9c0-0.2,0-0.3,0-0.5c0.6,0.9,1.1,1.1,1.7,1.1c0.3,0,0.3,0,1.1-0.1c0.5,0,2.8-0.3,3.2-0.3
					c0-0.7,0-2.4-0.1-3c-0.1-0.4-0.5-0.6-1.3-0.8c0.4-0.4,0.9-0.4,1.1-0.4c0.7,0,1.8,0.4,1.8,1c0,0.1-0.2,0.6-0.3,0.7
					c0,0.1-0.1,1.2-0.1,1.7c0,0.4,0,0.6,0,0.8c0.3,0,2.8-0.1,2.9-0.2c0.2,0,0.9-0.2,1-0.2c0.1,0,1.6,0.2,1.6,0.9
					C213.1,91.7,212.7,91.7,212.5,91.7z"/>
				<path class="st1" d="M220.5,90.1c0,0.4-0.2,2.1-0.2,2.4c-0.4,3.5-2.5,5.4-3.9,6l-0.1-0.1c3-2.9,3-6.4,3-7.8c0-1.4,0-1.4-1.3-1.7
					c0.3-0.2,0.6-0.4,1.1-0.4c0.4,0,1.5,0.4,1.5,0.8C220.7,89.4,220.5,90,220.5,90.1z M224.5,96.9c-0.6,0.4-0.6,0.5-1,0.9
					c-0.1,0.1-0.2,0.2-0.3,0.2c-0.3,0-1.1-1.3-1.1-1.6c0-0.1,0.2-0.6,0.2-0.7c0.1-0.7,0.1-2.8,0.1-3.3c0-0.6,0-3.6-0.1-4
					c-0.1-0.3-0.4-0.5-1.2-0.8c0.2-0.1,0.5-0.3,0.9-0.3c0.5,0,1.8,0.5,1.8,1c0,0.1-0.2,0.8-0.2,0.9c-0.2,0.8-0.2,5.4-0.2,6.4
					c0,0.1,0,0.3,0.1,0.3c0.4,0,3.4-1.9,5.9-5.2l0.1,0.1C228.5,93.6,226.1,95.7,224.5,96.9z"/>
				<path class="st1" d="M246.7,96.7c-0.7,0-3.8-2.2-5-3.3c-0.5-0.4-2.9-2.7-3.4-3.1c-0.1-0.1-0.3-0.2-0.6-0.2
					c-0.7,0-2.1,1.6-2.7,2.4c-0.9,1.1-1.1,1.2-1.4,1.2c-0.6,0-1.5-0.6-1.5-1.4c0-0.1,0-0.1,0-0.3c0.2,0.1,0.5,0.3,0.9,0.3
					c0.5,0,1.2-0.6,1.8-1.1c0.3-0.2,1.5-1.3,1.7-1.5c0.5-0.4,0.8-0.6,1.3-0.6c0.6,0,1,0.3,1.4,0.8c3.1,2.9,4,3.3,6.9,4.9
					c0.3,0.1,1.1,0.6,1.1,1.3C247.2,96.7,246.9,96.7,246.7,96.7z"/>
			</g>
		</g>
	</g>
	<g>
		<g>
			<g>
				<path class="st1" d="M283.9,86.2c0.2,0.1,0.3,0.2,0.3,0.4c0,0.2-0.2,0.3-0.8,0.4c-0.3,0.3-0.8,1-1.6,2c-0.7,0.9-1.4,1.6-1.9,2.2
					c0.1,0,1.7-0.1,2.8-0.2c-0.1-0.1-0.3-0.6-0.8-1.1l0.1-0.1c1.5,0.6,2.7,1.5,2.7,2.4c0,0.4-0.2,0.8-0.7,0.8
					c-0.5,0-0.7-0.2-0.8-0.9c0-0.1-0.1-0.3-0.2-0.6l-1.8,0.4c0,0.8,0.1,4.8,0.1,5.2c0,0.4,0.1,2.1,0.1,2.5c0,0.5-0.4,0.8-0.9,0.8
					c-0.4,0-0.5-0.3-0.5-0.6c0-0.3,0.1-1.6,0.1-1.9c0-0.6,0-2.5,0.1-5.8c-1.2,0.3-2.2,0.5-2.4,0.5c-0.1,0.2-0.3,0.6-0.5,0.6
					c-0.2,0-0.3-0.2-0.4-0.4l-0.4-1.7c0.3,0.1,0.9,0.1,1.4,0.1c0.6,0,1.5,0,1.8,0c1.3-1.8,2.5-4.3,2.8-5c0.1-0.2,0.1-0.5,0.1-0.8
					L283.9,86.2z M276.2,99c0.8-1.9,1.4-4.4,1.4-5.7l1.6,0.6c0.1,0.1,0.3,0.2,0.3,0.3c0,0.1-0.1,0.2-0.6,0.4
					C278.2,96.4,277.7,97.5,276.2,99L276.2,99z M277,86.2c0.5,0.1,1.2,0.3,1.7,0.5c0.5-1.1,1.4-3.2,1.3-4.4l1.8,0.9
					c0.2,0.1,0.2,0.2,0.2,0.3c0,0.3-0.3,0.4-0.7,0.4c-0.9,1.2-1,1.3-2.4,2.9c0.6,0.3,1.1,0.9,1.1,1.5c0,0.4-0.3,0.9-0.8,0.9
					c-0.4,0-0.6-0.2-1-1.2c-0.4-1-0.9-1.4-1.3-1.8L277,86.2z M281.6,93.6c0.8,0.4,2.7,1.2,2.7,2.5c0,0.6-0.4,1-0.9,1
					c-0.5,0-0.6-0.4-0.9-1.3C282.3,94.8,281.9,94.2,281.6,93.6L281.6,93.6z M290.9,87.3l0.6-0.5c0.1-0.1,0.2-0.2,0.3-0.2
					c0.1,0,0.2,0.1,0.3,0.2l0.9,0.8c0.1,0.1,0.2,0.2,0.2,0.3c0,0.1-0.4,0.4-0.7,0.7c-0.1,5.4-0.2,7.8-1.2,9.8
					c-0.7,1.4-1.9,1.9-3,1.9c-0.2-0.9-0.8-1.5-1.8-2.2l0-0.1c0.9,0.2,2.1,0.4,2.6,0.4c2,0,2.1-6.4,2.1-8.4c0-0.3,0-1.7,0-2h-5.2
					c-1,1.8-1.6,2.5-1.9,2.8l-0.1-0.1c1.4-2.9,2.1-6.1,2.1-7.2c0-0.2-0.1-0.6-0.1-0.7l2.1,0.9c0.1,0,0.2,0.1,0.2,0.3
					c0,0.2-0.3,0.3-0.8,0.5c-0.2,0.6-0.6,1.6-1.3,3H290.9z M285.6,91c1.8,0.8,2.8,1.4,2.8,2.4c0,0.5-0.2,0.9-0.8,0.9
					c-0.5,0-0.7-0.2-1.1-1.6c-0.2-0.5-0.5-1.2-1-1.7L285.6,91z"/>
				<path class="st1" d="M304.6,78.3h1.2v14.8h3.3V94h-3.3v3.4c0,1.3,0.6,1.8,2,1.8h0.5v0.9h-7.4v-0.9h0.5c1.4,0,2-0.5,2-1.8V94
					h-7.8v-1L304.6,78.3z M303.4,82.1l-6.7,11h6.7V82.1z"/>
				<path class="st1" d="M313.4,81.1l-0.3,7.3c1.3-1.1,2.4-2,4.5-2c4.2,0,6.2,3.5,6.2,6.7c0,4.2-3.4,7.5-7.2,7.5
					c-3.3,0-5.5-2.5-5.5-4.3c0-1.1,0.7-1.8,1.7-1.8c0.9,0,1.5,0.6,1.5,1.5c0,0.3,0,0.4-0.1,0.9c-0.1,0.2-0.1,0.6-0.1,0.8
					c0,1.3,1.3,1.9,2.5,1.9c2.4,0,4.6-2.2,4.6-6.2c0-3.7-2-5.7-4.1-5.7c-1.2,0-2.9,0.6-4.5,2.5l-0.4-0.2l0.4-11.3h10.1l-0.6,2.3
					H313.4z"/>
				<path class="st1" d="M332.3,85.3c-1.6,3.3-4.5,5.8-6,6.6l-0.1-0.1c2.7-3.1,4.3-5.8,4.7-7.1c0.2-0.5,0.3-0.9,0.3-1.2l1.7,1.1
					c0.1,0.1,0.3,0.2,0.3,0.3C333.2,85.1,332.7,85.2,332.3,85.3z M339.4,91.4c-0.2,7-0.6,8.4-4.1,8.7c-0.1-1.2-1-1.9-1.5-2.1l0-0.1
					c0.8,0.2,1.7,0.3,2.3,0.3c0.9,0,1.3-0.2,1.6-2c0.2-1.4,0.4-4.7,0.3-5.6h-3.9c-0.1,3.1-1.4,8.3-7.5,9.4l0-0.2
					c3.9-1.8,5.9-4.8,6.1-9.3h-0.6c-0.5,0-1.4,0-2.3,0.2l-0.4-0.8c1.2,0.1,2.4,0.1,3,0.1h5.5l0.5-0.5c0.1-0.1,0.2-0.2,0.3-0.2
					c0.1,0,0.2,0.1,0.3,0.2l0.8,0.9c0.1,0.1,0.2,0.2,0.2,0.3C340,91,339.9,91,339.4,91.4z M342.9,91.4c-2.1-0.9-4.4-3-5.9-7.4h-1.6
					c-1,0-1.4,0.1-1.6,0.1l-0.3-0.7c0.9,0.1,1.7,0.1,2.1,0.1h1l0.6-0.6c0.2-0.2,0.3-0.2,0.3-0.2c0.1,0,0.2,0.1,0.3,0.2l0.7,0.7
					c0.1,0.1,0.2,0.2,0.2,0.3c0,0.4-0.9,0.5-1.2,0.6c0.9,2.5,4.2,5,7.1,5.2l0,0.2C343.7,90.2,343.3,90.9,342.9,91.4z"/>
			</g>
		</g>
	</g>
	<g>
		<g>
			<g>
				<path class="st1" d="M46.1,130.8c-1.1,1.5-2.7,3-3.3,3.6c0,0.4-0.1,0.6-0.4,0.6c-0.1,0-0.2-0.1-0.3-0.2l-1.1-1.4
					C41.6,133.4,42.1,133.5,46.1,130.8L46.1,130.8z M43.6,124.8c-0.3,0-1.1,0-1.9,0.1l-0.3-0.7c0.8,0.1,1.7,0.1,2.5,0.1h2.6l0.5-0.4
					c0.1-0.1,0.2-0.1,0.3-0.1c0.1,0,0.2,0.1,0.3,0.2l0.6,0.5c0.1,0.1,0.2,0.2,0.2,0.3c0,0.2,0,0.2-0.5,0.6c0,0.5,0,8.7,0,9.7
					c0,0.7,0,2.1-2.2,2.4c-0.2-0.5-0.5-1.1-1.5-1.6l0-0.1c0.3,0,0.6,0.1,1.3,0.1c1.1,0,1.1,0,1.1-0.5c0-0.2,0.1-7.6,0.1-7.7
					c0-1.2,0-2.3,0-2.8H43.6z M42.2,126.8c1.7,0.3,2.5,1.3,2.5,2c0,0.5-0.4,0.8-0.7,0.8c-0.5,0-0.6-0.3-1-1.1
					C42.8,127.7,42.5,127.3,42.2,126.8L42.2,126.8z M53.2,130.8c-0.8,1-2.4,2.6-3.2,3.4c0,0.2-0.1,0.5-0.3,0.5
					c-0.1,0-0.2-0.1-0.2-0.2l-1.1-1.4C49.1,133,49.7,133,53.2,130.8L53.2,130.8z M51.1,124.8c-0.3,0-1.1,0-1.9,0.1l-0.3-0.7
					c0.8,0.1,1.7,0.1,2.5,0.1h2.1l0.4-0.5c0-0.1,0.2-0.1,0.3-0.1c0.1,0,0.2,0.1,0.2,0.1l0.7,0.5c0.1,0.1,0.1,0.1,0.1,0.2
					c0,0.1-0.1,0.2-0.5,0.6v2.4c0,1.2,0.1,6.4,0.1,7.4c0,0.9,0,1.8-2.2,2.4c-0.1-0.3-0.2-0.8-1.5-1.7l0-0.1c0.4,0,1.2,0.1,1.8,0.1
					c0.6,0,0.7-0.1,0.7-0.7c0-1.6,0-9,0-10.3H51.1z M49.4,126.6c1.1,0.2,2.7,0.9,2.7,1.9c0,0.5-0.3,0.8-0.7,0.8
					c-0.4,0-0.5-0.2-0.9-1.1C50.3,128,49.9,127.3,49.4,126.6L49.4,126.6z"/>
				<path class="st1" d="M70.8,124.7l0.5-0.4c0.1-0.1,0.1-0.2,0.2-0.2c0.1,0,0.2,0.1,0.2,0.1l0.9,0.7c0.1,0.1,0.2,0.1,0.2,0.3
					c0,0.2-0.5,0.5-0.7,0.5c0,1.6,0,6.3,0.1,9c0,0.2,0.1,1.4,0.1,1.6c0,0.7-0.6,0.9-0.9,0.9c-0.5,0-0.5-0.3-0.5-1h-9.3
					c0,0.1,0,0.6,0,0.7c-0.1,0.4-0.6,0.5-0.9,0.5c-0.2,0-0.5-0.1-0.5-0.5c0-0.2,0-1,0-1.2c0.1-2.4,0.1-4.8,0.1-7.1
					c0-3.2-0.1-3.8-0.2-4.7l1.6,0.9H70.8z M61.6,125v5.1h4V125H61.6z M61.6,130.5v5.3h4v-5.3H61.6z M70.9,130.1V125h-4.1v5.1H70.9z
					 M70.9,135.8v-5.3h-4.1v5.3H70.9z"/>
				<path class="st1" d="M91.1,137.1H79c-0.1,0-1.2,0-1.9,0.1l-0.3-0.7c0.8,0.1,1.7,0.1,2.5,0.1h4.1v-3.9h-2.8c-0.4,0-1.2,0-1.9,0.1
					l-0.3-0.7c1.3,0.1,2.2,0.1,2.5,0.1h6.4l0.7-0.8c0.1-0.1,0.2-0.2,0.3-0.2c0.1,0,0.2,0.1,0.3,0.2l1,0.8c0.1,0.1,0.2,0.1,0.2,0.2
					c0,0.2-0.2,0.2-0.3,0.2h-4.8v3.9h4.2l0.7-0.9c0.1-0.1,0.1-0.2,0.2-0.2c0.1,0,0.1,0,0.3,0.2l1,0.9c0.1,0,0.2,0.1,0.2,0.2
					C91.3,137.1,91.2,137.1,91.1,137.1z M90.5,130.2c-0.7,0.1-3.2,0.1-4.1,0.1c-1.7,0-1.7-0.4-1.7-2c0-0.4,0-2.2,0-2.6h-5.4
					c-0.2,1.8-1.5,1.8-1.5,1.8c-0.3,0-0.7-0.2-0.7-0.6c0-0.4,0.3-0.6,0.9-1c1-0.6,1.1-1.2,1.1-1.5h0.1c0.1,0.2,0.1,0.3,0.1,0.8h4.1
					c0-1.1,0-1.6-0.3-2.4l1.6,0.4c0.1,0,0.4,0.1,0.4,0.3c0,0.1,0,0.2-0.1,0.2c-0.1,0-0.3,0.2-0.4,0.3v1.2h3.9l0.6-0.5
					c0.1-0.1,0.2-0.2,0.3-0.2c0.1,0,0.2,0.1,0.3,0.1l1,0.9c0.1,0,0.1,0.2,0.1,0.3c0,0.3-0.2,0.3-0.9,0.4c-0.3,0.2-1.4,0.9-1.7,1.1
					l-0.1-0.1c0.1-0.5,0.2-0.7,0.4-1.6h-2.8c0,0.6,0,3.3,0.1,3.4c0.1,0.1,1.3,0.1,1.6,0.1c0.6,0,1.8,0,2.1-0.3
					c0.4-0.3,0.6-1.2,0.7-1.7h0.1c0.3,1.1,0.4,1.5,0.6,1.6c0.2,0.1,0.3,0.3,0.3,0.5C91.4,129.8,90.8,130.1,90.5,130.2z M82.8,127.1
					c-1,1.9-2.3,3.4-5.5,4.1l-0.1-0.1c3.6-1.8,4.4-4.3,4.5-5.3l1.4,0.7c0.2,0.1,0.2,0.1,0.2,0.2C83.4,126.9,83.4,126.9,82.8,127.1z"
					/>
				<path class="st1" d="M96.3,129.4c-0.4,0-0.5-0.2-1-1.2c-0.2-0.4-0.5-0.8-0.8-1.1l0-0.1c0.6,0.1,2.4,0.5,2.4,1.6
					C96.9,129,96.7,129.4,96.3,129.4z M97.1,132.2c-0.3,1.1-0.3,1.2-0.3,1.6c0,0.4,0.1,1,0.2,1.5c0.2,1,0.3,1.2,0.3,1.5
					c0,0.5-0.2,0.9-0.7,0.9c-0.8,0-0.8-0.8-0.8-1.2c0-0.2,0-1.1,0-1.3c0-0.6,0-1.3-1.1-1.8v-0.1c0.3,0,0.8-0.1,1.1-0.5
					c0.4-0.5,2.2-5.7,2.3-6.2l0.1,0C98.1,127.9,98,128.3,97.1,132.2z M97.5,125.6c-0.5,0-0.6-0.4-1-1.2c-0.2-0.4-0.4-0.8-0.7-1.2
					l0-0.1c0.3,0.1,2.3,0.6,2.3,1.7C98.2,125.2,97.9,125.6,97.5,125.6z M109.1,132.3c-0.4,0.3-0.5,0.6-0.7,0.9
					c-1.8-0.7-3.5-2.8-4.1-4.3h-2.1c-0.2,0.4-0.7,1.2-1.7,2.4c1.2,0.1,2.3,0.1,2.5,0.1h0.8l0.3-0.3c0.1-0.1,0.2-0.2,0.3-0.2
					c0.1,0,0.2,0.1,0.3,0.2l0.5,0.4c0.1,0.1,0.2,0.2,0.2,0.3c0,0.2-0.1,0.2-0.4,0.5c0,0.2,0.1,1.3,0.1,1.5c0,0.3,0,0.5-0.2,0.7
					c-0.1,0.1-0.5,0.2-0.6,0.2c-0.3,0-0.3-0.2-0.3-0.4h-2.2c-0.1,2.2,0,2.2,0.9,2.2c2.8,0,3.4,0,3.7-0.3c0.4-0.4,0.5-1,0.9-2.2h0.1
					c0.1,0.5,0.3,1.6,0.5,1.9c0.1,0.1,0.1,0.1,0.3,0.2c0.1,0.1,0.1,0.1,0.1,0.2c0,0.1,0,0.5-0.7,0.8c-0.8,0.4-2.4,0.4-3.3,0.4
					c-3.1,0-3.6-0.1-3.6-1.3c0-1,0-2.6-0.1-3.1l1.5,0.7h1.9v-2.1h-1.3c-0.4,0-1.2,0-1.9,0.1l-0.3-0.6c-0.8,0.9-2,2-3,2.6l0-0.1
					c1.5-1.5,2.9-3.6,3.4-4.8c-0.3,0-1.3,0-2.1,0.1l-0.3-0.7c0.9,0.1,1,0.1,2.5,0.1v-2.8c-0.6,0-1.1,0-1.7,0.1l-0.3-0.7
					c0.4,0,1,0.1,2,0.1c0-1.3,0-1.5-0.3-2.5l1.5,0.4c0.2,0.1,0.3,0.1,0.3,0.2c0,0.2-0.1,0.3-0.5,0.5c0,0.3,0,0.4,0,1.3h2.1
					c0-1.3,0-1.5-0.3-2.5l1.6,0.4c0.2,0,0.3,0.1,0.3,0.2c0,0.2-0.3,0.4-0.5,0.5c0,0.2,0,1.1,0,1.3h0.9l0.5-0.7
					c0.1-0.1,0.1-0.2,0.2-0.2c0.1,0,0.2,0.1,0.3,0.2l0.7,0.7c0.1,0.1,0.2,0.1,0.2,0.2c0,0.2-0.1,0.2-0.2,0.2h-2.7v2.8h1.8l0.6-0.7
					c0.1-0.1,0.1-0.2,0.2-0.2c0.1,0,0.2,0.1,0.3,0.2l0.8,0.7c0.1,0.1,0.2,0.2,0.2,0.2c0,0.2-0.1,0.2-0.2,0.2h-4.2
					c0.6,1,2.4,2.6,5.1,2.9v0.1C109.6,132,109.2,132.2,109.1,132.3z M104.1,125.7H102v2.8h2.1C104.1,128.1,104.1,126.2,104.1,125.7z
					"/>
				<path class="st1" d="M141.9,125c0,0.7,0,1.3,0,3.2c0,2.2,0,4.6,0.1,6.8c0,0.3,0.1,1.5,0.1,1.7c0,0.3,0,1-0.8,1
					c-0.3,0-0.3-0.2-0.3-0.4c0-0.1,0-0.6,0-0.6h-8.3c0,0.4,0,0.5,0,0.6c-0.1,0.3-0.4,0.5-0.7,0.5c-0.3,0-0.4-0.2-0.4-0.4
					c0-0.3,0-0.7,0-1c0.1-3,0.2-5.9,0.2-8.9c0-1.5,0-3.1-0.2-4.3l1.4,0.9h7.9l0.4-0.5c0.1-0.1,0.2-0.2,0.2-0.2
					c0.1,0,0.1,0.1,0.2,0.2l0.6,0.6c0.1,0.1,0.1,0.2,0.1,0.3C142.5,124.5,142.3,124.6,141.9,125z M140.9,124.4h-8.3v11.8h8.3V124.4z
					 M140,133.9h-5.1c-0.4,0-1,0-1.6,0.1l-0.3-0.7c0.7,0.1,1.4,0.1,2.1,0.1h1v-3.4h-0.6c-0.1,0-1,0-1.6,0.1l-0.3-0.7
					c1.1,0.1,2,0.1,2.1,0.1h0.4V127h-0.8c-0.4,0-1,0-1.6,0.1l-0.3-0.7c0.7,0.1,1.4,0.1,2.1,0.1h2.8l0.5-0.6c0.1-0.1,0.1-0.2,0.2-0.2
					c0.1,0,0.2,0.1,0.2,0.2l0.6,0.6c0.1,0.1,0.1,0.1,0.1,0.2c0,0.2-0.1,0.2-0.2,0.2H137v2.7h0.8l0.4-0.5c0.1-0.1,0.2-0.2,0.2-0.2
					c0.1,0,0.1,0.1,0.2,0.2l0.6,0.5c0.1,0,0.1,0.1,0.1,0.2c0,0.2-0.1,0.2-0.2,0.2H137v3.4h1.6l0.5-0.6c0.1-0.1,0.2-0.2,0.2-0.2
					c0.1,0,0.2,0.1,0.2,0.2l0.6,0.6c0.1,0.1,0.1,0.1,0.1,0.2C140.3,133.9,140.1,133.9,140,133.9z M138.5,132.8
					c-0.3,0-0.5-0.3-0.6-0.7c-0.1-0.9-0.2-1.1-0.4-1.6l0.1-0.1c0.9,0.4,1.3,1.2,1.3,1.7C139,132.6,138.7,132.8,138.5,132.8z"/>
				<path class="st1" d="M148.3,124l0.3-0.3c0.1-0.1,0.1-0.1,0.2-0.1c0.1,0,0.2,0.1,0.2,0.2l0.5,0.5c0.1,0.1,0.1,0.2,0.1,0.3
					c0,0.2-0.1,0.3-0.5,0.5c-0.2,0.7-0.6,1.7-1.6,3.6c0.7,0.6,1.7,1.5,1.7,3.3c0,1.7-1,1.9-1.4,2c-0.3-0.8-0.3-1-1-1.4l0-0.1
					c0.5,0.1,0.7,0.1,0.9,0.1c0.3,0,0.6,0,0.6-0.9c0-1.7-0.8-2.5-1.1-2.8c0.5-1.3,0.8-2.8,1-4.3h-1.4c0,1.4,0,7.8,0,9.1
					c0,0.5,0,3.4-0.1,3.7c-0.1,0.2-0.3,0.3-0.5,0.3c-0.3,0-0.4-0.2-0.4-0.4c0-0.2,0.1-3,0.1-3.6c0-2.5,0.1-5.8,0.1-6.3
					c0-2.6,0-2.9-0.1-3.8l1,0.6H148.3z M148.1,136.8c1.1-1.2,1.9-2.6,2.2-3.7l1.1,0.8c0.1,0,0.1,0.1,0.1,0.2c0,0.2-0.1,0.3-0.5,0.3
					c-0.3,0.4-1.5,1.9-2.8,2.6L148.1,136.8z M148.6,129.1c0.8-1.7,1.6-4.2,1.7-4.9c0.1-0.5,0.1-0.9,0.1-1.2l1.1,0.6
					c0.1,0,0.2,0.1,0.2,0.2c0,0.1-0.1,0.2-0.4,0.3c0,0.1-0.2,0.4-0.2,0.5h1l0.3-0.3c0,0,0.1-0.1,0.2-0.1c0.1,0,0.2,0.1,0.2,0.2
					l0.5,0.6c0,0.1,0.1,0.2,0.1,0.2c0,0.1-0.1,0.2-0.4,0.4c-0.8,2.3-1.6,3.6-3.4,5.1l-0.1-0.1c0.7-0.9,1-1.3,1.3-1.8
					c-0.2,0-0.3-0.2-0.4-0.5c-0.1-0.4-0.3-0.5-0.4-0.7C149.1,128.6,148.9,128.9,148.6,129.1L148.6,129.1z M150.7,136.2
					c0.6,0.1,0.9,0.1,1.3,0.1c0.3,0,0.3-0.1,0.3-0.5v-3.5h-0.8c-0.2,0-0.9,0-1.6,0.1l-0.3-0.7c1,0.1,1.8,0.1,2.1,0.1h3.5l0.4-0.8
					c0.1-0.1,0.1-0.2,0.2-0.2c0.1,0,0.2,0.1,0.2,0.2l0.7,0.8c0.1,0.1,0.1,0.2,0.1,0.3c0,0.2-0.1,0.2-0.2,0.2h-3.5
					c0,0.6,0.1,3.2,0.1,3.8c0,1.4-1,1.7-1.5,1.7C151.7,137.5,151.4,136.8,150.7,136.2L150.7,136.2z M151.3,127.3
					c-0.2,0-0.4-0.1-0.5-0.3c-0.2-0.4-0.3-0.6-0.5-0.7c-0.2,0.4-0.3,0.8-0.6,1.3c0.2,0,0.9,0.1,1.1,0.7
					C151,127.9,151.1,127.7,151.3,127.3z M150.8,125.1c-0.1,0.3-0.2,0.6-0.4,1c0.4,0,1,0.1,1.1,0.6c0.1-0.3,0.3-0.8,0.4-1.5H150.8z
					 M153.3,129.7l0.3-0.6c0-0.1,0.1-0.2,0.2-0.2c0.1,0,0.2,0.1,0.3,0.2l0.5,0.6c0.1,0.1,0.1,0.1,0.1,0.2c0,0.2-0.1,0.2-0.2,0.2
					h-2.1c-0.4,0-0.8,0-1.1,0.1l-0.2-0.6c0.7,0.1,1.4,0.1,1.5,0.1H153.3z M154.1,124.2c0.6,0,0.8,0.1,1.4,0.1l0.3-0.2
					c0.1-0.1,0.1-0.1,0.2-0.1c0.1,0,0.1,0,0.2,0.1l0.7,0.8c0.1,0.1,0.1,0.1,0.1,0.2c0,0.3-0.2,0.3-0.7,0.4c-0.5,0.6-1,1.1-1.5,1.6
					c1.1,1.7,2.4,2.2,3.2,2.5v0.1c-0.2,0.1-0.7,0.3-1.1,1c-2.6-1.7-3.3-4.9-3.6-6.6l0.1,0c0.1,0.5,0.5,1.6,1.2,2.8
					c0.2-0.3,0.7-1.3,0.9-2.1c-0.3,0-0.7,0.1-1,0.1L154.1,124.2z M154.4,133.6c0.8,0.4,2.4,1.2,2.4,2.4c0,0.1,0,0.8-0.5,0.8
					c-0.4,0-0.5-0.2-0.9-1.3C154.9,134.3,154.5,133.9,154.4,133.6L154.4,133.6z"/>
				<path class="st1" d="M160.2,137c0.8-2.2,1-4.8,1-5c0-0.2,0-0.4,0-0.6l1.2,0.5c0.1,0,0.1,0.1,0.1,0.2c0,0.1,0,0.2-0.3,0.4
					C161.8,133.7,161.2,135.8,160.2,137L160.2,137z M165.5,125.7c0.1,0,0.1,0.1,0.1,0.2c0,0.2-0.1,0.2-0.6,0.4
					c-0.5,0.8-1.2,1.9-2.4,3.5c0.1,0,1,0,1.7-0.1c-0.1-0.3-0.3-0.7-0.5-1.2l0.1-0.1c0.7,0.4,1.6,1.1,1.6,2c0,0.4-0.2,0.7-0.5,0.7
					c-0.3,0-0.4-0.1-0.6-1.2c-0.2,0.1-0.4,0.2-1,0.3c0,2.3,0,3.4,0,4.8c0,0.3,0,1.6,0,1.8c0,0.2,0,0.9-0.6,0.9
					c-0.4,0-0.4-0.4-0.4-0.5c0-0.8,0.1-5.7,0.1-6.8c-0.3,0.1-0.8,0.2-1.7,0.5c-0.2,0.2-0.2,0.3-0.3,0.3c-0.1,0-0.2-0.1-0.2-0.2
					l-0.3-1.4c0.3,0.1,0.6,0.2,1.3,0.2c0.1,0,0.8,0,0.9,0c0.9-1.6,2-4.1,2-5.1L165.5,125.7z M160.7,125.5c0.3,0,0.8,0.1,1.4,0.5
					c0,0,0.7-2.2,0.6-3.2l1.3,0.8c0.1,0,0.1,0.1,0.1,0.2c0,0.2-0.1,0.2-0.6,0.5c-0.5,0.8-0.7,1.1-1.2,1.9c0.2,0.2,0.6,0.5,0.6,1.2
					c0,0.4-0.2,0.8-0.5,0.8c-0.3,0-0.5-0.3-0.6-0.6c-0.1-0.4-0.5-1.2-1.2-1.9L160.7,125.5z M163.8,131.9c0.9,0.4,1.6,1.2,1.6,1.8
					c0,0.4-0.2,0.7-0.5,0.7c-0.4,0-0.4-0.3-0.6-1.2C164.1,132.8,164,132.3,163.8,131.9L163.8,131.9z M165.9,132.1
					c-0.3,0-0.6,0-0.7,0.1l-0.2-0.5c0.5,0,0.9,0.1,1,0.1h0.4l0.3-0.4c0,0,0.1-0.1,0.2-0.1c0.1,0,0.1,0.1,0.2,0.1l0.5,0.6
					c0.1,0.1,0.1,0.2,0.1,0.3c0,0.1,0,0.2-0.4,0.4c-0.6,1.7-1.6,3.3-3.1,4.2l0-0.1c1.6-1.8,2.1-3.7,2.3-4.6H165.9z M168.7,130
					l0.2,0.1c0.1,0,0.3,0.1,0.3,0.3c0,0.2-0.2,0.4-0.4,0.4c0,0.6,0.5,1.8,0.8,2.3c0.8-0.9,1.2-1.6,1.5-2.2l0.9,1.1
					c0,0,0.1,0.1,0.1,0.2c0,0,0,0.2-0.2,0.2c0,0-0.2,0-0.3,0c-0.6,0.4-1.1,0.6-1.8,0.9c0.8,1.3,1.9,2.3,3.3,2.7v0.1
					c-0.9,0.3-1.1,0.6-1.4,1.1c-1.4-1.3-2.3-2.9-2.7-4.9c0,0.6,0.1,3.3,0.1,3.8c0,0.4,0,1.5-1.3,1.8c-0.1-0.5-0.3-1-1.4-1.6l0-0.1
					c0.2,0,1.1,0.1,1.3,0.1c0.5,0,0.6-0.1,0.6-0.6v-4.4c0-0.6,0-0.9,0-1.2H167c0,0.4-0.2,0.7-0.5,0.7c-0.3,0-0.4-0.1-0.4-0.4
					c0-0.2,0.1-2.4,0.1-2.8c0-0.9,0-2.5-0.1-3.3l1.1,0.7h0.8c0.1-0.3,0.1-0.8,0.1-1.4c0-0.3,0-0.4-0.1-0.8l1.3,0.5
					c0.1,0,0.2,0.1,0.2,0.3c0,0.2-0.1,0.3-0.5,0.3c-0.3,0.4-0.5,0.7-0.7,1.1h1.8l0.4-0.5c0-0.1,0.2-0.2,0.2-0.2
					c0.1,0,0.1,0.1,0.2,0.1l0.6,0.6c0.1,0.1,0.2,0.2,0.2,0.3c0,0.1-0.1,0.2-0.5,0.6c0,0.7,0.1,3.8,0.1,4.2c0,0.5-0.3,0.7-0.6,0.7
					c-0.4,0-0.4-0.3-0.3-0.6H168.7z M167,125.2v2h3.3v-2H167z M170.3,129.6v-2H167v2H170.3z"/>
				<path class="st1" d="M183.1,127.3c-0.3,0.1-0.4,0.2-0.8,1.3c-2.1,4.9-4.2,7.2-7.1,8.2l0-0.1c1.8-1.3,3.4-2.9,4.6-4.9
					c-0.1,0-0.3-0.2-0.5-0.5c-0.9-1.3-1.1-1.5-1.8-2c-0.7,1-1.5,1.7-2.2,2.1l0-0.1c1.7-2,3.3-5.4,3.3-6c0-0.5-0.5-0.8-0.8-0.9
					c0.2-0.1,0.4-0.2,0.7-0.2c0.8,0,1.5,0.8,1.5,1.1c0,0.2,0,0.2-0.3,0.5c-0.1,0.1-0.3,0.4-0.4,0.6c0.1,0,0.2,0,0.5,0
					c0.7,0,2-0.3,2.2-0.4c0.1-0.1,0.5-0.4,0.6-0.4c0.2,0,1,1.1,1,1.3C183.5,127.1,183.4,127.1,183.1,127.3z M179.6,127.2
					c-0.1,0-0.3,0-0.7-0.3c-0.7,1.3-1.2,2-1.3,2.1c0.8,0.1,2.5,0.5,2.6,2c0.3-0.6,1-1.8,1.7-4.2
					C181.5,126.9,179.9,127.2,179.6,127.2z"/>
				<path class="st1" d="M196.2,130.9c-0.1,0-0.4,0-0.5,0c-0.5,0-0.6-0.1-1.5-0.1c-4.1,0-5.3,0.1-5.9,0.3c0,0-0.5,0.1-0.5,0.1
					c-0.4,0-1.1-1.1-1.1-1.8c0-0.1,0-0.4,0.2-0.8c0.5,1.2,0.9,1.2,2.3,1.2c0.9,0,5.3,0,5.9-0.2c0.1,0,0.5-0.1,0.6-0.1
					c0.1,0,1.4,0.2,1.4,0.8C197,130.9,196.3,130.9,196.2,130.9z"/>
				<path class="st1" d="M206,136.5c-0.2,0-0.3-0.1-0.8-0.6c-0.6-0.7-1.3-1.5-3.4-2.5c-0.8-0.4-1.3-0.6-1.9-0.8
					c3.2-0.1,6.5,1.7,6.5,3.3C206.4,136.2,206.2,136.5,206,136.5z M205.6,127.3c-0.2,0-0.2,0-0.8-0.5c-1.4-1.2-2.8-1.7-4.3-2.2
					c0.3,0,0.6,0,0.9,0c1.5,0,4.5,0.7,4.5,2.2C205.9,127,205.8,127.3,205.6,127.3z M205.2,131.1c-0.2,0-0.2-0.1-0.8-0.5
					c-0.9-0.8-2.3-1.5-3.6-2c0.3,0,0.3,0,0.6,0c0.2,0,4.1,0,4.1,2C205.6,130.6,205.6,131.1,205.2,131.1z"/>
				<path class="st1" d="M219.2,129.2c-0.1,0-1.2-0.2-1.3-0.2c-0.5-0.1-0.9-0.1-1.2-0.1c-0.7,0-1.1,0-1.5,0.1c0,0.3-0.1,2.2-0.4,3.8
					c-0.3,1.5-1.5,3.9-3.7,4.6l0-0.1c2.4-1.9,3.1-4.8,3.3-8.3c-0.8,0.1-2.6,0.4-3.2,0.8c-0.3,0.2-0.3,0.2-0.5,0.2
					c-0.3,0-1.3-0.7-1.3-1.9c0-0.2,0-0.3,0-0.5c0.5,0.9,0.9,1.1,1.4,1.1c0.2,0,0.3,0,0.9-0.1c0.4,0,2.3-0.3,2.6-0.3
					c0-0.7,0-2.4-0.1-3c-0.1-0.4-0.4-0.6-1.1-0.8c0.4-0.4,0.8-0.4,0.9-0.4c0.6,0,1.5,0.4,1.5,1c0,0.1-0.2,0.6-0.2,0.7
					c0,0.1-0.1,1.2-0.1,1.7c0,0.4,0,0.6,0,0.8c0.2,0,2.3-0.1,2.4-0.2c0.1,0,0.7-0.2,0.8-0.2c0.1,0,1.3,0.2,1.3,0.9
					C219.7,129.2,219.4,129.2,219.2,129.2z"/>
				<path class="st1" d="M225.8,127.6c0,0.4-0.1,2.1-0.2,2.4c-0.3,3.5-2.1,5.4-3.2,6l-0.1-0.1c2.5-2.9,2.5-6.4,2.5-7.8
					c0-1.4,0-1.4-1-1.7c0.2-0.2,0.5-0.4,0.9-0.4c0.4,0,1.3,0.4,1.3,0.8C225.9,126.9,225.8,127.5,225.8,127.6z M229,134.4
					c-0.5,0.4-0.5,0.5-0.8,0.9c-0.1,0.1-0.2,0.2-0.3,0.2c-0.3,0-0.9-1.3-0.9-1.6c0-0.1,0.2-0.6,0.2-0.7c0.1-0.7,0.1-2.8,0.1-3.3
					c0-0.6,0-3.6-0.1-4c-0.1-0.3-0.3-0.5-1-0.8c0.2-0.1,0.4-0.3,0.8-0.3c0.4,0,1.5,0.5,1.5,1c0,0.1-0.2,0.8-0.2,0.9
					c-0.1,0.8-0.2,5.4-0.2,6.4c0,0.1,0,0.3,0.1,0.3c0.3,0,2.8-1.9,4.9-5.2l0.1,0.1C232.3,131.1,230.3,133.2,229,134.4z"/>
				<path class="st1" d="M247.2,134.2c-0.6,0-3.1-2.2-4.1-3.3c-0.4-0.4-2.4-2.7-2.8-3.1c-0.1-0.1-0.3-0.2-0.5-0.2
					c-0.6,0-1.7,1.6-2.2,2.4c-0.8,1.1-0.9,1.2-1.1,1.2c-0.5,0-1.2-0.6-1.2-1.4c0-0.1,0-0.1,0-0.3c0.1,0.1,0.4,0.3,0.7,0.3
					c0.4,0,1-0.6,1.4-1.1c0.2-0.2,1.2-1.3,1.4-1.5c0.4-0.4,0.7-0.6,1-0.6c0.5,0,0.8,0.3,1.2,0.8c2.6,2.9,3.2,3.3,5.7,4.9
					c0.2,0.1,0.9,0.6,0.9,1.3C247.7,134.2,247.4,134.2,247.2,134.2z"/>
			</g>
		</g>
	</g>
	<g>
		<g>
			<g>
				<path class="st1" d="M283.9,123.9c0.2,0.1,0.3,0.2,0.3,0.4c0,0.2-0.2,0.3-0.8,0.4c-0.3,0.3-0.8,1-1.6,2
					c-0.7,0.9-1.4,1.6-1.9,2.2c0.1,0,1.7-0.1,2.8-0.2c-0.1-0.1-0.3-0.6-0.8-1.1l0.1-0.1c1.5,0.6,2.7,1.5,2.7,2.4
					c0,0.4-0.2,0.8-0.7,0.8c-0.5,0-0.7-0.2-0.8-0.9c0-0.1-0.1-0.3-0.2-0.6l-1.8,0.4c0,0.8,0.1,4.8,0.1,5.2c0,0.4,0.1,2.1,0.1,2.5
					c0,0.5-0.4,0.8-0.9,0.8c-0.4,0-0.5-0.3-0.5-0.6c0-0.3,0.1-1.6,0.1-1.9c0-0.6,0-2.5,0.1-5.8c-1.2,0.3-2.2,0.5-2.4,0.5
					c-0.1,0.2-0.3,0.6-0.5,0.6c-0.2,0-0.3-0.2-0.4-0.4l-0.4-1.7c0.3,0.1,0.9,0.1,1.4,0.1c0.6,0,1.5,0,1.8,0c1.3-1.8,2.5-4.3,2.8-5
					c0.1-0.2,0.1-0.5,0.1-0.8L283.9,123.9z M276.2,136.7c0.8-1.9,1.4-4.4,1.4-5.7l1.6,0.6c0.1,0.1,0.3,0.2,0.3,0.3
					c0,0.1-0.1,0.2-0.6,0.4C278.2,134.1,277.7,135.2,276.2,136.7L276.2,136.7z M277,123.9c0.5,0.1,1.2,0.3,1.7,0.5
					c0.5-1.1,1.4-3.2,1.3-4.4l1.8,0.9c0.2,0.1,0.2,0.2,0.2,0.3c0,0.3-0.3,0.4-0.7,0.4c-0.9,1.2-1,1.3-2.4,2.9
					c0.6,0.3,1.1,0.9,1.1,1.5c0,0.4-0.3,0.9-0.8,0.9c-0.4,0-0.6-0.2-1-1.2c-0.4-1-0.9-1.4-1.3-1.8L277,123.9z M281.6,131.3
					c0.8,0.4,2.7,1.2,2.7,2.5c0,0.6-0.4,1-0.9,1c-0.5,0-0.6-0.4-0.9-1.3C282.3,132.5,281.9,131.9,281.6,131.3L281.6,131.3z
					 M290.9,125l0.6-0.5c0.1-0.1,0.2-0.2,0.3-0.2c0.1,0,0.2,0.1,0.3,0.2l0.9,0.8c0.1,0.1,0.2,0.2,0.2,0.3c0,0.1-0.4,0.4-0.7,0.7
					c-0.1,5.4-0.2,7.8-1.2,9.8c-0.7,1.4-1.9,1.9-3,1.9c-0.2-0.9-0.8-1.5-1.8-2.2l0-0.1c0.9,0.2,2.1,0.4,2.6,0.4c2,0,2.1-6.4,2.1-8.4
					c0-0.3,0-1.7,0-2h-5.2c-1,1.8-1.6,2.5-1.9,2.8l-0.1-0.1c1.4-2.9,2.1-6.1,2.1-7.2c0-0.2-0.1-0.6-0.1-0.7l2.1,0.9
					c0.1,0,0.2,0.1,0.2,0.3c0,0.2-0.3,0.3-0.8,0.5c-0.2,0.6-0.6,1.6-1.3,3H290.9z M285.6,128.7c1.8,0.8,2.8,1.4,2.8,2.4
					c0,0.5-0.2,0.9-0.8,0.9c-0.5,0-0.7-0.2-1.1-1.6c-0.2-0.5-0.5-1.2-1-1.7L285.6,128.7z"/>
				<path class="st1" d="M298.2,118.8l-0.3,7.3c1.3-1.1,2.4-2,4.5-2c4.2,0,6.2,3.5,6.2,6.7c0,4.2-3.4,7.5-7.2,7.5
					c-3.3,0-5.5-2.5-5.5-4.3c0-1.1,0.7-1.8,1.7-1.8c0.9,0,1.5,0.6,1.5,1.5c0,0.3,0,0.4-0.1,0.9c-0.1,0.2-0.1,0.6-0.1,0.8
					c0,1.3,1.3,1.9,2.5,1.9c2.4,0,4.6-2.2,4.6-6.2c0-3.7-2-5.7-4.1-5.7c-1.2,0-2.9,0.6-4.5,2.5l-0.4-0.2l0.4-11.3h10.1l-0.6,2.3
					H298.2z"/>
				<path class="st1" d="M313.4,118.8l-0.3,7.3c1.3-1.1,2.4-2,4.5-2c4.2,0,6.2,3.5,6.2,6.7c0,4.2-3.4,7.5-7.2,7.5
					c-3.3,0-5.5-2.5-5.5-4.3c0-1.1,0.7-1.8,1.7-1.8c0.9,0,1.5,0.6,1.5,1.5c0,0.3,0,0.4-0.1,0.9c-0.1,0.2-0.1,0.6-0.1,0.8
					c0,1.3,1.3,1.9,2.5,1.9c2.4,0,4.6-2.2,4.6-6.2c0-3.7-2-5.7-4.1-5.7c-1.2,0-2.9,0.6-4.5,2.5l-0.4-0.2l0.4-11.3h10.1l-0.6,2.3
					H313.4z"/>
				<path class="st1" d="M332.3,123c-1.6,3.3-4.5,5.8-6,6.6l-0.1-0.1c2.7-3.1,4.3-5.8,4.7-7.1c0.2-0.5,0.3-0.9,0.3-1.2l1.7,1.1
					c0.1,0.1,0.3,0.2,0.3,0.3C333.2,122.8,332.7,122.9,332.3,123z M339.4,129.1c-0.2,7-0.6,8.4-4.1,8.7c-0.1-1.2-1-1.9-1.5-2.1
					l0-0.1c0.8,0.2,1.7,0.3,2.3,0.3c0.9,0,1.3-0.2,1.6-2c0.2-1.4,0.4-4.7,0.3-5.6h-3.9c-0.1,3.1-1.4,8.3-7.5,9.4l0-0.2
					c3.9-1.8,5.9-4.8,6.1-9.3h-0.6c-0.5,0-1.4,0-2.3,0.2l-0.4-0.8c1.2,0.1,2.4,0.1,3,0.1h5.5l0.5-0.5c0.1-0.1,0.2-0.2,0.3-0.2
					c0.1,0,0.2,0.1,0.3,0.2l0.8,0.9c0.1,0.1,0.2,0.2,0.2,0.3C340,128.7,339.9,128.7,339.4,129.1z M342.9,129.1
					c-2.1-0.9-4.4-3-5.9-7.4h-1.6c-1,0-1.4,0.1-1.6,0.1l-0.3-0.7c0.9,0.1,1.7,0.1,2.1,0.1h1l0.6-0.6c0.2-0.2,0.3-0.2,0.3-0.2
					c0.1,0,0.2,0.1,0.3,0.2l0.7,0.7c0.1,0.1,0.2,0.2,0.2,0.3c0,0.4-0.9,0.5-1.2,0.6c0.9,2.5,4.2,5,7.1,5.2l0,0.2
					C343.7,127.9,343.3,128.6,342.9,129.1z"/>
			</g>
		</g>
	</g>
	<rect x="0.2" class="st2" width="389" height="31.4"/>
	<line class="st3" x1="346.7" y1="107.6" x2="32.1" y2="107.6"/>
	<line class="st3" x1="346.7" y1="70.5" x2="32.1" y2="70.5"/>
	<g>
		<g>
			<path class="st4" d="M107.9,9v15.3h-0.7V8.2h5.9V9H107.9z"/>
			<path class="st4" d="M124.1,17.8c1.6,1.9,4.4,3.6,7.6,3.7v0.1c-1,0.3-1.6,1-1.9,1.6c-0.5-0.2-4.5-2.2-6-5.4c0,0.8,0,4.3,0.1,5
				c0,0.1,0,0.5,0,0.6c0,0.6-0.6,0.9-1,0.9c-0.4,0-0.5-0.3-0.5-0.5c0-0.1,0-0.2,0-0.4c0.1-1.2,0.2-2.7,0.2-4.8
				c-1.6,1.9-4.8,4-7.4,4.7l-0.1-0.1c2.7-1.1,6.3-4.8,6.7-5.4h-2.4c0,0.6-0.1,1-0.9,1c-0.4,0-0.4-0.2-0.4-0.4c0-0.2,0.1-1.1,0.1-1.2
				c0-0.6,0.1-1.5,0.1-2.5c0-1.6-0.1-2.2-0.2-2.9l1.6,0.7h3c0-0.4,0-1.4,0-1.8h-4.8c-0.3,0-1.2,0-2.1,0.2l-0.4-0.7
				c1.3,0.1,2.5,0.1,2.7,0.1h4.5c-0.1-1.1-0.1-1.7-0.4-2.3l1.8,0.5c0.2,0,0.3,0.1,0.3,0.2c0,0.2-0.4,0.5-0.6,0.6v1h4.8l0.8-0.9
				c0.1-0.1,0.2-0.2,0.3-0.2c0.1,0,0.2,0.1,0.3,0.2l1.1,0.9c0.1,0.1,0.2,0.2,0.2,0.3c0,0.2-0.2,0.2-0.3,0.2h-7.2v1.8h3l0.6-0.5
				c0,0,0.1-0.1,0.2-0.1c0.1,0,0.2,0.1,0.2,0.1l0.8,0.6c0.1,0.1,0.2,0.2,0.2,0.3c0,0.2-0.1,0.2-0.6,0.5c0,0.4,0,0.9,0,2.2
				c0,0.2,0.1,2.1,0.1,2.3c0,0.6-0.5,0.7-0.9,0.7c-0.5,0-0.5-0.4-0.4-0.9H124.1z M119.4,13v1.9h3.2l0-1.9H119.4z M122.6,17.3v-2
				h-3.2v2H122.6z M127.1,17.3v-2h-3.3c0,0.3,0,1.7,0,2H127.1z M127.1,14.9V13h-3.3v1.9H127.1z"/>
			<path class="st4" d="M138.8,20.2c-1,1-3,2.8-5.6,3.7l-0.1-0.1c1.6-1,4.3-3.6,4.8-5.1l1.5,1.1c0.1,0.1,0.2,0.2,0.2,0.3
				C139.5,20.2,139.3,20.2,138.8,20.2z M149,11.1h-13.3c-0.4,0-1.3,0-2.1,0.2l-0.4-0.7c1.2,0.1,2.5,0.1,2.7,0.1h4.6
				c0-1.5-0.2-2.2-0.4-2.6l2,0.4c0.1,0,0.3,0.1,0.3,0.2c0,0.2-0.2,0.3-0.6,0.5c0,0.6,0,0.7,0,1.4h4.5l0.8-0.9
				c0.1-0.2,0.2-0.2,0.3-0.2c0.1,0,0.2,0.1,0.4,0.2l1.2,0.9c0.1,0,0.2,0.2,0.2,0.3C149.3,11.1,149.1,11.1,149,11.1z M145.9,14
				c0,0.4,0,0.8,0,1.6c0,0.3,0.1,1.7,0.1,1.9c0,0.5-0.5,0.8-0.9,0.8c-0.5,0-0.5-0.2-0.5-0.9H142c0,0.8,0.1,4.1,0.1,4.8
				c0,0.6,0,1.7-1.9,2.1c-0.1-1.1-1.7-1.8-2-2l0-0.1c1.1,0.2,1.5,0.2,2,0.2c0.5,0,0.5-0.1,0.5-0.8v-4.2h-3.1c0,0.5,0.1,1.1-0.8,1.1
				c-0.4,0-0.5-0.2-0.5-0.5c0-0.1,0-0.3,0-0.4c0-0.5,0.1-2.2,0.1-2.8c0-1.9,0-2-0.2-2.8l1.6,0.9h6.6l0.5-0.6
				c0.1-0.1,0.1-0.1,0.2-0.1c0.1,0,0.2,0.1,0.2,0.1l0.8,0.7c0.2,0.1,0.2,0.2,0.2,0.3C146.6,13.7,146.4,13.7,145.9,14z M144.7,13.5
				h-6.9v3.6h6.9V13.5z M147.5,23.3c-0.5,0-0.6-0.2-1.3-1.2c-0.7-1.1-1.5-2.2-2.7-2.8l0-0.1c1.8,0.3,4.6,1.7,4.6,3.4
				C148.2,22.9,148,23.3,147.5,23.3z"/>
			<path class="st4" d="M158.6,18.1c-0.3,0-0.4-0.1-1.2-1c-0.8-0.9-2.1-1.9-3.3-2.4c0,0.1,0,2.9,0,3.2c0,0.2,0.1,3.3,0.1,4.1
				c0,0.3,0,1.4-0.7,1.4c-0.5,0-0.8-0.9-0.8-1.5c0-0.3,0.1-0.8,0.1-1c0.2-0.9,0.2-5.9,0.2-8.4c0-2.4-0.1-2.7-1.6-3.1
				c0.2-0.2,0.6-0.4,1.2-0.4c0.8,0,2,0.5,2,0.9c0,0.1-0.2,0.9-0.3,1c-0.1,0.4-0.2,2.4-0.2,3.5c1.2,0.3,2.6,0.7,3.8,1.3
				c0.7,0.4,1.3,1.1,1.3,1.8C159.2,17.7,159,18.1,158.6,18.1z M160,13.3c-0.3,0-0.3-0.1-1-0.8c-0.7-0.7-1.4-1.1-1.8-1.3
				c1.3-0.1,3.3,0.5,3.3,1.6C160.4,13.2,160.2,13.3,160,13.3z M161.6,11.9c-0.2,0-0.7-0.4-1.1-0.7c-0.6-0.5-1.4-1-1.8-1.1
				c0.3,0,0.3,0,0.5,0c0.1,0,2.7,0,2.7,1.4C162,11.6,161.8,11.9,161.6,11.9z"/>
			<path class="st4" d="M176,16.8c-0.2,0-0.6,0-0.6,0c-0.6-0.1-0.8-0.1-2-0.1c-5.4,0-7,0.1-7.8,0.3c-0.1,0-0.6,0.2-0.7,0.2
				c-0.5,0-1.4-1.1-1.4-1.9c0-0.1,0-0.4,0.2-0.8c0.6,1.3,1.1,1.3,3,1.3c1.2,0,7,0,7.8-0.2c0.1,0,0.6-0.2,0.7-0.2
				c0.1,0,1.9,0.2,1.9,0.9C177.1,16.7,176.2,16.8,176,16.8z"/>
			<path class="st4" d="M191.2,21.9c-0.5,0-0.6-0.5-0.8-0.9c-0.2-0.7-0.4-1.2-0.7-2c-1.7,0.6-5.5,1.5-7.7,2
				c-0.3,0.1-0.4,0.1-0.6,0.3c-0.2,0.2-0.3,0.3-0.4,0.3c-0.3,0-1.6-1.3-1.4-2.6c0.5,0.6,0.7,0.7,1.6,0.7c0.1,0,0.5,0,0.6,0
				c2.3-4.9,3.4-7.3,3.4-8.3c0-0.6-0.5-0.9-1.2-1.3c0.4-0.1,0.7-0.2,1-0.2c0.8,0,2.1,1,2.1,1.7c0,0.2-0.1,0.3-0.4,0.7
				c-0.3,0.2-0.7,1.3-1,2c-0.7,1.3-1.9,3.6-3.2,5.4c2.4-0.2,2.8-0.3,7.2-1c-0.6-1.2-1.2-2.1-2.4-3.4c1.4,0.6,2.5,1.8,3.5,3.1
				c0.7,0.9,1.1,1.7,1.1,2.6C191.8,21.5,191.5,21.9,191.2,21.9z"/>
			<path class="st4" d="M195,20.7c-0.6,0-0.6-0.7-0.6-0.7c0-0.5,0.1-0.5,1-1.2c0.9-0.6,1.9-1.6,2.6-2.9
				C197.6,19.2,195.7,20.7,195,20.7z M207.3,14.5c-0.1,0-2-0.3-2.3-0.3c-0.8-0.1-1.4-0.1-1.7-0.1c-0.8,0-1.3,0-1.6,0.1
				c0,0.3,0,1.9,0,2.2c0,0.7,0.1,3.9,0.1,4.5c0,1.5-0.5,2.2-1,2.2c-0.4,0-0.5-0.4-0.7-0.9c-0.1-0.3-0.2-0.5-0.5-0.7
				c-0.5-0.4-1-0.9-1.5-1.2l0-0.1c0.7,0.2,1.8,0.5,2.2,0.5c0.2,0,0.2-0.1,0.3-0.4c0.1-1.5,0.1-4.4,0-6c-2.8,0.4-3.3,0.4-3.9,0.7
				c-0.1,0.1-0.5,0.2-0.5,0.2c-0.3,0-1.4-0.8-1.4-1.9c0-0.2,0-0.5,0.1-0.7c0.6,1,1.1,1.2,1.7,1.2c0.4,0,3.6-0.2,4.1-0.2
				c0-2.4-0.1-2.6-0.2-3c-0.2-0.5-0.9-0.7-1.5-0.8c0.6-0.4,0.8-0.5,1.1-0.5c0.4,0,2.1,0.5,2.1,1.1c0,0.1-0.2,0.6-0.3,0.7
				c-0.2,0.5-0.2,1-0.2,2.5c1.4-0.1,3.1-0.2,3.6-0.3c0.1,0,0.6-0.2,0.7-0.2c0.2,0,0.8,0.2,1.1,0.3c0.3,0.1,0.6,0.3,0.6,0.8
				C207.6,14.4,207.5,14.5,207.3,14.5z M206.9,20.3c-0.3,0-0.4-0.1-0.9-0.9c-0.9-1.5-1.6-2.3-3-3.6c1.9,0.5,4.5,2.2,4.5,3.7
				C207.5,19.9,207.3,20.3,206.9,20.3z"/>
			<path class="st4" d="M223,15c0,0-1.4-0.2-1.8-0.2c-0.7-0.1-1.3-0.1-1.8-0.1c-0.5,0-1,0-2.2,0.1c0.1,0.1,0.7,0.5,0.8,0.6
				c0.1,0.1,0.1,0.1,0.1,0.2c0,0.1-0.3,0.6-0.4,0.7c-0.1,0.1-0.1,0.3-0.1,0.4c-0.8,2.9-2.5,5.9-5.5,6.8l-0.1-0.1
				c2.8-2.1,4.4-6.3,4.4-7.6c0-0.4-0.1-0.6-0.3-0.8c-2.6,0.4-3.2,0.6-3.8,0.8c-0.3,0.1-0.4,0.2-0.5,0.2c-0.3,0-1.5-0.8-1.5-1.9
				c0-0.3,0.1-0.4,0.1-0.6c0.5,0.8,1,1.1,1.7,1.1c0.2,0,7.4-0.8,8.5-0.9c0.2,0,0.9-0.3,1.1-0.3c0.1,0,1.9,0.3,1.9,1.1
				C223.4,15,223.1,15,223,15z M219,11.4c-0.6,0-1.5,0.1-2,0.1c-0.9,0.1-2.7,0.3-2.8,0.3c-0.3,0-1.5-0.2-1.4-1.7
				c0.6,0.5,1.2,0.7,2.1,0.7c1,0,2.3-0.2,3.3-0.5c0.4-0.1,0.6-0.2,0.8-0.2c0.5,0,1.5,0.2,1.5,0.8C220.5,11.3,220.1,11.4,219,11.4z"
				/>
			<path class="st4" d="M230.1,13.2c0,0.4-0.2,2.2-0.2,2.6c-0.5,3.8-2.7,5.8-4.2,6.4l-0.1-0.1c3.3-3.1,3.3-6.9,3.3-8.4
				c0-1.5,0-1.5-1.4-1.8c0.3-0.2,0.7-0.5,1.2-0.5c0.5,0,1.7,0.4,1.7,0.9C230.3,12.5,230.2,13,230.1,13.2z M234.4,20.5
				c-0.6,0.4-0.7,0.5-1.1,1c-0.1,0.1-0.2,0.3-0.4,0.3c-0.3,0-1.1-1.4-1.1-1.7c0-0.1,0.2-0.7,0.2-0.8c0.2-0.7,0.2-3,0.2-3.5
				c0-0.7,0-3.9-0.1-4.3c-0.1-0.3-0.4-0.5-1.3-0.8c0.2-0.1,0.6-0.4,1-0.4c0.5,0,1.9,0.5,1.9,1.1c0,0.2-0.2,0.9-0.2,1
				c-0.2,0.9-0.3,5.8-0.3,6.9c0,0.1,0,0.3,0.1,0.3c0.4,0,3.6-2,6.4-5.6l0.1,0.1C238.7,16.9,236.1,19.2,234.4,20.5z"/>
			<path class="st4" d="M241.6,24.1v-0.8h5.1V8.1h0.7v16.1H241.6z"/>
			<path class="st4" d="M260.9,22.3c-0.2,0-0.9-0.4-1.6-0.8c-1.2-0.8-1.8-1-2.4-1.1c-0.1,1-0.4,2.6-2.9,2.6c-1.3,0-3.2-0.7-3.2-1.9
				c0-0.9,1-1.5,1.6-1.7c1.4-0.4,2.6-0.4,3.3-0.3c-0.1-0.7-0.2-1.6-0.2-3.9c0-0.4,0-3.7,0-3.8c0-1.1-0.2-1.4-1.5-1.7
				c0.2-0.2,0.4-0.5,1.1-0.5c0.6,0,1.9,0.5,1.9,1.2c0,0.1-0.2,0.8-0.2,1c-0.1,0.3-0.1,0.6-0.2,1.4c0.8-0.1,1.4-0.3,2.8-0.7
				c0.2-0.1,0.3-0.1,0.5-0.1c0.2,0,1,0.1,1,0.6c0,0.2-0.1,0.4-0.2,0.5c-0.4,0.3-1.9,0.7-3,0.7c-0.4,0-0.8-0.1-1.2-0.3
				c0,0.3-0.1,1-0.1,1.9c0,2.1,0.3,3.5,0.4,4.1c1.7,0.3,4.6,1.2,4.6,2.4C261.4,22,261.2,22.3,260.9,22.3z M254.3,19.9
				c-0.9,0-2.8,0.2-2.8,1.1c0,0.7,1.3,0.9,2,0.9c2.1,0,2.2-1.2,2.2-1.8C255.4,20,255,19.9,254.3,19.9z"/>
			<path class="st4" d="M269.2,22.8c-0.6,0.5-1.7,1.4-2.5,1.6l0-0.1c3.1-2.2,4-5.6,4-8.8c0-1.2-0.1-4.4-1.4-4.4
				c-0.7,0-1.2,0.7-1.4,1c-0.7,1-1.9,3.7-1.9,5.8c0,0.2,0.1,1.1,0.1,1.3c0,0.2-0.1,0.5-0.4,0.5c-1,0-1.4-2.1-1.4-3.7
				c0-1.3,0.4-3.7,0.6-5.1c0-0.1,0.1-0.4,0.1-0.7c0-1-0.7-1.4-1-1.6c0.2,0,0.5-0.1,0.8-0.1c0.8,0,1.6,0.7,1.6,1.3
				c0,0.3-0.1,0.5-0.2,0.8c-0.5,1.3-1,3.1-1,4.7c0,0.3,0,1.3,0.2,1.3c0.1,0,0.1-0.1,0.2-0.2c0.4-1.4,1.9-6,4-6
				c2.2,0,2.4,3.5,2.4,5.2C271.9,18.9,271.1,21,269.2,22.8z"/>
		</g>
	</g>
</g>
</svg>
