<?xml version="1.0" encoding="utf-8"?>
<!-- Generator: Adobe Illustrator 26.4.1, SVG Export Plug-In . SVG Version: 6.00 Build 0)  -->
<svg version="1.1" id="Layer_1" xmlns="http://www.w3.org/2000/svg" xmlns:xlink="http://www.w3.org/1999/xlink" x="0px" y="0px"
	 viewBox="0 0 389.4 138.6" style="enable-background:new 0 0 389.4 138.6;" xml:space="preserve">
<style type="text/css">
	.st0{fill:#231F20;}
	.st1{fill:#285B6E;}
	.st2{fill:none;stroke:#231F20;stroke-width:0.2835;}
	.st3{fill:#FFFFFF;}
</style>
<g>
	<g>
		<g>
			<g>
				<path class="st0" d="M54.6,64.5c-0.7,0-2.6-0.7-4.2-3c-1.4,1.7-3.5,2.7-5.8,3l0-0.1c2.6-0.9,4.2-2.6,5.2-3.9
					c-0.5-1-0.9-2.2-1.1-3.2c-0.4-1.7-0.5-3-0.5-3.8h-4.5c0.1,2,0.1,2,0.1,2.8h2.1l0.3-0.4c0.1-0.1,0.2-0.2,0.3-0.2
					c0.1,0,0.2,0,0.4,0.2l0.6,0.5c0.1,0.1,0.2,0.2,0.2,0.3c0,0.1-0.1,0.2-0.5,0.5c0,0.5-0.1,2.5-0.1,2.9c-0.1,0.9-0.2,2.3-2,2.7
					c-0.1-0.3-0.1-0.6-0.5-1c-0.1-0.1-0.6-0.5-0.8-0.6v-0.1c0.3,0,1.2,0.1,1.5,0.1c0.5,0,0.6-0.3,0.7-1.5c0.1-1.2,0.1-2.2,0-2.8
					h-2.3c0,1.8-0.1,5.6-2.7,7.7l-0.1-0.1c1-1.4,1.7-4,1.7-7.6c0-0.5,0-2.8-0.5-4.6l1.6,0.9h4.4c0-0.3-0.1-1.5-0.1-1.7
					c-0.1-1-0.2-1.2-0.4-1.7l1.8,0.4c0.1,0,0.3,0.1,0.3,0.2c0,0.2-0.1,0.3-0.5,0.5c0,0.6,0,1.2,0.1,2.2h3.5l0.8-0.9
					c0.1-0.1,0.2-0.2,0.2-0.2c0.1,0,0.2,0.1,0.3,0.2l1,0.9c0.1,0.1,0.2,0.2,0.2,0.3c0,0.1-0.1,0.2-0.2,0.2h-5.7
					c0.3,3.8,0.9,5.1,1.2,5.9c1-1.6,1.4-3.2,1.4-3.9c0-0.1,0-0.2-0.1-0.5l1.7,0.9c0.1,0.1,0.2,0.2,0.2,0.3c0,0.2-0.2,0.3-0.7,0.4
					c-0.6,1.6-1.2,2.8-2,3.9c0.7,1.1,1.7,2.1,2.4,2.1c0.3,0,0.4-0.3,0.6-0.6c0.3-0.7,0.7-1.5,0.8-1.9l0.1,0c0,0.4-0.1,2.2-0.1,2.6
					c0,0.4,0.1,0.5,0.3,0.8c0.1,0.1,0.2,0.3,0.2,0.5C55.4,64.3,55,64.5,54.6,64.5z M51.8,52.6c-0.4,0-0.5-0.3-0.8-0.9
					c-0.2-0.5-0.5-0.9-0.8-1.2l0-0.1c1.2,0.1,2.2,0.6,2.2,1.5C52.4,52.4,52.1,52.6,51.8,52.6z"/>
				<path class="st0" d="M70.7,51.7l0.5-0.4c0.1-0.1,0.1-0.2,0.2-0.2c0.1,0,0.2,0.1,0.2,0.1l0.9,0.7c0.1,0.1,0.2,0.1,0.2,0.3
					c0,0.2-0.5,0.5-0.7,0.5c0,1.6,0,6.3,0.1,9c0,0.2,0.1,1.4,0.1,1.6c0,0.7-0.6,0.9-0.9,0.9c-0.5,0-0.5-0.3-0.5-1h-9.3
					c0,0.1,0,0.6,0,0.7c-0.1,0.4-0.6,0.5-0.9,0.5c-0.2,0-0.5-0.1-0.5-0.5c0-0.2,0-1,0-1.2c0.1-2.4,0.1-4.8,0.1-7.1
					c0-3.2-0.1-3.8-0.2-4.8l1.6,0.9H70.7z M61.5,52.1v5.1h4v-5.1H61.5z M61.5,57.6v5.3h4v-5.3H61.5z M70.8,57.2v-5.1h-4.1v5.1H70.8z
					 M70.8,62.8v-5.3h-4.1v5.3H70.8z"/>
				<path class="st0" d="M91,64.1h-12c-0.1,0-1.2,0-1.9,0.1l-0.3-0.7c0.8,0.1,1.7,0.1,2.5,0.1h4.1v-3.9h-2.8c-0.4,0-1.2,0-1.9,0.1
					l-0.3-0.7c1.3,0.1,2.2,0.1,2.5,0.1h6.4l0.7-0.8c0.1-0.1,0.2-0.2,0.3-0.2c0.1,0,0.2,0.1,0.3,0.2l1,0.8c0.1,0.1,0.2,0.1,0.2,0.2
					c0,0.2-0.2,0.2-0.3,0.2h-4.8v3.9h4.2l0.7-0.9c0.1-0.1,0.1-0.2,0.2-0.2c0.1,0,0.1,0,0.3,0.2l1,0.9c0.1,0,0.2,0.1,0.2,0.2
					C91.2,64.1,91.1,64.1,91,64.1z M90.4,57.2c-0.7,0.1-3.2,0.1-4.1,0.1c-1.7,0-1.7-0.4-1.7-2c0-0.4,0-2.2,0-2.6h-5.4
					c-0.2,1.8-1.5,1.8-1.5,1.8c-0.3,0-0.7-0.2-0.7-0.6c0-0.4,0.3-0.6,0.9-1c1-0.6,1.1-1.2,1.1-1.5h0.1c0.1,0.2,0.1,0.3,0.1,0.8h4.1
					c0-1.1,0-1.6-0.3-2.4l1.6,0.4c0.1,0,0.4,0.1,0.4,0.3c0,0.1,0,0.2-0.1,0.2c-0.1,0-0.3,0.2-0.4,0.3v1.2h3.9l0.6-0.5
					c0.1-0.1,0.2-0.2,0.3-0.2c0.1,0,0.2,0.1,0.3,0.1l1,0.9c0.1,0,0.1,0.2,0.1,0.3c0,0.3-0.2,0.3-0.9,0.4c-0.3,0.2-1.4,0.9-1.7,1.1
					l-0.1-0.1c0.1-0.5,0.2-0.7,0.4-1.6h-2.8c0,0.6,0,3.3,0.1,3.4c0.1,0.1,1.3,0.1,1.6,0.1c0.6,0,1.8,0,2.1-0.3
					c0.4-0.3,0.6-1.2,0.7-1.7h0.1c0.3,1.1,0.4,1.5,0.6,1.6c0.2,0.1,0.3,0.3,0.3,0.5C91.3,56.9,90.7,57.2,90.4,57.2z M82.7,54.1
					c-1,1.9-2.3,3.5-5.5,4.1l-0.1-0.1c3.6-1.8,4.4-4.3,4.6-5.3l1.4,0.7c0.2,0.1,0.2,0.1,0.2,0.2C83.3,53.9,83.3,54,82.7,54.1z"/>
				<path class="st0" d="M96.2,56.5c-0.4,0-0.5-0.2-1-1.2c-0.2-0.4-0.5-0.8-0.8-1.1l0-0.1c0.6,0.1,2.4,0.5,2.4,1.6
					C96.8,56.1,96.6,56.5,96.2,56.5z M97,59.2c-0.3,1.1-0.3,1.2-0.3,1.6c0,0.4,0.1,1,0.2,1.5c0.2,1,0.3,1.2,0.3,1.5
					c0,0.5-0.2,0.9-0.7,0.9c-0.8,0-0.8-0.8-0.8-1.2c0-0.2,0-1.1,0-1.3c0-0.6,0-1.3-1.1-1.8v-0.1c0.3,0,0.8-0.1,1.1-0.5
					c0.4-0.5,2.2-5.8,2.3-6.2l0.1,0C98,54.9,97.9,55.4,97,59.2z M97.4,52.6c-0.5,0-0.6-0.4-1-1.2c-0.2-0.4-0.4-0.8-0.7-1.2l0-0.1
					c0.3,0.1,2.3,0.6,2.3,1.7C98.1,52.3,97.8,52.6,97.4,52.6z M109,59.3c-0.4,0.3-0.5,0.6-0.7,0.9c-1.8-0.7-3.5-2.8-4.1-4.3h-2.1
					c-0.2,0.4-0.7,1.2-1.7,2.4c1.2,0.1,2.3,0.1,2.5,0.1h0.8l0.3-0.3c0.1-0.1,0.2-0.2,0.3-0.2c0.1,0,0.2,0.1,0.3,0.2l0.5,0.4
					c0.1,0.1,0.2,0.2,0.2,0.3c0,0.2-0.1,0.2-0.4,0.5c0,0.2,0.1,1.3,0.1,1.5c0,0.3,0,0.5-0.2,0.7c-0.1,0.1-0.5,0.2-0.6,0.2
					c-0.3,0-0.3-0.2-0.3-0.4h-2.2c-0.1,2.2,0,2.2,0.9,2.2c2.8,0,3.4,0,3.7-0.3c0.4-0.4,0.5-1,0.9-2.2h0.1c0.1,0.5,0.3,1.6,0.5,1.9
					c0.1,0.1,0.1,0.1,0.3,0.2c0.1,0.1,0.1,0.1,0.1,0.2c0,0.1,0,0.5-0.7,0.8c-0.8,0.4-2.4,0.4-3.3,0.4c-3.1,0-3.6-0.1-3.6-1.3
					c0-1,0-2.6-0.1-3.1L102,61h1.9v-2.1h-1.3c-0.4,0-1.2,0-1.9,0.1l-0.3-0.6c-0.8,0.9-2,2-3,2.6l0-0.1c1.5-1.5,2.9-3.6,3.4-4.8
					c-0.3,0-1.3,0-2.1,0.1l-0.3-0.7c0.9,0.1,1,0.1,2.5,0.1v-2.8c-0.6,0-1.1,0-1.7,0.1l-0.3-0.7c0.4,0,1,0.1,2,0.1
					c0-1.3,0-1.5-0.3-2.5l1.5,0.4c0.2,0.1,0.3,0.1,0.3,0.2c0,0.2-0.1,0.3-0.5,0.5c0,0.3,0,0.4,0,1.3h2.1c0-1.3,0-1.5-0.3-2.5
					l1.6,0.4c0.2,0,0.3,0.1,0.3,0.2c0,0.2-0.3,0.4-0.5,0.5c0,0.2,0,1.1,0,1.3h0.9l0.5-0.7c0.1-0.1,0.1-0.2,0.2-0.2s0.2,0.1,0.3,0.2
					l0.7,0.7c0.1,0.1,0.2,0.1,0.2,0.2c0,0.2-0.1,0.2-0.2,0.2h-2.7v2.8h1.8l0.6-0.7c0.1-0.1,0.1-0.2,0.2-0.2c0.1,0,0.2,0.1,0.3,0.2
					l0.8,0.7c0.1,0.1,0.2,0.2,0.2,0.2c0,0.2-0.1,0.2-0.2,0.2h-4.2c0.6,1,2.4,2.6,5.1,2.9V59C109.5,59,109.1,59.3,109,59.3z
					 M104,52.8h-2.1v2.8h2.1C104,55.2,104,53.2,104,52.8z"/>
				<path class="st0" d="M138,52.6h-2.9c0.9,0.6,1.3,0.9,1.3,1.5c0,0.3-0.2,0.7-0.6,0.7c-0.5,0-0.5-0.2-0.6-1
					c-0.1-0.7-0.3-1.1-0.4-1.2h-0.7c-0.8,1.1-1.5,1.9-2.9,2.8l-0.1-0.1c1-1.2,2.4-3.6,2.9-4.7c0-0.1,0.1-0.4,0.1-0.9l1.5,0.8
					c0.1,0.1,0.1,0.1,0.1,0.2c0,0.2-0.2,0.2-0.7,0.4c-0.2,0.3-0.6,0.9-0.7,1.1h1.8l0.5-0.6c0.1-0.1,0.2-0.2,0.2-0.2
					c0.1,0,0.2,0.1,0.3,0.2l0.7,0.6c0.1,0.1,0.2,0.2,0.2,0.2C138.2,52.6,138.1,52.6,138,52.6z M144.6,60c-0.5,2.2-0.7,3.3-3,3.6
					c0-0.6-0.6-1.3-1.2-1.7l0-0.1c0.7,0.1,1.4,0.3,1.9,0.3c0.5,0,1-0.1,1.2-2.4h-4.8c0,0.6,0,3.4,0.1,4c0,0.1,0,0.6,0,0.7
					c0,0.5-0.4,0.7-0.8,0.7c-0.2,0-0.4-0.1-0.4-0.5c0-0.8,0.1-3.5,0.1-4.4c-1.6,2-3.7,3.5-6.1,4.3l0-0.1c1.1-0.6,3.5-2.5,5.2-4.7
					h-3.3c-0.2,0.8-0.3,1.1-0.8,1.1c-0.4,0-0.6-0.1-0.6-0.4c0,0,0.2-0.6,0.3-0.9c0.6-1.7,0.6-2.2,0.7-3.1l1.3,0.8h3.4
					c0-0.1,0-1.4,0-1.6h-2.5c-0.1,0-1.2,0-1.9,0.2l-0.3-0.7c0.8,0.1,1.7,0.1,2.5,0.1h6.7l0.4-0.4c0,0,0.1-0.1,0.2-0.1
					c0.1,0,0.2,0,0.2,0.1l0.8,0.6c0,0,0.1,0.1,0.1,0.2c0,0.1-0.2,0.3-0.5,0.5c0,0.2,0.1,1.4,0.1,1.5c0,0.6-0.7,0.6-0.8,0.6
					c-0.4,0-0.4-0.4-0.4-0.6h-3.5v1.8h4.7l0.6-0.6c0.1-0.1,0.1-0.2,0.2-0.2c0.1,0,0.2,0.1,0.2,0.2l0.8,0.7c0.1,0,0.1,0.1,0.1,0.2
					C145.2,59.8,145,59.8,144.6,60z M137.6,57.5H134c-0.2,0.5-0.2,0.6-0.5,1.8h4.1V57.5z M145.2,52.8h-4.8c1.2,0.5,1.7,0.7,1.7,1.4
					c0,0.4-0.3,0.6-0.6,0.6c-0.4,0-0.5-0.2-0.7-1c-0.1-0.3-0.4-0.7-0.6-1h-0.6c-0.5,0.7-1.2,1.5-1.9,2l-0.1-0.1c1-1.7,2-3.5,1.9-4.9
					l1.6,0.7c0.1,0,0.1,0.1,0.1,0.2c0,0.2-0.2,0.3-0.7,0.4c-0.2,0.3-0.3,0.6-0.7,1.2h3.5l0.5-0.8c0.1-0.1,0.1-0.2,0.2-0.2
					c0.1,0,0.2,0.1,0.3,0.2l0.9,0.8c0.1,0.1,0.2,0.1,0.2,0.2C145.4,52.8,145.3,52.8,145.2,52.8z M142.2,55.5h-3.6v1.6h3.6V55.5z"/>
				<path class="st0" d="M154.5,58.1c0.8,0.6,1.1,1.5,1.1,2.4c0,2-1.7,3.5-3.8,3.5c-1.8,0-3.3-1-3.3-2.3c0-0.7,0.5-1.1,0.9-1.1
					c0.6,0,0.8,0.5,0.8,0.8c0,0.2,0,0.4-0.1,0.5c0,0.1,0,0.2,0,0.4c0,0.6,0.7,1.1,1.5,1.1c1.3,0,2.5-1.2,2.5-2.9c0-1.7-1.2-3-2.6-3
					c-0.1,0-0.6,0.1-0.7,0.1c-0.2,0-0.4-0.1-0.4-0.3c0-0.2,0.2-0.4,0.4-0.4c0.1,0,0.6,0.1,0.7,0.1c1.4,0,2.3-1.2,2.3-2.6
					c0-1.3-0.8-2.5-2.1-2.5c-0.9,0-1.3,0.6-1.3,1.1c0,0.1,0,0.2,0,0.2c0,0.1,0,0.3,0,0.4c0,0.5-0.4,0.9-0.8,0.9
					c-0.5,0-0.8-0.5-0.8-0.9c0-0.9,1.1-2.3,3.2-2.3c2,0,3.3,1.3,3.3,2.8c0,0.6-0.2,1.1-0.6,1.7c-0.7,0.9-1.4,1.2-2.1,1.4
					C153.5,57.4,153.9,57.6,154.5,58.1z"/>
				<path class="st0" d="M168.5,54.4c-0.3,0.1-0.4,0.2-1,1.3c-2.5,4.9-5.1,7.2-8.7,8.2l0-0.1c2.2-1.3,4.2-2.9,5.7-4.9
					c-0.2,0-0.3-0.2-0.6-0.5c-1.1-1.3-1.3-1.5-2.2-2c-0.9,1-1.8,1.7-2.7,2.1l0-0.1c2.1-2,4-5.4,4-6c0-0.5-0.6-0.8-1-0.9
					c0.2-0.1,0.4-0.2,0.8-0.2c0.9,0,1.8,0.8,1.8,1.1c0,0.2,0,0.2-0.4,0.5c-0.1,0.1-0.3,0.4-0.4,0.6c0.1,0,0.3,0,0.6,0
					c0.8,0,2.5-0.3,2.7-0.4c0.1-0.1,0.6-0.4,0.7-0.4c0.2,0,1.3,1.1,1.3,1.3C168.9,54.2,168.8,54.2,168.5,54.4z M164.2,54.3
					c-0.1,0-0.3,0-0.9-0.3c-0.9,1.3-1.5,2-1.6,2.1c0.9,0.1,3,0.5,3.1,2c0.4-0.6,1.2-1.8,2.1-4.2C166.5,54,164.5,54.3,164.2,54.3z"/>
				<path class="st0" d="M184.4,58c-0.1,0-0.5,0-0.6,0c-0.6,0-0.8-0.1-1.9-0.1c-5,0-6.5,0.1-7.2,0.3c0,0-0.6,0.1-0.6,0.1
					c-0.4,0-1.3-1.1-1.3-1.8c0-0.1,0-0.4,0.2-0.8c0.6,1.2,1.1,1.2,2.8,1.2c1.1,0,6.5,0,7.2-0.2c0.1,0,0.6-0.1,0.7-0.1
					c0.1,0,1.7,0.2,1.7,0.8C185.4,58,184.6,58,184.4,58z"/>
				<path class="st0" d="M196.4,63.5c-0.2,0-0.4-0.1-1-0.6c-0.8-0.7-1.6-1.5-4.1-2.5c-0.9-0.4-1.6-0.6-2.3-0.8c3.9-0.1,8,1.7,8,3.3
					C196.9,63.2,196.7,63.5,196.4,63.5z M195.9,54.4c-0.2,0-0.3,0-0.9-0.5c-1.7-1.2-3.4-1.7-5.3-2.2c0.3,0,0.7,0,1.2,0
					c1.8,0,5.5,0.7,5.5,2.2C196.3,54.1,196.2,54.4,195.9,54.4z M195.5,58.2c-0.2,0-0.3-0.1-0.9-0.5c-1.1-0.8-2.9-1.5-4.4-2
					c0.3,0,0.4,0,0.8,0c0.2,0,5,0,5,2C195.9,57.7,195.9,58.2,195.5,58.2z"/>
				<path class="st0" d="M212.5,56.3c-0.1,0-1.4-0.2-1.6-0.2c-0.6-0.1-1.1-0.1-1.5-0.1c-0.9,0-1.4,0-1.8,0.1c0,0.3-0.1,2.2-0.5,3.8
					c-0.4,1.5-1.8,3.9-4.5,4.7l0-0.1c2.9-1.9,3.8-4.8,4-8.3c-1,0.1-3.2,0.4-3.9,0.8c-0.3,0.2-0.4,0.2-0.6,0.2
					c-0.4,0-1.6-0.7-1.6-1.9c0-0.2,0-0.3,0-0.5c0.6,0.9,1.1,1.1,1.7,1.1c0.3,0,0.3,0,1.1-0.1c0.5,0,2.8-0.3,3.2-0.3
					c0-0.7,0-2.4-0.1-3c-0.1-0.4-0.5-0.6-1.3-0.8c0.4-0.4,0.9-0.4,1.1-0.4c0.7,0,1.8,0.4,1.8,1c0,0.1-0.2,0.6-0.3,0.7
					c0,0.1-0.1,1.2-0.1,1.7c0,0.4,0,0.6,0,0.8c0.3,0,2.8-0.1,2.9-0.2c0.2,0,0.9-0.2,1-0.2c0.1,0,1.6,0.2,1.6,0.9
					C213.1,56.3,212.7,56.3,212.5,56.3z"/>
				<path class="st0" d="M220.5,54.6c0,0.4-0.2,2.1-0.2,2.4c-0.4,3.5-2.5,5.4-3.9,6l-0.1-0.1c3-2.9,3-6.4,3-7.8c0-1.4,0-1.4-1.3-1.7
					c0.3-0.2,0.6-0.4,1.1-0.4c0.4,0,1.5,0.4,1.5,0.8C220.7,54,220.5,54.5,220.5,54.6z M224.5,61.4c-0.6,0.4-0.6,0.5-1,0.9
					c-0.1,0.1-0.2,0.2-0.3,0.2c-0.3,0-1.1-1.3-1.1-1.6c0-0.1,0.2-0.6,0.2-0.7c0.1-0.7,0.1-2.8,0.1-3.3c0-0.6,0-3.6-0.1-4
					c-0.1-0.3-0.4-0.5-1.2-0.8c0.2-0.1,0.5-0.3,0.9-0.3c0.5,0,1.8,0.5,1.8,1c0,0.1-0.2,0.8-0.2,0.9c-0.2,0.8-0.2,5.4-0.2,6.4
					c0,0.1,0,0.3,0.1,0.3c0.4,0,3.4-1.9,5.9-5.2l0.1,0.1C228.5,58.1,226.1,60.3,224.5,61.4z"/>
				<path class="st0" d="M246.8,61.3c-0.7,0-3.8-2.2-5-3.3c-0.5-0.4-2.9-2.7-3.4-3.1c-0.1-0.1-0.3-0.2-0.6-0.2
					c-0.7,0-2.1,1.6-2.7,2.4c-0.9,1.1-1.1,1.2-1.4,1.2c-0.6,0-1.5-0.6-1.5-1.4c0-0.1,0-0.1,0-0.3c0.2,0.1,0.5,0.3,0.9,0.3
					c0.5,0,1.2-0.6,1.8-1.1c0.3-0.2,1.5-1.3,1.7-1.5c0.5-0.4,0.8-0.6,1.3-0.6c0.6,0,1,0.3,1.4,0.8c3.1,2.9,4,3.3,6.9,4.9
					c0.3,0.1,1.1,0.6,1.1,1.3C247.3,61.3,246.9,61.3,246.8,61.3z"/>
			</g>
		</g>
	</g>
	<g>
		<g>
			<g>
				<path class="st0" d="M284,49.8c0.2,0.1,0.3,0.2,0.3,0.4c0,0.2-0.2,0.3-0.8,0.4c-0.3,0.3-0.8,1-1.6,2c-0.7,0.9-1.4,1.6-1.9,2.2
					c0.1,0,1.7-0.1,2.8-0.2c-0.1-0.1-0.3-0.6-0.8-1.1l0.1-0.1c1.5,0.6,2.7,1.5,2.7,2.4c0,0.4-0.2,0.8-0.7,0.8
					c-0.5,0-0.7-0.2-0.8-0.9c0-0.1-0.1-0.3-0.2-0.6l-1.8,0.4c0,0.8,0.1,4.8,0.1,5.2c0,0.4,0.1,2.1,0.1,2.5c0,0.5-0.4,0.8-0.9,0.8
					c-0.4,0-0.5-0.3-0.5-0.6c0-0.3,0.1-1.6,0.1-1.9c0-0.6,0-2.5,0.1-5.8c-1.2,0.3-2.2,0.5-2.5,0.5c-0.1,0.2-0.3,0.6-0.5,0.6
					c-0.2,0-0.3-0.2-0.4-0.4l-0.4-1.7c0.3,0.1,0.9,0.1,1.4,0.1c0.6,0,1.5,0,1.8,0c1.3-1.8,2.5-4.3,2.8-5c0.1-0.2,0.1-0.5,0.1-0.8
					L284,49.8z M276.3,62.6c0.8-1.9,1.4-4.4,1.4-5.7l1.6,0.6c0.1,0.1,0.3,0.2,0.3,0.3c0,0.1-0.1,0.2-0.6,0.4
					C278.3,60.1,277.7,61.1,276.3,62.6L276.3,62.6z M277.1,49.9c0.5,0.1,1.2,0.3,1.7,0.5c0.5-1.1,1.4-3.2,1.3-4.4l1.8,0.9
					c0.2,0.1,0.2,0.2,0.2,0.3c0,0.3-0.3,0.4-0.7,0.4c-0.9,1.2-1,1.3-2.4,2.9c0.6,0.3,1.1,0.9,1.1,1.5c0,0.4-0.3,0.9-0.8,0.9
					c-0.4,0-0.6-0.2-1-1.2c-0.4-1-0.9-1.4-1.3-1.8L277.1,49.9z M281.7,57.3c0.8,0.4,2.7,1.2,2.7,2.5c0,0.6-0.4,1-0.9,1
					c-0.5,0-0.6-0.4-0.9-1.3C282.4,58.5,282,57.9,281.7,57.3L281.7,57.3z M291,51l0.6-0.5c0.1-0.1,0.2-0.2,0.3-0.2
					c0.1,0,0.2,0.1,0.3,0.2l0.9,0.8c0.1,0.1,0.2,0.2,0.2,0.3c0,0.1-0.4,0.4-0.7,0.7c-0.1,5.4-0.2,7.8-1.2,9.8
					c-0.7,1.4-1.9,1.9-3,1.9c-0.2-0.9-0.8-1.5-1.8-2.2l0-0.1c0.9,0.2,2.1,0.4,2.6,0.4c2,0,2.1-6.4,2.1-8.4c0-0.3,0-1.7,0-2h-5.3
					c-1,1.8-1.6,2.5-1.9,2.8l-0.1-0.1c1.4-2.9,2.1-6.1,2.1-7.2c0-0.2-0.1-0.6-0.1-0.7l2.1,0.9c0.1,0,0.2,0.1,0.2,0.3
					c0,0.2-0.3,0.3-0.8,0.5c-0.2,0.6-0.6,1.6-1.3,3H291z M285.6,54.7c1.8,0.8,2.8,1.4,2.8,2.4c0,0.5-0.2,0.9-0.8,0.9
					c-0.5,0-0.7-0.2-1.1-1.6c-0.2-0.5-0.5-1.2-1-1.7L285.6,54.7z"/>
				<path class="st0" d="M309,42.5V44c-4.6,7.2-6.3,11.2-6.7,17.7c-0.1,0.8-0.1,2.6-1.6,2.6c-0.7,0-1.5-0.6-1.5-1.6
					c0-2.1,2-8.2,8.2-18h-5c-4.2,0-4.9,2-5.5,3.8l-0.9-0.2l1.2-5.9H309z"/>
				<path class="st0" d="M322.6,63.8h-11.5V63c0.6-1.8,2-3.9,4.3-6.5c4.3-5,5.7-6.6,5.7-9.5c0-2.2-1.4-4-3.9-4c-2,0-3.3,1.2-3.3,2.3
					c0,0.1,0,0.5,0.3,0.9c0.4,0.6,0.6,0.9,0.6,1.5c0,0.9-0.7,1.6-1.6,1.6c-1,0-1.7-1-1.7-2c0-2.1,2.1-5.2,6.3-5.2
					c3.6,0,5.8,2.3,5.8,5.4c0,2.9-1.7,4.6-4.3,6.8c-1,0.8-4.8,4.1-6.3,7.3h4c4.1,0,5-1.6,5.9-4l0.9,0.3L322.6,63.8z"/>
				<path class="st0" d="M332.5,49c-1.6,3.3-4.6,5.8-6,6.6l-0.1-0.1c2.7-3.1,4.3-5.8,4.7-7.1c0.2-0.5,0.3-0.9,0.3-1.2l1.7,1.1
					c0.1,0.1,0.3,0.2,0.3,0.3C333.3,48.8,332.8,48.9,332.5,49z M339.5,55.1c-0.2,7-0.6,8.4-4.1,8.7c-0.1-1.2-1-1.9-1.5-2.1l0-0.1
					c0.8,0.2,1.7,0.3,2.3,0.3c0.9,0,1.3-0.2,1.6-2c0.2-1.4,0.4-4.7,0.3-5.6h-3.9c-0.1,3.1-1.4,8.3-7.5,9.5l0-0.2
					c4-1.8,6-4.8,6.1-9.3h-0.6c-0.5,0-1.4,0-2.3,0.2l-0.4-0.8c1.2,0.1,2.4,0.1,3,0.1h5.5l0.5-0.5c0.1-0.1,0.2-0.2,0.3-0.2
					c0.1,0,0.2,0.1,0.3,0.2l0.8,0.9c0.1,0.1,0.2,0.2,0.2,0.3C340.1,54.6,340.1,54.7,339.5,55.1z M343.1,55c-2.1-0.9-4.4-3-5.9-7.4
					h-1.6c-1,0-1.4,0.1-1.6,0.1l-0.3-0.7c0.9,0.1,1.7,0.1,2.1,0.1h1l0.6-0.6c0.2-0.2,0.3-0.2,0.3-0.2c0.1,0,0.2,0.1,0.3,0.2l0.7,0.7
					c0.1,0.1,0.2,0.2,0.2,0.3c0,0.4-0.9,0.5-1.2,0.6c0.9,2.5,4.2,5,7.1,5.2l0,0.2C343.9,53.9,343.4,54.5,343.1,55z"/>
			</g>
		</g>
	</g>
	<g>
		<g>
			<g>
				<path class="st0" d="M54.6,100.1c-0.7,0-2.6-0.7-4.2-3c-1.4,1.7-3.5,2.7-5.8,3l0-0.1c2.6-0.9,4.2-2.6,5.2-3.9
					c-0.5-1-0.9-2.2-1.1-3.2c-0.4-1.7-0.5-3-0.5-3.8h-4.5c0.1,2,0.1,2,0.1,2.8h2.1l0.3-0.4c0.1-0.1,0.2-0.2,0.3-0.2
					c0.1,0,0.2,0,0.4,0.2l0.6,0.5c0.1,0.1,0.2,0.2,0.2,0.3c0,0.1-0.1,0.2-0.5,0.5c0,0.5-0.1,2.5-0.1,2.9c-0.1,0.9-0.2,2.3-2,2.7
					c-0.1-0.3-0.1-0.6-0.5-1c-0.1-0.1-0.6-0.5-0.8-0.6v-0.1c0.3,0,1.2,0.1,1.5,0.1c0.5,0,0.6-0.3,0.7-1.5c0.1-1.2,0.1-2.2,0-2.8
					h-2.3c0,1.8-0.1,5.6-2.7,7.7l-0.1-0.1c1-1.4,1.7-4,1.7-7.6c0-0.5,0-2.8-0.5-4.6l1.6,0.9h4.4c0-0.3-0.1-1.5-0.1-1.7
					c-0.1-1-0.2-1.2-0.4-1.7l1.8,0.4c0.1,0,0.3,0.1,0.3,0.2c0,0.2-0.1,0.3-0.5,0.5c0,0.6,0,1.2,0.1,2.2h3.5l0.8-0.9
					c0.1-0.1,0.2-0.2,0.2-0.2c0.1,0,0.2,0.1,0.3,0.2l1,0.9c0.1,0.1,0.2,0.2,0.2,0.3c0,0.1-0.1,0.2-0.2,0.2h-5.7
					c0.3,3.8,0.9,5.1,1.2,5.9c1-1.6,1.4-3.2,1.4-3.9c0-0.1,0-0.2-0.1-0.5l1.7,0.9c0.1,0.1,0.2,0.2,0.2,0.3c0,0.2-0.2,0.3-0.7,0.4
					c-0.6,1.6-1.2,2.8-2,3.9c0.7,1.1,1.7,2.1,2.4,2.1c0.3,0,0.4-0.3,0.6-0.6c0.3-0.7,0.7-1.5,0.8-1.9l0.1,0c0,0.4-0.1,2.2-0.1,2.6
					c0,0.4,0.1,0.5,0.3,0.8c0.1,0.1,0.2,0.3,0.2,0.5C55.4,99.8,55,100.1,54.6,100.1z M51.8,88.2c-0.4,0-0.5-0.3-0.8-0.9
					c-0.2-0.5-0.5-0.9-0.8-1.2l0-0.1c1.2,0.1,2.2,0.6,2.2,1.5C52.4,87.9,52.1,88.2,51.8,88.2z"/>
				<path class="st0" d="M70.7,87.2l0.5-0.4c0.1-0.1,0.1-0.2,0.2-0.2c0.1,0,0.2,0.1,0.2,0.1l0.9,0.7c0.1,0.1,0.2,0.1,0.2,0.3
					c0,0.2-0.5,0.5-0.7,0.5c0,1.6,0,6.3,0.1,9c0,0.2,0.1,1.4,0.1,1.6c0,0.7-0.6,0.9-0.9,0.9c-0.5,0-0.5-0.3-0.5-1h-9.3
					c0,0.1,0,0.6,0,0.7c-0.1,0.4-0.6,0.5-0.9,0.5c-0.2,0-0.5-0.1-0.5-0.5c0-0.2,0-1,0-1.2c0.1-2.4,0.1-4.8,0.1-7.1
					c0-3.2-0.1-3.8-0.2-4.8l1.6,0.9H70.7z M61.5,87.6v5.1h4v-5.1H61.5z M61.5,93.1v5.3h4v-5.3H61.5z M70.8,92.7v-5.1h-4.1v5.1H70.8z
					 M70.8,98.4v-5.3h-4.1v5.3H70.8z"/>
				<path class="st0" d="M91,99.7h-12c-0.1,0-1.2,0-1.9,0.1l-0.3-0.7c0.8,0.1,1.7,0.1,2.5,0.1h4.1v-3.9h-2.8c-0.4,0-1.2,0-1.9,0.1
					l-0.3-0.7c1.3,0.1,2.2,0.1,2.5,0.1h6.4l0.7-0.8c0.1-0.1,0.2-0.2,0.3-0.2c0.1,0,0.2,0.1,0.3,0.2l1,0.8c0.1,0.1,0.2,0.1,0.2,0.2
					c0,0.2-0.2,0.2-0.3,0.2h-4.8v3.9h4.2l0.7-0.9c0.1-0.1,0.1-0.2,0.2-0.2c0.1,0,0.1,0,0.3,0.2l1,0.9c0.1,0,0.2,0.1,0.2,0.2
					C91.2,99.6,91.1,99.7,91,99.7z M90.4,92.8c-0.7,0.1-3.2,0.1-4.1,0.1c-1.7,0-1.7-0.4-1.7-2c0-0.4,0-2.2,0-2.6h-5.4
					c-0.2,1.8-1.5,1.8-1.5,1.8c-0.3,0-0.7-0.2-0.7-0.6c0-0.4,0.3-0.6,0.9-1c1-0.6,1.1-1.2,1.1-1.5h0.1c0.1,0.2,0.1,0.3,0.1,0.8h4.1
					c0-1.1,0-1.6-0.3-2.4l1.6,0.4c0.1,0,0.4,0.1,0.4,0.3c0,0.1,0,0.2-0.1,0.2c-0.1,0-0.3,0.2-0.4,0.3v1.2h3.9l0.6-0.5
					c0.1-0.1,0.2-0.2,0.3-0.2c0.1,0,0.2,0.1,0.3,0.1l1,0.9c0.1,0,0.1,0.2,0.1,0.3c0,0.3-0.2,0.3-0.9,0.4c-0.3,0.2-1.4,0.9-1.7,1.1
					l-0.1-0.1c0.1-0.5,0.2-0.7,0.4-1.6h-2.8c0,0.6,0,3.3,0.1,3.4c0.1,0.1,1.3,0.1,1.6,0.1c0.6,0,1.8,0,2.1-0.3
					c0.4-0.3,0.6-1.2,0.7-1.7h0.1c0.3,1.1,0.4,1.5,0.6,1.6c0.2,0.1,0.3,0.3,0.3,0.5C91.3,92.4,90.7,92.7,90.4,92.8z M82.7,89.7
					c-1,1.9-2.3,3.5-5.5,4.1l-0.1-0.1c3.6-1.8,4.4-4.3,4.6-5.3l1.4,0.7c0.2,0.1,0.2,0.1,0.2,0.2C83.3,89.5,83.3,89.5,82.7,89.7z"/>
				<path class="st0" d="M96.2,92c-0.4,0-0.5-0.2-1-1.2c-0.2-0.4-0.5-0.8-0.8-1.1l0-0.1c0.6,0.1,2.4,0.5,2.4,1.6
					C96.8,91.6,96.6,92,96.2,92z M97,94.8c-0.3,1.1-0.3,1.2-0.3,1.6c0,0.4,0.1,1,0.2,1.5c0.2,1,0.3,1.2,0.3,1.5
					c0,0.5-0.2,0.9-0.7,0.9c-0.8,0-0.8-0.8-0.8-1.2c0-0.2,0-1.1,0-1.3c0-0.6,0-1.3-1.1-1.8v-0.1c0.3,0,0.8-0.1,1.1-0.5
					c0.4-0.5,2.2-5.8,2.3-6.2l0.1,0C98,90.5,97.9,90.9,97,94.8z M97.4,88.1c-0.5,0-0.6-0.4-1-1.2c-0.2-0.4-0.4-0.8-0.7-1.2l0-0.1
					c0.3,0.1,2.3,0.6,2.3,1.7C98.1,87.8,97.8,88.1,97.4,88.1z M109,94.9c-0.4,0.3-0.5,0.6-0.7,0.9c-1.8-0.7-3.5-2.8-4.1-4.3h-2.1
					c-0.2,0.4-0.7,1.2-1.7,2.4c1.2,0.1,2.3,0.1,2.5,0.1h0.8l0.3-0.3c0.1-0.1,0.2-0.2,0.3-0.2c0.1,0,0.2,0.1,0.3,0.2l0.5,0.4
					c0.1,0.1,0.2,0.2,0.2,0.3c0,0.2-0.1,0.2-0.4,0.5c0,0.2,0.1,1.3,0.1,1.5c0,0.3,0,0.5-0.2,0.7c-0.1,0.1-0.5,0.2-0.6,0.2
					c-0.3,0-0.3-0.2-0.3-0.4h-2.2c-0.1,2.2,0,2.2,0.9,2.2c2.8,0,3.4,0,3.7-0.3c0.4-0.4,0.5-1,0.9-2.2h0.1c0.1,0.5,0.3,1.6,0.5,1.9
					c0.1,0.1,0.1,0.1,0.3,0.2c0.1,0.1,0.1,0.1,0.1,0.2c0,0.1,0,0.5-0.7,0.8c-0.8,0.4-2.4,0.4-3.3,0.4c-3.1,0-3.6-0.1-3.6-1.3
					c0-1,0-2.6-0.1-3.1l1.5,0.7h1.9v-2.1h-1.3c-0.4,0-1.2,0-1.9,0.1l-0.3-0.6c-0.8,0.9-2,2-3,2.6l0-0.1c1.5-1.5,2.9-3.6,3.4-4.8
					c-0.3,0-1.3,0-2.1,0.1L98.3,91c0.9,0.1,1,0.1,2.5,0.1v-2.8c-0.6,0-1.1,0-1.7,0.1l-0.3-0.7c0.4,0,1,0.1,2,0.1
					c0-1.3,0-1.5-0.3-2.5l1.5,0.4c0.2,0.1,0.3,0.1,0.3,0.2c0,0.2-0.1,0.3-0.5,0.5c0,0.3,0,0.4,0,1.3h2.1c0-1.3,0-1.5-0.3-2.5
					l1.6,0.4c0.2,0,0.3,0.1,0.3,0.2c0,0.2-0.3,0.4-0.5,0.5c0,0.2,0,1.1,0,1.3h0.9l0.5-0.7c0.1-0.1,0.1-0.2,0.2-0.2s0.2,0.1,0.3,0.2
					l0.7,0.7c0.1,0.1,0.2,0.1,0.2,0.2c0,0.2-0.1,0.2-0.2,0.2h-2.7v2.8h1.8l0.6-0.7c0.1-0.1,0.1-0.2,0.2-0.2c0.1,0,0.2,0.1,0.3,0.2
					l0.8,0.7c0.1,0.1,0.2,0.2,0.2,0.2c0,0.2-0.1,0.2-0.2,0.2h-4.2c0.6,1,2.4,2.6,5.1,2.9v0.1C109.5,94.5,109.1,94.8,109,94.9z
					 M104,88.3h-2.1v2.8h2.1C104,90.7,104,88.8,104,88.3z"/>
				<path class="st0" d="M138,88.2h-2.9c0.9,0.6,1.3,0.9,1.3,1.5c0,0.3-0.2,0.7-0.6,0.7c-0.5,0-0.5-0.2-0.6-1
					c-0.1-0.7-0.3-1.1-0.4-1.2h-0.7c-0.8,1.1-1.5,1.9-2.9,2.8l-0.1-0.1c1-1.2,2.4-3.6,2.9-4.7c0-0.1,0.1-0.4,0.1-0.9l1.5,0.8
					c0.1,0.1,0.1,0.1,0.1,0.2c0,0.2-0.2,0.2-0.7,0.4c-0.2,0.3-0.6,0.9-0.7,1.1h1.8l0.5-0.6c0.1-0.1,0.2-0.2,0.2-0.2
					c0.1,0,0.2,0.1,0.3,0.2l0.7,0.6c0.1,0.1,0.2,0.2,0.2,0.2C138.2,88.1,138.1,88.2,138,88.2z M144.6,95.6c-0.5,2.2-0.7,3.3-3,3.6
					c0-0.6-0.6-1.3-1.2-1.7l0-0.1c0.7,0.1,1.4,0.3,1.9,0.3c0.5,0,1-0.1,1.2-2.4h-4.8c0,0.6,0,3.4,0.1,4c0,0.1,0,0.6,0,0.7
					c0,0.5-0.4,0.7-0.8,0.7c-0.2,0-0.4-0.1-0.4-0.5c0-0.8,0.1-3.5,0.1-4.4c-1.6,2-3.7,3.5-6.1,4.3l0-0.1c1.1-0.6,3.5-2.5,5.2-4.7
					h-3.3c-0.2,0.8-0.3,1.1-0.8,1.1c-0.4,0-0.6-0.1-0.6-0.4c0,0,0.2-0.6,0.3-0.9c0.6-1.7,0.6-2.2,0.7-3.1l1.3,0.8h3.4
					c0-0.1,0-1.4,0-1.6h-2.5c-0.1,0-1.2,0-1.9,0.2l-0.3-0.7c0.8,0.1,1.7,0.1,2.5,0.1h6.7l0.4-0.4c0,0,0.1-0.1,0.2-0.1
					c0.1,0,0.2,0,0.2,0.1l0.8,0.6c0,0,0.1,0.1,0.1,0.2c0,0.1-0.2,0.3-0.5,0.5c0,0.2,0.1,1.4,0.1,1.5c0,0.6-0.7,0.6-0.8,0.6
					c-0.4,0-0.4-0.4-0.4-0.6h-3.5v1.8h4.7l0.6-0.6c0.1-0.1,0.1-0.2,0.2-0.2c0.1,0,0.2,0.1,0.2,0.2l0.8,0.7c0.1,0,0.1,0.1,0.1,0.2
					C145.2,95.3,145,95.4,144.6,95.6z M137.6,93H134c-0.2,0.5-0.2,0.6-0.5,1.8h4.1V93z M145.2,88.3h-4.8c1.2,0.5,1.7,0.7,1.7,1.4
					c0,0.4-0.3,0.6-0.6,0.6c-0.4,0-0.5-0.2-0.7-1c-0.1-0.3-0.4-0.7-0.6-1h-0.6c-0.5,0.7-1.2,1.5-1.9,2l-0.1-0.1c1-1.7,2-3.5,1.9-4.9
					l1.6,0.7c0.1,0,0.1,0.1,0.1,0.2c0,0.2-0.2,0.3-0.7,0.4c-0.2,0.3-0.3,0.6-0.7,1.2h3.5l0.5-0.8c0.1-0.1,0.1-0.2,0.2-0.2
					c0.1,0,0.2,0.1,0.3,0.2l0.9,0.8c0.1,0.1,0.2,0.1,0.2,0.2C145.4,88.3,145.3,88.3,145.2,88.3z M142.2,91h-3.6v1.6h3.6V91z"/>
				<path class="st0" d="M154.9,99.2h-6.5v-0.4c0.3-1,1.1-2.2,2.4-3.7c2.4-2.8,3.2-3.7,3.2-5.4c0-1.2-0.8-2.3-2.2-2.3
					c-1.2,0-1.8,0.7-1.8,1.3c0,0,0,0.3,0.2,0.5c0.2,0.3,0.3,0.5,0.3,0.8c0,0.5-0.4,0.9-0.9,0.9c-0.6,0-0.9-0.5-0.9-1.2
					c0-1.2,1.2-2.9,3.5-2.9c2,0,3.3,1.3,3.3,3.1c0,1.7-1,2.6-2.4,3.8c-0.6,0.5-2.7,2.3-3.6,4.1h2.3c2.3,0,2.8-0.9,3.3-2.3l0.5,0.2
					L154.9,99.2z"/>
				<path class="st0" d="M168.5,89.9c-0.3,0.1-0.4,0.2-1,1.3c-2.5,4.9-5.1,7.2-8.7,8.2l0-0.1c2.2-1.3,4.2-2.9,5.7-4.9
					c-0.2,0-0.3-0.2-0.6-0.5c-1.1-1.3-1.3-1.5-2.2-2c-0.9,1-1.8,1.7-2.7,2.1l0-0.1c2.1-2,4-5.4,4-6c0-0.5-0.6-0.8-1-0.9
					c0.2-0.1,0.4-0.2,0.8-0.2c0.9,0,1.8,0.8,1.8,1.1c0,0.2,0,0.2-0.4,0.5c-0.1,0.1-0.3,0.4-0.4,0.6c0.1,0,0.3,0,0.6,0
					c0.8,0,2.5-0.3,2.7-0.4c0.1-0.1,0.6-0.4,0.7-0.4c0.2,0,1.3,1.1,1.3,1.3C168.9,89.7,168.8,89.7,168.5,89.9z M164.2,89.8
					c-0.1,0-0.3,0-0.9-0.3c-0.9,1.3-1.5,2-1.6,2.1c0.9,0.1,3,0.5,3.1,2c0.4-0.6,1.2-1.8,2.1-4.2C166.5,89.5,164.5,89.8,164.2,89.8z"
					/>
				<path class="st0" d="M184.4,93.5c-0.1,0-0.5,0-0.6,0c-0.6,0-0.8-0.1-1.9-0.1c-5,0-6.5,0.1-7.2,0.3c0,0-0.6,0.1-0.6,0.1
					c-0.4,0-1.3-1.1-1.3-1.8c0-0.1,0-0.4,0.2-0.8c0.6,1.2,1.1,1.2,2.8,1.2c1.1,0,6.5,0,7.2-0.2c0.1,0,0.6-0.1,0.7-0.1
					c0.1,0,1.7,0.2,1.7,0.8C185.4,93.5,184.6,93.5,184.4,93.5z"/>
				<path class="st0" d="M196.4,99c-0.2,0-0.4-0.1-1-0.6c-0.8-0.7-1.6-1.5-4.1-2.5c-0.9-0.4-1.6-0.6-2.3-0.8c3.9-0.1,8,1.7,8,3.3
					C196.9,98.8,196.7,99,196.4,99z M195.9,89.9c-0.2,0-0.3,0-0.9-0.5c-1.7-1.2-3.4-1.7-5.3-2.2c0.3,0,0.7,0,1.2,0
					c1.8,0,5.5,0.7,5.5,2.2C196.3,89.6,196.2,89.9,195.9,89.9z M195.5,93.7c-0.2,0-0.3-0.1-0.9-0.5c-1.1-0.8-2.9-1.5-4.4-2
					c0.3,0,0.4,0,0.8,0c0.2,0,5,0,5,2C195.9,93.2,195.9,93.7,195.5,93.7z"/>
				<path class="st0" d="M212.5,91.8c-0.1,0-1.4-0.2-1.6-0.2c-0.6-0.1-1.1-0.1-1.5-0.1c-0.9,0-1.4,0-1.8,0.1c0,0.3-0.1,2.2-0.5,3.8
					c-0.4,1.5-1.8,3.9-4.5,4.7l0-0.1c2.9-1.9,3.8-4.8,4-8.3c-1,0.1-3.2,0.4-3.9,0.8c-0.3,0.2-0.4,0.2-0.6,0.2
					c-0.4,0-1.6-0.7-1.6-1.9c0-0.2,0-0.3,0-0.5c0.6,0.9,1.1,1.1,1.7,1.1c0.3,0,0.3,0,1.1-0.1c0.5,0,2.8-0.3,3.2-0.3
					c0-0.7,0-2.4-0.1-3c-0.1-0.4-0.5-0.6-1.3-0.8c0.4-0.4,0.9-0.4,1.1-0.4c0.7,0,1.8,0.4,1.8,1c0,0.1-0.2,0.6-0.3,0.7
					c0,0.1-0.1,1.2-0.1,1.7c0,0.4,0,0.6,0,0.8c0.3,0,2.8-0.1,2.9-0.2c0.2,0,0.9-0.2,1-0.2c0.1,0,1.6,0.2,1.6,0.9
					C213.1,91.8,212.7,91.8,212.5,91.8z"/>
				<path class="st0" d="M220.5,90.2c0,0.4-0.2,2.1-0.2,2.4c-0.4,3.5-2.5,5.4-3.9,6l-0.1-0.1c3-2.9,3-6.4,3-7.8c0-1.4,0-1.4-1.3-1.7
					c0.3-0.2,0.6-0.4,1.1-0.4c0.4,0,1.5,0.4,1.5,0.8C220.7,89.5,220.5,90.1,220.5,90.2z M224.5,97c-0.6,0.4-0.6,0.5-1,0.9
					c-0.1,0.1-0.2,0.2-0.3,0.2c-0.3,0-1.1-1.3-1.1-1.6c0-0.1,0.2-0.6,0.2-0.7c0.1-0.7,0.1-2.8,0.1-3.3c0-0.6,0-3.6-0.1-4
					c-0.1-0.3-0.4-0.5-1.2-0.8c0.2-0.1,0.5-0.3,0.9-0.3c0.5,0,1.8,0.5,1.8,1c0,0.1-0.2,0.8-0.2,0.9c-0.2,0.8-0.2,5.4-0.2,6.4
					c0,0.1,0,0.3,0.1,0.3c0.4,0,3.4-1.9,5.9-5.2l0.1,0.1C228.5,93.7,226.1,95.8,224.5,97z"/>
				<path class="st0" d="M246.8,96.8c-0.7,0-3.8-2.2-5-3.3c-0.5-0.4-2.9-2.7-3.4-3.1c-0.1-0.1-0.3-0.2-0.6-0.2
					c-0.7,0-2.1,1.6-2.7,2.4c-0.9,1.1-1.1,1.2-1.4,1.2c-0.6,0-1.5-0.6-1.5-1.4c0-0.1,0-0.1,0-0.3c0.2,0.1,0.5,0.3,0.9,0.3
					c0.5,0,1.2-0.6,1.8-1.1c0.3-0.2,1.5-1.3,1.7-1.5c0.5-0.4,0.8-0.6,1.3-0.6c0.6,0,1,0.3,1.4,0.8c3.1,2.9,4,3.3,6.9,4.9
					c0.3,0.1,1.1,0.6,1.1,1.3C247.3,96.8,246.9,96.8,246.8,96.8z"/>
			</g>
		</g>
	</g>
	<g>
		<g>
			<g>
				<path class="st0" d="M284,86.4c0.2,0.1,0.3,0.2,0.3,0.4c0,0.2-0.2,0.3-0.8,0.4c-0.3,0.3-0.8,1-1.6,2c-0.7,0.9-1.4,1.6-1.9,2.2
					c0.1,0,1.7-0.1,2.8-0.2c-0.1-0.1-0.3-0.6-0.8-1.1l0.1-0.1c1.5,0.6,2.7,1.5,2.7,2.4c0,0.4-0.2,0.8-0.7,0.8
					c-0.5,0-0.7-0.2-0.8-0.9c0-0.1-0.1-0.3-0.2-0.6l-1.8,0.4c0,0.8,0.1,4.8,0.1,5.2c0,0.4,0.1,2.1,0.1,2.5c0,0.5-0.4,0.8-0.9,0.8
					c-0.4,0-0.5-0.3-0.5-0.6c0-0.3,0.1-1.6,0.1-1.9c0-0.6,0-2.5,0.1-5.8c-1.2,0.3-2.2,0.5-2.5,0.5c-0.1,0.2-0.3,0.6-0.5,0.6
					c-0.2,0-0.3-0.2-0.4-0.4l-0.4-1.7c0.3,0.1,0.9,0.1,1.4,0.1c0.6,0,1.5,0,1.8,0c1.3-1.8,2.5-4.3,2.8-5c0.1-0.2,0.1-0.5,0.1-0.8
					L284,86.4z M276.3,99.2c0.8-1.9,1.4-4.4,1.4-5.7l1.6,0.6c0.1,0.1,0.3,0.2,0.3,0.3c0,0.1-0.1,0.2-0.6,0.4
					C278.3,96.6,277.7,97.7,276.3,99.2L276.3,99.2z M277.1,86.4c0.5,0.1,1.2,0.3,1.7,0.5c0.5-1.1,1.4-3.2,1.3-4.4l1.8,0.9
					c0.2,0.1,0.2,0.2,0.2,0.3c0,0.3-0.3,0.4-0.7,0.4c-0.9,1.2-1,1.3-2.4,2.9c0.6,0.3,1.1,0.9,1.1,1.5c0,0.4-0.3,0.9-0.8,0.9
					c-0.4,0-0.6-0.2-1-1.2c-0.4-1-0.9-1.4-1.3-1.8L277.1,86.4z M281.7,93.8c0.8,0.4,2.7,1.2,2.7,2.5c0,0.6-0.4,1-0.9,1
					c-0.5,0-0.6-0.4-0.9-1.3C282.4,95,282,94.4,281.7,93.8L281.7,93.8z M291,87.5l0.6-0.5c0.1-0.1,0.2-0.2,0.3-0.2
					c0.1,0,0.2,0.1,0.3,0.2l0.9,0.8c0.1,0.1,0.2,0.2,0.2,0.3c0,0.1-0.4,0.4-0.7,0.7c-0.1,5.4-0.2,7.8-1.2,9.8
					c-0.7,1.4-1.9,1.9-3,1.9c-0.2-0.9-0.8-1.5-1.8-2.2l0-0.1c0.9,0.2,2.1,0.4,2.6,0.4c2,0,2.1-6.4,2.1-8.4c0-0.3,0-1.7,0-2h-5.3
					c-1,1.8-1.6,2.5-1.9,2.8l-0.1-0.1c1.4-2.9,2.1-6.2,2.1-7.2c0-0.2-0.1-0.6-0.1-0.7l2.1,0.9c0.1,0,0.2,0.1,0.2,0.3
					c0,0.2-0.3,0.3-0.8,0.5c-0.2,0.6-0.6,1.6-1.3,3H291z M285.6,91.2c1.8,0.8,2.8,1.4,2.8,2.4c0,0.5-0.2,0.9-0.8,0.9
					c-0.5,0-0.7-0.2-1.1-1.6c-0.2-0.5-0.5-1.2-1-1.7L285.6,91.2z"/>
				<path class="st0" d="M309,79v1.5c-4.6,7.2-6.3,11.2-6.7,17.7c-0.1,0.8-0.1,2.6-1.6,2.6c-0.7,0-1.5-0.6-1.5-1.6
					c0-2.1,2-8.2,8.2-18h-5c-4.2,0-4.9,2-5.5,3.8l-0.9-0.2l1.2-5.9H309z"/>
				<path class="st0" d="M313.5,81.3l-0.3,7.4c1.3-1.1,2.4-2,4.5-2c4.2,0,6.2,3.5,6.2,6.7c0,4.2-3.4,7.5-7.2,7.5
					c-3.3,0-5.5-2.5-5.5-4.3c0-1.1,0.7-1.8,1.7-1.8c0.9,0,1.5,0.6,1.5,1.5c0,0.3,0,0.4-0.1,0.9c-0.1,0.2-0.1,0.6-0.1,0.8
					c0,1.3,1.3,1.9,2.5,1.9c2.4,0,4.6-2.2,4.6-6.2c0-3.7-2-5.7-4.1-5.7c-1.2,0-2.9,0.6-4.6,2.5l-0.4-0.2l0.4-11.3h10.2l-0.6,2.3
					H313.5z"/>
				<path class="st0" d="M332.5,85.5c-1.6,3.3-4.6,5.8-6,6.6l-0.1-0.1c2.7-3.1,4.3-5.8,4.7-7.1c0.2-0.5,0.3-0.9,0.3-1.2l1.7,1.1
					c0.1,0.1,0.3,0.2,0.3,0.3C333.3,85.3,332.8,85.4,332.5,85.5z M339.5,91.6c-0.2,7-0.6,8.4-4.1,8.7c-0.1-1.2-1-1.9-1.5-2.1l0-0.1
					c0.8,0.2,1.7,0.3,2.3,0.3c0.9,0,1.3-0.2,1.6-2c0.2-1.4,0.4-4.7,0.3-5.6h-3.9c-0.1,3.1-1.4,8.3-7.5,9.5l0-0.2
					c4-1.8,6-4.8,6.1-9.3h-0.6c-0.5,0-1.4,0-2.3,0.2l-0.4-0.8c1.2,0.1,2.4,0.1,3,0.1h5.5l0.5-0.5c0.1-0.1,0.2-0.2,0.3-0.2
					c0.1,0,0.2,0.1,0.3,0.2l0.8,0.9c0.1,0.1,0.2,0.2,0.2,0.3C340.1,91.2,340.1,91.2,339.5,91.6z M343.1,91.6c-2.1-0.9-4.4-3-5.9-7.4
					h-1.6c-1,0-1.4,0.1-1.6,0.1l-0.3-0.7c0.9,0.1,1.7,0.1,2.1,0.1h1l0.6-0.6c0.2-0.2,0.3-0.2,0.3-0.2c0.1,0,0.2,0.1,0.3,0.2l0.7,0.7
					c0.1,0.1,0.2,0.2,0.2,0.3c0,0.4-0.9,0.5-1.2,0.6c0.9,2.5,4.2,5,7.1,5.2l0,0.2C343.9,90.4,343.4,91,343.1,91.6z"/>
			</g>
		</g>
	</g>
	<g>
		<g>
			<g>
				<path class="st0" d="M54.6,137.6c-0.7,0-2.6-0.7-4.2-3c-1.4,1.7-3.5,2.7-5.8,3l0-0.1c2.6-0.9,4.2-2.6,5.2-3.9
					c-0.5-1-0.9-2.2-1.1-3.2c-0.4-1.7-0.5-3-0.5-3.8h-4.5c0.1,2,0.1,2,0.1,2.8h2.1l0.3-0.4c0.1-0.1,0.2-0.2,0.3-0.2
					c0.1,0,0.2,0,0.4,0.2l0.6,0.5c0.1,0.1,0.2,0.2,0.2,0.3c0,0.1-0.1,0.2-0.5,0.5c0,0.5-0.1,2.5-0.1,2.9c-0.1,0.9-0.2,2.3-2,2.7
					c-0.1-0.3-0.1-0.6-0.5-1c-0.1-0.1-0.6-0.5-0.8-0.6v-0.1c0.3,0,1.2,0.1,1.5,0.1c0.5,0,0.6-0.3,0.7-1.5c0.1-1.2,0.1-2.2,0-2.8
					h-2.3c0,1.8-0.1,5.6-2.7,7.7l-0.1-0.1c1-1.4,1.7-4,1.7-7.6c0-0.5,0-2.8-0.5-4.6l1.6,0.9h4.4c0-0.3-0.1-1.5-0.1-1.7
					c-0.1-1-0.2-1.2-0.4-1.7l1.8,0.4c0.1,0,0.3,0.1,0.3,0.2c0,0.2-0.1,0.3-0.5,0.5c0,0.6,0,1.2,0.1,2.2h3.5l0.8-0.9
					c0.1-0.1,0.2-0.2,0.2-0.2c0.1,0,0.2,0.1,0.3,0.2l1,0.9c0.1,0.1,0.2,0.2,0.2,0.3c0,0.1-0.1,0.2-0.2,0.2h-5.7
					c0.3,3.8,0.9,5.1,1.2,5.9c1-1.6,1.4-3.2,1.4-3.9c0-0.1,0-0.2-0.1-0.5l1.7,0.9c0.1,0.1,0.2,0.2,0.2,0.3c0,0.2-0.2,0.3-0.7,0.4
					c-0.6,1.6-1.2,2.8-2,3.9c0.7,1.1,1.7,2.1,2.4,2.1c0.3,0,0.4-0.3,0.6-0.6c0.3-0.7,0.7-1.5,0.8-1.9l0.1,0c0,0.4-0.1,2.2-0.1,2.6
					c0,0.4,0.1,0.5,0.3,0.8c0.1,0.1,0.2,0.3,0.2,0.5C55.4,137.4,55,137.6,54.6,137.6z M51.8,125.7c-0.4,0-0.5-0.3-0.8-0.9
					c-0.2-0.5-0.5-0.9-0.8-1.2l0-0.1c1.2,0.1,2.2,0.6,2.2,1.5C52.4,125.4,52.1,125.7,51.8,125.7z"/>
				<path class="st0" d="M70.7,124.8l0.5-0.4c0.1-0.1,0.1-0.2,0.2-0.2c0.1,0,0.2,0.1,0.2,0.1l0.9,0.7c0.1,0.1,0.2,0.1,0.2,0.3
					c0,0.2-0.5,0.5-0.7,0.5c0,1.6,0,6.3,0.1,9c0,0.2,0.1,1.4,0.1,1.6c0,0.7-0.6,0.9-0.9,0.9c-0.5,0-0.5-0.3-0.5-1h-9.3
					c0,0.1,0,0.6,0,0.7c-0.1,0.4-0.6,0.5-0.9,0.5c-0.2,0-0.5-0.1-0.5-0.5c0-0.2,0-1,0-1.2c0.1-2.4,0.1-4.8,0.1-7.1
					c0-3.2-0.1-3.8-0.2-4.8l1.6,0.9H70.7z M61.5,125.2v5.1h4v-5.1H61.5z M61.5,130.7v5.3h4v-5.3H61.5z M70.8,130.3v-5.1h-4.1v5.1
					H70.8z M70.8,135.9v-5.3h-4.1v5.3H70.8z"/>
				<path class="st0" d="M91,137.2h-12c-0.1,0-1.2,0-1.9,0.1l-0.3-0.7c0.8,0.1,1.7,0.1,2.5,0.1h4.1v-3.9h-2.8c-0.4,0-1.2,0-1.9,0.1
					l-0.3-0.7c1.3,0.1,2.2,0.1,2.5,0.1h6.4l0.7-0.8c0.1-0.1,0.2-0.2,0.3-0.2c0.1,0,0.2,0.1,0.3,0.2l1,0.8c0.1,0.1,0.2,0.1,0.2,0.2
					c0,0.2-0.2,0.2-0.3,0.2h-4.8v3.9h4.2l0.7-0.9c0.1-0.1,0.1-0.2,0.2-0.2c0.1,0,0.1,0,0.3,0.2l1,0.9c0.1,0,0.2,0.1,0.2,0.2
					C91.2,137.2,91.1,137.2,91,137.2z M90.4,130.3c-0.7,0.1-3.2,0.1-4.1,0.1c-1.7,0-1.7-0.4-1.7-2c0-0.4,0-2.2,0-2.6h-5.4
					c-0.2,1.8-1.5,1.8-1.5,1.8c-0.3,0-0.7-0.2-0.7-0.6c0-0.4,0.3-0.6,0.9-1c1-0.6,1.1-1.2,1.1-1.5h0.1c0.1,0.2,0.1,0.3,0.1,0.8h4.1
					c0-1.1,0-1.6-0.3-2.4l1.6,0.4c0.1,0,0.4,0.1,0.4,0.3c0,0.1,0,0.2-0.1,0.2c-0.1,0-0.3,0.2-0.4,0.3v1.2h3.9l0.6-0.5
					c0.1-0.1,0.2-0.2,0.3-0.2c0.1,0,0.2,0.1,0.3,0.1l1,0.9c0.1,0,0.1,0.2,0.1,0.3c0,0.3-0.2,0.3-0.9,0.4c-0.3,0.2-1.4,0.9-1.7,1.1
					l-0.1-0.1c0.1-0.5,0.2-0.7,0.4-1.6h-2.8c0,0.6,0,3.3,0.1,3.4c0.1,0.1,1.3,0.1,1.6,0.1c0.6,0,1.8,0,2.1-0.3
					c0.4-0.3,0.6-1.2,0.7-1.7h0.1c0.3,1.1,0.4,1.5,0.6,1.6c0.2,0.1,0.3,0.3,0.3,0.5C91.3,130,90.7,130.2,90.4,130.3z M82.7,127.2
					c-1,1.9-2.3,3.5-5.5,4.1l-0.1-0.1c3.6-1.8,4.4-4.3,4.6-5.3l1.4,0.7c0.2,0.1,0.2,0.1,0.2,0.2C83.3,127,83.3,127,82.7,127.2z"/>
				<path class="st0" d="M96.2,129.6c-0.4,0-0.5-0.2-1-1.2c-0.2-0.4-0.5-0.8-0.8-1.1l0-0.1c0.6,0.1,2.4,0.5,2.4,1.6
					C96.8,129.1,96.6,129.6,96.2,129.6z M97,132.3c-0.3,1.1-0.3,1.2-0.3,1.6c0,0.4,0.1,1,0.2,1.5c0.2,1,0.3,1.2,0.3,1.5
					c0,0.5-0.2,0.9-0.7,0.9c-0.8,0-0.8-0.8-0.8-1.2c0-0.2,0-1.1,0-1.3c0-0.6,0-1.3-1.1-1.8v-0.1c0.3,0,0.8-0.1,1.1-0.5
					c0.4-0.5,2.2-5.8,2.3-6.2l0.1,0C98,128,97.9,128.5,97,132.3z M97.4,125.7c-0.5,0-0.6-0.4-1-1.2c-0.2-0.4-0.4-0.8-0.7-1.2l0-0.1
					c0.3,0.1,2.3,0.6,2.3,1.7C98.1,125.4,97.8,125.7,97.4,125.7z M109,132.4c-0.4,0.3-0.5,0.6-0.7,0.9c-1.8-0.7-3.5-2.8-4.1-4.3
					h-2.1c-0.2,0.4-0.7,1.2-1.7,2.4c1.2,0.1,2.3,0.1,2.5,0.1h0.8l0.3-0.3c0.1-0.1,0.2-0.2,0.3-0.2c0.1,0,0.2,0.1,0.3,0.2l0.5,0.4
					c0.1,0.1,0.2,0.2,0.2,0.3c0,0.2-0.1,0.2-0.4,0.5c0,0.2,0.1,1.3,0.1,1.5c0,0.3,0,0.5-0.2,0.7c-0.1,0.1-0.5,0.2-0.6,0.2
					c-0.3,0-0.3-0.2-0.3-0.4h-2.2c-0.1,2.2,0,2.2,0.9,2.2c2.8,0,3.4,0,3.7-0.3c0.4-0.4,0.5-1,0.9-2.2h0.1c0.1,0.5,0.3,1.6,0.5,1.9
					c0.1,0.1,0.1,0.1,0.3,0.2c0.1,0.1,0.1,0.1,0.1,0.2c0,0.1,0,0.5-0.7,0.8c-0.8,0.4-2.4,0.4-3.3,0.4c-3.1,0-3.6-0.1-3.6-1.3
					c0-1,0-2.6-0.1-3.1l1.5,0.7h1.9v-2.1h-1.3c-0.4,0-1.2,0-1.9,0.1l-0.3-0.6c-0.8,0.9-2,2-3,2.6l0-0.1c1.5-1.5,2.9-3.6,3.4-4.8
					c-0.3,0-1.3,0-2.1,0.1l-0.3-0.7c0.9,0.1,1,0.1,2.5,0.1v-2.8c-0.6,0-1.1,0-1.7,0.1l-0.3-0.7c0.4,0,1,0.1,2,0.1
					c0-1.3,0-1.5-0.3-2.5l1.5,0.4c0.2,0.1,0.3,0.1,0.3,0.2c0,0.2-0.1,0.3-0.5,0.5c0,0.3,0,0.4,0,1.3h2.1c0-1.3,0-1.5-0.3-2.5
					l1.6,0.4c0.2,0,0.3,0.1,0.3,0.2c0,0.2-0.3,0.4-0.5,0.5c0,0.2,0,1.1,0,1.3h0.9l0.5-0.7c0.1-0.1,0.1-0.2,0.2-0.2s0.2,0.1,0.3,0.2
					l0.7,0.7c0.1,0.1,0.2,0.1,0.2,0.2c0,0.2-0.1,0.2-0.2,0.2h-2.7v2.8h1.8l0.6-0.7c0.1-0.1,0.1-0.2,0.2-0.2c0.1,0,0.2,0.1,0.3,0.2
					l0.8,0.7c0.1,0.1,0.2,0.2,0.2,0.2c0,0.2-0.1,0.2-0.2,0.2h-4.2c0.6,1,2.4,2.6,5.1,2.9v0.1C109.5,132.1,109.1,132.4,109,132.4z
					 M104,125.9h-2.1v2.8h2.1C104,128.3,104,126.3,104,125.9z"/>
				<path class="st0" d="M138,125.7h-2.9c0.9,0.6,1.3,0.9,1.3,1.5c0,0.3-0.2,0.7-0.6,0.7c-0.5,0-0.5-0.2-0.6-1
					c-0.1-0.7-0.3-1.1-0.4-1.2h-0.7c-0.8,1.1-1.5,1.9-2.9,2.8l-0.1-0.1c1-1.2,2.4-3.6,2.9-4.7c0-0.1,0.1-0.4,0.1-0.9l1.5,0.8
					c0.1,0.1,0.1,0.1,0.1,0.2c0,0.2-0.2,0.2-0.7,0.4c-0.2,0.3-0.6,0.9-0.7,1.1h1.8l0.5-0.6c0.1-0.1,0.2-0.2,0.2-0.2
					c0.1,0,0.2,0.1,0.3,0.2l0.7,0.6c0.1,0.1,0.2,0.2,0.2,0.2C138.2,125.7,138.1,125.7,138,125.7z M144.6,133.1
					c-0.5,2.2-0.7,3.3-3,3.6c0-0.6-0.6-1.3-1.2-1.7l0-0.1c0.7,0.1,1.4,0.3,1.9,0.3c0.5,0,1-0.1,1.2-2.4h-4.8c0,0.6,0,3.4,0.1,4
					c0,0.1,0,0.6,0,0.7c0,0.5-0.4,0.7-0.8,0.7c-0.2,0-0.4-0.1-0.4-0.5c0-0.8,0.1-3.5,0.1-4.4c-1.6,2-3.7,3.5-6.1,4.3l0-0.1
					c1.1-0.6,3.5-2.5,5.2-4.7h-3.3c-0.2,0.8-0.3,1.1-0.8,1.1c-0.4,0-0.6-0.1-0.6-0.4c0,0,0.2-0.6,0.3-0.9c0.6-1.7,0.6-2.2,0.7-3.1
					l1.3,0.8h3.4c0-0.1,0-1.4,0-1.6h-2.5c-0.1,0-1.2,0-1.9,0.2l-0.3-0.7c0.8,0.1,1.7,0.1,2.5,0.1h6.7l0.4-0.4c0,0,0.1-0.1,0.2-0.1
					c0.1,0,0.2,0,0.2,0.1l0.8,0.6c0,0,0.1,0.1,0.1,0.2c0,0.1-0.2,0.3-0.5,0.5c0,0.2,0.1,1.4,0.1,1.5c0,0.6-0.7,0.6-0.8,0.6
					c-0.4,0-0.4-0.4-0.4-0.6h-3.5v1.8h4.7l0.6-0.6c0.1-0.1,0.1-0.2,0.2-0.2c0.1,0,0.2,0.1,0.2,0.2l0.8,0.7c0.1,0,0.1,0.1,0.1,0.2
					C145.2,132.8,145,132.9,144.6,133.1z M137.6,130.6H134c-0.2,0.5-0.2,0.6-0.5,1.8h4.1V130.6z M145.2,125.9h-4.8
					c1.2,0.5,1.7,0.7,1.7,1.4c0,0.4-0.3,0.6-0.6,0.6c-0.4,0-0.5-0.2-0.7-1c-0.1-0.3-0.4-0.7-0.6-1h-0.6c-0.5,0.7-1.2,1.5-1.9,2
					l-0.1-0.1c1-1.7,2-3.5,1.9-4.9l1.6,0.7c0.1,0,0.1,0.1,0.1,0.2c0,0.2-0.2,0.3-0.7,0.4c-0.2,0.3-0.3,0.6-0.7,1.2h3.5l0.5-0.8
					c0.1-0.1,0.1-0.2,0.2-0.2c0.1,0,0.2,0.1,0.3,0.2l0.9,0.8c0.1,0.1,0.2,0.1,0.2,0.2C145.4,125.8,145.3,125.9,145.2,125.9z
					 M142.2,128.5h-3.6v1.6h3.6V128.5z"/>
				<path class="st0" d="M149.4,136.2h0.9c0.9,0,1.2-0.3,1.2-1v-8.9c0-0.5-0.5-0.6-0.8-0.6h-1.2v-0.5h0.3c1.3,0,2.5-0.6,2.7-0.7
					c0.1-0.1,0.2-0.1,0.2-0.1c0.1,0,0.2,0.1,0.2,0.2v10.6c0,0.7,0.3,1,1.2,1h0.9v0.5h-5.5V136.2z"/>
				<path class="st0" d="M168.5,127.4c-0.3,0.1-0.4,0.2-1,1.3c-2.5,4.9-5.1,7.2-8.7,8.2l0-0.1c2.2-1.3,4.2-2.9,5.7-4.9
					c-0.2,0-0.3-0.2-0.6-0.5c-1.1-1.3-1.3-1.5-2.2-2c-0.9,1-1.8,1.7-2.7,2.1l0-0.1c2.1-2,4-5.4,4-6c0-0.5-0.6-0.8-1-0.9
					c0.2-0.1,0.4-0.2,0.8-0.2c0.9,0,1.8,0.8,1.8,1.1c0,0.2,0,0.2-0.4,0.5c-0.1,0.1-0.3,0.4-0.4,0.6c0.1,0,0.3,0,0.6,0
					c0.8,0,2.5-0.3,2.7-0.4c0.1-0.1,0.6-0.4,0.7-0.4c0.2,0,1.3,1.1,1.3,1.3C168.9,127.3,168.8,127.3,168.5,127.4z M164.2,127.4
					c-0.1,0-0.3,0-0.9-0.3c-0.9,1.3-1.5,2-1.6,2.1c0.9,0.1,3,0.5,3.1,2c0.4-0.6,1.2-1.8,2.1-4.2C166.5,127,164.5,127.4,164.2,127.4z
					"/>
				<path class="st0" d="M184.4,131.1c-0.1,0-0.5,0-0.6,0c-0.6,0-0.8-0.1-1.9-0.1c-5,0-6.5,0.1-7.2,0.3c0,0-0.6,0.1-0.6,0.1
					c-0.4,0-1.3-1.1-1.3-1.8c0-0.1,0-0.4,0.2-0.8c0.6,1.2,1.1,1.2,2.8,1.2c1.1,0,6.5,0,7.2-0.2c0.1,0,0.6-0.1,0.7-0.1
					c0.1,0,1.7,0.2,1.7,0.8C185.4,131.1,184.6,131.1,184.4,131.1z"/>
				<path class="st0" d="M196.4,136.6c-0.2,0-0.4-0.1-1-0.6c-0.8-0.7-1.6-1.5-4.1-2.5c-0.9-0.4-1.6-0.6-2.3-0.8c3.9-0.1,8,1.7,8,3.3
					C196.9,136.3,196.7,136.6,196.4,136.6z M195.9,127.5c-0.2,0-0.3,0-0.9-0.5c-1.7-1.2-3.4-1.7-5.3-2.2c0.3,0,0.7,0,1.2,0
					c1.8,0,5.5,0.7,5.5,2.2C196.3,127.2,196.2,127.5,195.9,127.5z M195.5,131.2c-0.2,0-0.3-0.1-0.9-0.5c-1.1-0.8-2.9-1.5-4.4-2
					c0.3,0,0.4,0,0.8,0c0.2,0,5,0,5,2C195.9,130.7,195.9,131.2,195.5,131.2z"/>
				<path class="st0" d="M212.5,129.4c-0.1,0-1.4-0.2-1.6-0.2c-0.6-0.1-1.1-0.1-1.5-0.1c-0.9,0-1.4,0-1.8,0.1c0,0.3-0.1,2.2-0.5,3.8
					c-0.4,1.5-1.8,3.9-4.5,4.7l0-0.1c2.9-1.9,3.8-4.8,4-8.3c-1,0.1-3.2,0.4-3.9,0.8c-0.3,0.2-0.4,0.2-0.6,0.2
					c-0.4,0-1.6-0.7-1.6-1.9c0-0.2,0-0.3,0-0.5c0.6,0.9,1.1,1.1,1.7,1.1c0.3,0,0.3,0,1.1-0.1c0.5,0,2.8-0.3,3.2-0.3
					c0-0.7,0-2.4-0.1-3c-0.1-0.4-0.5-0.6-1.3-0.8c0.4-0.4,0.9-0.4,1.1-0.4c0.7,0,1.8,0.4,1.8,1c0,0.1-0.2,0.6-0.3,0.7
					c0,0.1-0.1,1.2-0.1,1.7c0,0.4,0,0.6,0,0.8c0.3,0,2.8-0.1,2.9-0.2c0.2,0,0.9-0.2,1-0.2c0.1,0,1.6,0.2,1.6,0.9
					C213.1,129.4,212.7,129.4,212.5,129.4z"/>
				<path class="st0" d="M220.5,127.7c0,0.4-0.2,2.1-0.2,2.4c-0.4,3.5-2.5,5.4-3.9,6l-0.1-0.1c3-2.9,3-6.4,3-7.8
					c0-1.4,0-1.4-1.3-1.7c0.3-0.2,0.6-0.4,1.1-0.4c0.4,0,1.5,0.4,1.5,0.8C220.7,127.1,220.5,127.6,220.5,127.7z M224.5,134.5
					c-0.6,0.4-0.6,0.5-1,0.9c-0.1,0.1-0.2,0.2-0.3,0.2c-0.3,0-1.1-1.3-1.1-1.6c0-0.1,0.2-0.6,0.2-0.7c0.1-0.7,0.1-2.8,0.1-3.3
					c0-0.6,0-3.6-0.1-4c-0.1-0.3-0.4-0.5-1.2-0.8c0.2-0.1,0.5-0.3,0.9-0.3c0.5,0,1.8,0.5,1.8,1c0,0.1-0.2,0.8-0.2,0.9
					c-0.2,0.8-0.2,5.4-0.2,6.4c0,0.1,0,0.3,0.1,0.3c0.4,0,3.4-1.9,5.9-5.2l0.1,0.1C228.5,131.2,226.1,133.4,224.5,134.5z"/>
				<path class="st0" d="M246.8,134.3c-0.7,0-3.8-2.2-5-3.3c-0.5-0.4-2.9-2.7-3.4-3.1c-0.1-0.1-0.3-0.2-0.6-0.2
					c-0.7,0-2.1,1.6-2.7,2.4c-0.9,1.1-1.1,1.2-1.4,1.2c-0.6,0-1.5-0.6-1.5-1.4c0-0.1,0-0.1,0-0.3c0.2,0.1,0.5,0.3,0.9,0.3
					c0.5,0,1.2-0.6,1.8-1.1c0.3-0.2,1.5-1.3,1.7-1.5c0.5-0.4,0.8-0.6,1.3-0.6c0.6,0,1,0.3,1.4,0.8c3.1,2.9,4,3.3,6.9,4.9
					c0.3,0.1,1.1,0.6,1.1,1.3C247.3,134.3,246.9,134.3,246.8,134.3z"/>
			</g>
		</g>
	</g>
	<g>
		<g>
			<g>
				<path class="st0" d="M284,124.1c0.2,0.1,0.3,0.2,0.3,0.4c0,0.2-0.2,0.3-0.8,0.4c-0.3,0.3-0.8,1-1.6,2c-0.7,0.9-1.4,1.6-1.9,2.2
					c0.1,0,1.7-0.1,2.8-0.2c-0.1-0.1-0.3-0.6-0.8-1.1l0.1-0.1c1.5,0.6,2.7,1.5,2.7,2.4c0,0.4-0.2,0.8-0.7,0.8
					c-0.5,0-0.7-0.2-0.8-0.9c0-0.1-0.1-0.3-0.2-0.6l-1.8,0.4c0,0.8,0.1,4.8,0.1,5.2c0,0.4,0.1,2.1,0.1,2.5c0,0.5-0.4,0.8-0.9,0.8
					c-0.4,0-0.5-0.3-0.5-0.6c0-0.3,0.1-1.6,0.1-1.9c0-0.6,0-2.5,0.1-5.8c-1.2,0.3-2.2,0.5-2.5,0.5c-0.1,0.2-0.3,0.6-0.5,0.6
					c-0.2,0-0.3-0.2-0.4-0.4l-0.4-1.7c0.3,0.1,0.9,0.1,1.4,0.1c0.6,0,1.5,0,1.8,0c1.3-1.8,2.5-4.3,2.8-5c0.1-0.2,0.1-0.5,0.1-0.8
					L284,124.1z M276.3,136.9c0.8-1.9,1.4-4.4,1.4-5.7l1.6,0.6c0.1,0.1,0.3,0.2,0.3,0.3c0,0.1-0.1,0.2-0.6,0.4
					C278.3,134.3,277.7,135.4,276.3,136.9L276.3,136.9z M277.1,124.1c0.5,0.1,1.2,0.3,1.7,0.5c0.5-1.1,1.4-3.2,1.3-4.4l1.8,0.9
					c0.2,0.1,0.2,0.2,0.2,0.3c0,0.3-0.3,0.4-0.7,0.4c-0.9,1.2-1,1.3-2.4,2.9c0.6,0.3,1.1,0.9,1.1,1.5c0,0.4-0.3,0.9-0.8,0.9
					c-0.4,0-0.6-0.2-1-1.2c-0.4-1-0.9-1.4-1.3-1.8L277.1,124.1z M281.7,131.5c0.8,0.4,2.7,1.2,2.7,2.5c0,0.6-0.4,1-0.9,1
					c-0.5,0-0.6-0.4-0.9-1.3C282.4,132.7,282,132.2,281.7,131.5L281.7,131.5z M291,125.2l0.6-0.5c0.1-0.1,0.2-0.2,0.3-0.2
					c0.1,0,0.2,0.1,0.3,0.2l0.9,0.8c0.1,0.1,0.2,0.2,0.2,0.3c0,0.1-0.4,0.4-0.7,0.7c-0.1,5.4-0.2,7.8-1.2,9.8
					c-0.7,1.4-1.9,1.9-3,1.9c-0.2-0.9-0.8-1.5-1.8-2.2l0-0.1c0.9,0.2,2.1,0.4,2.6,0.4c2,0,2.1-6.4,2.1-8.4c0-0.3,0-1.7,0-2h-5.3
					c-1,1.8-1.6,2.5-1.9,2.8l-0.1-0.1c1.4-2.9,2.1-6.2,2.1-7.2c0-0.2-0.1-0.6-0.1-0.7l2.1,0.9c0.1,0,0.2,0.1,0.2,0.3
					c0,0.2-0.3,0.3-0.8,0.5c-0.2,0.6-0.6,1.6-1.3,3H291z M285.6,129c1.8,0.8,2.8,1.4,2.8,2.4c0,0.5-0.2,0.9-0.8,0.9
					c-0.5,0-0.7-0.2-1.1-1.6c-0.2-0.5-0.5-1.2-1-1.7L285.6,129z"/>
				<path class="st0" d="M309,132.2c0,3.4-2.7,6.4-6.9,6.4c-3.3,0-6.3-1.9-6.3-5.3c0-3.2,2.5-4.6,5.2-6.2c-1.5-0.9-4.3-2.5-4.3-5.7
					c0-2.9,2.3-5.2,5.8-5.2c4,0,5.3,3,5.3,4.6c0,2.5-2.4,4.3-3.6,5.2C307,127.7,309,129.2,309,132.2z M298.3,133.3
					c0,2.6,1.9,4.3,4.2,4.3c2.5,0,4.4-2.2,4.4-4.4c0-2.8-2.9-4.4-5-5.6C300.6,128.6,298.3,130.4,298.3,133.3z M305.7,121.1
					c0-2.2-1.5-3.9-3.6-3.9c-2.1,0-3.4,1.6-3.4,3.5c0,2,1.7,3.1,4.7,4.9C304.2,124.8,305.7,123.6,305.7,121.1z"/>
				<path class="st0" d="M317.6,138.6c-2,0-3.7-1.4-4.8-3.2c-1.2-2-1.8-5.6-1.8-8.3c0-6.2,2.7-10.9,6.6-10.9c3,0,6.6,3.2,6.6,11.2
					C324.2,134.6,321.2,138.6,317.6,138.6z M314.4,121.1c-0.4,1.5-0.7,3.9-0.7,6.3c0,6.5,1.5,10.2,3.9,10.2c2,0,2.9-2.7,3.2-3.8
					c0.4-1.5,0.7-4,0.7-6.4c0-6.7-1.6-10.2-3.9-10.2C315.6,117.2,314.6,120,314.4,121.1z"/>
				<path class="st0" d="M332.5,123.2c-1.6,3.3-4.6,5.8-6,6.6l-0.1-0.1c2.7-3.1,4.3-5.8,4.7-7.1c0.2-0.5,0.3-0.9,0.3-1.2l1.7,1.1
					c0.1,0.1,0.3,0.2,0.3,0.3C333.3,123,332.8,123.2,332.5,123.2z M339.5,129.3c-0.2,7-0.6,8.4-4.1,8.7c-0.1-1.2-1-1.9-1.5-2.1
					l0-0.1c0.8,0.2,1.7,0.3,2.3,0.3c0.9,0,1.3-0.2,1.6-2c0.2-1.4,0.4-4.7,0.3-5.6h-3.9c-0.1,3.1-1.4,8.3-7.5,9.5l0-0.2
					c4-1.8,6-4.8,6.1-9.3h-0.6c-0.5,0-1.4,0-2.3,0.2l-0.4-0.8c1.2,0.1,2.4,0.1,3,0.1h5.5l0.5-0.5c0.1-0.1,0.2-0.2,0.3-0.2
					c0.1,0,0.2,0.1,0.3,0.2l0.8,0.9c0.1,0.1,0.2,0.2,0.2,0.3C340.1,128.9,340.1,128.9,339.5,129.3z M343.1,129.3
					c-2.1-0.9-4.4-3-5.9-7.4h-1.6c-1,0-1.4,0.1-1.6,0.1l-0.3-0.7c0.9,0.1,1.7,0.1,2.1,0.1h1l0.6-0.6c0.2-0.2,0.3-0.2,0.3-0.2
					c0.1,0,0.2,0.1,0.3,0.2l0.7,0.7c0.1,0.1,0.2,0.2,0.2,0.3c0,0.4-0.9,0.5-1.2,0.6c0.9,2.5,4.2,5,7.1,5.2l0,0.2
					C343.9,128.2,343.4,128.8,343.1,129.3z"/>
			</g>
		</g>
	</g>
	<rect class="st1" width="389.4" height="31.5"/>
	<line class="st2" x1="346.8" y1="107.7" x2="32" y2="107.7"/>
	<line class="st2" x1="346.8" y1="70.6" x2="32" y2="70.6"/>
	<g>
		<g>
			<path class="st3" d="M107.8,9v15.3h-0.7V8.2h5.9V9H107.8z"/>
			<path class="st3" d="M124,17.8c1.6,1.9,4.4,3.6,7.6,3.7v0.1c-1,0.3-1.6,1-1.9,1.6c-0.5-0.2-4.5-2.2-6-5.4c0,0.8,0,4.3,0.1,5
				c0,0.1,0,0.5,0,0.6c0,0.6-0.6,0.9-1,0.9c-0.4,0-0.5-0.3-0.5-0.5c0-0.1,0-0.2,0-0.4c0.1-1.2,0.2-2.7,0.2-4.8
				c-1.6,1.9-4.8,4-7.5,4.7l-0.1-0.1c2.7-1.1,6.3-4.8,6.7-5.4h-2.4c0,0.6-0.1,1-0.9,1c-0.4,0-0.4-0.2-0.4-0.4c0-0.2,0.1-1.1,0.1-1.2
				c0-0.6,0.1-1.5,0.1-2.5c0-1.6-0.1-2.2-0.2-2.9l1.6,0.7h3c0-0.4,0-1.4,0-1.8h-4.8c-0.3,0-1.2,0-2.1,0.2l-0.4-0.7
				c1.3,0.1,2.5,0.1,2.7,0.1h4.5c-0.1-1.1-0.1-1.7-0.4-2.3l1.8,0.5c0.2,0,0.3,0.1,0.3,0.2c0,0.2-0.4,0.5-0.6,0.6v1h4.8l0.8-0.9
				c0.1-0.1,0.2-0.2,0.3-0.2c0.1,0,0.2,0.1,0.3,0.2l1.1,0.9c0.1,0.1,0.2,0.2,0.2,0.3c0,0.2-0.2,0.2-0.3,0.2h-7.2v1.8h3l0.6-0.5
				c0,0,0.1-0.1,0.2-0.1c0.1,0,0.2,0.1,0.2,0.1l0.8,0.6c0.1,0.1,0.2,0.2,0.2,0.3c0,0.2-0.1,0.2-0.6,0.5c0,0.4,0,0.9,0,2.2
				c0,0.2,0.1,2.1,0.1,2.3c0,0.6-0.5,0.7-0.9,0.7c-0.5,0-0.5-0.4-0.4-0.9H124z M119.4,13v1.9h3.2l0-1.9H119.4z M122.6,17.4v-2h-3.2
				v2H122.6z M127,17.4v-2h-3.3c0,0.3,0,1.7,0,2H127z M127,14.9V13h-3.3v1.9H127z"/>
			<path class="st3" d="M138.7,20.2c-1,1-3,2.8-5.7,3.7l-0.1-0.1c1.6-1,4.3-3.6,4.8-5.1l1.5,1.1c0.1,0.1,0.2,0.2,0.2,0.3
				C139.5,20.2,139.3,20.3,138.7,20.2z M149,11.1h-13.3c-0.4,0-1.3,0-2.1,0.2l-0.4-0.7c1.2,0.1,2.5,0.1,2.7,0.1h4.6
				c0-1.5-0.2-2.2-0.4-2.6l2,0.4c0.1,0,0.3,0.1,0.3,0.2c0,0.2-0.2,0.3-0.6,0.5c0,0.6,0,0.7,0,1.4h4.5l0.8-0.9
				c0.1-0.2,0.2-0.2,0.3-0.2c0.1,0,0.2,0.1,0.4,0.2l1.2,0.9c0.1,0,0.2,0.2,0.2,0.3C149.2,11.1,149.1,11.1,149,11.1z M145.8,14.1
				c0,0.4,0,0.8,0,1.6c0,0.3,0.1,1.7,0.1,1.9c0,0.5-0.5,0.8-0.9,0.8c-0.5,0-0.5-0.2-0.5-0.9H142c0,0.8,0.1,4.1,0.1,4.8
				c0,0.6,0,1.7-1.9,2.1c-0.1-1.1-1.7-1.8-2-2l0-0.1c1.1,0.2,1.5,0.2,2,0.2c0.5,0,0.5-0.1,0.5-0.8v-4.2h-3.1c0,0.5,0.1,1.1-0.8,1.1
				c-0.4,0-0.5-0.2-0.5-0.5c0-0.1,0-0.3,0-0.4c0-0.5,0.1-2.2,0.1-2.8c0-1.9,0-2-0.2-2.8l1.6,0.9h6.6l0.5-0.6
				c0.1-0.1,0.1-0.1,0.2-0.1c0.1,0,0.2,0.1,0.2,0.1l0.8,0.7c0.2,0.1,0.2,0.2,0.2,0.3C146.5,13.7,146.4,13.7,145.8,14.1z M144.6,13.5
				h-6.9v3.6h6.9V13.5z M147.4,23.3c-0.5,0-0.6-0.2-1.3-1.2c-0.7-1.1-1.5-2.2-2.7-2.8l0-0.1c1.8,0.3,4.6,1.7,4.6,3.4
				C148.1,22.9,147.9,23.3,147.4,23.3z"/>
			<path class="st3" d="M158.6,18.1c-0.3,0-0.4-0.1-1.2-1c-0.8-0.9-2.1-1.9-3.3-2.4c0,0.1,0,2.9,0,3.2c0,0.2,0.1,3.3,0.1,4.1
				c0,0.3,0,1.4-0.7,1.4c-0.5,0-0.8-0.9-0.8-1.5c0-0.3,0.1-0.8,0.1-1c0.2-0.9,0.2-6,0.2-8.4c0-2.4-0.1-2.7-1.6-3.1
				c0.2-0.2,0.6-0.4,1.2-0.4c0.8,0,2,0.5,2,0.9c0,0.1-0.2,0.9-0.3,1c-0.1,0.4-0.2,2.4-0.2,3.5c1.2,0.3,2.6,0.7,3.8,1.3
				c0.7,0.4,1.3,1.1,1.3,1.8C159.2,17.8,159,18.1,158.6,18.1z M160,13.3c-0.3,0-0.3-0.1-1-0.8c-0.7-0.7-1.4-1.1-1.8-1.3
				c1.3-0.1,3.3,0.5,3.3,1.6C160.4,13.2,160.2,13.3,160,13.3z M161.6,11.9c-0.2,0-0.7-0.4-1.1-0.7c-0.6-0.5-1.4-1-1.8-1.1
				c0.3,0,0.3,0,0.5,0c0.1,0,2.7,0,2.7,1.4C161.9,11.6,161.8,11.9,161.6,11.9z"/>
			<path class="st3" d="M176,16.8c-0.2,0-0.6,0-0.6,0c-0.6-0.1-0.8-0.1-2-0.1c-5.4,0-7,0.1-7.8,0.3c-0.1,0-0.6,0.2-0.7,0.2
				c-0.5,0-1.4-1.1-1.4-1.9c0-0.1,0-0.4,0.2-0.8c0.6,1.3,1.1,1.3,3,1.3c1.2,0,7,0,7.8-0.2c0.1,0,0.6-0.2,0.7-0.2
				c0.1,0,1.9,0.2,1.9,0.9C177.1,16.8,176.2,16.8,176,16.8z"/>
			<path class="st3" d="M191.2,21.9c-0.5,0-0.6-0.5-0.8-0.9c-0.2-0.7-0.4-1.2-0.7-2c-1.7,0.6-5.5,1.5-7.7,2
				c-0.3,0.1-0.4,0.1-0.6,0.3c-0.2,0.2-0.3,0.3-0.4,0.3c-0.3,0-1.6-1.3-1.4-2.6c0.5,0.6,0.7,0.7,1.6,0.7c0.1,0,0.5,0,0.6,0
				c2.3-4.9,3.4-7.3,3.4-8.3c0-0.6-0.5-0.9-1.2-1.3c0.4-0.1,0.7-0.2,1-0.2c0.8,0,2.1,1,2.1,1.7c0,0.2-0.1,0.3-0.4,0.7
				c-0.3,0.2-0.7,1.3-1,2c-0.7,1.3-1.9,3.6-3.2,5.4c2.4-0.2,2.8-0.3,7.2-1c-0.6-1.2-1.2-2.1-2.4-3.4c1.4,0.6,2.5,1.8,3.6,3.1
				c0.7,0.9,1.1,1.7,1.1,2.6C191.8,21.5,191.5,21.9,191.2,21.9z"/>
			<path class="st3" d="M195,20.7c-0.6,0-0.6-0.7-0.6-0.7c0-0.5,0.1-0.5,1-1.2c0.9-0.6,1.9-1.6,2.6-2.9
				C197.6,19.2,195.7,20.7,195,20.7z M207.3,14.6c-0.1,0-2-0.3-2.3-0.3c-0.8-0.1-1.4-0.1-1.7-0.1c-0.8,0-1.3,0-1.6,0.1
				c0,0.3,0,1.9,0,2.2c0,0.7,0.1,3.9,0.1,4.5c0,1.5-0.5,2.2-1,2.2c-0.4,0-0.5-0.4-0.7-0.9c-0.1-0.3-0.2-0.5-0.5-0.7
				c-0.5-0.4-1-0.9-1.5-1.2l0-0.1c0.7,0.2,1.8,0.5,2.2,0.5c0.2,0,0.2-0.1,0.3-0.4c0.1-1.5,0.1-4.4,0-6c-2.8,0.4-3.3,0.4-3.9,0.7
				c-0.1,0.1-0.5,0.2-0.5,0.2c-0.3,0-1.4-0.8-1.4-1.9c0-0.2,0-0.5,0.1-0.7c0.6,1,1.1,1.2,1.7,1.2c0.4,0,3.6-0.2,4.1-0.2
				c0-2.4-0.1-2.6-0.2-3c-0.2-0.5-0.9-0.7-1.5-0.8c0.6-0.4,0.8-0.5,1.1-0.5c0.4,0,2.1,0.5,2.1,1.1c0,0.1-0.2,0.6-0.3,0.7
				c-0.2,0.5-0.2,1-0.2,2.5c1.4-0.1,3.1-0.2,3.6-0.3c0.1,0,0.6-0.2,0.7-0.2c0.2,0,0.8,0.2,1.1,0.3c0.3,0.1,0.6,0.3,0.6,0.8
				C207.6,14.4,207.5,14.6,207.3,14.6z M206.9,20.4c-0.3,0-0.4-0.1-0.9-0.9c-0.9-1.5-1.6-2.3-3-3.6c1.9,0.5,4.5,2.2,4.5,3.7
				C207.5,19.9,207.3,20.4,206.9,20.4z"/>
			<path class="st3" d="M223,15c0,0-1.4-0.2-1.8-0.2c-0.7-0.1-1.3-0.1-1.8-0.1c-0.5,0-1,0-2.2,0.1c0.1,0.1,0.7,0.5,0.8,0.6
				c0.1,0.1,0.1,0.1,0.1,0.2c0,0.1-0.3,0.6-0.4,0.7c-0.1,0.1-0.1,0.3-0.1,0.4c-0.8,2.9-2.5,5.9-5.5,6.8l-0.1-0.1
				c2.8-2.1,4.4-6.3,4.4-7.6c0-0.4-0.1-0.6-0.3-0.8c-2.6,0.4-3.2,0.6-3.9,0.8c-0.3,0.1-0.4,0.2-0.5,0.2c-0.3,0-1.5-0.8-1.5-1.9
				c0-0.3,0.1-0.4,0.1-0.6c0.5,0.8,1,1.1,1.7,1.1c0.2,0,7.4-0.8,8.5-0.9c0.2,0,0.9-0.3,1.1-0.3c0.1,0,1.9,0.3,1.9,1.1
				C223.5,15,223.1,15,223,15z M219,11.4c-0.6,0-1.5,0.1-2,0.1c-0.9,0.1-2.7,0.3-2.8,0.3c-0.3,0-1.5-0.2-1.4-1.7
				c0.6,0.5,1.2,0.7,2.1,0.7c1,0,2.3-0.2,3.3-0.5c0.4-0.1,0.6-0.2,0.8-0.2c0.5,0,1.5,0.2,1.5,0.8C220.5,11.4,220.1,11.4,219,11.4z"
				/>
			<path class="st3" d="M230.2,13.2c0,0.4-0.2,2.2-0.2,2.6c-0.5,3.8-2.7,5.8-4.2,6.4l-0.1-0.1c3.3-3.1,3.3-6.9,3.3-8.4
				c0-1.5,0-1.5-1.4-1.8c0.3-0.2,0.7-0.5,1.2-0.5c0.5,0,1.7,0.4,1.7,0.9C230.4,12.5,230.2,13.1,230.2,13.2z M234.5,20.5
				c-0.6,0.4-0.7,0.5-1.1,1c-0.1,0.1-0.2,0.3-0.4,0.3c-0.3,0-1.1-1.4-1.1-1.7c0-0.1,0.2-0.7,0.2-0.8c0.2-0.7,0.2-3,0.2-3.5
				c0-0.7,0-3.9-0.1-4.3c-0.1-0.3-0.4-0.5-1.3-0.8c0.2-0.1,0.6-0.4,1-0.4c0.5,0,1.9,0.5,1.9,1.1c0,0.2-0.2,0.9-0.2,1
				c-0.2,0.9-0.3,5.8-0.3,6.9c0,0.1,0,0.3,0.1,0.3c0.4,0,3.6-2,6.4-5.6l0.1,0.1C238.7,16.9,236.2,19.3,234.5,20.5z"/>
			<path class="st3" d="M241.6,24.1v-0.8h5.1V8.1h0.7v16.1H241.6z"/>
			<path class="st3" d="M260.9,22.3c-0.2,0-0.9-0.4-1.6-0.8c-1.2-0.8-1.8-1-2.4-1.1c-0.1,1-0.4,2.6-2.9,2.6c-1.3,0-3.2-0.7-3.2-1.9
				c0-0.9,1-1.5,1.6-1.7c1.4-0.4,2.6-0.4,3.3-0.3c-0.1-0.7-0.2-1.6-0.2-3.9c0-0.4,0-3.7,0-3.9c0-1.1-0.2-1.4-1.5-1.7
				c0.2-0.2,0.4-0.5,1.1-0.5c0.6,0,1.9,0.5,1.9,1.2c0,0.1-0.2,0.8-0.2,1c-0.1,0.3-0.1,0.6-0.2,1.4c0.8-0.1,1.4-0.3,2.8-0.7
				c0.2-0.1,0.3-0.1,0.5-0.1c0.2,0,1,0.1,1,0.6c0,0.2-0.1,0.4-0.2,0.5c-0.4,0.3-1.9,0.7-3,0.7c-0.4,0-0.8-0.1-1.2-0.3
				c0,0.3-0.1,1-0.1,1.9c0,2.1,0.3,3.5,0.4,4.1c1.7,0.3,4.6,1.2,4.6,2.4C261.4,22,261.3,22.3,260.9,22.3z M254.3,19.9
				c-0.9,0-2.8,0.2-2.8,1.1c0,0.7,1.3,0.9,2,0.9c2.1,0,2.2-1.2,2.2-1.8C255.4,20,255,19.9,254.3,19.9z"/>
			<path class="st3" d="M269.2,22.8c-0.6,0.5-1.7,1.4-2.5,1.6l0-0.1c3.1-2.2,4-5.6,4-8.8c0-1.2-0.1-4.4-1.4-4.4
				c-0.7,0-1.2,0.7-1.4,1c-0.7,1-1.9,3.7-1.9,5.8c0,0.2,0.1,1.1,0.1,1.3c0,0.2-0.1,0.5-0.4,0.5c-1,0-1.4-2.1-1.4-3.7
				c0-1.3,0.4-3.7,0.6-5.1c0-0.1,0.1-0.4,0.1-0.7c0-1-0.7-1.4-1-1.6c0.2,0,0.5-0.1,0.8-0.1c0.8,0,1.6,0.7,1.6,1.3
				c0,0.3-0.1,0.5-0.2,0.8c-0.5,1.3-1,3.1-1,4.7c0,0.3,0,1.3,0.2,1.3c0.1,0,0.1-0.1,0.2-0.2c0.4-1.4,1.9-6,4-6
				c2.2,0,2.4,3.5,2.4,5.2C272,18.9,271.2,21,269.2,22.8z"/>
		</g>
	</g>
</g>
</svg>
