<?xml version="1.0" encoding="utf-8"?>
<!-- Generator: Adobe Illustrator 24.0.0, SVG Export Plug-In . SVG Version: 6.00 Build 0)  -->
<svg version="1.1" id="Layer_1" xmlns="http://www.w3.org/2000/svg" xmlns:xlink="http://www.w3.org/1999/xlink" x="0px" y="0px"
	 viewBox="0 0 288.89 101.69" style="enable-background:new 0 0 288.89 101.69;" xml:space="preserve">
<style type="text/css">
	.st0{fill:#FFFFFF;}
</style>
<g>
	<g>
		<g>
			<path class="st0" d="M71.9,72.54c-0.56,0-0.56,0.06-0.6,0.7c-0.02,0.62-0.74,0.88-1.06,0.88c-0.48,0-0.48-0.4-0.48-0.8
				c0-0.52,0.1-3.13,0.1-3.72c0.02-1.44,0.02-1.71,0.02-3.07c0-0.12,0-0.24-0.22-0.24c-0.14,0-1.71,0.62-2.05,0.62
				c-0.04,0-0.12,0-0.12-0.06c0-0.14,0.12-0.18,1-0.66c3.17-1.71,4.58-2.97,4.58-3.13c0-0.12-0.04-0.12-0.4-0.12H71.1
				c-0.56,0-1.57,0-2.37,0.04c-0.06,0-0.54,0.06-0.58,0.06c-0.08,0-0.12-0.04-0.18-0.14l-0.38-0.46c-0.08-0.08-0.1-0.1-0.1-0.12
				c0-0.04,0.04-0.06,0.08-0.06c0.12,0,0.74,0.08,0.88,0.08c0.5,0.02,1.63,0.06,2.69,0.06c0.38,0,0.72,0,0.72-0.56v-1.75
				c0-0.48-0.02-0.66-0.46-0.66c-0.68,0-1.37,0.04-1.43,0.04c-0.08,0.02-0.54,0.06-0.58,0.06c-0.06,0-0.1-0.04-0.18-0.12l-0.38-0.46
				c-0.08-0.1-0.08-0.1-0.08-0.14c0-0.04,0.04-0.04,0.06-0.04c0.36,0,2.17,0.12,2.57,0.12c0.46,0,0.48-0.22,0.48-0.52
				c0-0.34-0.02-0.7-0.02-0.92c0-0.2-0.08-1.17-0.08-1.25c0-0.14,0.04-0.16,0.12-0.16c0.04,0,1.93,0.34,1.93,0.7
				c0,0.1-0.24,0.4-0.36,0.54c-0.16,0.2-0.16,0.4-0.16,1.11c0,0.28,0,0.46,0.24,0.46c0.18,0,0.36-0.22,0.4-0.26
				c0.36-0.5,0.5-0.66,0.64-0.66s1.63,1.03,1.63,1.25c0,0.26-0.4,0.26-1.06,0.26h-1.25c-0.4,0-0.62,0.08-0.62,0.66v1.93
				c0,0.26,0.06,0.38,0.3,0.38c0.28,0,0.4-0.06,0.72-0.38c1.39-1.37,2.83-3.68,2.97-4.74c0.04-0.34,0.06-0.48,0.22-0.48
				c0.12,0,0.92,0.58,1.08,0.7c0.46,0.32,0.58,0.4,0.58,0.62c0,0.16-0.04,0.18-0.42,0.38c-0.38,0.2-1.61,2.01-1.91,2.37
				c-0.18,0.22-1.17,1.39-1.17,1.41c0,0.12,0.16,0.12,0.24,0.12h0.38c0.32,0,0.46-0.1,0.68-0.42c0.14-0.18,0.46-0.58,0.62-0.58
				c0.22,0,1.53,1.06,1.53,1.29c0,0.26-0.1,0.26-1.08,0.26h-2.75c-0.26,0-0.42,0-0.74,0.26c-0.92,0.76-1.99,1.63-2.79,2.09
				c-0.4,0.24-0.46,0.26-0.46,0.32c0,0.16,0.24,0.2,0.42,0.2h3.25c0.32,0,0.44-0.14,0.52-0.24c0.4-0.58,0.44-0.64,0.6-0.64
				c0.24,0,1.35,0.88,1.35,1.24c0,0.2-0.08,0.3-0.44,0.66c-0.06,0.08-0.12,0.2-0.12,0.72c0,0.82,0.02,2.37,0.04,3.15
				c0.02,0.26,0.08,1.63,0.08,1.93c0,0.96-0.84,1.25-1.06,1.25c-0.54,0-0.54-0.46-0.54-0.7c0-0.52-0.16-0.64-0.6-0.64H71.9z
				 M71.92,66.35c-0.64,0-0.64,0.22-0.64,0.94c0,1.47,0,1.63,0.64,1.63h2.87c0.64,0,0.64-0.22,0.64-0.97c0-1.45,0-1.61-0.64-1.61
				H71.92z M71.94,69.44c-0.66,0-0.66,0.22-0.66,1.23c0,1.15,0,1.33,0.66,1.33h2.83c0.68,0,0.68-0.16,0.68-1.63
				c0-0.68,0-0.93-0.66-0.93H71.94z M83.01,57.37c0.24,0,0.4,0,0.56-0.2c0.26-0.34,0.3-0.4,0.48-0.4c0.3,0,1.69,1.02,1.69,1.41
				c0,0.06-0.02,0.14-0.08,0.2c-0.06,0.06-0.52,0.26-0.6,0.32c-0.26,0.22-2.65,3.96-2.65,4.24c0,0.16,0.64,0.64,0.76,0.76
				c2.11,2.11,2.49,3.58,2.49,5.02c0,1.87-0.76,2.59-1.21,2.97c-0.18,0.14-0.66,0.54-0.98,0.54c-0.2,0-0.22-0.06-0.46-0.46
				c-0.52-0.92-1.71-1.49-1.85-1.49C81,70.29,81,70.41,81,70.63c0,0.26,0.04,1.57,0.04,1.87c0,0.6,0,0.82-0.06,1.02
				c-0.1,0.32-0.54,0.7-1,0.7c-0.52,0-0.52-0.4-0.52-0.58c0-0.28,0.04-1.69,0.06-1.99c0.08-2.39,0.14-8.8,0.14-11.37
				c0-0.56,0-1.54-0.06-2.61c-0.02-0.12-0.08-0.74-0.08-0.82c0-0.04,0.02-0.16,0.1-0.16c0.08,0,0.68,0.3,1.02,0.48
				c0.3,0.14,0.48,0.2,0.84,0.2H83.01z M81.59,57.91c-0.32,0-0.46,0.16-0.5,0.34C81.02,58.48,81,63.27,81,64.12
				c0,0.52,0,5.38,0.04,5.48c0.08,0.3,1.41,0.52,1.95,0.52c0.48,0,0.66-0.12,0.82-0.46c0.22-0.44,0.34-1.06,0.34-1.61
				c0-1.97-1.17-3.66-1.69-4.32c-0.1-0.1-0.58-0.54-0.58-0.66c0-0.08,0.7-2.23,0.8-2.65c0.1-0.36,0.6-2.11,0.6-2.23
				c0-0.28-0.22-0.28-0.46-0.28H81.59z"/>
			<path class="st0" d="M99.34,60.59c0.88,0,1.02,0,1.91-1.57c0.46-0.82,1.17-2.29,1.21-2.65c0.02-0.34,0.04-0.38,0.14-0.38
				c0.18,0,1.89,1.13,1.89,1.45c0,0.2-0.16,0.22-0.64,0.32c-0.34,0.06-0.52,0.1-1.75,1.35c-0.26,0.26-1.08,1.08-1.08,1.27
				c0,0.22,0.18,0.22,0.5,0.22h2.71c0.64,0,0.7,0,0.86-0.06c0.1-0.04,0.42-0.44,0.52-0.44c0.22,0,1.91,1.22,1.91,1.85
				c0,0.32-0.24,0.46-0.52,0.46c-0.1,0-0.54-0.06-0.62-0.06c-0.3,0-0.64,0.12-1.31,0.72c-0.34,0.32-0.4,0.38-0.52,0.38
				c-0.12,0-0.1-0.1-0.1-0.14c0-0.08,0.54-1.57,0.54-1.87s-0.12-0.3-0.74-0.3H92.45c-0.72,0-0.82,0-0.92,0.54
				c-0.26,1.37-0.86,1.99-1.39,1.99c-0.5,0-0.76-0.36-0.76-0.8c0-0.3,0.08-0.4,0.7-1.45c0.4-0.66,0.58-1.42,0.6-1.85
				c0-0.16,0.04-0.24,0.1-0.24c0.18,0,0.5,0.86,0.6,1c0.14,0.22,0.2,0.26,0.94,0.26H99.34z M95.49,68.8c0.44,0,0.74,0,0.98-0.46
				c0.2-0.38,0.36-1.21,0.36-1.51c0-0.36-0.16-0.36-0.66-0.36h-1.21c-0.42,0-0.44,0.06-0.58,0.44c-0.14,0.42-0.76,0.42-0.88,0.42
				c-0.3,0-0.58-0.1-0.64-0.44c-0.04-0.2,0-1.28,0-1.53c0-0.16-0.02-1.59-0.02-2.13c0-0.08-0.08-0.54-0.08-0.64
				c0-0.08,0.04-0.22,0.16-0.22c0.2,0,0.98,0.5,1.19,0.56c0.22,0.08,0.34,0.08,0.72,0.08h6.25c0.84,0,0.92,0,1.08-0.14
				c0.12-0.1,0.6-0.74,0.78-0.74c0.26,0,1.15,0.98,1.15,1.32c0,0.16-0.08,0.22-0.34,0.36c-0.24,0.14-0.24,0.24-0.24,1.15
				c0,0.32-0.02,1.39-0.1,1.57c-0.24,0.48-0.68,0.58-0.94,0.58c-0.3,0-0.36-0.12-0.46-0.4c-0.08-0.2-0.26-0.24-0.48-0.24h-2.25
				c-0.52,0-0.68,0.16-0.84,0.34c-0.3,0.34-1.31,1.49-1.31,1.77c0,0.22,0.26,0.22,0.54,0.22h5.02c0.42,0,0.82,0,0.96-0.06
				c0.12-0.06,0.56-0.58,0.7-0.58s1.23,0.66,1.23,1.04c0,0.18-0.04,0.22-0.32,0.46c-0.08,0.1-0.12,0.36-0.12,0.52
				c0,0.32,0.08,1.93,0.08,2.29c0,0.54,0,0.74-0.3,1.02c-0.26,0.26-0.62,0.44-0.92,0.44c-0.4,0-0.42-0.24-0.46-0.64
				c-0.04-0.26-0.3-0.26-0.5-0.26h-9.44c-0.36,0-0.42,0.14-0.5,0.42c-0.14,0.48-0.56,0.7-1.02,0.7c-0.6,0-0.6-0.46-0.6-0.64
				c0-0.14,0.12-2.61,0.12-3.11c0-0.28-0.06-1.69-0.06-2.01c0-0.1,0-0.28,0.18-0.28c0.2,0,0.88,0.3,1.33,0.5
				c0.32,0.16,0.5,0.18,0.92,0.18H95.49z M91.77,56.61c2.13,0,3.62,1.29,3.62,2.27c0,0.56-0.44,0.92-0.86,0.92
				c-0.46,0-0.66-0.42-0.82-0.78c-0.54-1.17-1.47-1.79-1.73-1.95c-0.42-0.26-0.46-0.28-0.42-0.38
				C91.57,56.63,91.69,56.61,91.77,56.61z M93.7,69.34c-0.26,0-0.42,0-0.56,0.2c-0.08,0.14-0.08,1.93-0.08,2.29
				c0,0.34,0,0.66,0.58,0.66h9.4c0.54,0,0.6-0.26,0.6-0.58c0-0.3,0-2.17-0.04-2.29c-0.08-0.28-0.42-0.28-0.56-0.28H93.7z M95,63.54
				c-0.26,0-0.64,0.02-0.64,0.58c0,1.81,0.04,1.81,0.6,1.81h6.53c0.6,0,0.6-0.16,0.6-1.25c0-0.97,0-1.15-0.64-1.15H95z M99.6,58.62
				c0,0.5-0.28,0.82-0.68,0.82c-0.56,0-0.78-0.58-0.9-0.92c-0.2-0.56-0.5-1.25-1.23-2.07c-0.06-0.06-0.3-0.36-0.3-0.42
				c0-0.08,0.12-0.08,0.16-0.08C97.31,55.95,99.6,57.01,99.6,58.62z"/>
			<path class="st0" d="M124.93,72.46c0.94,0,1.1-0.04,1.25-0.18c0.18-0.18,0.9-1.23,1.15-1.23s2.01,1.43,2.01,1.69
				S128.95,73,128.29,73h-13.84c-0.46,0-1.83,0-2.55,0.04c-0.06,0.02-0.36,0.06-0.42,0.06c-0.06,0-0.1-0.06-0.18-0.14l-0.38-0.46
				c-0.08-0.08-0.08-0.1-0.08-0.12c0-0.04,0.02-0.06,0.06-0.06c0.14,0,0.76,0.06,0.9,0.08c0.9,0.04,1.81,0.06,2.75,0.06H124.93z
				 M123.17,57.73c0.94,0,1.06,0,1.25-0.18c0.18-0.16,0.9-1.17,1.15-1.17c0.24,0,1.99,1.37,1.99,1.63c0,0.26-0.38,0.26-1.02,0.26
				h-10.35c-0.44,0-1.83,0-2.53,0.04c-0.06,0.02-0.36,0.06-0.42,0.06c-0.08,0-0.12-0.06-0.18-0.14l-0.38-0.46
				c-0.08-0.08-0.1-0.1-0.1-0.14s0.06-0.04,0.08-0.04c0.14,0,0.76,0.06,0.88,0.08c0.92,0.04,1.83,0.06,2.75,0.06H123.17z
				 M122.06,64.96c0.88,0,0.96,0,1.15-0.16c0.16-0.16,0.82-1.06,1.04-1.06c0.16,0,1.93,1.15,1.93,1.51c0,0.24-0.1,0.24-1,0.24h-7.53
				c-0.46,0-1.83,0-2.53,0.06c-0.08,0-0.36,0.04-0.42,0.04c-0.08,0-0.12-0.04-0.18-0.12l-0.4-0.46c-0.06-0.08-0.08-0.1-0.08-0.14
				c0-0.02,0.02-0.04,0.08-0.04c0.14,0,0.76,0.06,0.88,0.06c0.92,0.04,1.81,0.08,2.75,0.08H122.06z"/>
			<path class="st0" d="M136.24,71.85c-0.24,0-0.5,0-0.52,0.44c-0.02,0.52-0.04,1.41-1.04,1.41c-0.58,0-0.62-0.48-0.62-0.96
				c0-0.28,0.08-1.59,0.1-1.89c0.1-2.33,0.14-5.5,0.14-8.02c0-1.06,0-3.98-0.12-4.76c-0.02-0.14-0.2-0.78-0.2-0.94
				c0-0.06,0.02-0.16,0.12-0.16c0.3,0,0.86,0.2,1.59,0.48c0.34,0.14,0.52,0.18,1,0.18h10.02c0.9,0,1,0,1.23-0.26
				c0.34-0.42,0.44-0.56,0.64-0.56c0.32,0,1.43,0.72,1.43,1.15c0,0.1-0.36,0.52-0.42,0.62c-0.14,0.22-0.2,0.5-0.2,1.17
				c0,0.08,0.06,2.41,0.06,2.87v4c0,0.5-0.02,2.67,0.04,3.82c0,0.2,0.1,1.19,0.1,1.41c0,1.04-0.94,1.06-1.04,1.06
				c-0.56,0-0.56-0.3-0.56-0.68c0-0.36-0.24-0.36-0.46-0.36H136.24z M140.54,64.12c0.6,0,0.58-0.34,0.58-0.8
				c-0.02-0.64,0.02-3.76,0.02-4.46c0-0.44-0.04-0.68-0.62-0.68h-4.14c-0.66,0-0.66,0.22-0.66,0.92c0,0.64-0.04,3.72-0.04,4.42
				c0,0.3,0.04,0.6,0.6,0.6H140.54z M136.28,64.64c-0.6,0-0.6,0.06-0.6,1.93c0,0.68,0,4,0.02,4.18c0.06,0.56,0.32,0.56,0.56,0.56
				h4.2c0.34,0,0.64,0,0.64-0.62v-5.67c-0.04-0.36-0.42-0.38-0.56-0.38H136.28z M143.15,64.64c-0.14,0-0.48,0-0.56,0.34
				c-0.04,0.12-0.1,5.32-0.1,5.62c0,0.68,0.26,0.7,0.7,0.7h4.24c0.56,0,0.58-0.06,0.58-2.25c0-0.5,0-4-0.06-4.16
				c-0.1-0.22-0.32-0.26-0.5-0.26H143.15z M147.43,64.12c0.52,0,0.54-0.32,0.54-0.64c0-0.5-0.06-4.54-0.06-4.64
				c0-0.32-0.02-0.66-0.6-0.66h-4.08c-0.46,0-0.58,0.14-0.6,0.52c-0.04,1.06-0.06,3.68-0.06,4.84c0,0.46,0.2,0.58,0.58,0.58H147.43z
				"/>
			<path class="st0" d="M157.52,65.08c0.66,0,1.49,0,1.99-0.02c0.54-0.02,0.54-0.08,0.54-0.2c0-0.22-0.46-1.27-0.46-1.31
				s0.06-0.1,0.14-0.1c0.28,0,1.93,1.31,1.93,2.45c0,0.56-0.38,0.86-0.78,0.86c-0.52,0-0.58-0.4-0.68-1
				c-0.04-0.3-0.06-0.36-0.22-0.36c-0.08,0-0.84,0.18-0.9,0.24c-0.1,0.1-0.1,1.41-0.1,1.75c0,0.86,0.1,4.7,0.1,5.48
				c0,0.8-0.6,1.21-1.06,1.21c-0.34,0-0.38-0.34-0.38-0.84c0-0.9,0.14-4.94,0.14-5.77c0-0.28,0-1.19-0.06-1.39
				c-0.04-0.16-0.1-0.2-0.36-0.2c-0.08,0-1.51,0.2-1.85,0.36c-0.1,0.04-0.48,0.34-0.58,0.34c-0.2,0-0.72-1.59-0.72-1.63
				c0-0.06,0.04-0.06,0.1-0.06c0.08,0,0.74,0.08,0.88,0.1c0.1,0,0.82,0.04,1,0.04c0.48,0,0.56-0.14,1.25-1.45
				c0.72-1.39,1.77-3.39,2.05-4.24c0.18-0.5,0.2-0.56,0.32-0.56c0.06,0,1.69,0.76,1.69,1.06c0,0.16-0.04,0.16-0.48,0.3
				c-0.26,0.08-0.46,0.24-0.6,0.42c-0.86,1.13-2.05,3.07-2.99,4.14c-0.08,0.08-0.14,0.22-0.1,0.28
				C157.32,65.06,157.44,65.08,157.52,65.08z M157.06,68.42c0,0.14-0.44,0.56-0.5,0.68c-0.44,0.82-1,2.23-1.53,3.03
				c-0.04,0.06-0.48,0.72-0.68,0.72c-0.02,0-0.08-0.02-0.08-0.08c0-0.06,0.6-1.85,0.68-2.15c0.4-1.57,0.42-2.51,0.42-2.67
				c0-0.36,0-0.42,0.12-0.42s0.62,0.22,0.78,0.28C156.77,68.04,157.06,68.2,157.06,68.42z M157.04,60.76
				c0.62,0.44,0.76,0.94,0.76,1.25c0,0.48-0.36,0.64-0.6,0.64c-0.12,0-0.26-0.04-0.44-0.2c-0.16-0.18-0.88-1.19-1.06-1.39
				c-0.18-0.18-1.1-1-1.1-1.04c0-0.08,0.08-0.1,0.16-0.1c0.2,0,1.15,0.34,1.37,0.34c0.14,0,0.18-0.08,0.46-0.74
				c0.24-0.56,0.82-1.95,0.82-3.33c0-0.08,0-0.22,0.12-0.22c0.02,0,1.87,0.6,1.87,1.02c0,0.06,0,0.18-0.08,0.22
				c-0.08,0.06-0.54,0.24-0.62,0.32c-0.24,0.22-1.13,1.57-1.35,1.87c-0.16,0.2-0.7,0.9-0.66,1.09
				C156.69,60.52,156.98,60.73,157.04,60.76z M160.55,67.19c-0.08-0.1-0.08-0.1-0.08-0.14c0-0.04,0.04-0.04,0.06-0.04
				c0.38,0,2.21,0.12,2.63,0.12c0.32,0,0.46-0.12,0.58-0.28c0.2-0.28,0.3-0.4,0.5-0.4c0.32,0,1.31,0.56,1.31,0.96
				c0,0.12-0.1,0.2-0.2,0.24c-0.42,0.16-0.42,0.16-0.56,0.42c-0.84,1.67-1.31,2.51-2.19,3.5c-1.43,1.59-3.23,2.33-3.29,2.33
				c-0.02,0-0.06,0-0.06-0.04c0-0.06,0.02-0.08,0.12-0.18c1.51-1.49,1.67-1.65,2.05-2.13c1.55-1.89,2.03-3.66,2.03-3.7
				c0-0.16-0.08-0.16-0.66-0.16c-0.24,0-1.49,0.08-1.67,0.08c-0.06,0-0.1-0.04-0.18-0.12L160.55,67.19z M161.62,70.27
				c0,0.68-0.5,0.86-0.68,0.86c-0.44,0-0.48-0.52-0.58-1.37c-0.02-0.26-0.16-0.68-0.54-1.51c-0.02-0.08-0.08-0.18-0.08-0.22
				c0-0.06,0.06-0.1,0.1-0.1c0.12,0,0.64,0.42,0.86,0.64C160.89,68.78,161.62,69.48,161.62,70.27z M163.89,64.8
				c-0.26,0-0.4,0-0.58,0.22c-0.22,0.28-0.46,0.56-0.84,0.56c-0.46,0-0.46-0.3-0.46-0.84c0-0.58,0.08-3.47,0.08-4.12
				c0-0.34-0.04-1.99-0.04-2.35c0-0.08,0-0.14,0.12-0.14c0.2,0,1.13,0.66,1.37,0.66c0.4,0,1.63-2.23,1.65-2.63
				c0.02-0.14,0.04-0.28,0.16-0.28c0.04,0,1,0.48,1.17,0.56c0.28,0.14,0.56,0.28,0.56,0.44c0,0.14-0.82,0.36-0.96,0.44
				c-0.66,0.46-1.49,1.23-1.49,1.39c0,0.12,0.04,0.12,0.38,0.12h3.86c0.42,0,0.56-0.02,0.72-0.28c0.44-0.68,0.5-0.76,0.7-0.76
				c0.26,0,1.39,0.74,1.39,1.18c0,0.14-0.1,0.28-0.24,0.4c-0.28,0.24-0.36,0.32-0.36,0.66c0,0.3,0.06,1.81,0.06,2.15
				c0,0.38,0.14,2.21,0.14,2.37c0,0.9-0.96,0.96-1.06,0.96c-0.28,0-0.32-0.08-0.44-0.48c-0.06-0.24-0.32-0.24-0.46-0.24h-2.31
				c-0.1,0-0.18,0-0.18,0.08c0,0.08,0.04,0.1,0.38,0.24c0.16,0.04,0.58,0.22,0.58,0.46c0,0.16-0.04,0.18-0.36,0.42
				c-0.04,0.04-0.12,0.12-0.12,0.24c0,0.14,0.6,1.29,0.72,1.53c0.16,0.3,0.42,0.8,0.66,0.8c0.48,0,1.85-1.45,2.29-1.95
				c0.04-0.06,0.22-0.26,0.26-0.26c0.1,0,1.41,1.19,1.41,1.41c0,0.08-0.06,0.1-0.12,0.1c-0.08,0.02-0.44-0.02-0.52-0.02
				c-0.58,0-1,0.2-2.73,0.98c-0.36,0.16-0.36,0.18-0.36,0.3c0,0.2,1.37,2.29,3.5,3.54c0.64,0.38,0.72,0.4,0.72,0.48
				c0,0.06-0.06,0.06-0.32,0.08c-0.28,0.02-0.74,0.08-1.15,0.22c-0.08,0.04-0.5,0.28-0.6,0.28c-0.18,0-2.27-2.41-3.37-5.1
				c-0.08-0.18-0.44-1.25-0.48-1.25c-0.06,0-0.06,0.58-0.06,0.68c0,0.2,0.04,3.36,0.04,3.72c0,1.23,0,1.67-0.44,2.01
				c-0.4,0.3-1.08,0.54-1.57,0.54c-0.12,0-0.16-0.04-0.22-0.14c-0.16-0.34-0.2-0.44-0.4-0.68c-0.12-0.12-0.76-0.66-0.76-0.68
				c0-0.06,0.06-0.06,0.58-0.06c1.51,0,1.59-0.2,1.59-1.67c0-0.92,0-5.14-0.1-5.73c-0.08-0.48-0.3-0.58-0.7-0.58H163.89z
				 M163.93,59.36c-0.26,0-0.52,0.04-0.6,0.42v1.15c0,0.52,0.38,0.52,0.62,0.52h5.22c0.6,0,0.6-0.08,0.6-1.55
				c0-0.54-0.4-0.54-0.6-0.54H163.93z M163.93,61.97c-0.22,0-0.6,0.02-0.6,0.56c0,1.71,0,1.75,0.6,1.75h5.3
				c0.18,0,0.56-0.04,0.56-0.54c0-1.69,0-1.77-0.58-1.77H163.93z"/>
			<path class="st0" d="M184.38,61.55c0.32,0,0.62-0.04,0.62-0.58c0-1.79,0-1.89-0.56-1.89h-4.6c-1.75,0-2.33,0.04-2.53,0.06
				c-0.06,0-0.36,0.04-0.42,0.04c-0.08,0-0.12-0.04-0.18-0.12l-0.38-0.46c-0.08-0.1-0.1-0.1-0.1-0.14s0.04-0.04,0.08-0.04
				c0.14,0,0.76,0.06,0.88,0.06c0.98,0.04,1.81,0.08,2.75,0.08h4.44c0.18,0,0.6,0,0.6-0.52c0-0.04,0-0.54-0.12-1.08
				c-0.02-0.14-0.24-0.76-0.24-0.9c0-0.12,0.12-0.16,0.26-0.16c0.06,0,2.03,0.28,2.03,0.6c0,0.06-0.28,0.34-0.34,0.4
				c-0.14,0.14-0.2,0.3-0.2,0.76c0,0.58,0,0.9,0.6,0.9h3.05c0.84,0,1.06,0,1.29-0.34c0.6-0.96,0.66-1.06,0.9-1.06
				c0.34,0,1.51,1.1,1.77,1.29c0.04,0.02,0.3,0.22,0.3,0.36c0,0.28-0.38,0.28-1.06,0.28h-6.25c-0.6,0-0.6,0.38-0.6,0.58
				c0,1.87,0,1.89,0.62,1.89h1.13c0.7,0,0.98-0.38,1.06-0.5c0.14-0.22,0.26-0.36,0.42-0.36c0.22,0,1.77,0.92,1.77,1.14
				c0,0.12-0.34,0.66-0.58,1.02c-0.14,0.24-0.14,0.4-0.14,0.64c0,1.06,0.14,5.71,0.14,6.67c0,0.92,0,1.35-1.06,1.35
				c-0.3,0-0.46,0-0.5-0.56c-0.04-0.42-0.16-0.56-0.66-0.56h-4.6c-0.44,0-0.5,0.34-0.5,0.44c0,0.18,0,0.52-0.02,0.56
				c-0.12,0.3-0.56,0.44-0.9,0.44c-0.4,0-0.68-0.18-0.68-0.74c0-0.36,0.06-1.93,0.06-2.25c0-3.7-0.12-6.49-0.16-6.87
				c-0.02-0.18-0.14-0.94-0.14-1.08c0-0.08,0.04-0.1,0.12-0.1c0.22,0,0.28,0.04,1.06,0.46c0.36,0.2,0.76,0.3,1.21,0.3H184.38z
				 M179.71,73.26c-0.2,0-0.38,0.1-0.48,0.28c-0.24,0.44-0.56,0.66-1.04,0.66c-0.08,0-0.62,0-0.62-0.6c0-0.68,0.14-4,0.14-4.74
				c0-0.68-0.02-5.46-0.14-5.83c-0.02-0.1-0.26-0.54-0.26-0.66c0-0.18,0.18-0.18,0.24-0.18c0.3,0,2.07,0.56,2.07,0.95
				c0,0.12-0.38,0.52-0.42,0.64c-0.1,0.26-0.1,5.18-0.1,5.71c0,0.38,0.04,2.71,0.16,2.93c0.04,0.06,0.16,0.32,0.6,0.32h10.26
				c0.78,0,0.9-0.04,1-0.16c0.16-0.2,0.8-1.25,1-1.25c0.06,0,2.25,1.11,2.25,1.69c0,0.24-0.1,0.24-1.06,0.24H179.71z M183.71,62.07
				c-0.54,0-0.54,0.36-0.54,0.93c0,0.99,0,1.33,0.56,1.33h4.96c0.56,0,0.56-0.3,0.56-1.13c0-0.82,0-1.13-0.56-1.13H183.71z
				 M183.81,64.84c-0.2,0-0.6,0.02-0.6,0.58c0,1.51,0.08,1.65,0.62,1.65h4.84c0.6,0,0.6-0.24,0.6-1.11c0-0.88,0-1.13-0.6-1.13
				H183.81z M183.85,67.59c-0.48,0-0.56,0.32-0.56,0.54c0,1.57,0.16,1.71,0.6,1.71h4.78c0.58,0,0.58-0.3,0.58-1.13s0-1.13-0.58-1.13
				H183.85z"/>
			<path class="st0" d="M197.51,64.44c-0.1-0.1-0.1-0.1-0.1-0.12c0-0.04,0.04-0.06,0.08-0.06c0.36,0,2.11,0.14,2.51,0.14
				c0.36,0,0.46-0.08,0.74-0.4c0.44-0.5,0.5-0.56,0.6-0.56s1.28,0.7,1.28,1.06c0,0.06-0.02,0.1-0.04,0.12
				c-0.06,0.08-0.42,0.3-0.5,0.36c-0.12,0.12-0.12,0.34-0.12,2.45c0,2.79,0,3.15,0.5,3.78c0.92,1.19,3.96,1.19,5.34,1.19
				c1,0,3.64,0.08,7.43-0.58c0.1-0.02,0.56-0.12,0.68-0.12c0.04,0,0.12,0,0.12,0.08c0,0.02-0.02,0.1-0.16,0.18
				c-0.46,0.24-0.7,0.38-0.96,0.84c-0.06,0.12-0.18,0.8-0.3,0.9c-0.04,0.02-2.29,0.02-2.61,0.02c-4.34,0-6.09-0.24-7.31-0.52
				c-0.28-0.06-1.73-0.4-2.51-1.63c-0.16-0.24-0.7-1.55-0.88-1.55c-0.34,0-2.11,2.83-2.11,2.97c-0.02,0.62-0.04,0.68-0.22,0.68
				c-0.38,0-1.43-1.42-1.43-1.73c0-0.14,0.22-0.2,0.42-0.26c0.38-0.1,1.33-0.66,1.87-1.08c0.84-0.62,0.84-0.64,0.84-1.51
				c0-0.46,0.04-2.85,0.04-3.38c-0.02-0.68-0.12-0.78-0.68-0.78c-0.04,0-1.15-0.02-1.69,0.06c-0.04,0-0.24,0.04-0.28,0.04
				c-0.08,0-0.12-0.04-0.18-0.14L197.51,64.44z M201.43,60.52c-0.34,0-0.5-0.14-0.8-0.68c-0.04-0.06-0.58-0.98-1.89-2.29
				c-0.12-0.12-0.78-0.74-0.78-0.76c0-0.08,0.12-0.08,0.18-0.08c0.4,0,3.94,1.2,3.94,3.11C202.07,60.14,201.89,60.52,201.43,60.52z
				 M210.85,56.99c0.7,0,0.86,0,1.11-0.18c0.1-0.08,0.58-0.7,0.74-0.7c0.18,0,1.81,1,1.81,1.38c0,0.14-0.12,0.22-0.26,0.26
				c-0.14,0.04-0.9,0.18-1.06,0.24c-0.4,0.16-2.25,1.33-2.67,1.59c-0.1,0.06-0.68,0.44-0.68,0.58c0,0.06,0.22,0.3,0.24,0.36
				c0.06,0.1,0.06,0.22,0.06,0.54c0,0.1,0.1,0.1,0.38,0.1h2.05c0.22,0,0.44,0,0.66-0.16c0.08-0.04,0.46-0.38,0.58-0.38
				c0.26,0,1.2,0.66,1.2,0.9c0,0.16-0.16,0.26-0.32,0.38c-0.24,0.16-0.24,0.26-0.24,0.6c0,2.79,0,3.09,0.06,4.5
				c0.06,1.22,0.06,2.05,0.06,2.31c0,0.86-0.18,1.39-0.66,1.75c-0.22,0.16-0.64,0.36-0.9,0.36c-0.22,0-0.3-0.14-0.34-0.22
				c-0.02-0.06-0.14-0.46-0.2-0.54c-0.1-0.14-0.86-0.58-0.86-0.66c0-0.12,1-0.2,1.19-0.26c0.5-0.18,0.5-0.32,0.5-1.77
				c0-0.42,0-0.74-0.6-0.74h-2.19c-0.58,0-0.62,0.3-0.62,0.7v0.76c0,0.22,0.08,1.35,0.08,1.61c0,0.36-0.04,0.9-0.93,0.9
				c-0.42,0-0.48-0.5-0.5-0.82c0-0.38,0.14-2.19,0.14-2.61c0-0.54-0.38-0.54-0.6-0.54h-1.89c-0.64,0-0.64,0.16-0.64,1.25
				c0,0.26,0.04,1.57,0.04,1.85c0,1.1-0.72,1.13-0.84,1.13c-0.58,0-0.62-0.44-0.62-1c0-0.2,0.04-0.96,0.06-1.15
				c0.06-0.78,0.08-1.41,0.08-3.09c0-0.74-0.08-4.42-0.08-5.26c0-0.16,0-0.28,0.12-0.28c0.04,0,1.02,0.34,1.1,0.36
				c0.46,0.16,0.72,0.14,0.94,0.14h1.95c0.12,0,0.24,0,0.24-0.16c0-0.14-0.54-0.8-1.17-1.27c-0.44-0.32-0.52-0.36-0.52-0.48
				c0-0.1,0.2-0.1,0.26-0.1c0.2,0,0.76,0.06,1.41,0.28c0.12,0.04,0.72,0.36,0.86,0.36c0.28,0,1.97-1.81,1.97-2.13
				c0-0.16-0.12-0.16-0.38-0.16h-3.09c-0.48,0-1.83,0-2.53,0.06c-0.06,0-0.36,0.04-0.42,0.04c-0.08,0-0.12-0.04-0.18-0.12
				l-0.38-0.46c-0.1-0.1-0.1-0.1-0.1-0.14s0.04-0.04,0.08-0.04c0.12,0,0.74,0.06,0.88,0.06c0.56,0.02,1.61,0.08,2.75,0.08H210.85z
				 M206.15,64.52c-0.18,0-0.44,0.02-0.56,0.24c-0.06,0.12-0.06,0.22-0.06,1.27c0,0.34,0,0.66,0.62,0.66h1.89
				c0.62,0,0.62-0.22,0.62-1.17c0-0.74,0-1.01-0.62-1.01H206.15z M206.13,61.69c-0.58,0-0.58,0.16-0.58,1.59c0,0.32,0,0.7,0.58,0.7
				h1.93c0.58,0,0.58-0.14,0.58-1.55c0-0.36,0-0.74-0.58-0.74H206.13z M212.56,63.98c0.62,0,0.62-0.12,0.62-1.35
				c0-0.68,0-0.95-0.62-0.95h-2.11c-0.62,0-0.62,0.18-0.62,1.29c0,0.78,0,1.01,0.62,1.01H212.56z M212.68,66.69
				c0.58,0,0.58-0.3,0.58-0.78c0-1.25,0-1.39-0.58-1.39h-2.25c-0.58,0-0.58,0.14-0.58,1.35c0,0.54,0,0.82,0.58,0.82H212.68z"/>
			<path class="st0" d="M59.6,100.38c0.16,0.18,0.98,1.06,0.98,1.19c0,0.04-0.04,0.12-0.14,0.12c-0.2,0-4.84-3.33-4.84-9.56
				s4.64-9.56,4.84-9.56c0.1,0,0.14,0.08,0.14,0.12c0,0.12-0.82,1-0.98,1.19c-0.8,1-2.89,3.88-2.89,8.26
				C56.71,96.5,58.8,99.38,59.6,100.38z"/>
			<path class="st0" d="M68.14,98.93c-0.12,0-0.54,0-0.58,0.42c-0.04,0.52-0.08,1.08-0.96,1.08c-0.66,0-0.7-0.4-0.7-0.74
				c0-0.08,0.12-4.1,0.12-4.86c0-2.19,0-6.97-0.16-9c-0.02-0.18-0.12-1.02-0.12-1.21c0-0.1,0.02-0.16,0.12-0.16
				c0.08,0,0.18,0.04,0.94,0.42c0.56,0.26,0.66,0.28,1,0.28h6.15c0.42,0,0.58,0,0.72-0.2c0.3-0.42,0.38-0.52,0.58-0.52
				c0.28,0,1.75,0.94,1.75,1.25c0,0.14-0.1,0.22-0.44,0.52c-0.26,0.2-0.36,0.34-0.36,1.31c0,2.15,0.02,2.51,0.04,4.28
				c0.02,1.15,0.16,6.23,0.16,7.27c0,0.7-0.46,1.1-1,1.1c-0.06,0-0.58,0-0.64-0.76c-0.02-0.34-0.02-0.48-0.42-0.48H68.14z
				 M74.17,91.64c0.58,0,0.58-0.38,0.58-0.64c0-0.24-0.06-4.92-0.1-5.02c-0.12-0.26-0.38-0.26-0.5-0.26h-6.21
				c-0.28,0-0.44,0.18-0.46,0.3c-0.04,0.16-0.04,4.52-0.04,4.88c0,0.38,0.02,0.74,0.56,0.74H74.17z M74.15,98.39
				c0.18,0,0.54,0,0.58-0.42c0.02-0.12,0.02-4.58,0.02-5.04c0-0.42-0.04-0.76-0.58-0.76h-6.15c-0.52,0-0.58,0.3-0.58,0.7
				c0,0.66,0.06,3.9,0.06,4.62c0,0.64,0.06,0.9,0.6,0.9H74.15z"/>
			<path class="st0" d="M85.08,93.97c-0.5,0-0.54,0.26-0.58,0.7c-0.06,0.52-0.58,1.12-1.19,1.12c-0.5,0-0.52-0.26-0.52-0.52
				c0-0.14,0.06-0.82,0.08-0.98c0.04-0.76,0.04-2.65,0.04-3.19c0-1.27-0.04-2.57-0.12-3.64c0-0.1-0.06-0.66-0.06-0.7
				c0-0.06,0-0.14,0.06-0.14c0.18,0,0.32,0.08,1.53,0.72c0.38,0.2,0.62,0.28,1.08,0.28h3.33c0.6,0,0.6-0.36,0.6-0.74
				c0-0.6-0.02-2.43-0.06-2.99c-0.02-0.12-0.12-0.62-0.12-0.74c0-0.12,0.12-0.12,0.2-0.12c0.14,0,1.97,0.3,1.97,0.68
				c0,0.12-0.42,0.52-0.44,0.62c-0.08,0.34-0.08,0.5-0.08,2.63c0,0.3,0,0.66,0.56,0.66h3.74c0.22,0,0.42,0,0.62-0.28
				c0.38-0.52,0.42-0.58,0.6-0.58c0.28,0,1.71,1.02,1.71,1.29c0,0.12-0.44,0.5-0.5,0.6c-0.16,0.28-0.16,0.52-0.16,2.53
				c0,0.4,0.06,2.41,0.06,2.87c0,0.42,0.02,0.66-0.2,0.92c-0.4,0.48-0.88,0.52-0.98,0.52c-0.56,0-0.56-0.48-0.56-0.98
				c0-0.18,0-0.54-0.58-0.54h-3.62c-0.36,0-0.64,0.04-0.64,0.66c0,0.7,0.04,4.18,0.04,4.96c0,0.42,0,1.59-1.06,1.59
				c-0.66,0-0.66-0.6-0.66-0.8c0-0.22,0.08-1.25,0.08-1.49c0.02-0.7,0.06-3.54,0.06-4.22c0-0.48-0.06-0.7-0.6-0.7H85.08z
				 M88.71,93.43c0.16,0,0.42,0,0.52-0.24c0.12-0.24,0.12-2.77,0.12-3.27c0-1.61,0-1.77-0.62-1.77H85c-0.58,0-0.58,0.22-0.58,0.94
				c0,0.5,0.04,2.99,0.04,3.58c0,0.56,0.1,0.76,0.62,0.76H88.71z M95.22,93.43c0.18,0,0.46,0,0.52-0.3c0.04-0.14,0.1-3.94,0.1-4.32
				c0-0.48-0.18-0.66-0.58-0.66h-3.88c-0.58,0-0.58,0.4-0.58,0.68c0,0.52,0,4,0.06,4.24c0.06,0.3,0.28,0.36,0.54,0.36H95.22z"/>
			<path class="st0" d="M106.87,84.83c-1.75,0-2.33,0.04-2.53,0.06c-0.06,0-0.36,0.04-0.42,0.04c-0.08,0-0.12-0.04-0.18-0.12
				l-0.38-0.46c-0.08-0.1-0.08-0.1-0.08-0.14c0-0.02,0.02-0.04,0.06-0.04c0.14,0,0.76,0.06,0.88,0.06c0.98,0.06,1.81,0.08,2.75,0.08
				h8.82c0.82,0,0.92,0,1.08-0.14s0.8-0.94,1-0.94c0.26,0,1.87,1.23,1.87,1.41c0,0.2-0.1,0.2-1.06,0.2h-5.93
				c-0.6,0-0.6,0.22-0.6,1.35c0,0.62,0.02,6.03,0.04,6.15c0.1,0.32,0.4,0.32,0.62,0.32h3.92c0.92,0,1.02,0,1.29-0.34
				c0.58-0.8,0.66-0.88,0.84-0.88c0.36,0,1.67,1.37,1.67,1.49c0,0.26-0.4,0.26-1.06,0.26h-6.65c-0.4,0-0.64,0.08-0.64,0.68
				c0,0.84,0.08,4.64,0.08,5.4c0,0.94,0,2.07-1,2.07c-0.66,0-0.66-0.58-0.66-0.78c0-0.94,0.12-5.08,0.12-5.93
				c0-1.29,0-1.45-0.64-1.45h-4.1c-1.77,0-2.35,0.04-2.55,0.06c-0.06,0-0.36,0.06-0.42,0.06c-0.06,0-0.1-0.06-0.18-0.14l-0.38-0.46
				c-0.08-0.08-0.08-0.1-0.08-0.12c0-0.04,0.02-0.06,0.06-0.06c0.14,0,0.76,0.06,0.88,0.08c0.98,0.04,1.83,0.06,2.77,0.06h4.02
				c0.2,0,0.48,0,0.58-0.22c0.08-0.18,0.08-1.1,0.08-1.77c0-0.08,0-5.36-0.02-5.44c-0.04-0.3-0.24-0.38-0.54-0.38H106.87z
				 M104.62,86.3c0.28,0,3.31,1.95,3.31,4.14c0,0.56-0.36,1.02-0.88,1.02c-0.56,0-0.64-0.28-0.98-1.63
				c-0.08-0.32-0.34-1.39-1.02-2.57c-0.08-0.12-0.48-0.7-0.52-0.8C104.52,86.4,104.52,86.3,104.62,86.3z M118.04,87.6
				c-0.44,0.24-1.65,2.11-1.93,2.45c-0.72,0.82-1.63,1.71-1.87,1.71c-0.06,0-0.18-0.04-0.18-0.16c0-0.02,0.36-0.6,0.4-0.66
				c1.17-1.85,2.13-3.9,2.13-4.86c0-0.38,0-0.44,0.12-0.44c0.04,0,1.91,1.13,1.91,1.47C118.62,87.3,118.58,87.3,118.04,87.6z"/>
			<path class="st0" d="M131.72,86.9c0.58,0,0.58-0.36,0.58-0.92c0-0.2,0.02-1.02,0.02-1.21c0-0.3-0.08-1.65-0.08-1.91
				c0-0.12,0-0.2,0.18-0.2c0.08,0,1.77,0.38,1.77,0.76c0,0.12-0.4,0.52-0.42,0.64c-0.02,0.08-0.06,2.05-0.06,2.25
				c0,0.18,0.02,0.58,0.58,0.58h0.82c0.32,0,0.62,0,1.71-2.57c0.06-0.16,0.28-0.88,0.32-1.02c0.04-0.12,0.1-0.2,0.22-0.2
				c0.08,0,1.89,1.08,1.89,1.37c0,0.18-0.08,0.2-0.76,0.4c-0.62,0.18-2.05,1.75-2.05,1.91c0,0.12,0.16,0.12,0.24,0.12h2.41
				c0.1,0,0.3,0,0.54-0.1c0.1-0.04,0.5-0.3,0.58-0.3c0.28,0,1.69,1.02,1.69,1.67c0,0.24-0.16,0.34-0.36,0.34
				c-0.14,0-0.66-0.22-0.78-0.22c-0.48,0-1.1,0.54-1.39,0.78c-0.02,0.02-0.36,0.32-0.4,0.32c-0.06,0-0.06-0.08-0.06-0.1
				c0-0.12,0.48-1.49,0.48-1.69c0-0.18-0.12-0.18-0.28-0.18h-12.58c-0.28,0-0.28,0.04-0.3,0.38c-0.06,1.03-0.76,1.95-1.23,1.95
				c-0.34,0-0.7-0.38-0.7-0.86c0-0.32,0.12-0.52,0.34-0.86c0.56-0.88,0.56-1.87,0.56-1.93c0-0.4,0-0.44,0.12-0.44
				c0.1,0,0.14,0.1,0.6,0.88c0.16,0.3,0.24,0.36,0.5,0.36H131.72z M137.71,94.96c0.1,0,0.28,0,0.42-0.08c0.14-0.06,0.6-0.6,0.74-0.6
				c0.2,0,1.45,0.68,1.45,1.1c0,0.14-0.06,0.18-0.42,0.36c-0.12,0.06-0.14,0.24-0.14,0.34c0,2.73,0,3.04-0.12,3.3
				c-0.38,0.92-1.47,1.34-1.67,1.34c-0.22,0-0.28-0.06-0.7-0.68c-0.24-0.36-0.58-0.52-1.04-0.72c-0.08-0.04-0.24-0.12-0.24-0.16
				c0-0.08,0.1-0.08,0.16-0.08c0.8,0,1.29-0.08,1.53-0.12c0.68-0.12,0.68-0.28,0.68-1.89c0-1.43,0-1.59-0.6-1.59h-3.37
				c-0.6,0-0.6,0.32-0.6,0.68c0,0.6,0.02,3.3,0.02,3.86c0,0.58-0.24,1.26-1,1.26c-0.56,0-0.56-0.44-0.56-0.62
				c0-0.02,0.16-3.84,0.16-4.56c0-0.32-0.02-0.62-0.62-0.62h-3.13c-0.62,0-0.64,0.1-0.64,2.25c0,0.26,0.06,1.43,0.06,1.67
				c0,1.28-1.13,1.34-1.19,1.34c-0.26,0-0.42-0.14-0.42-0.7c0-0.74,0.12-4,0.12-4.66c0-0.12-0.08-0.72-0.08-0.84
				c0-0.14,0.06-0.18,0.16-0.18c0.06,0,0.74,0.28,1.1,0.44c0.38,0.16,0.48,0.16,0.66,0.16h3.4c0.6,0,0.6-0.36,0.6-0.72
				c0-1.67-0.28-1.67-0.66-1.67h-1.55c-0.24,0-0.44,0-0.56,0.26c-0.16,0.3-0.28,0.52-1,0.52c-0.58,0-0.58-0.38-0.58-0.54
				c0-0.38,0.06-2.07,0.06-2.43c0-0.26,0-0.64-0.08-1.18c-0.02-0.16-0.04-0.28-0.04-0.32c0-0.06,0.02-0.18,0.16-0.18
				c0.18,0,0.94,0.38,1.13,0.44c0.3,0.12,0.54,0.12,0.86,0.12h6.09c0.16,0,0.5,0,0.7-0.3c0.24-0.38,0.28-0.42,0.5-0.42
				c0.24,0,1.17,0.5,1.17,0.96c0,0.16-0.08,0.26-0.32,0.54c-0.08,0.1-0.08,0.3-0.08,0.66c0,0.24,0.02,1.33,0.02,1.55
				c-0.02,0.7-0.68,0.94-1.02,0.94c-0.28,0-0.32-0.08-0.44-0.42c-0.08-0.2-0.3-0.2-0.44-0.2h-2.65c-0.06,0-0.18,0-0.18,0.08
				c0,0.06,0.02,0.06,0.26,0.18c0.42,0.2,0.58,0.28,0.58,0.38c0,0.12-0.44,0.5-0.5,0.6c-0.04,0.1-0.06,0.2-0.06,0.34
				c0,0.48,0,0.8,0.62,0.8H137.71z M129.35,86.62c-0.42,0-0.5-0.18-1.27-1.73c-0.2-0.42-0.48-1-0.7-1.31
				c-0.02-0.04-0.26-0.32-0.26-0.34c0-0.06,0.08-0.08,0.12-0.08c0.36,0,1.41,0.68,1.73,0.9c0.56,0.42,1.08,1.1,1.08,1.61
				C130.05,86.08,129.85,86.62,129.35,86.62z M130.23,89.79c-0.62,0-0.62,0.2-0.62,1.31c0,0.66,0.08,0.95,0.68,0.95h5.91
				c0.16,0,0.44,0,0.56-0.28c0.06-0.12,0.06-0.94,0.06-1.43c0-0.54-0.42-0.54-0.6-0.54H130.23z"/>
			<path class="st0" d="M149.96,85.46c0.26,0,0.5-0.02,0.82-0.3c0.46-0.44,0.52-0.5,0.62-0.5c0.22,0,1.1,0.86,1.1,1.08
				c0,0.18-0.4,0.86-0.44,1c-0.12,0.7-0.12,2.23-0.12,2.57c0,1.04,0.12,5.66,0.12,6.59c0,0.28,0,0.86-0.36,1.23
				c-0.26,0.26-0.68,0.46-0.84,0.46c-0.36,0-0.38-0.46-0.38-0.58c0-0.48,0-0.62-0.56-0.62h-1.15c-0.44,0-0.56,0.28-0.56,0.56
				c0,0.06,0,0.86-0.02,0.98c-0.06,0.52-0.72,1.19-1.02,1.19c-0.54,0-0.54-0.46-0.54-0.64s0.08-1.47,0.08-1.75
				c0.06-2.13,0.1-3.56,0.1-9.18c0-0.42-0.06-2.29-0.06-2.65c0-0.1,0-0.22,0.12-0.22c0.14,0,0.48,0.2,0.9,0.44
				c0.5,0.3,0.68,0.34,1.1,0.34H149.96z M149.92,95.86c0.18,0,0.48,0,0.6-0.26c0.06-0.14,0.06-1.75,0.06-2.17
				c0-0.72,0-2.01-0.06-2.15c-0.06-0.12-0.2-0.26-0.46-0.26h-1.37c-0.52,0-0.52,0.16-0.52,1.81c0,0.56,0,2.63,0.08,2.77
				c0.06,0.2,0.28,0.26,0.48,0.26H149.92z M148.77,86c-0.16,0-0.3,0.02-0.42,0.16c-0.16,0.2-0.16,3.07-0.16,3.54
				c0,0.44,0,0.8,0.56,0.8h1.23c0.12,0,0.42,0,0.54-0.26c0.08-0.2,0.08-2.29,0.08-2.69c0-1.45,0-1.55-0.58-1.55H148.77z
				 M160.25,89.98c0.94,0,1.04,0,1.35-0.5c0.14-0.22,0.5-0.8,0.82-0.8c0.1,0,0.64,0.44,0.8,0.56c0.94,0.78,1,0.82,1,0.98
				c0,0.28-0.42,0.28-1.08,0.28h-7.57c-0.94,0-1.77,0.02-2.15,0.06c-0.08,0-0.38,0.04-0.44,0.04s-0.1-0.04-0.16-0.12l-0.4-0.46
				c-0.08-0.1-0.08-0.1-0.08-0.14c0-0.04,0.02-0.04,0.06-0.04c0.16,0,0.78,0.06,0.9,0.06c0.7,0.04,1.71,0.08,2.37,0.08h0.78
				c0.6,0,0.6-0.4,0.6-0.64c0-0.42,0-1.53-0.02-1.89c-0.02-0.5-0.34-0.5-0.54-0.5c-0.64,0-1.67,0-2.25,0.04
				c-0.06,0-0.36,0.06-0.42,0.06c-0.08,0-0.12-0.06-0.18-0.14l-0.38-0.46c-0.08-0.08-0.1-0.1-0.1-0.12c0-0.04,0.04-0.06,0.08-0.06
				c0.14,0,0.76,0.06,0.88,0.08c0.72,0.02,1.61,0.06,2.31,0.06c0.22,0,0.6,0,0.6-0.5c0-0.9-0.04-1.67-0.12-2.23
				c-0.02-0.1-0.08-0.48-0.08-0.56c0-0.12,0.08-0.16,0.16-0.16c0.02,0,2.13,0.6,2.13,0.86c0,0.1-0.44,0.44-0.5,0.52
				c-0.14,0.16-0.14,0.58-0.14,0.8c0,1.21,0,1.27,0.86,1.27c0.82,0,1.13,0.02,1.39-0.36c0.56-0.78,0.56-0.78,0.72-0.78
				c0.26,0,1.77,1.28,1.77,1.46c0,0.22-0.1,0.22-0.98,0.22h-3.15c-0.56,0-0.56,0.32-0.56,0.8c0,1.65,0,1.83,0.06,1.97
				c0.1,0.26,0.38,0.26,0.52,0.26H160.25z M161.03,93.97c-0.6,0-0.68,0.18-0.68,0.72c0,0.78,0.1,4.2,0.1,4.9
				c0,1.56-1.67,1.63-1.95,1.63c-0.2,0-0.28-0.02-0.28-0.24c0-0.52,0-0.8-0.84-1.1c-0.2-0.06-1.08-0.28-1.25-0.34
				c-0.08-0.04-0.32-0.16-0.32-0.24c0-0.08,0.12-0.14,0.3-0.14c0.08,0,1.91,0.22,2.27,0.22c0.34,0,0.44-0.04,0.52-0.32
				c0.04-0.16,0.06-0.4,0.06-2.47c0-2.57-0.02-2.61-0.68-2.61h-1.65c-0.44,0-1.83,0-2.53,0.04c-0.06,0.02-0.36,0.06-0.42,0.06
				c-0.08,0-0.12-0.06-0.18-0.14l-0.38-0.46c-0.08-0.08-0.1-0.1-0.1-0.12c0-0.04,0.04-0.06,0.08-0.06c0.14,0,0.76,0.06,0.88,0.08
				c0.92,0.04,1.83,0.06,2.75,0.06h1.57c0.58,0,0.58-0.34,0.58-0.68c0-0.26-0.1-1.61-0.1-1.65c0-0.16,0.04-0.24,0.16-0.24
				c0.12,0,2.01,0.54,2.01,0.94c0,0.12-0.5,0.5-0.54,0.6c-0.04,0.08-0.1,0.22-0.1,0.6c0,0.34,0.18,0.42,0.38,0.42
				c0.24,0,0.3-0.08,0.8-0.76c0.18-0.26,0.4-0.52,0.62-0.52c0.1,0,0.18,0.06,0.8,0.56c0.94,0.76,1,0.82,1,0.98
				c0,0.28-0.4,0.28-1.06,0.28H161.03z M156.51,98.25c-0.44,0-0.56-0.22-0.98-0.94c-0.54-0.88-1.47-1.55-1.79-1.77
				c-0.08-0.06-0.72-0.52-0.72-0.54c0-0.1,0.1-0.12,0.16-0.12c0.4,0,4.04,0.7,4.04,2.65C157.21,97.77,156.97,98.25,156.51,98.25z"/>
			<path class="st0" d="M168.06,92.02c0-0.78,0.55-1.36,1.29-1.36c0.79,0,1.29,0.62,1.29,1.36s-0.51,1.27-1.29,1.27
				C168.69,93.29,168.06,92.8,168.06,92.02z M168.06,98.81c0-0.78,0.55-1.36,1.29-1.36c0.79,0,1.29,0.62,1.29,1.36
				s-0.51,1.27-1.29,1.27C168.69,100.08,168.06,99.59,168.06,98.81z"/>
			<path class="st0" d="M178.94,89.09c0-1.57-0.07-2.08-1.11-2.17l-1.11-0.09c-0.18-0.09-0.21-0.42-0.02-0.51
				c1.94-0.35,3.21-0.95,3.81-1.34c0.09,0,0.18,0.05,0.23,0.12c-0.05,0.42-0.09,1.57-0.09,2.88v8.96c0,1.78,0.05,2.17,0.99,2.24
				l0.97,0.07c0.14,0.14,0.12,0.5-0.05,0.57c-0.9-0.05-1.94-0.05-2.75-0.05c-0.83,0-1.87,0-2.77,0.05
				c-0.16-0.07-0.18-0.43-0.05-0.57l0.95-0.07c0.97-0.07,0.99-0.46,0.99-2.24V89.09z"/>
			<path class="st0" d="M197.56,92.53c0,3.63-1.4,7.55-4.77,7.55c-3.37,0-4.77-3.92-4.77-7.55c0-3.49,1.4-7.55,4.77-7.55
				C196.15,84.98,197.56,89.03,197.56,92.53z M190.06,92.53c0,2.17,0.18,6.87,2.72,6.87s2.72-4.69,2.72-6.87
				c0-2.17-0.18-6.87-2.72-6.87S190.06,90.35,190.06,92.53z"/>
			<path class="st0" d="M208.57,85.62c0,0.2-0.14,0.24-0.56,0.34c-0.2,0.06-0.56,0.64-1,1.37c-2.33,3.84-5.52,5.56-5.97,5.56
				c-0.08,0-0.12-0.04-0.12-0.12c0-0.12,0.04-0.14,0.42-0.44c2.71-2.13,4.24-5.46,4.52-6.07c0.14-0.3,0.66-2.01,0.68-2.01
				C206.68,84.19,208.57,85.27,208.57,85.62z M210.51,91.48c-0.52,0-0.52,0.04-0.64,1.1c-0.18,1.77-0.56,5.24-4.06,7.19
				c-1.65,0.92-3.74,1.31-3.84,1.31c-0.06,0-0.24,0-0.24-0.14c0-0.1,0.1-0.14,0.46-0.26c1.39-0.5,2.99-1.45,3.96-2.43
				c1.49-1.51,2.27-4.24,2.27-6.33c0-0.44-0.2-0.44-0.5-0.44h-0.6c-0.74,0-1.71,0.02-2.07,0.04c-0.08,0.02-0.36,0.06-0.42,0.06
				c-0.08,0-0.12-0.06-0.18-0.14l-0.4-0.46c-0.06-0.08-0.08-0.1-0.08-0.12c0-0.04,0.02-0.06,0.08-0.06c0.14,0,0.74,0.08,0.88,0.08
				c0.98,0.04,1.81,0.06,2.75,0.06h4.4c0.9,0,1-0.04,1.33-0.38c0.3-0.32,0.48-0.44,0.62-0.44c0.32,0,1.49,0.92,1.49,1.35
				c0,0.1-0.32,0.46-0.36,0.54c-0.1,0.2-0.22,2.49-0.26,2.95c-0.22,2.43-0.38,4.08-0.94,4.98c-0.54,0.86-1.75,1.21-2.05,1.21
				c-0.22,0-0.22-0.06-0.38-0.62c-0.12-0.46-0.8-0.72-1.85-1.02c-0.44-0.12-0.66-0.2-0.66-0.32s0.18-0.12,0.22-0.12
				c0.14,0,0.68,0.12,0.78,0.14c1.06,0.14,1.19,0.16,1.43,0.16c0.96,0,1.51-0.18,1.79-2.25c0.2-1.55,0.4-3.88,0.4-4.9
				c0-0.54-0.04-0.72-0.6-0.72H210.51z M211.52,85.01c-0.5,0-1.19,0.02-1.61,0.04c-0.06,0-0.34,0.04-0.4,0.04s-0.08-0.02-0.16-0.12
				l-0.38-0.46c-0.04-0.04-0.06-0.1-0.06-0.14c0-0.02,0.02-0.04,0.06-0.04c0.12,0,0.7,0.08,0.82,0.08c0.22,0.02,1.06,0.06,1.21,0.06
				c0.46,0,0.72-0.34,0.84-0.52c0.4-0.56,0.44-0.62,0.6-0.62c0.26,0,1.75,1,1.75,1.45c0,0.2-0.06,0.22-0.6,0.36
				c-0.1,0.02-0.4,0.12-0.4,0.42c0,1.04,2.65,4.24,6.05,4.58c0.06,0,0.3,0.04,0.3,0.16c0,0.1-0.52,0.22-0.6,0.24
				c-0.52,0.26-0.96,0.62-1.23,0.92c-0.04,0.06-0.26,0.3-0.32,0.3c-0.68,0-4-2.77-4.8-5.81c-0.22-0.86-0.26-0.94-0.72-0.94H211.52z"
				/>
			<path class="st0" d="M224.05,83.87c-0.16-0.18-0.98-1.06-0.98-1.19c0-0.04,0.04-0.12,0.14-0.12c0.2,0,4.84,3.33,4.84,9.56
				s-4.64,9.56-4.84,9.56c-0.1,0-0.14-0.08-0.14-0.12c0-0.12,0.82-1,0.98-1.19c0.8-1,2.89-3.88,2.89-8.26
				C226.95,87.74,224.86,84.87,224.05,83.87z"/>
		</g>
	</g>
	<g>
		<path class="st0" d="M10.31,5.99c0.64,0,0.94,0.2,0.94,0.7c0,0.5-0.27,0.74-0.94,0.74h-8c-0.9,0-0.9,0.2-0.9,4.22
			c0,3.75,0.03,20.39,0.03,23.8c0,0.77-0.17,1.07-0.7,1.07C0,36.52,0,36.29,0,34.31V7.36c0-0.94,0.54-1.37,1.44-1.37H10.31z"/>
		<path class="st0" d="M23.03,17.41c-2.95,0-3.88,0.07-4.22,0.1c-0.13,0-0.6,0.07-0.7,0.07c-0.13,0-0.2-0.07-0.3-0.2l-0.64-0.77
			c-0.13-0.17-0.17-0.17-0.17-0.23s0.07-0.07,0.13-0.07c0.23,0,1.27,0.1,1.47,0.1c1.64,0.07,3.01,0.13,4.59,0.13h5.79
			c1.04,0,1.14,0,1.14-4.72c0-0.8,0-2.58-0.2-4.62c-0.03-0.2-0.13-0.97-0.13-1.14c0-0.17,0-0.27,0.2-0.27
			c0.54,0,3.05,0.64,3.48,0.77c0.44,0.1,0.74,0.27,0.74,0.6c0,0.27-0.17,0.47-0.54,0.77c-0.64,0.54-0.64,0.7-0.7,2.28
			c-0.03,0.87-0.27,4.75-0.27,5.56c0,0.77,0.6,0.77,1.14,0.77h5.79c1.54,0,1.71,0,2.14-0.57c1.07-1.37,1.21-1.51,1.61-1.51
			c0.74,0,3.41,2.14,3.41,2.48c0,0.47-0.67,0.47-1.77,0.47H34.35c-0.74,0-0.97,0-0.97,0.54c0,2.04,4.35,11.99,13.83,15.7
			c0.9,0.37,0.9,0.37,0.9,0.5c0,0.23-0.17,0.27-0.67,0.3c-1.04,0.07-1.91,0.17-3.01,0.64c-0.17,0.1-0.9,0.6-1.1,0.6
			c-0.6,0-3.58-2.68-5.36-5.22c-2.44-3.48-4.22-7.26-5.22-11.35c-0.03-0.2-0.17-0.67-0.23-0.67c-0.1,0-0.1,0.1-0.23,0.8
			C31.6,23,30.37,29.96,21.73,34.78c-2.48,1.41-4.72,1.81-4.99,1.81c-0.07,0-0.2-0.03-0.2-0.13c0-0.17,0.74-0.5,1.07-0.67
			c2.34-1.1,9.34-5.19,11.65-14.26c0.37-1.51,0.54-3.28,0.54-3.38c0-0.74-0.37-0.74-0.9-0.74H23.03z"/>
		<path class="st0" d="M75.13,16.27c1.61,0,1.77,0,2.24-0.77c0.67-1.1,0.87-1.31,1.17-1.31c0.4,0,2.71,2.21,2.71,2.48
			c0,0.5-0.64,0.5-1.77,0.5h-8.87c-0.9,0-0.94,0.57-0.94,1.07c0,0.4,0,4.32,0.1,4.52c0.2,0.44,0.67,0.44,0.87,0.44h6.33
			c1.57,0,1.74,0,2.14-0.54c1.07-1.47,1.21-1.64,1.61-1.64c0.57,0,2.88,2.28,2.88,2.61c0,0.47-0.67,0.47-1.77,0.47H70.64
			c-0.87,0-0.97,0.47-0.97,1c0,1.07,0.03,5.73,0.03,6.7c0,1.1-0.03,2.34-1.44,3.48c-0.84,0.64-1.67,0.77-2.24,0.77
			c-0.54,0-0.54-0.07-0.67-1c-0.13-0.74-1.34-1.44-2.51-1.91c-0.1-0.03-0.3-0.13-0.3-0.23c0-0.17,0.2-0.17,0.3-0.17
			c3.48,0,3.85,0,4.12-0.47c0.27-0.47,0.33-0.77,0.33-7.16c0-0.37,0-1-0.94-1h-7.3c-2.91,0-3.88,0.07-4.22,0.07
			c-0.1,0.03-0.6,0.1-0.7,0.1c-0.13,0-0.2-0.1-0.3-0.23l-0.64-0.77c-0.13-0.13-0.17-0.17-0.17-0.2c0-0.07,0.07-0.1,0.13-0.1
			c0.23,0,1.27,0.13,1.47,0.13c1.64,0.07,3.01,0.1,4.59,0.1h7.13c0.2,0,0.67,0,0.87-0.4c0.1-0.2,0.1-4.12,0.1-4.55
			c0-0.47-0.03-1.07-0.97-1.07h-5.22c-2.91,0-3.88,0.03-4.22,0.07c-0.1,0-0.6,0.1-0.7,0.1c-0.13,0-0.2-0.1-0.3-0.23l-0.64-0.77
			c-0.07-0.07-0.17-0.17-0.17-0.2c0-0.07,0.07-0.1,0.13-0.1c0.23,0,1.27,0.13,1.47,0.13c1.64,0.1,3.01,0.1,4.59,0.1h5.06
			c0.94,0,0.94-0.6,0.94-1.04c0-4.89,0-5.02-1.21-5.02c-0.37,0-4.08,0.17-4.85,0.17c-0.54,0-5.22-0.03-5.22-0.44
			c0-0.1,1.14-0.2,1.37-0.23c4.52-0.37,11.52-1.1,15.3-2.48c0.8-0.3,1.07-0.44,2.11-0.97c0.07-0.03,0.23-0.1,0.33-0.1
			c0.2,0,1.57,1.1,1.87,1.34c1.14,0.8,1.21,0.84,1.21,1.1c0,0.57-0.37,0.6-3.01,0.77c-0.84,0.03-4.39,0.33-5.02,0.7
			c-0.54,0.3-0.54,0.64-0.54,3.55c0,2.38,0,2.64,0.97,2.64H75.13z"/>
		<path class="st0" d="M94.55,25.81c-0.57,0-0.87,0.2-0.97,0.6c-0.03,0.33,0.03,2.01,0.03,2.38c0,0.44,0,1.61-1.94,1.61
			c-0.64,0-0.67-0.33-0.67-0.67c0-0.27,0.07-1.57,0.07-1.88c0.03-2.11,0.1-5.02,0.1-10.08c0-3.65-0.1-7.2-0.23-9.01
			c0-0.2-0.13-1.27-0.13-1.51c0-0.13,0.1-0.23,0.23-0.23c0.2,0,0.37,0.07,1.88,0.77c0.74,0.37,1.37,0.37,1.88,0.37h5.32
			c0.64,0,0.87-0.1,1.14-0.44c0.47-0.54,0.57-0.64,0.8-0.64c0.5,0,2.34,1.61,2.34,2.11c0,0.17-0.47,0.94-0.54,1.14
			c-0.3,0.64-0.3,1.71-0.3,2.31c0,2.14,0.27,12.25,0.27,13.99c0,1.27-1,1.84-1.77,1.84c-0.74,0-0.74-0.47-0.74-1.77
			c0-0.54,0-0.9-0.84-0.9H94.55z M95.55,16.24c0.84,0,0.84-0.33,0.84-1.37c0-0.7-0.03-4.89-0.1-5.29c-0.1-0.44-0.4-0.5-0.8-0.5
			h-1.31c-0.23,0-0.6,0-0.74,0.37c-0.1,0.2-0.1,2.81-0.1,3.25c0,0.4,0,2.98,0.1,3.21c0.13,0.33,0.54,0.33,0.74,0.33H95.55z
			 M94.21,17.14c-0.74,0-0.8,0.4-0.8,1c0,0.8,0.07,5.99,0.13,6.29c0.1,0.47,0.54,0.47,0.77,0.47h1.27c0.17,0,0.57,0,0.7-0.33
			c0.13-0.3,0.13-3.31,0.13-3.88c0-3.45,0-3.55-0.84-3.55H94.21z M99.43,9.07c-0.27,0-0.64,0-0.84,0.3c-0.1,0.2-0.1,3.21-0.1,3.62
			c0,0.47,0,2.75,0.1,2.95c0.2,0.3,0.6,0.3,0.84,0.3h1.07c0.8,0,0.9-0.3,0.9-0.97c0-0.37-0.03-5.42-0.07-5.56
			c-0.03-0.64-0.57-0.64-0.9-0.64H99.43z M99.43,17.14c-0.67,0-0.9,0.13-0.9,1c0,0.67,0,6.09,0.17,6.46c0.17,0.3,0.47,0.3,0.9,0.3
			h0.87c0.94,0,0.94-0.07,0.94-2.78c0-0.6,0-4.35-0.03-4.49c-0.13-0.5-0.47-0.5-0.87-0.5H99.43z M105.26,8.77
			c-0.13-0.13-0.13-0.17-0.13-0.2c0-0.07,0.03-0.07,0.1-0.07c0.17,0,0.87,0.07,1.04,0.07c3.01,0.13,3.35,0.13,4.55,0.13h2.78
			c1.41,0,1.54,0,2.18-0.97c0.67-1.04,0.77-1.17,0.84-1.24s0.17-0.1,0.23-0.1c0.44,0,3.38,2.51,3.38,2.78
			c0,0.44-0.74,0.44-1.81,0.44h-3.35c-1.07,0-1.07,0.64-1.07,1.17c0,1.44,0.03,5.46,0.1,12.22c0,1.41,0.23,7.63,0.23,8.91
			c0,1.04,0,2.48-1.34,3.45c-0.77,0.54-1.64,0.77-2.58,0.77c-0.44,0-0.47-0.1-0.6-1c-0.07-0.6-0.94-1.41-1.54-1.57
			c-0.4-0.13-2.24-0.6-2.61-0.7c-0.13-0.07-0.3-0.17-0.3-0.3c0-0.1,0.07-0.27,0.3-0.27c0.17,0,2.24,0.27,2.68,0.33
			c0.17,0,2.18,0.1,2.34,0.1c1.04,0,1.04-0.7,1.04-1.74c0-1.54-0.2-19.02-0.23-20.12c-0.03-1.21-0.3-1.24-1.37-1.24
			c-0.33,0-2.01,0-3.21,0.1c-0.1,0-0.6,0.07-0.7,0.07c-0.1,0-0.17-0.07-0.3-0.23L105.26,8.77z"/>
		<path class="st0" d="M126.15,36.19c-0.64,0-0.94-0.2-0.94-0.7c0-0.5,0.27-0.74,0.94-0.74h8c0.9,0,0.9-0.2,0.9-4.22
			c0-3.75-0.03-20.39-0.03-23.8c0-0.77,0.17-1.07,0.7-1.07c0.7,0,0.7,0.23,0.7,2.21v26.95c0,0.94-0.5,1.37-1.41,1.37H126.15z"/>
		<path class="st0" d="M146.44,31.54c0,0.56,0,2.33-1.02,2.33c-0.46,0-0.8-0.43-0.8-0.96c0-0.24,0.27-1.39,0.29-1.5
			c0.16-0.75,0.29-1.69,0.29-2.28c0-1.13,0-1.21,0.16-1.21c0.03,0,0.11,0.03,0.16,0.05C145.93,28.21,146.44,29.98,146.44,31.54z
			 M152.76,24.52c0.62,0,0.67,0,0.97-0.27c0.35-0.32,0.54-0.51,0.7-0.51c0.29,0,1.69,0.96,1.69,1.42c0,0.16-0.05,0.21-0.51,0.8
			c-0.08,0.11-0.16,0.29-0.21,0.91c-0.03,0.35-0.21,3.03-0.88,5.44c-0.64,2.36-2.65,3.29-3.19,3.29c-0.24,0-0.35-0.05-0.72-0.7
			c-0.16-0.24-0.4-0.51-0.53-0.61c-0.05-0.05-0.46-0.35-0.46-0.45s0.3-0.11,0.54-0.11c1.87,0,2.25-0.78,2.38-1.07
			c0.83-1.71,1.34-5.47,1.34-6.78c0-0.64-0.46-0.64-0.83-0.64h-4.71c-0.21,0-0.43,0.05-0.56,0.24c-0.37,0.51-0.45,0.64-1.1,0.64
			c-0.61,0-0.83-0.21-0.83-0.83c0-0.43,0.19-6.05,0.19-6.96c0-1.04-0.03-3.48-0.11-4.45c-0.03-0.16-0.16-1.07-0.16-1.26
			c0-0.11,0-0.16,0.08-0.16c0.13,0,1.36,0.51,1.63,0.62c0.38,0.13,0.75,0.19,1.15,0.19h3c1.1,0,1.42,0,1.69-0.46
			c0.38-0.67,0.51-0.86,0.86-0.86c0.29,0,1.98,1.26,1.98,1.66c0,0.37-0.56,0.37-1.44,0.37h-2.49c-0.83,0-0.83,0.19-0.83,1.61
			c0,0.94,0.05,1.34,0.75,1.34c0.56,0,0.72,0,0.94-0.43c0.19-0.32,0.48-0.86,0.88-0.86c0.37,0,1.6,1.29,1.6,1.63
			c0,0.37-0.45,0.37-1.23,0.37h-2.17c-0.78,0-0.78,0.13-0.78,2.25c0,0.72,0.59,0.72,0.78,0.72c0.4,0,0.56,0,0.78-0.43
			c0.13-0.29,0.4-0.86,0.83-0.86c0.43,0,1.69,1.29,1.69,1.66c0,0.37-0.54,0.37-1.42,0.37h-1.82c-0.83,0-0.83,0.21-0.83,2.39
			c0,0.7,0.4,0.75,0.8,0.75H152.76z M149.22,31.64c0,0.86-0.45,1.13-0.76,1.13c-0.66,0-0.76-0.7-0.79-1.69
			c-0.03-0.75-0.14-1.55-0.33-2.38c-0.06-0.19-0.08-0.46-0.08-0.64c0-0.24,0.11-0.29,0.27-0.24
			C148.3,28.11,149.22,30.79,149.22,31.64z M149.23,16.94c0.78,0,0.78-0.43,0.78-1.45c0-1.15,0-1.5-0.8-1.5h-0.78
			c-0.8,0-0.8,0.38-0.8,1.48c0,1.1,0,1.47,0.8,1.47H149.23z M149.23,20.66c0.78,0,0.78-0.4,0.78-1.47c0-1.15,0-1.53-0.78-1.53h-0.8
			c-0.8,0-0.8,0.38-0.8,1.53c0,1.07,0,1.47,0.78,1.47H149.23z M149.14,24.52c0.86,0,0.86-0.35,0.86-1.55c0-1.18,0-1.58-0.78-1.58
			h-0.75c-0.86,0-0.86,0.35-0.86,1.56s0,1.58,0.83,1.58H149.14z M150.46,31.35c-0.4,0-0.4-0.35-0.45-1.34
			c-0.03-0.48-0.13-1.23-0.29-1.93c-0.05-0.19-0.16-0.86-0.16-0.96c0-0.13,0-0.29,0.11-0.29c0.27,0,1.68,1.53,1.68,2.92
			C151.34,30.84,150.75,31.35,150.46,31.35z M153.05,28.8c0,0.48-0.24,0.88-0.62,0.88c-0.48,0-0.51-0.16-0.75-1.74
			c-0.05-0.38-0.16-0.78-0.35-1.23c-0.03-0.11-0.05-0.19-0.05-0.29c0-0.13,0.05-0.21,0.19-0.19
			C151.87,26.28,153.05,27.7,153.05,28.8z M165.05,13.22c0.4,0,0.56-0.08,0.72-0.29c0.38-0.56,0.59-0.86,0.8-0.86
			c0.24,0,1.63,1.1,1.63,1.45c0,0.19-0.51,1.02-0.59,1.23c-0.08,0.32-0.08,2.65-0.08,3.13c0,0.51,0.08,3,0.08,3.56
			c0,0.7-0.72,1.18-1.34,1.18c-0.56,0-0.59-0.27-0.67-0.86c-0.03-0.32-0.05-0.54-0.72-0.54h-1.04c-0.19,0-0.75,0-0.75,0.67
			c0,0.13,0.03,0.27,0.05,0.43c0.38,2.46,1.34,7.34,4.42,10.42c0.27,0.24,1.63,1.45,1.63,1.55c0,0.11-0.16,0.13-0.27,0.13
			c-0.11,0-0.54-0.05-0.64-0.05c-0.27,0-0.88,0.03-1.47,0.13c-0.11,0.03-0.62,0.24-0.67,0.24c-0.13,0-0.29-0.29-0.38-0.4
			c-2.6-4.34-3.11-7.63-3.38-12.03c-0.08-1.07-0.13-1.1-0.78-1.1h-1.5c-0.8,0-0.8,0.16-0.8,1.63c0,3.62-1.04,8.14-3.16,11.06
			c-0.21,0.32-1.29,1.61-1.58,1.61c-0.11,0-0.16-0.08-0.16-0.13c0-0.11,0.83-1.42,0.99-1.69c2.33-4.37,2.33-10.1,2.33-12.19
			c0-1.39-0.03-5.17-0.38-7.77c-0.03-0.16-0.16-0.91-0.16-1.1c0-0.08,0-0.27,0.11-0.27c0.27,0,1.44,0.56,1.63,0.62
			c0.16,0.05,0.59,0.21,1.1,0.21H165.05z M160.04,13.91c-0.29,0-0.59,0.21-0.64,0.4c-0.11,0.29-0.11,4.74-0.11,5.28
			s0.05,0.94,0.8,0.94h4.82c0.19,0,0.54,0,0.7-0.29c0.19-0.29,0.19-4.88,0.19-5.3c0-0.75-0.11-1.02-0.83-1.02H160.04z"/>
		<path class="st0" d="M184.85,20.9c3.24,3.24,5.89,4.42,7.5,5.14c1.26,0.59,2.36,1.18,2.36,1.96c0,0.16-0.24,1.02-0.99,1.02
			c-0.24,0-2.65-0.08-6.64-3.91c-0.64-0.62-3.51-3.51-4.1-4.07c-0.62-0.59-1.07-0.94-1.5-0.94c-0.88,0-1.13,0.24-3.32,2.38
			c-0.19,0.19-2.14,2.04-2.2,2.06c-0.11,0.08-0.27,0.13-0.43,0.13c-1.02,0-2.6-1.26-2.6-1.71c0-0.11,0.05-0.13,0.51-0.19
			c1.23-0.11,3.19-1.13,4.37-2.06c2.25-1.79,2.79-1.98,3.7-1.98C182.2,18.73,183.08,19.13,184.85,20.9z"/>
		<path class="st0" d="M210.57,10.28c0-3.93-0.17-5.2-2.77-5.43l-2.77-0.23c-0.46-0.23-0.52-1.04-0.06-1.27
			c4.85-0.87,8.03-2.37,9.53-3.35c0.23,0,0.46,0.12,0.58,0.29c-0.12,1.04-0.23,3.93-0.23,7.22v22.41c0,4.45,0.12,5.43,2.48,5.6
			l2.43,0.17c0.35,0.35,0.29,1.27-0.12,1.44c-2.25-0.12-4.85-0.17-6.87-0.17c-2.08,0-4.68,0.06-6.93,0.17
			c-0.4-0.17-0.46-1.1-0.12-1.44l2.37-0.17c2.43-0.17,2.48-1.15,2.48-5.6V10.28z"/>
		<path class="st0" d="M236.43,10.28c0-3.93-0.17-5.2-2.77-5.43l-2.77-0.23c-0.46-0.23-0.52-1.04-0.06-1.27
			c4.85-0.87,8.03-2.37,9.53-3.35c0.23,0,0.46,0.12,0.58,0.29c-0.12,1.04-0.23,3.93-0.23,7.22v22.41c0,4.45,0.12,5.43,2.48,5.6
			l2.42,0.17c0.35,0.35,0.29,1.27-0.12,1.44c-2.25-0.12-4.85-0.17-6.87-0.17c-2.08,0-4.68,0.06-6.93,0.17
			c-0.4-0.17-0.46-1.1-0.12-1.44l2.37-0.17c2.43-0.17,2.48-1.15,2.48-5.6V10.28z"/>
		<path class="st0" d="M270.61,10.24c0,0.33-0.23,0.4-0.94,0.57c-0.33,0.1-0.94,1.07-1.67,2.28c-3.88,6.39-9.21,9.27-9.94,9.27
			c-0.13,0-0.2-0.07-0.2-0.2c0-0.2,0.07-0.23,0.7-0.74c4.52-3.55,7.06-9.11,7.53-10.11c0.23-0.5,1.1-3.35,1.14-3.35
			C267.47,7.87,270.61,9.67,270.61,10.24z M273.86,20.02c-0.87,0-0.87,0.07-1.07,1.84c-0.3,2.95-0.94,8.74-6.76,11.99
			c-2.75,1.54-6.23,2.18-6.4,2.18c-0.1,0-0.4,0-0.4-0.23c0-0.17,0.17-0.23,0.77-0.44c2.31-0.84,4.99-2.41,6.59-4.05
			c2.48-2.51,3.78-7.06,3.78-10.55c0-0.74-0.33-0.74-0.84-0.74h-1c-1.24,0-2.85,0.03-3.45,0.07c-0.13,0.03-0.6,0.1-0.7,0.1
			c-0.13,0-0.2-0.1-0.3-0.23l-0.67-0.77c-0.1-0.13-0.13-0.17-0.13-0.2c0-0.07,0.03-0.1,0.13-0.1c0.23,0,1.24,0.13,1.47,0.13
			c1.64,0.07,3.01,0.1,4.59,0.1h7.33c1.51,0,1.67-0.07,2.21-0.64c0.5-0.54,0.8-0.74,1.04-0.74c0.54,0,2.48,1.54,2.48,2.24
			c0,0.17-0.54,0.77-0.6,0.9c-0.17,0.33-0.37,4.15-0.44,4.92c-0.37,4.05-0.64,6.8-1.57,8.3c-0.9,1.44-2.91,2.01-3.42,2.01
			c-0.37,0-0.37-0.1-0.64-1.04c-0.2-0.77-1.34-1.21-3.08-1.71c-0.74-0.2-1.11-0.33-1.11-0.54c0-0.2,0.3-0.2,0.37-0.2
			c0.23,0,1.14,0.2,1.31,0.23c1.77,0.23,1.97,0.27,2.38,0.27c1.61,0,2.51-0.3,2.98-3.75c0.33-2.58,0.67-6.46,0.67-8.17
			c0-0.9-0.07-1.21-1-1.21H273.86z M275.54,9.24c-0.84,0-1.98,0.03-2.68,0.07c-0.1,0-0.57,0.07-0.67,0.07c-0.1,0-0.13-0.03-0.27-0.2
			l-0.64-0.77c-0.07-0.07-0.1-0.17-0.1-0.23c0-0.03,0.03-0.07,0.1-0.07c0.2,0,1.17,0.13,1.37,0.13c0.37,0.03,1.77,0.1,2.01,0.1
			c0.77,0,1.21-0.57,1.41-0.87c0.67-0.94,0.74-1.04,1-1.04c0.44,0,2.91,1.67,2.91,2.41c0,0.33-0.1,0.37-1,0.6
			c-0.17,0.03-0.67,0.2-0.67,0.7c0,1.74,4.42,7.06,10.08,7.63c0.1,0,0.5,0.07,0.5,0.27c0,0.17-0.87,0.37-1,0.4
			c-0.87,0.44-1.61,1.04-2.04,1.54c-0.07,0.1-0.44,0.5-0.54,0.5c-1.14,0-6.66-4.62-8-9.68c-0.37-1.44-0.44-1.57-1.21-1.57H275.54z"
			/>
	</g>
</g>
</svg>
