<?xml version="1.0" encoding="utf-8"?>
<!-- Generator: Adobe Illustrator 24.0.0, SVG Export Plug-In . SVG Version: 6.00 Build 0)  -->
<svg version="1.1" id="Layer_1" xmlns="http://www.w3.org/2000/svg" xmlns:xlink="http://www.w3.org/1999/xlink" x="0px" y="0px"
	 viewBox="0 0 226.87 102.5" style="enable-background:new 0 0 226.87 102.5;" xml:space="preserve">
<style type="text/css">
	.st0{fill:#FFFFFF;}
</style>
<g>
	<g>
		<g>
			<path class="st0" d="M47.84,61.84c0-2.56-0.23-2.84-1.59-2.96l-0.58-0.04c-0.14-0.09-0.09-0.51,0.05-0.58
				c1.34,0.05,2.13,0.06,3.09,0.06c0.92,0,1.71-0.01,2.63-0.06c0.14,0.07,0.18,0.48,0.05,0.58l-0.35,0.04
				c-1.36,0.19-1.41,0.51-1.41,2.96v8.57c0,1.82-0.09,3.42-0.53,4.48c-0.76,1.85-2.4,3.32-4.54,3.32c-0.28,0-0.99-0.02-0.99-0.48
				c0-0.39,0.35-1.06,0.83-1.06c0.28,0,0.55,0.04,0.85,0.14c0.32,0.09,0.65,0.16,0.97,0.16c0.49,0,0.76-0.28,0.92-0.6
				c0.53-1.09,0.6-4.55,0.6-5.79V61.84z"/>
			<path class="st0" d="M57.06,61.82c0-2.19-0.07-2.59-1.02-2.7l-0.74-0.09c-0.16-0.12-0.16-0.49,0.02-0.58
				c1.29-0.12,2.88-0.19,5.15-0.19c1.44,0,2.8,0.12,3.87,0.69c1.11,0.58,1.92,1.62,1.92,3.23c0,2.19-1.73,3.39-2.89,3.86
				c-0.12,0.13,0,0.36,0.12,0.54c1.85,2.99,3.07,4.84,4.65,6.16c0.39,0.35,0.97,0.6,1.59,0.65c0.12,0.05,0.14,0.23,0.02,0.32
				c-0.21,0.07-0.58,0.12-1.02,0.12c-1.96,0-3.14-0.58-4.78-2.92c-0.6-0.86-1.55-2.45-2.27-3.49c-0.35-0.51-0.72-0.74-1.64-0.74
				c-1.04,0-1.09,0.02-1.09,0.51v2.91c0,2.43,0.05,2.7,1.39,2.89l0.49,0.07c0.14,0.11,0.09,0.5-0.05,0.57
				c-1.04-0.04-1.83-0.05-2.75-0.05c-0.97,0-1.8,0-2.88,0.05c-0.14-0.07-0.18-0.41-0.05-0.57l0.58-0.07
				c1.34-0.16,1.39-0.46,1.39-2.89V61.82z M58.94,65.12c0,0.42,0,0.67,0.07,0.76c0.07,0.07,0.42,0.12,1.6,0.12
				c0.83,0,1.71-0.09,2.38-0.6c0.63-0.48,1.16-1.29,1.16-2.86c0-1.82-1.13-3.55-3.7-3.55c-1.44,0-1.5,0.09-1.5,0.74V65.12z"/>
			<path class="st0" d="M75.01,72.59c-0.58,0-0.58,0.38-0.58,0.72c0,0.58,0,1.22-0.94,1.22c-0.52,0-0.66-0.22-0.66-0.8
				c0-1.45,0.1-7.88,0.1-9.2c0-1.14,0-1.3-0.12-2.67c-0.02-0.1-0.06-0.54-0.06-0.64c0-0.14,0.02-0.18,0.18-0.18
				c0.06,0,2.05,0.38,2.05,0.8c0,0.14-0.06,0.2-0.36,0.52c-0.16,0.14-0.16,1.14-0.16,1.53c0,1.19-0.02,6.41-0.02,7.47
				c0,0.4,0.06,0.7,0.58,0.7h4.06c0.16,0,0.5,0,0.56-0.4c0.02-0.12,0.12-6.33,0.12-8.94c0-1.79-0.04-4.06-0.04-4.24
				c0-0.16-0.1-0.86-0.1-1c0-0.12,0.04-0.16,0.18-0.16s1.04,0.18,1.27,0.22c0.42,0.08,0.68,0.12,0.68,0.38
				c0,0.12-0.38,0.58-0.42,0.68c-0.08,0.22-0.1,0.42-0.1,0.86c-0.06,3.72-0.06,8.5-0.06,11.89c0,0.52,0.16,0.7,0.6,0.7h4.1
				c0.56,0,0.6-0.32,0.6-0.8c0-0.78,0.04-4.3,0.04-5c0-1.73-0.04-4.04-0.06-4.28c0-0.14-0.08-0.84-0.08-0.98
				c0-0.12,0.04-0.18,0.16-0.18c0.1,0,1.95,0.42,1.95,0.87c0,0.08-0.32,0.4-0.34,0.46C88,62.42,88,63.89,88,64.35
				c0,0.9,0.04,4.92,0.04,5.75c0,0.48,0.02,2.63,0.02,3.05c0,0.64-0.36,1.13-1.02,1.13c-0.58,0-0.6-0.44-0.6-1.06
				c0-0.32-0.04-0.62-0.58-0.62H75.01z"/>
			<path class="st0" d="M106.13,63.05c0.96,0,1.06,0,1.35-0.46c0.4-0.66,0.52-0.78,0.7-0.78c0.24,0,1.63,1.33,1.63,1.49
				c0,0.3-0.38,0.3-1.06,0.3h-5.32c-0.54,0-0.56,0.34-0.56,0.64c0,0.24,0,2.59,0.06,2.71c0.12,0.26,0.4,0.26,0.52,0.26h3.8
				c0.94,0,1.04,0,1.29-0.32c0.64-0.88,0.72-0.98,0.96-0.98c0.34,0,1.73,1.37,1.73,1.57c0,0.28-0.4,0.28-1.06,0.28h-6.71
				c-0.52,0-0.58,0.28-0.58,0.6c0,0.64,0.02,3.44,0.02,4.02c0,0.66-0.02,1.41-0.86,2.09c-0.5,0.38-1,0.46-1.35,0.46
				c-0.32,0-0.32-0.04-0.4-0.6c-0.08-0.44-0.8-0.86-1.51-1.14c-0.06-0.02-0.18-0.08-0.18-0.14c0-0.1,0.12-0.1,0.18-0.1
				c2.09,0,2.31,0,2.47-0.28c0.16-0.28,0.2-0.46,0.2-4.3c0-0.22,0-0.6-0.56-0.6h-4.38c-1.75,0-2.33,0.04-2.53,0.04
				c-0.06,0.02-0.36,0.06-0.42,0.06c-0.08,0-0.12-0.06-0.18-0.14l-0.38-0.46c-0.08-0.08-0.1-0.1-0.1-0.12
				c0-0.04,0.04-0.06,0.08-0.06c0.14,0,0.76,0.08,0.88,0.08c0.98,0.04,1.81,0.06,2.75,0.06h4.28c0.12,0,0.4,0,0.52-0.24
				c0.06-0.12,0.06-2.47,0.06-2.73c0-0.28-0.02-0.64-0.58-0.64h-3.13c-1.75,0-2.33,0.02-2.53,0.04c-0.06,0-0.36,0.06-0.42,0.06
				c-0.08,0-0.12-0.06-0.18-0.14l-0.38-0.46c-0.04-0.04-0.1-0.1-0.1-0.12c0-0.04,0.04-0.06,0.08-0.06c0.14,0,0.76,0.08,0.88,0.08
				c0.98,0.06,1.81,0.06,2.75,0.06h3.03c0.56,0,0.56-0.36,0.56-0.62c0-2.93,0-3.01-0.72-3.01c-0.22,0-2.45,0.1-2.91,0.1
				c-0.32,0-3.13-0.02-3.13-0.26c0-0.06,0.68-0.12,0.82-0.14c2.71-0.22,6.91-0.66,9.18-1.49c0.48-0.18,0.64-0.26,1.27-0.58
				c0.04-0.02,0.14-0.06,0.2-0.06c0.12,0,0.94,0.66,1.12,0.8c0.68,0.48,0.72,0.5,0.72,0.66c0,0.34-0.22,0.36-1.81,0.46
				c-0.5,0.02-2.63,0.2-3.01,0.42c-0.32,0.18-0.32,0.38-0.32,2.13c0,1.43,0,1.59,0.58,1.59H106.13z"/>
			<path class="st0" d="M117.67,65.9c0.66,0,1.49,0,1.99-0.02c0.54-0.02,0.54-0.08,0.54-0.2c0-0.22-0.46-1.27-0.46-1.3
				c0-0.04,0.06-0.1,0.14-0.1c0.28,0,1.93,1.31,1.93,2.45c0,0.56-0.38,0.86-0.78,0.86c-0.52,0-0.58-0.4-0.68-1
				c-0.04-0.3-0.06-0.36-0.22-0.36c-0.08,0-0.84,0.18-0.9,0.24c-0.1,0.1-0.1,1.41-0.1,1.75c0,0.86,0.1,4.7,0.1,5.48
				c0,0.8-0.6,1.21-1.06,1.21c-0.34,0-0.38-0.34-0.38-0.84c0-0.9,0.14-4.94,0.14-5.77c0-0.28,0-1.18-0.06-1.38
				c-0.04-0.16-0.1-0.2-0.36-0.2c-0.08,0-1.51,0.2-1.85,0.36c-0.1,0.04-0.48,0.34-0.58,0.34c-0.2,0-0.72-1.59-0.72-1.63
				c0-0.06,0.04-0.06,0.1-0.06c0.08,0,0.74,0.08,0.88,0.1c0.1,0,0.82,0.04,1,0.04c0.48,0,0.56-0.14,1.25-1.45
				c0.72-1.38,1.77-3.39,2.05-4.24c0.18-0.5,0.2-0.56,0.32-0.56c0.06,0,1.69,0.76,1.69,1.06c0,0.16-0.04,0.16-0.48,0.3
				c-0.26,0.08-0.46,0.24-0.6,0.42c-0.86,1.13-2.05,3.07-2.99,4.14c-0.08,0.08-0.14,0.22-0.1,0.28
				C117.47,65.88,117.59,65.9,117.67,65.9z M117.21,69.23c0,0.14-0.44,0.56-0.5,0.68c-0.44,0.82-1,2.23-1.53,3.03
				c-0.04,0.06-0.48,0.72-0.68,0.72c-0.02,0-0.08-0.02-0.08-0.08c0-0.06,0.6-1.85,0.68-2.15c0.4-1.57,0.42-2.51,0.42-2.67
				c0-0.36,0-0.42,0.12-0.42c0.12,0,0.62,0.22,0.78,0.28C116.93,68.85,117.21,69.01,117.21,69.23z M117.19,61.58
				c0.62,0.44,0.76,0.94,0.76,1.24c0,0.48-0.36,0.64-0.6,0.64c-0.12,0-0.26-0.04-0.44-0.2c-0.16-0.18-0.88-1.18-1.07-1.38
				c-0.18-0.18-1.1-1-1.1-1.04c0-0.08,0.08-0.1,0.16-0.1c0.2,0,1.14,0.34,1.37,0.34c0.14,0,0.18-0.08,0.46-0.74
				c0.24-0.56,0.82-1.95,0.82-3.33c0-0.08,0-0.22,0.12-0.22c0.02,0,1.87,0.6,1.87,1.02c0,0.06,0,0.18-0.08,0.22
				c-0.08,0.06-0.54,0.24-0.62,0.32c-0.24,0.22-1.13,1.56-1.35,1.87c-0.16,0.2-0.7,0.91-0.66,1.09
				C116.85,61.34,117.13,61.54,117.19,61.58z M120.71,68.01c-0.08-0.1-0.08-0.1-0.08-0.14c0-0.04,0.04-0.04,0.06-0.04
				c0.38,0,2.21,0.12,2.63,0.12c0.32,0,0.46-0.12,0.58-0.28c0.2-0.28,0.3-0.4,0.5-0.4c0.32,0,1.31,0.56,1.31,0.96
				c0,0.12-0.1,0.2-0.2,0.24c-0.42,0.16-0.42,0.16-0.56,0.42c-0.84,1.67-1.31,2.51-2.19,3.49c-1.43,1.59-3.23,2.33-3.29,2.33
				c-0.02,0-0.06,0-0.06-0.04c0-0.06,0.02-0.08,0.12-0.18c1.51-1.49,1.67-1.65,2.05-2.13c1.55-1.89,2.03-3.66,2.03-3.7
				c0-0.16-0.08-0.16-0.66-0.16c-0.24,0-1.49,0.08-1.67,0.08c-0.06,0-0.1-0.04-0.18-0.12L120.71,68.01z M121.77,71.08
				c0,0.68-0.5,0.86-0.68,0.86c-0.44,0-0.48-0.52-0.58-1.37c-0.02-0.26-0.16-0.68-0.54-1.51c-0.02-0.08-0.08-0.18-0.08-0.22
				c0-0.06,0.06-0.1,0.1-0.1c0.12,0,0.64,0.42,0.86,0.64C121.05,69.59,121.77,70.3,121.77,71.08z M124.04,65.62
				c-0.26,0-0.4,0-0.58,0.22c-0.22,0.28-0.46,0.56-0.84,0.56c-0.46,0-0.46-0.3-0.46-0.84c0-0.58,0.08-3.47,0.08-4.12
				c0-0.34-0.04-1.99-0.04-2.35c0-0.08,0-0.14,0.12-0.14c0.2,0,1.13,0.66,1.37,0.66c0.4,0,1.63-2.23,1.65-2.63
				c0.02-0.14,0.04-0.28,0.16-0.28c0.04,0,1,0.48,1.17,0.56c0.28,0.14,0.56,0.28,0.56,0.44c0,0.14-0.82,0.36-0.96,0.44
				c-0.66,0.46-1.49,1.22-1.49,1.39c0,0.12,0.04,0.12,0.38,0.12H129c0.42,0,0.56-0.02,0.72-0.28c0.44-0.68,0.5-0.76,0.7-0.76
				c0.26,0,1.39,0.74,1.39,1.18c0,0.14-0.1,0.28-0.24,0.4c-0.28,0.24-0.36,0.32-0.36,0.66c0,0.3,0.06,1.81,0.06,2.15
				c0,0.38,0.14,2.21,0.14,2.37c0,0.9-0.96,0.96-1.06,0.96c-0.28,0-0.32-0.08-0.44-0.48c-0.06-0.24-0.32-0.24-0.46-0.24h-2.31
				c-0.1,0-0.18,0-0.18,0.08s0.04,0.1,0.38,0.24c0.16,0.04,0.58,0.22,0.58,0.46c0,0.16-0.04,0.18-0.36,0.42
				c-0.04,0.04-0.12,0.12-0.12,0.24c0,0.14,0.6,1.29,0.72,1.53c0.16,0.3,0.42,0.8,0.66,0.8c0.48,0,1.85-1.45,2.29-1.95
				c0.04-0.06,0.22-0.26,0.26-0.26c0.1,0,1.41,1.19,1.41,1.41c0,0.08-0.06,0.1-0.12,0.1c-0.08,0.02-0.44-0.02-0.52-0.02
				c-0.58,0-1,0.2-2.73,0.98c-0.36,0.16-0.36,0.18-0.36,0.3c0,0.2,1.37,2.29,3.5,3.54c0.64,0.38,0.72,0.4,0.72,0.48
				c0,0.06-0.06,0.06-0.32,0.08c-0.28,0.02-0.74,0.08-1.15,0.22c-0.08,0.04-0.5,0.28-0.6,0.28c-0.18,0-2.27-2.41-3.38-5.1
				c-0.08-0.18-0.44-1.25-0.48-1.25c-0.06,0-0.06,0.58-0.06,0.68c0,0.2,0.04,3.36,0.04,3.72c0,1.22,0,1.67-0.44,2.01
				c-0.4,0.3-1.08,0.54-1.57,0.54c-0.12,0-0.16-0.04-0.22-0.14c-0.16-0.34-0.2-0.44-0.4-0.68c-0.12-0.12-0.76-0.66-0.76-0.68
				c0-0.06,0.06-0.06,0.58-0.06c1.51,0,1.59-0.2,1.59-1.67c0-0.92,0-5.14-0.1-5.73c-0.08-0.48-0.3-0.58-0.7-0.58H124.04z
				 M124.08,60.17c-0.26,0-0.52,0.04-0.6,0.42v1.15c0,0.52,0.38,0.52,0.62,0.52h5.22c0.6,0,0.6-0.08,0.6-1.55
				c0-0.54-0.4-0.54-0.6-0.54H124.08z M124.08,62.78c-0.22,0-0.6,0.02-0.6,0.56c0,1.71,0,1.75,0.6,1.75h5.3
				c0.18,0,0.56-0.04,0.56-0.54c0-1.69,0-1.77-0.58-1.77H124.08z"/>
			<path class="st0" d="M144.53,62.36c0.32,0,0.62-0.04,0.62-0.58c0-1.79,0-1.89-0.56-1.89h-4.6c-1.75,0-2.33,0.04-2.53,0.06
				c-0.06,0-0.36,0.04-0.42,0.04c-0.08,0-0.12-0.04-0.18-0.12l-0.38-0.46c-0.08-0.1-0.1-0.1-0.1-0.14s0.04-0.04,0.08-0.04
				c0.14,0,0.76,0.06,0.88,0.06c0.98,0.04,1.81,0.08,2.75,0.08h4.44c0.18,0,0.6,0,0.6-0.52c0-0.04,0-0.54-0.12-1.08
				c-0.02-0.14-0.24-0.76-0.24-0.9c0-0.12,0.12-0.16,0.26-0.16c0.06,0,2.03,0.28,2.03,0.6c0,0.06-0.28,0.34-0.34,0.4
				c-0.14,0.14-0.2,0.3-0.2,0.76c0,0.58,0,0.9,0.6,0.9h3.05c0.84,0,1.06,0,1.29-0.34c0.6-0.96,0.66-1.07,0.9-1.07
				c0.34,0,1.51,1.11,1.77,1.29c0.04,0.02,0.3,0.22,0.3,0.36c0,0.28-0.38,0.28-1.06,0.28h-6.25c-0.6,0-0.6,0.38-0.6,0.58
				c0,1.87,0,1.89,0.62,1.89h1.13c0.7,0,0.98-0.38,1.06-0.5c0.14-0.22,0.26-0.36,0.42-0.36c0.22,0,1.77,0.93,1.77,1.14
				c0,0.12-0.34,0.66-0.58,1.03c-0.14,0.24-0.14,0.4-0.14,0.64c0,1.06,0.14,5.71,0.14,6.67c0,0.92,0,1.35-1.06,1.35
				c-0.3,0-0.46,0-0.5-0.56c-0.04-0.42-0.16-0.56-0.66-0.56h-4.6c-0.44,0-0.5,0.34-0.5,0.44c0,0.18,0,0.52-0.02,0.56
				c-0.12,0.3-0.56,0.44-0.9,0.44c-0.4,0-0.68-0.18-0.68-0.74c0-0.36,0.06-1.93,0.06-2.25c0-3.7-0.12-6.49-0.16-6.87
				c-0.02-0.18-0.14-0.94-0.14-1.08c0-0.08,0.04-0.1,0.12-0.1c0.22,0,0.28,0.04,1.06,0.46c0.36,0.2,0.76,0.3,1.21,0.3H144.53z
				 M139.87,74.07c-0.2,0-0.38,0.1-0.48,0.28c-0.24,0.44-0.56,0.66-1.04,0.66c-0.08,0-0.62,0-0.62-0.6c0-0.68,0.14-4,0.14-4.74
				c0-0.68-0.02-5.46-0.14-5.83c-0.02-0.1-0.26-0.54-0.26-0.66c0-0.18,0.18-0.18,0.24-0.18c0.3,0,2.07,0.56,2.07,0.95
				c0,0.12-0.38,0.52-0.42,0.64c-0.1,0.26-0.1,5.18-0.1,5.71c0,0.38,0.04,2.71,0.16,2.93c0.04,0.06,0.16,0.32,0.6,0.32h10.26
				c0.78,0,0.9-0.04,1-0.16c0.16-0.2,0.8-1.25,1-1.25c0.06,0,2.25,1.11,2.25,1.69c0,0.24-0.1,0.24-1.06,0.24H139.87z M143.87,62.88
				c-0.54,0-0.54,0.36-0.54,0.93c0,0.98,0,1.33,0.56,1.33h4.96c0.56,0,0.56-0.3,0.56-1.13c0-0.83,0-1.13-0.56-1.13H143.87z
				 M143.97,65.66c-0.2,0-0.6,0.02-0.6,0.58c0,1.51,0.08,1.65,0.62,1.65h4.84c0.6,0,0.6-0.24,0.6-1.11c0-0.88,0-1.13-0.6-1.13
				H143.97z M144.01,68.41c-0.48,0-0.56,0.32-0.56,0.54c0,1.57,0.16,1.71,0.6,1.71h4.78c0.58,0,0.58-0.3,0.58-1.13s0-1.13-0.58-1.13
				H144.01z"/>
			<path class="st0" d="M157.67,65.25c-0.1-0.1-0.1-0.1-0.1-0.12c0-0.04,0.04-0.06,0.08-0.06c0.36,0,2.11,0.14,2.51,0.14
				c0.36,0,0.46-0.08,0.74-0.4c0.44-0.5,0.5-0.56,0.6-0.56s1.28,0.7,1.28,1.06c0,0.06-0.02,0.1-0.04,0.12
				c-0.06,0.08-0.42,0.3-0.5,0.36c-0.12,0.12-0.12,0.34-0.12,2.45c0,2.79,0,3.15,0.5,3.78c0.92,1.19,3.96,1.19,5.34,1.19
				c1,0,3.64,0.08,7.43-0.58c0.1-0.02,0.56-0.12,0.68-0.12c0.04,0,0.12,0,0.12,0.08c0,0.02-0.02,0.1-0.16,0.18
				c-0.46,0.24-0.7,0.38-0.96,0.84c-0.06,0.12-0.18,0.8-0.3,0.9c-0.04,0.02-2.29,0.02-2.61,0.02c-4.34,0-6.09-0.24-7.31-0.52
				c-0.28-0.06-1.73-0.4-2.51-1.63c-0.16-0.24-0.7-1.55-0.88-1.55c-0.34,0-2.11,2.83-2.11,2.97c-0.02,0.62-0.04,0.68-0.22,0.68
				c-0.38,0-1.43-1.42-1.43-1.73c0-0.14,0.22-0.2,0.42-0.26c0.38-0.1,1.33-0.66,1.87-1.09c0.84-0.62,0.84-0.64,0.84-1.51
				c0-0.46,0.04-2.85,0.04-3.38c-0.02-0.68-0.12-0.79-0.68-0.79c-0.04,0-1.14-0.02-1.69,0.06c-0.04,0-0.24,0.04-0.28,0.04
				c-0.08,0-0.12-0.04-0.18-0.14L157.67,65.25z M161.59,61.34c-0.34,0-0.5-0.14-0.8-0.68c-0.04-0.06-0.58-0.98-1.89-2.29
				c-0.12-0.12-0.78-0.74-0.78-0.76c0-0.08,0.12-0.08,0.18-0.08c0.4,0,3.94,1.2,3.94,3.11C162.23,60.96,162.05,61.34,161.59,61.34z
				 M171.01,57.8c0.7,0,0.86,0,1.11-0.18c0.1-0.08,0.58-0.7,0.74-0.7c0.18,0,1.81,1,1.81,1.38c0,0.14-0.12,0.22-0.26,0.26
				c-0.14,0.04-0.9,0.18-1.06,0.24c-0.4,0.16-2.25,1.33-2.67,1.59c-0.1,0.06-0.68,0.44-0.68,0.58c0,0.06,0.22,0.3,0.24,0.36
				c0.06,0.1,0.06,0.22,0.06,0.54c0,0.1,0.1,0.1,0.38,0.1h2.05c0.22,0,0.44,0,0.66-0.16c0.08-0.04,0.46-0.38,0.58-0.38
				c0.26,0,1.2,0.66,1.2,0.9c0,0.16-0.16,0.26-0.32,0.38c-0.24,0.16-0.24,0.26-0.24,0.6c0,2.79,0,3.09,0.06,4.5
				c0.06,1.22,0.06,2.05,0.06,2.31c0,0.86-0.18,1.39-0.66,1.75c-0.22,0.16-0.64,0.36-0.9,0.36c-0.22,0-0.3-0.14-0.34-0.22
				c-0.02-0.06-0.14-0.46-0.2-0.54c-0.1-0.14-0.86-0.58-0.86-0.66c0-0.12,1-0.2,1.19-0.26c0.5-0.18,0.5-0.32,0.5-1.77
				c0-0.42,0-0.74-0.6-0.74h-2.19c-0.58,0-0.62,0.3-0.62,0.7v0.76c0,0.22,0.08,1.35,0.08,1.61c0,0.36-0.04,0.9-0.93,0.9
				c-0.42,0-0.48-0.5-0.5-0.82c0-0.38,0.14-2.19,0.14-2.61c0-0.54-0.38-0.54-0.6-0.54h-1.89c-0.64,0-0.64,0.16-0.64,1.25
				c0,0.26,0.04,1.57,0.04,1.85c0,1.11-0.72,1.13-0.84,1.13c-0.58,0-0.62-0.44-0.62-1c0-0.2,0.04-0.96,0.06-1.15
				c0.06-0.78,0.08-1.41,0.08-3.09c0-0.74-0.08-4.42-0.08-5.26c0-0.16,0-0.28,0.12-0.28c0.04,0,1.02,0.34,1.1,0.36
				c0.46,0.16,0.72,0.14,0.94,0.14h1.95c0.12,0,0.24,0,0.24-0.16c0-0.14-0.54-0.8-1.17-1.27c-0.44-0.32-0.52-0.36-0.52-0.48
				c0-0.1,0.2-0.1,0.26-0.1c0.2,0,0.76,0.06,1.41,0.28c0.12,0.04,0.72,0.36,0.86,0.36c0.28,0,1.97-1.81,1.97-2.13
				c0-0.16-0.12-0.16-0.38-0.16h-3.09c-0.48,0-1.83,0-2.53,0.06c-0.06,0-0.36,0.04-0.42,0.04c-0.08,0-0.12-0.04-0.18-0.12
				l-0.38-0.46c-0.1-0.1-0.1-0.1-0.1-0.14c0-0.04,0.04-0.04,0.08-0.04c0.12,0,0.74,0.06,0.88,0.06c0.56,0.02,1.61,0.08,2.75,0.08
				H171.01z M166.31,65.33c-0.18,0-0.44,0.02-0.56,0.24c-0.06,0.12-0.06,0.22-0.06,1.27c0,0.34,0,0.66,0.62,0.66h1.89
				c0.62,0,0.62-0.22,0.62-1.17c0-0.74,0-1.01-0.62-1.01H166.31z M166.29,62.5c-0.58,0-0.58,0.16-0.58,1.59c0,0.32,0,0.7,0.58,0.7
				h1.93c0.58,0,0.58-0.14,0.58-1.55c0-0.36,0-0.74-0.58-0.74H166.29z M172.72,64.79c0.62,0,0.62-0.12,0.62-1.35
				c0-0.69,0-0.95-0.62-0.95h-2.11c-0.62,0-0.62,0.18-0.62,1.29c0,0.78,0,1,0.62,1H172.72z M172.84,67.51c0.58,0,0.58-0.3,0.58-0.79
				c0-1.25,0-1.39-0.58-1.39h-2.25c-0.58,0-0.58,0.14-0.58,1.35c0,0.54,0,0.82,0.58,0.82H172.84z"/>
			<path class="st0" d="M35.17,101.19c0.16,0.18,0.98,1.06,0.98,1.19c0,0.04-0.04,0.12-0.14,0.12c-0.2,0-4.84-3.34-4.84-9.56
				s4.64-9.56,4.84-9.56c0.1,0,0.14,0.08,0.14,0.12c0,0.12-0.82,1-0.98,1.19c-0.8,1-2.89,3.88-2.89,8.26S34.37,100.19,35.17,101.19z
				"/>
			<path class="st0" d="M43.71,99.75c-0.12,0-0.54,0-0.58,0.42c-0.04,0.52-0.08,1.08-0.96,1.08c-0.66,0-0.7-0.4-0.7-0.74
				c0-0.08,0.12-4.1,0.12-4.86c0-2.19,0-6.97-0.16-9c-0.02-0.18-0.12-1.03-0.12-1.21c0-0.1,0.02-0.16,0.12-0.16
				c0.08,0,0.18,0.04,0.94,0.42c0.56,0.26,0.66,0.28,1,0.28h6.15c0.42,0,0.58,0,0.72-0.2c0.3-0.42,0.38-0.52,0.58-0.52
				c0.28,0,1.75,0.95,1.75,1.25c0,0.14-0.1,0.22-0.44,0.52c-0.26,0.2-0.36,0.34-0.36,1.31c0,2.15,0.02,2.51,0.04,4.28
				c0.02,1.15,0.16,6.23,0.16,7.27c0,0.7-0.46,1.1-1,1.1c-0.06,0-0.58,0-0.64-0.76c-0.02-0.34-0.02-0.48-0.42-0.48H43.71z
				 M49.74,92.46c0.58,0,0.58-0.38,0.58-0.64c0-0.24-0.06-4.92-0.1-5.02c-0.12-0.26-0.38-0.26-0.5-0.26h-6.21
				c-0.28,0-0.44,0.18-0.46,0.3c-0.04,0.16-0.04,4.52-0.04,4.88c0,0.38,0.02,0.74,0.56,0.74H49.74z M49.72,99.21
				c0.18,0,0.54,0,0.58-0.42c0.02-0.12,0.02-4.58,0.02-5.04c0-0.42-0.04-0.76-0.58-0.76h-6.15c-0.52,0-0.58,0.3-0.58,0.7
				c0,0.66,0.06,3.9,0.06,4.62c0,0.64,0.06,0.9,0.6,0.9H49.72z"/>
			<path class="st0" d="M60.65,94.79c-0.5,0-0.54,0.26-0.58,0.7c-0.06,0.52-0.58,1.13-1.19,1.13c-0.5,0-0.52-0.26-0.52-0.52
				c0-0.14,0.06-0.82,0.08-0.98c0.04-0.76,0.04-2.65,0.04-3.2c0-1.27-0.04-2.57-0.12-3.63c0-0.1-0.06-0.66-0.06-0.7
				c0-0.06,0-0.14,0.06-0.14c0.18,0,0.32,0.08,1.53,0.72c0.38,0.2,0.62,0.28,1.08,0.28h3.33c0.6,0,0.6-0.36,0.6-0.74
				c0-0.6-0.02-2.43-0.06-2.99c-0.02-0.12-0.12-0.62-0.12-0.74c0-0.12,0.12-0.12,0.2-0.12c0.14,0,1.97,0.3,1.97,0.68
				c0,0.12-0.42,0.52-0.44,0.62c-0.08,0.34-0.08,0.5-0.08,2.63c0,0.3,0,0.66,0.56,0.66h3.74c0.22,0,0.42,0,0.62-0.28
				c0.38-0.52,0.42-0.58,0.6-0.58c0.28,0,1.71,1.02,1.71,1.29c0,0.12-0.44,0.5-0.5,0.6c-0.16,0.28-0.16,0.52-0.16,2.53
				c0,0.4,0.06,2.41,0.06,2.87c0,0.42,0.02,0.66-0.2,0.92c-0.4,0.48-0.88,0.52-0.98,0.52c-0.56,0-0.56-0.48-0.56-0.98
				c0-0.18,0-0.54-0.58-0.54h-3.62c-0.36,0-0.64,0.04-0.64,0.66c0,0.7,0.04,4.18,0.04,4.96c0,0.42,0,1.59-1.06,1.59
				c-0.66,0-0.66-0.6-0.66-0.8c0-0.22,0.08-1.25,0.08-1.49c0.02-0.7,0.06-3.54,0.06-4.22c0-0.48-0.06-0.7-0.6-0.7H60.65z
				 M64.28,94.24c0.16,0,0.42,0,0.52-0.24c0.12-0.24,0.12-2.77,0.12-3.27c0-1.61,0-1.77-0.62-1.77h-3.74
				c-0.58,0-0.58,0.22-0.58,0.94c0,0.5,0.04,2.99,0.04,3.58c0,0.56,0.1,0.76,0.62,0.76H64.28z M70.79,94.24c0.18,0,0.46,0,0.52-0.3
				c0.04-0.14,0.1-3.94,0.1-4.32c0-0.48-0.18-0.66-0.58-0.66h-3.88c-0.58,0-0.58,0.4-0.58,0.68c0,0.52,0,4,0.06,4.24
				c0.06,0.3,0.28,0.36,0.54,0.36H70.79z"/>
			<path class="st0" d="M82.44,85.65c-1.75,0-2.33,0.04-2.53,0.06c-0.06,0-0.36,0.04-0.42,0.04c-0.08,0-0.12-0.04-0.18-0.12
				l-0.38-0.46c-0.08-0.1-0.08-0.1-0.08-0.14c0-0.02,0.02-0.04,0.06-0.04c0.14,0,0.76,0.06,0.88,0.06c0.98,0.06,1.81,0.08,2.75,0.08
				h8.82c0.82,0,0.92,0,1.08-0.14c0.16-0.14,0.8-0.94,1-0.94c0.26,0,1.87,1.22,1.87,1.41c0,0.2-0.1,0.2-1.06,0.2h-5.93
				c-0.6,0-0.6,0.22-0.6,1.35c0,0.62,0.02,6.03,0.04,6.15c0.1,0.32,0.4,0.32,0.62,0.32h3.92c0.92,0,1.02,0,1.29-0.34
				c0.58-0.8,0.66-0.88,0.84-0.88c0.36,0,1.67,1.37,1.67,1.49c0,0.26-0.4,0.26-1.06,0.26h-6.65c-0.4,0-0.64,0.08-0.64,0.68
				c0,0.84,0.08,4.64,0.08,5.4c0,0.95,0,2.07-1,2.07c-0.66,0-0.66-0.58-0.66-0.78c0-0.94,0.12-5.08,0.12-5.93
				c0-1.29,0-1.45-0.64-1.45h-4.1c-1.77,0-2.35,0.04-2.55,0.06c-0.06,0-0.36,0.06-0.42,0.06s-0.1-0.06-0.18-0.14L78,93.5
				c-0.08-0.08-0.08-0.1-0.08-0.12c0-0.04,0.02-0.06,0.06-0.06c0.14,0,0.76,0.06,0.88,0.08c0.98,0.04,1.83,0.06,2.77,0.06h4.02
				c0.2,0,0.48,0,0.58-0.22c0.08-0.18,0.08-1.1,0.08-1.77c0-0.08,0-5.36-0.02-5.44c-0.04-0.3-0.24-0.38-0.54-0.38H82.44z
				 M80.19,87.11c0.28,0,3.31,1.95,3.31,4.14c0,0.56-0.36,1.03-0.88,1.03c-0.56,0-0.64-0.28-0.98-1.63
				c-0.08-0.32-0.34-1.38-1.02-2.57c-0.08-0.12-0.48-0.7-0.52-0.8C80.09,87.21,80.09,87.11,80.19,87.11z M93.61,88.42
				c-0.44,0.24-1.65,2.11-1.93,2.45c-0.72,0.82-1.63,1.71-1.87,1.71c-0.06,0-0.18-0.04-0.18-0.16c0-0.02,0.36-0.6,0.4-0.66
				c1.17-1.85,2.13-3.9,2.13-4.86c0-0.38,0-0.44,0.12-0.44c0.04,0,1.91,1.13,1.91,1.47C94.19,88.12,94.15,88.12,93.61,88.42z"/>
			<path class="st0" d="M107.29,87.72c0.58,0,0.58-0.36,0.58-0.93c0-0.2,0.02-1.02,0.02-1.21c0-0.3-0.08-1.65-0.08-1.91
				c0-0.12,0-0.2,0.18-0.2c0.08,0,1.77,0.38,1.77,0.76c0,0.12-0.4,0.52-0.42,0.64c-0.02,0.08-0.06,2.05-0.06,2.25
				c0,0.18,0.02,0.58,0.58,0.58h0.82c0.32,0,0.62,0,1.71-2.57c0.06-0.16,0.28-0.88,0.32-1.02c0.04-0.12,0.1-0.2,0.22-0.2
				c0.08,0,1.89,1.08,1.89,1.37c0,0.18-0.08,0.2-0.76,0.4c-0.62,0.18-2.05,1.75-2.05,1.91c0,0.12,0.16,0.12,0.24,0.12h2.41
				c0.1,0,0.3,0,0.54-0.1c0.1-0.04,0.5-0.3,0.58-0.3c0.28,0,1.69,1.02,1.69,1.67c0,0.24-0.16,0.34-0.36,0.34
				c-0.14,0-0.66-0.22-0.78-0.22c-0.48,0-1.11,0.54-1.39,0.78c-0.02,0.02-0.36,0.32-0.4,0.32c-0.06,0-0.06-0.08-0.06-0.1
				c0-0.12,0.48-1.49,0.48-1.69c0-0.18-0.12-0.18-0.28-0.18h-12.58c-0.28,0-0.28,0.04-0.3,0.38c-0.06,1.03-0.76,1.95-1.23,1.95
				c-0.34,0-0.7-0.38-0.7-0.86c0-0.32,0.12-0.52,0.34-0.86c0.56-0.88,0.56-1.87,0.56-1.93c0-0.4,0-0.44,0.12-0.44
				c0.1,0,0.14,0.1,0.6,0.88c0.16,0.3,0.24,0.36,0.5,0.36H107.29z M113.28,95.77c0.1,0,0.28,0,0.42-0.08c0.14-0.06,0.6-0.6,0.74-0.6
				c0.2,0,1.45,0.68,1.45,1.1c0,0.14-0.06,0.18-0.42,0.36c-0.12,0.06-0.14,0.24-0.14,0.34c0,2.73,0,3.04-0.12,3.29
				c-0.38,0.92-1.47,1.34-1.67,1.34c-0.22,0-0.28-0.06-0.7-0.68c-0.24-0.36-0.58-0.52-1.04-0.72c-0.08-0.04-0.24-0.12-0.24-0.16
				c0-0.08,0.1-0.08,0.16-0.08c0.8,0,1.29-0.08,1.53-0.12c0.68-0.12,0.68-0.28,0.68-1.89c0-1.43,0-1.59-0.6-1.59h-3.37
				c-0.6,0-0.6,0.32-0.6,0.68c0,0.6,0.02,3.29,0.02,3.86c0,0.58-0.24,1.26-1,1.26c-0.56,0-0.56-0.44-0.56-0.62
				c0-0.02,0.16-3.84,0.16-4.56c0-0.32-0.02-0.62-0.62-0.62h-3.13c-0.62,0-0.64,0.1-0.64,2.25c0,0.26,0.06,1.43,0.06,1.67
				c0,1.28-1.13,1.34-1.19,1.34c-0.26,0-0.42-0.14-0.42-0.7c0-0.74,0.12-4,0.12-4.66c0-0.12-0.08-0.72-0.08-0.84
				c0-0.14,0.06-0.18,0.16-0.18c0.06,0,0.74,0.28,1.1,0.44c0.38,0.16,0.48,0.16,0.66,0.16h3.4c0.6,0,0.6-0.36,0.6-0.72
				c0-1.67-0.28-1.67-0.66-1.67h-1.55c-0.24,0-0.44,0-0.56,0.26c-0.16,0.3-0.28,0.52-1,0.52c-0.58,0-0.58-0.38-0.58-0.54
				c0-0.38,0.06-2.07,0.06-2.43c0-0.26,0-0.64-0.08-1.18c-0.02-0.16-0.04-0.28-0.04-0.32c0-0.06,0.02-0.18,0.16-0.18
				c0.18,0,0.94,0.38,1.13,0.44c0.3,0.12,0.54,0.12,0.86,0.12h6.09c0.16,0,0.5,0,0.7-0.3c0.24-0.38,0.28-0.42,0.5-0.42
				c0.24,0,1.17,0.5,1.17,0.96c0,0.16-0.08,0.26-0.32,0.54c-0.08,0.1-0.08,0.3-0.08,0.66c0,0.24,0.02,1.33,0.02,1.55
				c-0.02,0.7-0.68,0.94-1.02,0.94c-0.28,0-0.32-0.08-0.44-0.42c-0.08-0.2-0.3-0.2-0.44-0.2h-2.65c-0.06,0-0.18,0-0.18,0.08
				c0,0.06,0.02,0.06,0.26,0.18c0.42,0.2,0.58,0.28,0.58,0.38c0,0.12-0.44,0.5-0.5,0.6c-0.04,0.1-0.06,0.2-0.06,0.34
				c0,0.48,0,0.8,0.62,0.8H113.28z M104.92,87.44c-0.42,0-0.5-0.18-1.27-1.73c-0.2-0.42-0.48-1-0.7-1.3
				c-0.02-0.04-0.26-0.32-0.26-0.34c0-0.06,0.08-0.08,0.12-0.08c0.36,0,1.41,0.68,1.73,0.9c0.56,0.42,1.08,1.11,1.08,1.61
				C105.62,86.89,105.42,87.44,104.92,87.44z M105.8,90.61c-0.62,0-0.62,0.2-0.62,1.31c0,0.66,0.08,0.94,0.68,0.94h5.91
				c0.16,0,0.44,0,0.56-0.28c0.06-0.12,0.06-0.95,0.06-1.43c0-0.54-0.42-0.54-0.6-0.54H105.8z"/>
			<path class="st0" d="M125.53,86.27c0.26,0,0.5-0.02,0.82-0.3c0.46-0.44,0.52-0.5,0.62-0.5c0.22,0,1.1,0.86,1.1,1.08
				c0,0.18-0.4,0.87-0.44,1.01c-0.12,0.7-0.12,2.23-0.12,2.57c0,1.04,0.12,5.66,0.12,6.59c0,0.28,0,0.86-0.36,1.22
				c-0.26,0.26-0.68,0.46-0.84,0.46c-0.36,0-0.38-0.46-0.38-0.58c0-0.48,0-0.62-0.56-0.62h-1.15c-0.44,0-0.56,0.28-0.56,0.56
				c0,0.06,0,0.87-0.02,0.98c-0.06,0.52-0.72,1.19-1.02,1.19c-0.54,0-0.54-0.46-0.54-0.64s0.08-1.47,0.08-1.75
				c0.06-2.13,0.1-3.55,0.1-9.18c0-0.42-0.06-2.29-0.06-2.65c0-0.1,0-0.22,0.12-0.22c0.14,0,0.48,0.2,0.9,0.44
				c0.5,0.3,0.68,0.34,1.1,0.34H125.53z M125.49,96.67c0.18,0,0.48,0,0.6-0.26c0.06-0.14,0.06-1.75,0.06-2.17
				c0-0.72,0-2.01-0.06-2.15c-0.06-0.12-0.2-0.26-0.46-0.26h-1.37c-0.52,0-0.52,0.16-0.52,1.81c0,0.56,0,2.63,0.08,2.77
				c0.06,0.2,0.28,0.26,0.48,0.26H125.49z M124.34,86.81c-0.16,0-0.3,0.02-0.42,0.16c-0.16,0.2-0.16,3.07-0.16,3.54
				c0,0.44,0,0.8,0.56,0.8h1.23c0.12,0,0.42,0,0.54-0.26c0.08-0.2,0.08-2.29,0.08-2.69c0-1.45,0-1.55-0.58-1.55H124.34z
				 M135.82,90.79c0.94,0,1.04,0,1.35-0.5c0.14-0.22,0.5-0.8,0.82-0.8c0.1,0,0.64,0.44,0.8,0.56c0.94,0.79,1,0.82,1,0.98
				c0,0.28-0.42,0.28-1.08,0.28h-7.57c-0.94,0-1.77,0.02-2.15,0.06c-0.08,0-0.38,0.04-0.44,0.04c-0.06,0-0.1-0.04-0.16-0.12
				l-0.4-0.46c-0.08-0.1-0.08-0.1-0.08-0.14c0-0.04,0.02-0.04,0.06-0.04c0.16,0,0.78,0.06,0.9,0.06c0.7,0.04,1.71,0.08,2.37,0.08
				h0.78c0.6,0,0.6-0.4,0.6-0.64c0-0.42,0-1.53-0.02-1.89c-0.02-0.5-0.34-0.5-0.54-0.5c-0.64,0-1.67,0-2.25,0.04
				c-0.06,0-0.36,0.06-0.42,0.06c-0.08,0-0.12-0.06-0.18-0.14l-0.38-0.46c-0.08-0.08-0.1-0.1-0.1-0.12c0-0.04,0.04-0.06,0.08-0.06
				c0.14,0,0.76,0.06,0.88,0.08c0.72,0.02,1.61,0.06,2.31,0.06c0.22,0,0.6,0,0.6-0.5c0-0.9-0.04-1.67-0.12-2.23
				c-0.02-0.1-0.08-0.48-0.08-0.56c0-0.12,0.08-0.16,0.16-0.16c0.02,0,2.13,0.6,2.13,0.87c0,0.1-0.44,0.44-0.5,0.52
				c-0.14,0.16-0.14,0.58-0.14,0.8c0,1.21,0,1.27,0.86,1.27c0.82,0,1.13,0.02,1.39-0.36c0.56-0.78,0.56-0.78,0.72-0.78
				c0.26,0,1.77,1.29,1.77,1.46c0,0.22-0.1,0.22-0.98,0.22h-3.15c-0.56,0-0.56,0.32-0.56,0.8c0,1.65,0,1.83,0.06,1.97
				c0.1,0.26,0.38,0.26,0.52,0.26H135.82z M136.6,94.79c-0.6,0-0.68,0.18-0.68,0.72c0,0.78,0.1,4.2,0.1,4.9
				c0,1.57-1.67,1.63-1.95,1.63c-0.2,0-0.28-0.02-0.28-0.24c0-0.52,0-0.8-0.84-1.1c-0.2-0.06-1.08-0.28-1.25-0.34
				c-0.08-0.04-0.32-0.16-0.32-0.24s0.12-0.14,0.3-0.14c0.08,0,1.91,0.22,2.27,0.22c0.34,0,0.44-0.04,0.52-0.32
				c0.04-0.16,0.06-0.4,0.06-2.47c0-2.57-0.02-2.61-0.68-2.61h-1.65c-0.44,0-1.83,0-2.53,0.04c-0.06,0.02-0.36,0.06-0.42,0.06
				c-0.08,0-0.12-0.06-0.18-0.14l-0.38-0.46c-0.08-0.08-0.1-0.1-0.1-0.12c0-0.04,0.04-0.06,0.08-0.06c0.14,0,0.76,0.06,0.88,0.08
				c0.92,0.04,1.83,0.06,2.75,0.06h1.57c0.58,0,0.58-0.34,0.58-0.68c0-0.26-0.1-1.61-0.1-1.65c0-0.16,0.04-0.24,0.16-0.24
				c0.12,0,2.01,0.54,2.01,0.95c0,0.12-0.5,0.5-0.54,0.6c-0.04,0.08-0.1,0.22-0.1,0.6c0,0.34,0.18,0.42,0.38,0.42
				c0.24,0,0.3-0.08,0.8-0.76c0.18-0.26,0.4-0.52,0.62-0.52c0.1,0,0.18,0.06,0.8,0.56c0.94,0.76,1,0.82,1,0.98
				c0,0.28-0.4,0.28-1.06,0.28H136.6z M132.08,99.06c-0.44,0-0.56-0.22-0.98-0.94c-0.54-0.88-1.47-1.55-1.79-1.77
				c-0.08-0.06-0.72-0.52-0.72-0.54c0-0.1,0.1-0.12,0.16-0.12c0.4,0,4.04,0.7,4.04,2.65C132.78,98.58,132.54,99.06,132.08,99.06z"/>
			<path class="st0" d="M143.63,92.83c0-0.78,0.55-1.36,1.29-1.36c0.79,0,1.29,0.62,1.29,1.36s-0.51,1.27-1.29,1.27
				C144.26,94.1,143.63,93.62,143.63,92.83z M143.63,99.62c0-0.78,0.55-1.36,1.29-1.36c0.79,0,1.29,0.62,1.29,1.36
				s-0.51,1.27-1.29,1.27C144.26,100.89,143.63,100.41,143.63,99.62z"/>
			<path class="st0" d="M152.44,86.86c0.12-0.37,0.23-0.58,0.6-0.62l5.57-0.79c0.14-0.02,0.21,0.12,0.21,0.21
				c-0.16,0.51-0.51,1.09-0.83,1.43l-4.37,0.63c-0.53,0.07-0.65,0.18-0.79,0.62l-0.42,1.39c-0.09,0.28,0,0.39,0.32,0.41l0.49,0.05
				c2.89,0.28,6.12,1.55,6.12,5.06c0,4-4.59,6.77-8.26,6.89c-0.25-0.09-0.28-0.55-0.07-0.72c3.57-0.21,6.62-2.4,6.62-5.57
				c0-3.28-3.49-4.12-6.21-4.16c-0.34,0-0.37-0.19-0.21-0.72L152.44,86.86z"/>
			<path class="st0" d="M170.98,86.43c0,0.2-0.14,0.24-0.56,0.34c-0.2,0.06-0.56,0.64-1,1.37c-2.33,3.84-5.52,5.56-5.97,5.56
				c-0.08,0-0.12-0.04-0.12-0.12c0-0.12,0.04-0.14,0.42-0.44c2.71-2.13,4.24-5.46,4.52-6.07c0.14-0.3,0.66-2.01,0.68-2.01
				C169.09,85,170.98,86.09,170.98,86.43z M172.93,92.3c-0.52,0-0.52,0.04-0.64,1.11c-0.18,1.77-0.56,5.24-4.06,7.19
				c-1.65,0.92-3.74,1.3-3.84,1.3c-0.06,0-0.24,0-0.24-0.14c0-0.1,0.1-0.14,0.46-0.26c1.39-0.5,2.99-1.45,3.96-2.43
				c1.49-1.51,2.27-4.24,2.27-6.33c0-0.44-0.2-0.44-0.5-0.44h-0.6c-0.74,0-1.71,0.02-2.07,0.04c-0.08,0.02-0.36,0.06-0.42,0.06
				c-0.08,0-0.12-0.06-0.18-0.14l-0.4-0.46c-0.06-0.08-0.08-0.1-0.08-0.12c0-0.04,0.02-0.06,0.08-0.06c0.14,0,0.74,0.08,0.88,0.08
				c0.98,0.04,1.81,0.06,2.75,0.06h4.4c0.9,0,1-0.04,1.33-0.38c0.3-0.32,0.48-0.44,0.62-0.44c0.32,0,1.49,0.93,1.49,1.35
				c0,0.1-0.32,0.46-0.36,0.54c-0.1,0.2-0.22,2.49-0.26,2.95c-0.22,2.43-0.38,4.08-0.94,4.98c-0.54,0.86-1.75,1.21-2.05,1.21
				c-0.22,0-0.22-0.06-0.38-0.62c-0.12-0.46-0.8-0.72-1.85-1.02c-0.44-0.12-0.66-0.2-0.66-0.32s0.18-0.12,0.22-0.12
				c0.14,0,0.68,0.12,0.78,0.14c1.06,0.14,1.19,0.16,1.43,0.16c0.96,0,1.51-0.18,1.79-2.25c0.2-1.55,0.4-3.88,0.4-4.9
				c0-0.54-0.04-0.72-0.6-0.72H172.93z M173.93,85.83c-0.5,0-1.19,0.02-1.61,0.04c-0.06,0-0.34,0.04-0.4,0.04s-0.08-0.02-0.16-0.12
				l-0.38-0.46c-0.04-0.04-0.06-0.1-0.06-0.14c0-0.02,0.02-0.04,0.06-0.04c0.12,0,0.7,0.08,0.82,0.08c0.22,0.02,1.06,0.06,1.21,0.06
				c0.46,0,0.72-0.34,0.84-0.52c0.4-0.56,0.44-0.62,0.6-0.62c0.26,0,1.75,1,1.75,1.45c0,0.2-0.06,0.22-0.6,0.36
				c-0.1,0.02-0.4,0.12-0.4,0.42c0,1.04,2.65,4.24,6.05,4.58c0.06,0,0.3,0.04,0.3,0.16c0,0.1-0.52,0.22-0.6,0.24
				c-0.52,0.26-0.96,0.62-1.23,0.93c-0.04,0.06-0.26,0.3-0.32,0.3c-0.68,0-4-2.77-4.8-5.8c-0.22-0.87-0.26-0.95-0.72-0.95H173.93z"
				/>
			<path class="st0" d="M186.47,84.68c-0.16-0.18-0.98-1.06-0.98-1.19c0-0.04,0.04-0.12,0.14-0.12c0.2,0,4.84,3.34,4.84,9.56
				s-4.64,9.56-4.84,9.56c-0.1,0-0.14-0.08-0.14-0.12c0-0.12,0.82-1,0.98-1.19c0.8-1,2.89-3.88,2.89-8.26S187.27,85.69,186.47,84.68
				z"/>
		</g>
	</g>
	<g>
		<path class="st0" d="M10.31,6.81c0.64,0,0.94,0.2,0.94,0.7c0,0.5-0.27,0.74-0.94,0.74h-8c-0.9,0-0.9,0.2-0.9,4.22
			c0,3.75,0.03,20.39,0.03,23.8c0,0.77-0.17,1.07-0.7,1.07C0,37.34,0,37.1,0,35.13V8.18c0-0.94,0.54-1.37,1.44-1.37H10.31z"/>
		<path class="st0" d="M22.33,18.02c0,1.04-0.77,1.31-1.27,1.31c-0.6,0-0.74-0.17-1.91-1.71c-0.27-0.33-0.57-0.7-2.21-2.41
			c-0.13-0.07-0.37-0.33-0.37-0.37c0-0.1,0.2-0.13,0.3-0.13c0.74,0,2.08,0.27,2.85,0.54C20.79,15.61,22.33,16.48,22.33,18.02z
			 M20.79,34.36c-0.44-3.52-1.21-4.32-1.81-4.89c-0.2-0.13-1.34-0.64-1.34-0.74c0-0.17,0.97-0.23,1.14-0.3
			c1.31-0.44,1.81-1.61,5.06-9.17c0.2-0.44,1.07-2.44,1.24-2.44c0.1,0,0.1,0.1,0.1,0.13c0,0.33-1.1,4.92-1.31,5.66
			c-1.34,4.99-1.51,5.52-1.51,6.73c0,0.97,0.17,1.64,0.6,2.71C23.9,34.26,24,34.49,24,35.23c0,1.34-0.87,1.84-1.37,1.84
			C21.23,37.07,20.99,35.97,20.79,34.36z M23.77,12.97c-0.8,0-1.21-0.77-1.71-1.81c-0.64-1.34-1.14-2.01-1.98-3.08
			c-0.27-0.33-0.3-0.4-0.3-0.47c0-0.07,0.07-0.07,0.13-0.07c0.9,0,5.12,1.04,5.12,3.95c0,0.64-0.33,1.17-0.94,1.41
			C24,12.93,23.87,12.97,23.77,12.97z M40.84,14.37c0.67-0.4,0.94-0.67,1.27-1.57c0.33-1,0.47-1.34,0.97-1.34
			c0.17,0,3.01,0.77,3.01,1.64c0,0.37-0.2,0.5-0.84,0.87c-0.4,0.2-0.5,0.54-0.5,3.08c0,3.92-0.07,6.09-0.44,8.6
			c-0.6,4.32-2.78,4.59-3.15,4.59c-0.3,0-0.67-0.07-0.8-0.4c-0.1-0.2-0.23-1.37-0.33-1.57c-0.1-0.13-0.87-0.77-0.97-0.87
			c0-0.13,0.57-0.13,0.87-0.13c1.61,0,1.94-0.07,2.28-3.31c0.2-1.98,0.2-3.95,0.2-8.37c0-0.13,0-0.64-0.5-0.64
			c-0.27,0-0.44,0.1-0.64,0.2l-2.14,1.34C38.07,17.15,38,17.79,38,18.76c0,2.68,0,4.12,0.07,7.1c0,0.47,0.07,2.75,0.07,3.28
			c0,0.8,0,1.81-1.27,1.81c-1.07,0-1.14-0.97-1.14-1.57c0-0.47,0.1-2.88,0.1-3.45v-6.5c0-0.33-0.23-0.57-0.54-0.57
			c-0.1,0-0.23,0.07-0.4,0.17l-2.54,1.54c-0.87,0.54-1.17,0.9-1.21,1.88c-0.07,1.27,0.03,7.43,0.03,8.84c0,2.48,0.57,3.05,7.1,3.05
			c2.95,0,4.89-0.27,5.69-0.77c0.67-0.44,1.04-1.1,1.88-4.08c0.13-0.5,0.37-1.27,0.4-1.27c0.17,0,0.5,3.05,0.6,3.62
			c0.07,0.3,0.84,1.64,0.84,1.98c0,1.21-2.75,2.81-9.07,2.81c-1.88,0-6.66-0.17-8.1-1.04c-1.27-0.8-1.47-1.64-1.47-4.39v-7.8
			c0-0.3-0.17-0.47-0.4-0.47c-0.37,0-2.68,1.74-2.78,1.74c-0.07,0-0.1-0.03-0.23-0.07l-0.94-0.3c-0.2-0.07-0.27-0.1-0.27-0.17
			c0-0.03,1.88-1.04,2.24-1.24c1.91-1.07,2.11-1.17,2.28-1.67c0.1-0.33,0.1-2.95,0.1-4.25c0-2.41,0-4.42-0.17-5.56
			c-0.03-0.27-0.33-1.51-0.33-1.77c0-0.17,0.1-0.27,0.37-0.27c0.1,0,3.15,0.44,3.15,1.51c0,0.2-0.64,1.07-0.74,1.27
			c-0.17,0.57-0.17,1.24-0.17,7.37c0,0.27,0.23,0.44,0.44,0.44c0.13,0,0.23-0.07,0.33-0.13l2.78-1.67c1.14-0.7,1.14-1.1,1.14-4.62
			c0-0.8-0.07-3.28-0.2-4.85c-0.03-0.23-0.27-1.24-0.27-1.47c0-0.33,0.2-0.6,0.44-0.6s3.31,0.8,3.31,1.54c0,0.23-0.07,0.3-0.6,0.74
			c-0.44,0.37-0.44,0.74-0.44,6.09c0,0.67,0.47,0.74,0.57,0.74s0.17-0.03,0.33-0.17L40.84,14.37z"/>
		<path class="st0" d="M70.11,25.12c-0.2,0-0.7,0.03-0.7,0.4c0,0.8,2.64,4.18,3.72,4.18c0.57,0,3.68-2.64,3.95-3.51
			c0.07-0.17,0.13-0.3,0.33-0.3c0.2,0,0.27,0.07,1,0.7c1.71,1.41,1.77,1.44,1.77,1.77c0,0.44-0.37,0.44-1.27,0.44l-3.18,0.94
			c-1.34,0.4-1.51,0.43-1.51,0.7c0,0.33,1.31,0.97,1.67,1.14c3.45,1.64,5.56,1.71,6.86,1.74c0.7,0,0.77,0,0.77,0.1
			c-0.54,0.3-1.37,0.77-1.81,1c-0.44,0.27-2.41,1.94-2.48,1.94c-0.47,0-3.68-1.77-6.33-4.25c-0.1-0.1-0.13-0.13-0.23-0.13
			c-0.07,0-0.1,0.03-0.17,0.07c-1.37,0.64-12.76,3.85-13.69,4.15c-0.27,0.1-1.44,0.84-1.77,0.84c-0.13,0-0.23-0.1-0.47-0.64
			c-0.17-0.44-1.34-2.61-1.34-2.64c0-0.1,0.13-0.13,0.2-0.13c0.1,0,0.33,0.03,0.43,0.07c0.4,0.1,0.84,0.13,1.27,0.13
			c0.4,0,2.81-0.13,3.38-0.23c0.8-0.17,0.8-0.4,0.8-2.48c0-0.57,0-1-0.4-1c-0.23,0-6.33,2.71-7.47,2.71c-0.13,0-0.17-0.03-0.17-0.1
			c0-0.07,0.47-0.3,0.54-0.33c4.79-2.44,6.6-3.75,10.14-6.39c0.23-0.17,0.47-0.33,0.47-0.57c0-0.27-0.27-0.3-0.57-0.3h-4.72
			c-0.57,0-3.05,0.03-4.22,0.1c-0.1,0-0.6,0.1-0.7,0.1c-0.13,0-0.17-0.1-0.3-0.23l-0.64-0.77c-0.13-0.17-0.13-0.17-0.13-0.23
			c0-0.07,0.07-0.07,0.1-0.07c0.2,0,1.24,0.1,1.47,0.1c0.97,0.07,2.71,0.13,4.59,0.13h6.9c0.97,0,0.97-0.67,0.97-1.1
			c0-2.14,0-2.38-0.13-2.85c-0.03-0.07-0.23-0.47-0.3-0.67c0-0.1,0.1-0.13,0.23-0.13c0.1,0,2.14,0.44,2.34,0.47
			c0.84,0.2,0.9,0.2,0.9,0.54c0,0.1-0.33,0.54-0.4,0.64c-0.3,0.47-0.3,0.6-0.3,1.81c0,0.94,0,1.31,1.07,1.31h5.96
			c0.8,0,1.37,0,1.64-0.1c0.3-0.17,1.47-1.71,1.88-1.71c0.17,0,3.11,1.77,3.11,2.24c0,0.44-0.67,0.44-1.81,0.44H70.11z M58.05,13.8
			c-0.17,0-3.78,2.48-4.42,2.48c-0.03,0-0.1,0-0.1-0.1s0.9-0.9,1.07-1.07c3.82-4.02,4.75-5.42,5.49-6.93
			c0.17-0.33,0.33-0.7,0.33-0.94c0-0.1-0.03-0.2-0.03-0.3c0-0.07,0.07-0.1,0.2-0.1s2.98,1.07,2.98,1.51c0,0.2-0.07,0.13-0.5,0.4
			c-0.8,0.47-2.88,2.88-3.18,3.28c0.03,0.13,0.03,0.17,0.74,0.47c0.2,0.07,0.74,0.3,0.74,0.67c0,0.23-0.07,0.3-0.47,0.6
			c-0.4,0.3-0.47,0.64-0.47,1.24c0,1.04,0.2,5.63,0.2,6.56c0,0.87-0.5,1.34-1.91,1.34c-0.37,0-0.47-0.3-0.47-0.8
			c0-0.13,0.07-0.97,0.07-1.14c0.07-1.94,0.07-3.48,0.07-6.56C58.39,14.24,58.35,13.8,58.05,13.8z M75.36,12.13
			c0.97-0.2,1.07-0.23,1.27-0.44c0.23-0.27,0.9-2.04,1.14-2.04c0.37,0,1.78,0.54,3.15,1.04c0.17,0.07,0.54,0.23,0.54,0.54
			c0,0.57-0.87,0.7-3.05,1.17l-6.29,1.34c-0.44,0.1-0.74,0.13-0.74,0.5c0,0.94,4.42,4.59,6.96,4.59c0.6,0,0.87-0.33,1.77-1.44
			c0.13-0.17,0.77-1.17,0.8-1.17c0.07,0,0.13,0.07,0.13,0.27c0,1.51,0,1.94,0.47,2.81c0.1,0.17,0.74,0.97,0.74,1.17
			c0,0.37-0.4,1.07-1.94,1.07c-2.71,0-7.37-1.74-10.58-6.16c-0.4-0.54-0.64-0.87-1.17-0.87c-0.1,0-0.13,0-0.44,0.07l-0.94,0.17
			c-1.17,0.2-3.15,0.67-4.12,0.97c-0.1,0.03-0.67,0.23-0.7,0.23c-0.1,0-0.17-0.07-0.3-0.17l-0.8-0.6c-0.13-0.1-0.17-0.17-0.17-0.23
			c0-0.07,0.8-0.17,1.31-0.23c2.08-0.33,3.75-0.57,4.79-0.84l0.54-0.13c0.33-0.07,0.64-0.13,0.64-0.57c0-0.1-1.1-3.25-1.27-3.88
			c-0.03-0.13-0.43-1.57-0.5-1.74c-0.03-0.1-0.37-0.47-0.37-0.6c0-0.2,0.23-0.2,0.33-0.2s2.21,0.47,2.61,0.57
			c0.17,0.03,0.43,0.13,0.43,0.37c0,0.1-0.2,0.33-0.27,0.5c-0.07,0.17-0.13,0.5-0.13,0.6c0,1.21,0.87,3.45,0.97,3.65
			c0.2,0.4,0.44,0.57,0.94,0.57c0.2,0,0.33-0.03,0.6-0.1L75.36,12.13z M72.15,31.75c0.07,0,0.2-0.03,0.2-0.1
			c0-0.07-0.07-0.13-0.1-0.17c-1.67-1.67-2.28-2.61-3.65-5.66c-0.07-0.17-0.17-0.37-0.37-0.37c-0.07,0-0.17,0.03-0.2,0.07
			c-0.2,0.17-1.07,0.84-1.27,0.97c-0.4,0.3-2.41,1.61-2.78,1.98c-0.4,0.37-0.4,0.67-0.4,3.31c0,0.94,0.07,1.24,0.97,1.24
			C64.98,33.02,71.18,31.95,72.15,31.75z M74.66,11.16c-0.33,0-0.54-0.3-0.8-0.8c-0.43-0.74-1.57-2.21-2.21-2.71
			c0,0-0.17-0.1-0.27-0.17c0-0.07,0.07-0.07,0.23-0.07c0.3,0,4.72,0.17,4.15,2.81C75.6,10.92,74.83,11.16,74.66,11.16z"/>
		<path class="st0" d="M89.99,37c-0.64,0-0.94-0.2-0.94-0.7s0.27-0.74,0.94-0.74h8c0.9,0,0.9-0.2,0.9-4.22
			c0-3.75-0.03-20.39-0.03-23.8c0-0.77,0.17-1.07,0.7-1.07c0.7,0,0.7,0.23,0.7,2.21v26.95c0,0.94-0.5,1.37-1.41,1.37H89.99z"/>
		<path class="st0" d="M110.28,32.35c0,0.56,0,2.33-1.02,2.33c-0.46,0-0.8-0.43-0.8-0.96c0-0.24,0.27-1.39,0.29-1.5
			c0.16-0.75,0.29-1.69,0.29-2.28c0-1.13,0-1.21,0.16-1.21c0.03,0,0.11,0.03,0.16,0.05C109.77,29.03,110.28,30.8,110.28,32.35z
			 M116.6,25.33c0.62,0,0.67,0,0.97-0.27c0.35-0.32,0.54-0.51,0.7-0.51c0.29,0,1.69,0.96,1.69,1.42c0,0.16-0.05,0.21-0.51,0.8
			c-0.08,0.11-0.16,0.29-0.21,0.91c-0.03,0.35-0.21,3.03-0.88,5.44c-0.64,2.36-2.65,3.29-3.19,3.29c-0.24,0-0.35-0.05-0.72-0.7
			c-0.16-0.24-0.4-0.51-0.53-0.62c-0.05-0.05-0.46-0.35-0.46-0.45c0-0.11,0.29-0.11,0.54-0.11c1.87,0,2.25-0.78,2.38-1.07
			c0.83-1.71,1.34-5.47,1.34-6.78c0-0.64-0.46-0.64-0.83-0.64h-4.71c-0.21,0-0.43,0.05-0.56,0.24c-0.38,0.51-0.46,0.64-1.1,0.64
			c-0.61,0-0.83-0.21-0.83-0.83c0-0.43,0.19-6.05,0.19-6.96c0-1.04-0.03-3.48-0.11-4.45c-0.03-0.16-0.16-1.07-0.16-1.26
			c0-0.11,0-0.16,0.08-0.16c0.13,0,1.36,0.51,1.63,0.62c0.38,0.13,0.75,0.19,1.15,0.19h3c1.1,0,1.42,0,1.69-0.46
			c0.38-0.67,0.51-0.86,0.86-0.86c0.29,0,1.98,1.26,1.98,1.66c0,0.37-0.56,0.37-1.44,0.37h-2.49c-0.83,0-0.83,0.19-0.83,1.61
			c0,0.94,0.05,1.34,0.75,1.34c0.56,0,0.72,0,0.94-0.43c0.19-0.32,0.48-0.86,0.88-0.86c0.38,0,1.61,1.29,1.61,1.63
			c0,0.37-0.46,0.37-1.23,0.37h-2.17c-0.78,0-0.78,0.13-0.78,2.25c0,0.72,0.59,0.72,0.78,0.72c0.4,0,0.56,0,0.78-0.43
			c0.13-0.29,0.4-0.86,0.83-0.86s1.69,1.29,1.69,1.66s-0.54,0.37-1.42,0.37h-1.82c-0.83,0-0.83,0.21-0.83,2.39
			c0,0.7,0.4,0.75,0.8,0.75H116.6z M113.07,32.46c0,0.86-0.45,1.13-0.76,1.13c-0.66,0-0.76-0.7-0.79-1.69
			c-0.03-0.75-0.14-1.55-0.33-2.38c-0.05-0.19-0.08-0.46-0.08-0.64c0-0.24,0.11-0.29,0.27-0.24
			C112.15,28.92,113.07,31.6,113.07,32.46z M113.07,17.75c0.78,0,0.78-0.43,0.78-1.45c0-1.15,0-1.5-0.8-1.5h-0.78
			c-0.8,0-0.8,0.38-0.8,1.47s0,1.47,0.8,1.47H113.07z M113.07,21.48c0.78,0,0.78-0.4,0.78-1.47c0-1.15,0-1.53-0.78-1.53h-0.8
			c-0.8,0-0.8,0.38-0.8,1.53c0,1.07,0,1.47,0.78,1.47H113.07z M112.99,25.33c0.86,0,0.86-0.35,0.86-1.56c0-1.18,0-1.58-0.78-1.58
			h-0.75c-0.86,0-0.86,0.35-0.86,1.56c0,1.21,0,1.58,0.83,1.58H112.99z M114.3,32.16c-0.4,0-0.4-0.35-0.45-1.34
			c-0.03-0.48-0.13-1.23-0.29-1.93c-0.05-0.19-0.16-0.86-0.16-0.96c0-0.13,0-0.29,0.11-0.29c0.27,0,1.68,1.53,1.68,2.92
			C115.18,31.65,114.59,32.16,114.3,32.16z M116.9,29.62c0,0.48-0.24,0.88-0.62,0.88c-0.48,0-0.51-0.16-0.75-1.74
			c-0.05-0.38-0.16-0.78-0.35-1.23c-0.03-0.11-0.05-0.19-0.05-0.29c0-0.13,0.05-0.21,0.19-0.19C115.72,27.1,116.9,28.52,116.9,29.62
			z M128.9,14.03c0.4,0,0.56-0.08,0.72-0.29c0.38-0.56,0.59-0.86,0.8-0.86c0.24,0,1.63,1.1,1.63,1.45c0,0.19-0.51,1.02-0.59,1.23
			c-0.08,0.32-0.08,2.65-0.08,3.13c0,0.51,0.08,3,0.08,3.56c0,0.7-0.72,1.18-1.34,1.18c-0.56,0-0.59-0.27-0.67-0.86
			c-0.03-0.32-0.05-0.54-0.72-0.54h-1.04c-0.19,0-0.75,0-0.75,0.67c0,0.13,0.03,0.27,0.05,0.43c0.38,2.46,1.34,7.34,4.42,10.42
			c0.27,0.24,1.63,1.45,1.63,1.55c0,0.11-0.16,0.13-0.27,0.13c-0.11,0-0.54-0.05-0.64-0.05c-0.27,0-0.88,0.03-1.47,0.13
			c-0.11,0.03-0.62,0.24-0.67,0.24c-0.13,0-0.29-0.29-0.38-0.4c-2.6-4.34-3.11-7.63-3.38-12.03c-0.08-1.07-0.13-1.1-0.78-1.1h-1.5
			c-0.8,0-0.8,0.16-0.8,1.63c0,3.62-1.04,8.14-3.16,11.06c-0.21,0.32-1.29,1.61-1.58,1.61c-0.11,0-0.16-0.08-0.16-0.13
			c0-0.11,0.83-1.42,0.99-1.69c2.33-4.37,2.33-10.1,2.33-12.19c0-1.39-0.03-5.17-0.38-7.77c-0.03-0.16-0.16-0.91-0.16-1.1
			c0-0.08,0-0.27,0.11-0.27c0.27,0,1.44,0.56,1.63,0.62c0.16,0.05,0.59,0.21,1.1,0.21H128.9z M123.89,14.73
			c-0.29,0-0.59,0.21-0.64,0.4c-0.11,0.29-0.11,4.74-0.11,5.28c0,0.54,0.05,0.94,0.8,0.94h4.82c0.19,0,0.54,0,0.7-0.29
			c0.19-0.29,0.19-4.88,0.19-5.3c0-0.75-0.11-1.02-0.83-1.02H123.89z"/>
		<path class="st0" d="M148.69,21.72c3.24,3.24,5.89,4.42,7.5,5.14c1.26,0.59,2.36,1.18,2.36,1.96c0,0.16-0.24,1.02-0.99,1.02
			c-0.24,0-2.65-0.08-6.64-3.91c-0.64-0.62-3.51-3.51-4.1-4.07c-0.62-0.59-1.07-0.94-1.5-0.94c-0.88,0-1.13,0.24-3.32,2.38
			c-0.19,0.19-2.14,2.04-2.2,2.06c-0.11,0.08-0.27,0.13-0.43,0.13c-1.02,0-2.6-1.26-2.6-1.71c0-0.11,0.05-0.13,0.51-0.19
			c1.23-0.11,3.19-1.13,4.37-2.06c2.25-1.79,2.79-1.98,3.7-1.98C146.04,19.55,146.92,19.95,148.69,21.72z"/>
		<path class="st0" d="M169.27,3.53c0.29-0.92,0.58-1.44,1.5-1.56l13.92-1.96c0.35-0.06,0.52,0.29,0.52,0.52
			c-0.4,1.27-1.27,2.71-2.08,3.58l-10.92,1.56c-1.33,0.17-1.62,0.46-1.96,1.56l-1.04,3.46c-0.23,0.69,0,0.98,0.81,1.04l1.21,0.12
			c7.22,0.69,15.3,3.87,15.3,12.65c0,9.99-11.49,16.92-20.67,17.21c-0.64-0.23-0.69-1.38-0.17-1.79
			c8.95-0.52,16.57-6.01,16.57-13.92c0-8.2-8.72-10.28-15.54-10.4c-0.87,0-0.92-0.46-0.52-1.79L169.27,3.53z"/>
		<path class="st0" d="M208.59,11.06c0,0.33-0.23,0.4-0.94,0.57c-0.33,0.1-0.94,1.07-1.67,2.28c-3.88,6.39-9.21,9.27-9.94,9.27
			c-0.13,0-0.2-0.07-0.2-0.2c0-0.2,0.07-0.23,0.7-0.74c4.52-3.55,7.06-9.11,7.53-10.11c0.23-0.5,1.1-3.35,1.14-3.35
			C205.45,8.68,208.59,10.49,208.59,11.06z M211.84,20.83c-0.87,0-0.87,0.07-1.07,1.84c-0.3,2.95-0.94,8.74-6.76,11.99
			c-2.75,1.54-6.23,2.18-6.4,2.18c-0.1,0-0.4,0-0.4-0.23c0-0.17,0.17-0.23,0.77-0.44c2.31-0.84,4.99-2.41,6.59-4.05
			c2.48-2.51,3.78-7.06,3.78-10.55c0-0.74-0.33-0.74-0.84-0.74h-1c-1.24,0-2.85,0.03-3.45,0.07c-0.13,0.03-0.6,0.1-0.7,0.1
			c-0.13,0-0.2-0.1-0.3-0.23L201.4,20c-0.1-0.13-0.13-0.17-0.13-0.2c0-0.07,0.03-0.1,0.13-0.1c0.23,0,1.24,0.13,1.47,0.13
			c1.64,0.07,3.01,0.1,4.59,0.1h7.33c1.51,0,1.67-0.07,2.21-0.64c0.5-0.54,0.8-0.74,1.04-0.74c0.54,0,2.48,1.54,2.48,2.24
			c0,0.17-0.54,0.77-0.6,0.9c-0.17,0.33-0.37,4.15-0.44,4.92c-0.37,4.05-0.64,6.8-1.57,8.3c-0.9,1.44-2.91,2.01-3.42,2.01
			c-0.37,0-0.37-0.1-0.64-1.04c-0.2-0.77-1.34-1.21-3.08-1.71c-0.74-0.2-1.11-0.33-1.11-0.54c0-0.2,0.3-0.2,0.37-0.2
			c0.23,0,1.14,0.2,1.31,0.23c1.77,0.23,1.97,0.27,2.38,0.27c1.61,0,2.51-0.3,2.98-3.75c0.33-2.58,0.67-6.46,0.67-8.17
			c0-0.9-0.07-1.21-1-1.21H211.84z M213.52,10.05c-0.84,0-1.98,0.03-2.68,0.07c-0.1,0-0.57,0.07-0.67,0.07
			c-0.1,0-0.13-0.03-0.27-0.2l-0.64-0.77c-0.07-0.07-0.1-0.17-0.1-0.23c0-0.03,0.03-0.07,0.1-0.07c0.2,0,1.17,0.13,1.37,0.13
			c0.37,0.03,1.77,0.1,2.01,0.1c0.77,0,1.21-0.57,1.41-0.87c0.67-0.94,0.74-1.04,1-1.04c0.44,0,2.91,1.67,2.91,2.41
			c0,0.33-0.1,0.37-1,0.6c-0.17,0.03-0.67,0.2-0.67,0.7c0,1.74,4.42,7.06,10.08,7.63c0.1,0,0.5,0.07,0.5,0.27
			c0,0.17-0.87,0.37-1,0.4c-0.87,0.44-1.61,1.04-2.04,1.54c-0.07,0.1-0.44,0.5-0.54,0.5c-1.14,0-6.66-4.62-8-9.68
			c-0.37-1.44-0.44-1.57-1.21-1.57H213.52z"/>
	</g>
</g>
</svg>
