<?xml version="1.0" encoding="utf-8"?>
<!-- Generator: Adobe Illustrator 24.0.0, SVG Export Plug-In . SVG Version: 6.00 Build 0)  -->
<svg version="1.1" id="Layer_1" xmlns="http://www.w3.org/2000/svg" xmlns:xlink="http://www.w3.org/1999/xlink" x="0px" y="0px"
	 viewBox="0 0 353.75 189.36" style="enable-background:new 0 0 353.75 189.36;" xml:space="preserve">
<style type="text/css">
	.st0{fill:#231815;}
	.st1{fill:#800006;}
	.st2{fill:none;stroke:#373331;stroke-width:0.4612;stroke-miterlimit:10;}
</style>
<g>
	<g>
		<g>
			<path class="st0" d="M5.36,25.5v31.41H3.83V23.94h12.03v1.56H5.36z"/>
			<path class="st0" d="M63.04,39.48H48.11c0.04,7.5,0.04,8.33,0.07,9.89c0.04,0.91,0.18,4.78,0.18,5.58c0,1.99-1.96,1.99-2.1,1.99
				c-1.12,0-1.12-0.83-1.12-1.12c0-0.51,0.18-3.22,0.22-3.84c0.07-2.17,0.07-3.22,0.11-12.5h-9.96c-0.91,0-2.64,0.04-4.27,0.33
				l-0.72-1.45c2.46,0.22,5.03,0.25,5.58,0.25h9.38v-9.6c-4.06,0.58-6.85,0.69-8.37,0.69c-1.34,0-2.25-0.07-2.97-0.11v-0.25
				c5.94-0.72,15.47-3.22,17.46-4.17c1.12-0.51,1.34-0.8,1.52-1.05l2.43,2.43c0.18,0.18,0.25,0.36,0.25,0.54
				c0,0.33-0.25,0.51-0.62,0.51c-0.33,0-0.65-0.07-1.16-0.25c-1.23,0.29-3.04,0.72-5.9,1.23v10.03h9.78l1.63-2.03
				c0.29-0.33,0.43-0.47,0.62-0.47c0.22,0,0.4,0.11,0.72,0.4l2.35,2.03c0.18,0.14,0.33,0.36,0.33,0.58
				C63.54,39.41,63.33,39.48,63.04,39.48z"/>
			<path class="st0" d="M132.64,28.33h-16.3c-1.56,4.02-2.83,6.99-4.64,10.11l0.47,0.33h13.11l0.91-1.12
				c0.22-0.25,0.36-0.4,0.54-0.4c0.22,0,0.43,0.11,0.69,0.33l1.67,1.34c0.18,0.14,0.4,0.36,0.4,0.62c0,0.33-0.43,0.72-1.3,1.3
				c0,3.19,0.04,6.41,0.14,9.93c0.04,0.54,0.18,3.19,0.18,3.77c0,1.67-1.45,1.81-1.77,1.81c-1.27,0-1.23-0.69-1.16-2.61h-13.62
				c0.04,1.59,0.07,2.93-1.77,2.93c-1.05,0-1.09-0.69-1.09-1.2c0-1.92,0.4-11.34,0.33-13.48c-3.48,4.96-6.3,7.24-9.24,8.59
				l-0.11-0.22c6.59-6.16,10.9-15,13.11-22.02h-7.1c-0.98,0-2.68,0.04-4.27,0.33l-0.69-1.41c1.85,0.14,3.7,0.22,5.54,0.22h21.01
				l1.56-1.99c0.22-0.29,0.4-0.44,0.58-0.44c0.22,0,0.43,0.18,0.65,0.36l2.35,1.99c0.18,0.18,0.36,0.43,0.36,0.58
				C133.19,28.25,132.93,28.33,132.64,28.33z M125.58,39.63h-13.62v13.22h13.62V39.63z"/>
			<path class="st0" d="M148.38,56.62v-1.56h10.5V23.65h1.52v32.96H148.38z"/>
		</g>
	</g>
	<g>
		<path class="st0" d="M4.42,5.65c-0.39,0-1.13,0.02-1.81,0.14L2.3,5.18c1.05,0.09,2.18,0.09,2.38,0.09h0.71V3H4.42
			C3.67,3,3.38,3.05,3.13,3.09l-0.2-0.54c0.7,0.06,1.38,0.08,1.69,0.08h0.77c0-0.6-0.02-1.65-0.03-1.81C5.33,0.59,5.25,0.4,5.19,0.2
			l1.52,0.46C6.83,0.7,6.92,0.76,6.92,0.88c0,0.19-0.11,0.25-0.48,0.42C6.38,1.58,6.38,1.69,6.37,2.63h0.34l0.34-0.48
			c0.09-0.14,0.14-0.2,0.23-0.2c0.11,0,0.17,0.05,0.29,0.17L8.04,2.6c0.09,0.09,0.15,0.15,0.15,0.23C8.19,2.95,8.1,3,7.96,3H6.35
			c0,0.36-0.02,1.95-0.02,2.27h0.31C7.48,4.16,8.98,2.04,9.1,1.02l1.19,0.87c0.08,0.05,0.14,0.12,0.14,0.22
			c0,0.22-0.17,0.23-0.56,0.28C9.03,3.57,8.38,4.47,7.7,5.27h0.97l0.51-0.63c0.11-0.12,0.15-0.2,0.23-0.2
			c0.08,0,0.22,0.11,0.28,0.17l0.73,0.63c0.08,0.06,0.14,0.14,0.14,0.25c0,0.14-0.12,0.15-0.23,0.15H7.4
			C6.6,6.6,6.07,7.16,5.61,7.61l0.2,0.09h2.12l0.4-0.45c0.06-0.08,0.12-0.14,0.22-0.14c0.06,0,0.12,0.03,0.23,0.11l0.73,0.49
			C9.69,7.84,9.72,7.92,9.72,8c0,0.15-0.09,0.22-0.56,0.48c-0.02,0.57-0.03,1.69,0.02,3.25c0.02,0.23,0.08,1.22,0.08,1.42
			c0,0.53-0.54,0.63-0.8,0.63c-0.37,0-0.36-0.17-0.34-0.73H5.67c0.02,0.53,0.03,1.01-0.8,1.01c-0.28,0-0.36-0.14-0.36-0.37
			c0-0.12,0.08-0.99,0.08-1.18C4.6,12.2,4.73,9.73,4.68,8.43c-1.22,1.02-2.27,1.58-2.81,1.86l-0.11-0.11
			C2.27,9.79,3.18,9.1,4.65,7.59C4.63,7.46,4.62,7.25,4.59,7.05l0.37,0.2c0.54-0.57,0.82-0.9,1.39-1.61H4.42z M5.65,8.07v2.09h2.47
			V8.07H5.65z M5.65,10.53v2.15h2.47v-2.15H5.65z M14.28,1.41l0.36-0.31c0.03-0.03,0.11-0.11,0.2-0.11c0.08,0,0.19,0.12,0.23,0.15
			l0.88,0.84c0.05,0.05,0.14,0.15,0.14,0.26c0,0.22-0.25,0.31-0.73,0.39c-0.85,1.18-2.27,3.19-2.35,3.28
			c0.65,0.36,3.12,1.76,3.12,4.24c0,1.48-0.9,2.29-2.38,2.47c-0.17-0.96-0.76-1.38-1.11-1.59l0.05-0.09c0.68,0.15,1.1,0.2,1.39,0.2
			c0.91,0,0.91-0.9,0.91-1.07c0-1.38-0.7-2.77-2.3-4.08c0.6-1.3,1.38-3.42,1.61-4.21h-2.2c-0.05,3.37-0.06,8,0.08,11.34
			c0,0.09,0.02,0.28,0.02,0.46c0.02,0.74-0.79,0.74-0.85,0.74c-0.26,0-0.39-0.11-0.39-0.42c0-0.37,0.06-0.99,0.06-1.36
			c0.06-2.63,0.09-7.84,0.09-8c0-1.27,0-2.72-0.26-3.76l1.41,0.62H14.28z"/>
		<path class="st0" d="M30.98,4.79h-0.29c-0.14,0.09-0.22,0.15-0.85,0.67c-0.08,0.06-0.68,0.46-0.8,0.56l-0.06-0.06
			c0.36-0.87,0.49-1.42,0.6-1.87h-9.65c-0.02,1.36-0.65,2.64-1.47,2.64c-0.45,0-0.63-0.37-0.63-0.65c0-0.39,0.26-0.65,0.8-1.18
			c0.34-0.34,0.94-1.18,1.04-2.03h0.08c0.08,0.25,0.15,0.48,0.19,0.84h6.53c0.32-0.48,1.25-2.35,1.14-3.51l1.5,0.79
			c0.15,0.08,0.23,0.15,0.23,0.25c0,0.14-0.15,0.19-0.71,0.28c-0.88,1.11-0.99,1.24-1.84,2.2h2.66l0.46-0.36
			c0.14-0.11,0.25-0.19,0.34-0.19c0.09,0,0.17,0.08,0.34,0.2l0.91,0.73c0.12,0.09,0.19,0.22,0.19,0.32
			C31.68,4.73,31.31,4.79,30.98,4.79z M29,11c0.02,0.2,0.02,0.34,0.03,1.58c0,0.14,0.06,0.88,0.06,1.05c0,0.62-0.57,0.68-0.71,0.68
			c-0.46,0-0.43-0.37-0.4-0.65h-6.39c0,0.23,0.02,0.74-0.66,0.74c-0.39,0-0.46-0.2-0.45-0.51c0.03-0.62,0.09-1.9,0.09-2.51
			c0-0.88-0.08-1.36-0.14-1.78l1.31,0.71h1.95c0.23-0.54,0.4-1.33,0.43-1.83h-1.65c0,0.25,0.02,0.71-0.62,0.71
			c-0.46,0-0.46-0.34-0.46-0.48c0-0.39,0.09-2.09,0.09-2.44c0-0.56-0.02-0.82-0.12-1.25l1.33,0.6h4.05l0.39-0.42
			c0.11-0.11,0.17-0.15,0.23-0.15s0.15,0.05,0.26,0.12l0.57,0.43c0.11,0.09,0.17,0.15,0.17,0.23c0,0.12-0.09,0.2-0.46,0.48
			c-0.02,0.31,0.08,1.72,0.08,2.01c0,0.42-0.28,0.63-0.66,0.63c-0.26,0-0.45-0.14-0.43-0.48h-1.41c-0.29,0.49-0.94,1.41-1.33,1.83
			h3.71l0.34-0.43c0.08-0.11,0.15-0.17,0.23-0.17c0.08,0,0.17,0.06,0.28,0.14l0.59,0.43c0.09,0.08,0.17,0.17,0.17,0.25
			C29.47,10.64,29.37,10.75,29,11z M22.06,3.28c-0.42,0-0.53-0.34-0.63-0.73c-0.2-0.77-0.42-1.21-0.87-1.82l0.06-0.08
			c0.8,0.4,2.04,1.02,2.04,1.99C22.66,3.05,22.37,3.28,22.06,3.28z M28,10.69h-6.4v2.6H28V10.69z M26.9,6h-4.44v2.12h4.44V6z
			 M24.97,3.08c-0.54,0-0.65-0.49-0.76-1.02c-0.12-0.59-0.28-0.97-0.73-1.65l0.06-0.08c1.28,0.57,2.01,1.36,2.01,2.07
			C25.55,2.51,25.52,3.08,24.97,3.08z"/>
		<path class="st0" d="M44.03,12.33l0.91-1.07c0.08-0.08,0.15-0.2,0.25-0.2c0.09,0,0.2,0.11,0.28,0.17l1.21,1.1
			c0.11,0.09,0.15,0.14,0.15,0.23c0,0.14-0.12,0.17-0.23,0.17H35.72c-0.26,0-1.08,0-1.82,0.14l-0.31-0.65
			c1.14,0.11,2.27,0.11,2.38,0.11H44.03z M43.77,2.1l0.73-0.9c0.06-0.06,0.15-0.19,0.23-0.19c0.09,0,0.22,0.09,0.29,0.15l1.16,0.93
			c0.08,0.06,0.15,0.12,0.15,0.23c0,0.14-0.12,0.17-0.23,0.17h-9.78c-0.26,0-1.08,0-1.82,0.14l-0.31-0.65
			c0.79,0.08,1.58,0.11,2.38,0.11H43.77z M42.51,6.96l0.8-0.91c0.08-0.09,0.17-0.19,0.25-0.19c0.06,0,0.15,0.05,0.29,0.15l1.22,0.93
			c0.06,0.05,0.15,0.14,0.15,0.25c0,0.14-0.14,0.15-0.23,0.15h-7.87c-0.28,0-1.08,0-1.83,0.14L35,6.85c1.13,0.09,2.1,0.11,2.38,0.11
			H42.51z"/>
		<path class="st0" d="M59.77,1.86l0.43-0.4c0.09-0.08,0.14-0.17,0.23-0.17c0.09,0,0.15,0.06,0.23,0.11l0.84,0.62
			c0.09,0.08,0.17,0.14,0.17,0.26c0,0.22-0.51,0.45-0.65,0.51c-0.05,1.52-0.02,5.96,0.06,8.48c0,0.23,0.09,1.33,0.09,1.55
			c0,0.63-0.54,0.8-0.88,0.8c-0.49,0-0.46-0.28-0.43-0.9h-8.76c0,0.09,0,0.56-0.02,0.62c-0.11,0.36-0.57,0.48-0.84,0.48
			c-0.22,0-0.46-0.09-0.46-0.43c0-0.19,0.05-0.97,0.05-1.14c0.06-2.24,0.11-4.49,0.11-6.71c0-3.03-0.08-3.57-0.22-4.47l1.47,0.8
			H59.77z M51.11,2.23v4.79h3.79V2.23H51.11z M51.11,7.39v4.95h3.79V7.39H51.11z M59.86,7.02V2.23h-3.9v4.79H59.86z M59.86,12.34
			V7.39h-3.9v4.95H59.86z"/>
		<path class="st0" d="M63.6,13.52c0.87-2.12,1.13-4.55,1.13-4.75c0-0.17-0.02-0.36-0.05-0.53l1.36,0.51
			c0.06,0.03,0.17,0.08,0.17,0.2c0,0.14-0.05,0.17-0.4,0.42c-0.32,0.99-1.01,2.95-2.1,4.19L63.6,13.52z M69.75,2.83
			c0.06,0.05,0.11,0.11,0.11,0.22c0,0.19-0.15,0.23-0.65,0.34c-0.53,0.71-1.35,1.79-2.72,3.34c0.08-0.02,1.13-0.05,1.93-0.12
			c-0.11-0.26-0.29-0.65-0.56-1.1l0.08-0.11c0.84,0.36,1.89,1.04,1.89,1.84c0,0.36-0.22,0.7-0.62,0.7c-0.39,0-0.42-0.12-0.71-1.11
			C68.27,6.9,68,6.98,67.4,7.15c0.02,2.13,0,3.23,0.03,4.55c0,0.28,0.05,1.47,0.05,1.72c0,0.23,0,0.85-0.7,0.85
			c-0.43,0-0.43-0.36-0.43-0.48c0-0.71,0.12-5.38,0.14-6.4c-0.39,0.09-0.88,0.22-1.98,0.43c-0.22,0.23-0.23,0.26-0.36,0.26
			c-0.11,0-0.19-0.11-0.22-0.22l-0.32-1.31c0.34,0.09,0.74,0.23,1.44,0.23c0.09,0,0.93-0.03,1.05-0.05
			c1.02-1.52,2.33-3.82,2.32-4.76L69.75,2.83z M64.2,2.68c0.32,0.03,0.93,0.09,1.61,0.49c0-0.02,0.77-2.04,0.66-3.03l1.48,0.77
			c0.09,0.05,0.15,0.12,0.15,0.2c0,0.15-0.14,0.22-0.68,0.43c-0.56,0.76-0.76,0.99-1.41,1.76c0.2,0.15,0.68,0.51,0.68,1.1
			c0,0.42-0.28,0.71-0.59,0.71c-0.39,0-0.53-0.32-0.63-0.56c-0.17-0.4-0.59-1.16-1.33-1.78L64.2,2.68z M67.77,8.65
			c1.04,0.37,1.83,1.1,1.83,1.73c0,0.36-0.2,0.66-0.59,0.66c-0.43,0-0.51-0.25-0.74-1.08c-0.12-0.43-0.31-0.91-0.59-1.22L67.77,8.65
			z M70.17,8.91c-0.39,0-0.65,0.03-0.77,0.06l-0.22-0.49c0.57,0.05,1.04,0.06,1.18,0.06h0.48l0.29-0.36
			c0.03-0.03,0.11-0.12,0.2-0.12c0.06,0,0.17,0.08,0.23,0.14l0.62,0.59c0.06,0.06,0.17,0.15,0.17,0.26c0,0.12-0.05,0.19-0.51,0.36
			c-0.74,1.62-1.89,3.11-3.62,3.96l-0.03-0.09c1.79-1.72,2.38-3.46,2.68-4.36H70.17z M73.39,6.88l0.28,0.09
			c0.11,0.03,0.34,0.12,0.34,0.28c0,0.19-0.28,0.34-0.4,0.4c0,0.57,0.6,1.69,0.9,2.12c0.88-0.8,1.42-1.47,1.67-2.1l1.07,1.07
			c0.03,0.03,0.08,0.12,0.08,0.2c0,0.03-0.02,0.2-0.25,0.2c-0.05,0-0.25-0.02-0.4-0.03c-0.74,0.34-1.31,0.56-2.07,0.82
			c0.9,1.27,2.23,2.17,3.74,2.52v0.12c-1.08,0.26-1.3,0.6-1.56,0.99c-1.56-1.19-2.6-2.71-3.14-4.59c0,0.57,0.09,3.09,0.09,3.6
			c0,0.37,0,1.44-1.55,1.72c-0.17-0.49-0.34-0.97-1.59-1.5l0.02-0.12c0.25,0.03,1.28,0.09,1.48,0.09c0.62,0,0.63-0.12,0.63-0.59V8
			c0-0.53,0-0.85-0.05-1.11h-1.24c0.02,0.42-0.25,0.63-0.62,0.63c-0.34,0-0.49-0.12-0.49-0.4c0-0.22,0.08-2.24,0.08-2.66
			c0-0.82-0.02-2.37-0.14-3.08l1.25,0.66h0.93c0.06-0.26,0.14-0.73,0.14-1.28c0-0.28-0.02-0.4-0.08-0.76l1.45,0.46
			c0.12,0.05,0.26,0.11,0.26,0.26c0,0.2-0.15,0.25-0.56,0.32c-0.31,0.42-0.53,0.65-0.84,0.99h2.1l0.42-0.48
			c0.05-0.06,0.19-0.17,0.26-0.17s0.17,0.06,0.23,0.11l0.73,0.54c0.09,0.06,0.2,0.17,0.2,0.26c0,0.14-0.06,0.17-0.57,0.54
			c0,0.63,0.14,3.62,0.14,3.96c0,0.46-0.31,0.68-0.73,0.68c-0.42,0-0.42-0.25-0.4-0.6H73.39z M71.42,2.41v1.86h3.79V2.41H71.42z
			 M75.21,6.51V4.64h-3.79v1.87H75.21z"/>
	</g>
	<g>
		<path class="st0" d="M169.44,54.5c-0.43,0-0.68-0.31-0.68-0.76c0-0.39,0.7-2.01,0.78-2.36c0.08-0.35,0.06-0.64,0.04-0.88
			l0.19-0.02c0.35,0.58,0.76,1.36,0.76,2.45C170.53,53.47,170.37,54.5,169.44,54.5z M177.03,48.52c-0.29,3.21-0.93,4.93-1.25,5.67
			c-0.47,1.03-1.21,1.44-2.22,1.71c-0.27-1.27-1.25-1.83-1.69-2.04l0.04-0.14c1.15,0.23,1.93,0.23,1.99,0.23
			c0.41,0,0.58-0.04,0.8-0.53c0.6-1.34,0.9-4.01,0.9-5.37h-4.58c0.02,0.33-0.02,1.01-0.88,1.01c-0.41,0-0.51-0.21-0.51-0.56
			c0-0.12,0.04-0.62,0.04-0.72c0.08-1.3,0.1-4.87,0.1-6.29c0-0.72,0-2.2-0.21-3.41l1.54,0.76h3.82l0.49-0.6
			c0.14-0.17,0.25-0.27,0.35-0.27c0.12,0,0.23,0.1,0.41,0.23l0.8,0.6c0.14,0.1,0.23,0.25,0.23,0.33c0,0.14-0.18,0.21-0.33,0.21
			h-2.84v2.38h0.88l0.39-0.49c0.16-0.2,0.23-0.29,0.33-0.29s0.23,0.1,0.41,0.23l0.66,0.49c0.1,0.08,0.23,0.19,0.23,0.33
			c0,0.19-0.19,0.23-0.33,0.23h-2.57v2.36h0.9l0.49-0.58c0.14-0.16,0.23-0.25,0.33-0.25c0.12,0,0.21,0.06,0.37,0.21l0.62,0.58
			c0.12,0.1,0.19,0.25,0.19,0.33c0,0.12-0.12,0.21-0.31,0.21h-2.59v2.49h1.38l0.53-0.6c0.12-0.14,0.23-0.25,0.33-0.25
			c0.1,0,0.23,0.08,0.41,0.27l0.8,0.74c0.08,0.08,0.14,0.16,0.14,0.27C177.64,48.23,177.17,48.45,177.03,48.52z M171.83,53.61
			c-0.68,0-0.68-0.86-0.68-1.3c0-1.27,0-1.71-0.23-2.26l0.12-0.06c0.14,0.16,0.88,0.9,0.99,1.09c0.49,0.76,0.58,1.3,0.58,1.58
			C172.61,53.26,172.16,53.61,171.83,53.61z M172.81,39.33H171v2.38h1.81V39.33z M172.81,42.2H171v2.36h1.81V42.2z M172.81,45.06
			H171v2.49h1.81V45.06z M173.53,52.28c-0.53,0-0.6-0.35-0.76-1.52c-0.06-0.45-0.17-0.99-0.39-1.5l0.08-0.06
			c1.09,0.95,1.71,1.5,1.71,2.3C174.17,51.85,173.96,52.28,173.53,52.28z M174.68,50.76c-0.41,0-0.49-0.33-0.72-1.15
			c-0.16-0.53-0.33-0.76-0.47-0.95l0.12-0.12c0.97,0.45,1.58,0.88,1.58,1.56C175.2,50.43,175.01,50.76,174.68,50.76z M188.29,54.54
			c-0.99,0.06-1.71,0.93-1.95,1.21c-2.3-1.87-4.01-5.41-4.01-10.26h-2.2c-0.21,5.06-1.21,8.16-4.21,10.32l-0.1-0.08
			c2.88-3.12,2.98-8.86,2.98-13.14c0-2.55-0.14-3.23-0.35-4.36l1.95,0.86h4.23l0.6-0.58c0.12-0.12,0.23-0.19,0.33-0.19
			c0.1,0,0.19,0.04,0.35,0.19l0.82,0.7c0.12,0.1,0.19,0.2,0.19,0.33c0,0.14-0.39,0.43-0.64,0.6c-0.02,0.35-0.04,0.74-0.04,1.3
			c0,0.66,0.12,3.54,0.12,4.17c0,0.64-0.64,0.82-0.97,0.82c-0.66,0-0.62-0.45-0.6-0.95h-2.1c0.47,4.48,3.43,8.04,5.61,8.92
			L188.29,54.54z M184.82,39.59h-4.56c-0.02,0.78-0.1,4.56-0.1,5.41h4.67V39.59z"/>
		<path class="st0" d="M188.59,49.65c1.97-1.95,4.24-5.47,4.81-6.82c0.16-0.41,0.25-0.66,0.39-1.21l1.67,1.3
			c0.08,0.06,0.12,0.16,0.12,0.27c0,0.29-0.33,0.29-0.8,0.37c-0.33,0.47-0.74,1.05-1.48,2.01c0.25,0.21,0.35,0.27,0.35,0.41
			c0,0.12-0.08,0.25-0.53,0.58c-0.06,0.88-0.06,1.69-0.06,2.32c0,0.88,0.06,4.85,0.06,5.65c0,1.07,0,1.64-0.9,1.64
			c-0.37,0-0.72-0.12-0.72-0.58c0-0.27,0.12-1.44,0.12-1.67c0.06-1.25,0.04-1.79,0.08-6.48c-1.48,1.5-2.61,2.12-3.02,2.34
			L188.59,49.65z M188.68,43.62c2.88-2.69,4.54-5.39,4.77-6.25l1.54,1.11c0.04,0.04,0.16,0.14,0.16,0.25c0,0.23-0.08,0.25-0.86,0.41
			c-1.79,2.39-3.76,3.7-5.51,4.65L188.68,43.62z M205.06,44.71l0.74-1.03c0.16-0.25,0.25-0.27,0.31-0.27c0.12,0,0.21,0.08,0.39,0.23
			l1.21,1.03c0.12,0.1,0.21,0.19,0.21,0.31c0,0.21-0.16,0.23-0.31,0.23h-7.32l1.91,0.62c0.12,0.04,0.27,0.1,0.27,0.25
			c0,0.27-0.49,0.55-0.64,0.62v2.04h2.12l0.74-0.88c0.16-0.19,0.21-0.25,0.33-0.25c0.1,0,0.16,0.04,0.39,0.23l1.03,0.86
			c0.1,0.08,0.21,0.16,0.21,0.31c0,0.19-0.17,0.23-0.31,0.23h-4.5c0,0.29-0.02,4.42-0.02,4.52c0.47,0.06,1.58,0.23,3.06,0.23
			c1.89,0,2.84-0.27,3.31-0.37l0.02,0.08c-0.33,0.27-1.01,0.82-1.19,1.99c-0.33,0.02-0.68,0.06-1.17,0.06
			c-6.62,0-7.71-3.72-8.18-5.41c-0.51,1.42-1.48,3.89-4.13,5.3l-0.06-0.08c3.04-3.43,3.35-7.42,3.35-8.28
			c0-0.47-0.04-0.72-0.08-0.93l2.1,0.68c0.12,0.04,0.23,0.1,0.23,0.29c0,0.1-0.04,0.16-0.1,0.23c-0.08,0.06-0.51,0.27-0.6,0.31
			c-0.21,0.97-0.37,1.46-0.56,2.01c0.9,2.01,2.01,3.04,2.65,3.41c0-5.41,0-5.76-0.04-6.6c-0.02-0.25-0.14-1.25-0.16-1.46h-2.16
			c-0.51,0-1.5,0.02-2.43,0.19l-0.41-0.82c1.42,0.12,2.88,0.14,3.17,0.14h1.99c0-1.21,0-2.51-0.02-3.62h-1.58
			c-0.37,0-1.42,0-2.4,0.19l-0.41-0.8c1.27,0.1,2.55,0.12,3.17,0.12h1.23c-0.04-1.97-0.06-2.14-0.37-3.19l2.14,0.64
			c0.16,0.04,0.29,0.1,0.29,0.25c0,0.14-0.51,0.6-0.62,0.68v1.62h2.01l0.8-0.99c0.12-0.14,0.18-0.25,0.33-0.25
			c0.14,0,0.2,0.06,0.37,0.2l1.09,0.99c0.1,0.1,0.21,0.19,0.21,0.33c0,0.19-0.19,0.21-0.31,0.21h-4.52v3.62H205.06z"/>
		<path class="st0" d="M228.1,45.02h-9.17l0.72,0.16c0.43,0.1,0.51,0.1,0.51,0.29c0,0.16-0.06,0.25-0.51,0.49
			c0,0.58,0.08,3.17,0.08,3.68c0,1.23,0,1.85-2.16,2.47c-0.23-0.86-0.84-1.44-1.75-1.89V50.1c0.27,0,1.46,0.08,1.71,0.08
			c0.74,0,0.74-0.02,0.76-0.76c0.02-0.97,0-3.31-0.02-4.4h-5.59c-0.51,0-1.5,0.02-2.43,0.19l-0.41-0.82
			c1.4,0.12,2.86,0.14,3.17,0.14h0.97c0-3.64,0-4.03-0.31-5.18l2.01,0.55c0.31,0.08,0.39,0.16,0.39,0.35c0,0.16-0.06,0.23-0.64,0.62
			v3.66h2.82c0-4.63,0-5.14-0.04-5.84c-0.02-0.45-0.08-0.93-0.23-2.01l1.89,0.51c0.23,0.06,0.39,0.12,0.39,0.35
			c0,0.14,0,0.23-0.62,0.58v2.65h2.96l0.8-1.17c0.08-0.1,0.2-0.27,0.33-0.27c0.1,0,0.25,0.12,0.37,0.23l1.32,1.17
			c0.12,0.12,0.21,0.19,0.21,0.31c0,0.21-0.16,0.23-0.31,0.23h-5.67v3.27h5.65l0.97-1.23c0.12-0.16,0.25-0.27,0.33-0.27
			c0.1,0,0.25,0.1,0.37,0.23l1.23,1.23c0.14,0.14,0.21,0.23,0.21,0.31C228.41,45,228.24,45.02,228.1,45.02z M216.42,47.51
			c-0.08,0.04-0.33,0.1-0.51,0.16c-1.38,2.3-3.29,4.05-5.57,5.39l-0.08-0.1c2.2-2.32,3.7-5.06,3.99-5.74
			c0.16-0.37,0.27-0.74,0.39-1.23l1.6,0.84c0.19,0.1,0.35,0.19,0.35,0.43C216.58,47.36,216.52,47.47,216.42,47.51z M222.71,51.17
			c-3.29,2.88-6.54,4.75-11.55,4.91l-0.02-0.14c3.06-0.76,6.19-1.95,9.13-4.67c0.68-0.62,1.4-1.3,1.83-2.03l1.25,1.23
			c0.16,0.16,0.25,0.27,0.25,0.39C223.59,51.11,223.51,51.11,222.71,51.17z M226.29,51.7c-0.6,0-0.88-0.45-1.27-1.09
			c-1.29-2.12-2.34-3.08-3.72-4.07l0.08-0.12c3.68,0.88,5.74,3.15,5.74,4.4C227.11,51.25,226.78,51.7,226.29,51.7z"/>
		<path class="st1" d="M236.17,16.75l-0.56,15.65c2.67-2.36,5.03-4.29,9.63-4.29c8.95,0,13.23,7.39,13.23,14.23
			c0,9.01-7.14,16.03-15.34,16.03c-7.08,0-11.74-5.28-11.74-9.13c0-2.36,1.49-3.85,3.6-3.85c1.86,0,3.23,1.24,3.23,3.23
			c0,0.62-0.06,0.87-0.31,1.86c-0.12,0.5-0.19,1.37-0.19,1.74c0,2.67,2.8,4.04,5.28,4.04c5.03,0,9.75-4.78,9.75-13.11
			c0-7.89-4.16-12.24-8.7-12.24c-2.48,0-6.27,1.37-9.69,5.4l-0.93-0.5l0.93-23.98h21.62l-1.24,4.91H236.17z"/>
		<path class="st0" d="M267.82,40.42c-1.71,3.49-4.81,6.13-6.37,6.99l-0.1-0.14c2.88-3.27,4.5-6.15,4.97-7.52
			c0.19-0.51,0.27-0.92,0.33-1.32l1.77,1.19c0.1,0.06,0.27,0.19,0.27,0.33C268.69,40.19,268.15,40.33,267.82,40.42z M275.28,46.85
			c-0.21,7.4-0.62,8.9-4.32,9.23c-0.08-1.3-1.09-1.97-1.54-2.26l0.02-0.14c0.86,0.18,1.75,0.35,2.39,0.35c0.99,0,1.38-0.23,1.69-2.1
			c0.25-1.52,0.37-4.95,0.31-5.92h-4.15c-0.12,3.23-1.5,8.8-7.98,9.99l-0.04-0.17c4.17-1.93,6.29-5.04,6.5-9.83h-0.6
			c-0.51,0-1.5,0.02-2.43,0.21l-0.39-0.82c1.27,0.1,2.53,0.12,3.15,0.12h5.82l0.56-0.49c0.12-0.12,0.25-0.23,0.37-0.23
			c0.1,0,0.21,0.1,0.29,0.18l0.82,0.9c0.1,0.1,0.19,0.23,0.19,0.33C275.92,46.4,275.86,46.44,275.28,46.85z M279.03,46.83
			c-2.2-0.95-4.65-3.17-6.19-7.81h-1.64c-1.03,0-1.44,0.08-1.73,0.12l-0.27-0.72c0.92,0.08,1.83,0.1,2.24,0.1h1.03l0.66-0.66
			c0.19-0.19,0.27-0.23,0.37-0.23c0.12,0,0.2,0.1,0.35,0.23l0.76,0.74c0.12,0.1,0.16,0.19,0.16,0.31c0,0.41-0.95,0.58-1.32,0.64
			c0.99,2.65,4.4,5.28,7.54,5.51l0.02,0.21C279.87,45.62,279.4,46.28,279.03,46.83z"/>
		<path class="st0" d="M285.28,55.63c-1.55-1.24-2.35-3.03-2.35-4.81s0.8-3.57,2.35-4.81l0.09,0.14c-1.85,1.96-1.89,3.94-1.89,4.67
			c0,0.72,0.04,2.71,1.89,4.67L285.28,55.63z"/>
		<path class="st0" d="M290.43,48.19c0.08,0.04,0.13,0.1,0.13,0.18c0,0.09-0.11,0.15-0.42,0.21c-0.13,0.16-0.41,0.49-0.83,1.01
			c-0.38,0.46-0.71,0.82-0.97,1.1c0.05,0,0.88-0.04,1.41-0.11c-0.04-0.07-0.16-0.3-0.41-0.57l0.05-0.06c0.77,0.3,1.37,0.75,1.37,1.2
			c0,0.19-0.11,0.41-0.38,0.41c-0.24,0-0.34-0.12-0.43-0.46c-0.01-0.03-0.05-0.17-0.11-0.32l-0.9,0.2c0,0.43,0.03,2.46,0.03,2.65
			c0.01,0.2,0.04,1.09,0.04,1.27c0,0.26-0.23,0.43-0.48,0.43c-0.21,0-0.27-0.13-0.27-0.3c0-0.16,0.04-0.81,0.04-0.95
			c0.01-0.32,0.02-1.29,0.03-2.97c-0.63,0.14-1.12,0.25-1.25,0.28c-0.06,0.1-0.16,0.29-0.25,0.29c-0.1,0-0.16-0.12-0.18-0.18
			l-0.22-0.84c0.17,0.04,0.46,0.07,0.7,0.07c0.31,0,0.77-0.01,0.92-0.02c0.68-0.91,1.28-2.18,1.42-2.57c0.04-0.1,0.06-0.28,0.06-0.4
			L290.43,48.19z M286.51,54.72c0.43-0.96,0.72-2.22,0.7-2.9l0.81,0.3c0.07,0.03,0.14,0.09,0.14,0.14c0,0.07-0.06,0.12-0.32,0.22
			c-0.32,0.92-0.61,1.48-1.28,2.27L286.51,54.72z M286.89,48.2c0.28,0.07,0.61,0.16,0.85,0.28c0.28-0.56,0.72-1.64,0.66-2.22
			l0.94,0.47c0.08,0.04,0.12,0.1,0.12,0.15c0,0.15-0.15,0.18-0.38,0.22c-0.47,0.6-0.54,0.68-1.21,1.46
			c0.29,0.18,0.59,0.45,0.59,0.78c0,0.23-0.15,0.48-0.41,0.48c-0.23,0-0.29-0.12-0.51-0.61c-0.23-0.52-0.46-0.73-0.66-0.94
			L286.89,48.2z M289.23,51.98c0.41,0.18,1.4,0.63,1.4,1.3c0,0.32-0.23,0.49-0.44,0.49c-0.27,0-0.32-0.2-0.45-0.66
			c-0.14-0.52-0.33-0.8-0.55-1.09L289.23,51.98z M293.98,48.77l0.3-0.28c0.05-0.05,0.11-0.11,0.14-0.11c0.04,0,0.11,0.06,0.14,0.09
			l0.48,0.41c0.05,0.04,0.09,0.1,0.09,0.15c0,0.07-0.19,0.21-0.37,0.34c-0.06,2.75-0.08,3.98-0.61,5c-0.37,0.71-0.99,0.96-1.54,0.97
			c-0.08-0.47-0.39-0.77-0.9-1.12l0.01-0.06c0.46,0.09,1.06,0.2,1.32,0.2c1,0,1.05-3.28,1.05-4.3c0-0.17-0.01-0.87-0.01-1.04h-2.68
			c-0.49,0.92-0.82,1.26-0.97,1.42l-0.06-0.04c0.74-1.46,1.07-3.14,1.07-3.65c0-0.1-0.03-0.29-0.05-0.38l1.07,0.46
			c0.05,0.02,0.11,0.07,0.11,0.14c0,0.1-0.15,0.17-0.39,0.28c-0.11,0.32-0.29,0.81-0.66,1.54H293.98z M291.27,50.67
			c0.94,0.39,1.41,0.71,1.41,1.24c0,0.24-0.12,0.47-0.4,0.47c-0.26,0-0.34-0.11-0.56-0.79c-0.08-0.26-0.27-0.6-0.5-0.85
			L291.27,50.67z"/>
		<path class="st0" d="M299.88,51.22c0.46,0.39,0.68,0.88,0.68,1.47c0,1.22-1,2.1-2.31,2.1c-1.07,0-1.98-0.61-1.98-1.4
			c0-0.44,0.29-0.64,0.57-0.64c0.34,0,0.49,0.29,0.49,0.5c0,0.15-0.03,0.24-0.06,0.32c-0.02,0.06-0.03,0.13-0.03,0.23
			c0,0.38,0.43,0.65,0.89,0.65c0.76,0,1.54-0.75,1.54-1.76c0-1.02-0.75-1.82-1.55-1.82c-0.06,0-0.34,0.04-0.4,0.04
			c-0.15,0-0.22-0.09-0.22-0.21c0-0.13,0.1-0.23,0.23-0.23c0.06,0,0.36,0.06,0.43,0.06c0.83,0,1.36-0.75,1.36-1.55
			c0-0.78-0.47-1.49-1.25-1.49c-0.53,0-0.8,0.38-0.8,0.67c0,0.05,0.02,0.1,0.03,0.15c0.02,0.07,0.03,0.17,0.03,0.24
			c0,0.31-0.23,0.55-0.51,0.55c-0.33,0-0.5-0.29-0.5-0.55c0-0.55,0.64-1.39,1.91-1.39c1.22,0,1.99,0.79,1.99,1.67
			c0,0.35-0.13,0.68-0.37,1.01c-0.41,0.54-0.85,0.71-1.26,0.84C299.23,50.83,299.53,50.93,299.88,51.22z"/>
		<path class="st0" d="M301.98,48.14l-0.09,2.5c0.43-0.38,0.8-0.68,1.54-0.68c1.43,0,2.11,1.18,2.11,2.27
			c0,1.44-1.14,2.56-2.45,2.56c-1.13,0-1.88-0.84-1.88-1.46c0-0.38,0.24-0.62,0.58-0.62c0.3,0,0.52,0.2,0.52,0.52
			c0,0.1-0.01,0.14-0.05,0.3c-0.02,0.08-0.03,0.22-0.03,0.28c0,0.43,0.45,0.65,0.84,0.65c0.8,0,1.56-0.76,1.56-2.1
			c0-1.26-0.67-1.96-1.39-1.96c-0.4,0-1,0.22-1.55,0.86l-0.15-0.08l0.15-3.83h3.46l-0.2,0.78H301.98z"/>
		<path class="st0" d="M308.35,54.79c-0.68,0-1.26-0.48-1.63-1.07c-0.42-0.69-0.61-1.91-0.61-2.83c0-2.12,0.9-3.72,2.23-3.72
			c1.02,0,2.23,1.1,2.23,3.81C310.58,53.41,309.56,54.79,308.35,54.79z M307.24,48.82c-0.14,0.5-0.23,1.33-0.23,2.16
			c0,2.21,0.53,3.48,1.34,3.48c0.68,0,0.99-0.91,1.1-1.29c0.14-0.51,0.24-1.35,0.24-2.18c0-2.26-0.55-3.48-1.34-3.48
			C307.64,47.5,307.34,48.47,307.24,48.82z"/>
		<path class="st0" d="M312.58,49.71v0.78c0.27-0.27,0.78-0.78,1.64-0.78c0.93,0,1.11,0.61,1.19,0.89c0.34-0.33,0.88-0.89,1.78-0.89
			c0.87,0,1.27,0.53,1.27,1.63v2.34c0,0.38,0.2,0.6,0.5,0.6h0.19v0.32h-2.08v-0.32h0.18c0.35,0,0.51-0.27,0.51-0.6V51.4
			c0-0.28-0.05-1.26-0.87-1.26c-0.28,0-0.9,0.16-1.4,0.86c0,0.08,0.01,0.16,0.01,0.34v2.34c0,0.42,0.23,0.6,0.5,0.6h0.29v0.32h-2.27
			v-0.32h0.29c0.27,0,0.5-0.19,0.5-0.6V51.4c0-0.21-0.02-1.26-0.86-1.26c-0.24,0-0.87,0.13-1.34,0.78v2.76c0,0.42,0.24,0.6,0.5,0.6
			h0.18v0.32h-2.07v-0.32h0.18c0.3,0,0.5-0.21,0.5-0.6V50.7c0-0.31-0.17-0.47-0.41-0.47c-0.11,0-0.21,0.01-0.3,0.04l-0.04-0.19
			L312.58,49.71z"/>
		<path class="st0" d="M320.18,55.63l-0.09-0.14c1.85-1.96,1.89-3.94,1.89-4.67c0-0.72-0.04-2.71-1.89-4.67l0.09-0.14
			c1.55,1.24,2.35,3.03,2.35,4.81S321.73,54.39,320.18,55.63z"/>
	</g>
	<g>
		<path class="st0" d="M170.41,31.45c-1.55-1.24-2.35-3.03-2.35-4.81c0-1.78,0.8-3.57,2.35-4.81l0.09,0.14
			c-1.85,1.96-1.89,3.94-1.89,4.67c0,0.72,0.04,2.71,1.89,4.67L170.41,31.45z"/>
		<path class="st0" d="M173.56,27.86l-0.49,1.51c-0.03,0.08-0.06,0.18-0.06,0.33c0,0.37,0.28,0.4,0.42,0.4h0.28v0.32h-2.16V30.1
			h0.33c0.42,0,0.77-0.43,0.93-0.91l1.96-6.02l0.87-0.19l2.17,6.44c0.2,0.58,0.46,0.68,0.74,0.68h0.22v0.32h-2.44V30.1h0.3
			c0.15,0,0.41-0.14,0.41-0.44c0-0.11-0.03-0.18-0.09-0.37l-0.48-1.43H173.56z M174.99,23.49l-1.32,4.05h2.69L174.99,23.49z"/>
		<path class="st0" d="M182.48,22.98h0.41v5.04h1.12v0.32h-1.12v1.15c0,0.44,0.22,0.61,0.69,0.61h0.16v0.32h-2.52V30.1h0.16
			c0.47,0,0.69-0.16,0.69-0.61v-1.15h-2.67v-0.35L182.48,22.98z M182.07,24.29l-2.29,3.73h2.29V24.29z"/>
		<path class="st0" d="M192.64,27.4c-0.01,0.68,0.02,1.61,0.04,2.29c0,0.1,0.03,0.55,0.03,0.64c0,0.33-0.32,0.43-0.52,0.43
			c-0.3,0-0.3-0.07-0.28-0.73h-5.86c0,0.05,0.01,0.44,0,0.52c-0.04,0.35-0.44,0.38-0.52,0.38c-0.17,0-0.29-0.06-0.29-0.24
			c0-0.07,0.02-0.36,0.02-0.41c0.02-0.77,0.03-1.56,0.03-2.32c0-0.68-0.02-0.87-0.14-1.31l1.04,0.3c0.08,0.02,0.16,0.05,0.16,0.14
			c0,0.11-0.15,0.2-0.33,0.31c-0.03,0.85,0,2.06,0.01,2.4h2.56c0-0.83,0-3.04-0.01-3.72h-1.95c0.01,0.4-0.3,0.46-0.5,0.46
			c-0.27,0-0.27-0.15-0.27-0.23c0-0.33,0.03-1.8,0.03-2.1c0-0.67,0-0.86-0.16-1.43l1.04,0.36c0.06,0.02,0.15,0.08,0.15,0.15
			c0,0.14-0.21,0.25-0.31,0.3c-0.02,0.36-0.02,0.55,0.01,2.25h1.95c0-0.38-0.02-2.03-0.02-2.36c-0.01-0.63-0.07-0.9-0.22-1.35
			l1.15,0.39c0.09,0.03,0.15,0.09,0.15,0.13c0,0.14-0.18,0.23-0.33,0.31c-0.02,0.65-0.02,0.72-0.02,1.3v1.59h2.04
			c0.03-0.75,0.07-2.23-0.14-2.91l1.06,0.34c0.09,0.03,0.16,0.07,0.16,0.15c0,0.09-0.05,0.14-0.34,0.29
			c-0.02,0.57-0.01,1.27,0.01,1.84c0,0.09,0.01,0.45,0.01,0.52c0,0.33-0.35,0.41-0.53,0.41c-0.29,0-0.28-0.14-0.26-0.39h-2.02
			c-0.01,0.22,0,3.23,0,3.72h2.6c0.02-0.83,0.03-1.23,0.03-1.38c0-1.21-0.08-1.45-0.17-1.74l1.05,0.31
			c0.07,0.02,0.14,0.07,0.14,0.13C192.97,27.24,192.83,27.32,192.64,27.4z"/>
		<path class="st0" d="M201.98,24.13c0.01,0.51-0.01,2.79,0.01,3.19c0.01,0.33,0.09,1.97,0.09,2.42c0,0.24,0,0.67-0.54,0.67
			c-0.09,0-0.3-0.02-0.3-0.25c0-0.06,0.02-0.43,0.02-0.51h-5.59c0.01,0.45,0.01,0.61-0.03,0.68c-0.08,0.19-0.35,0.27-0.54,0.27
			c-0.27,0-0.28-0.16-0.28-0.27c0-0.1,0.03-0.54,0.03-0.63c0.05-1.3,0.09-3.06,0.09-4.59c0-1.3-0.04-1.59-0.16-2.18l1.06,0.6h5.27
			l0.31-0.32c0.09-0.09,0.12-0.14,0.17-0.14s0.12,0.05,0.18,0.1l0.55,0.43c0.06,0.05,0.12,0.11,0.12,0.17
			C202.45,23.86,202.23,23.99,201.98,24.13z M201.26,23.77h-5.59v5.64h5.59V23.77z"/>
		<path class="st0" d="M203.85,31.45l-0.09-0.14c1.85-1.96,1.89-3.94,1.89-4.67c0-0.72-0.04-2.71-1.89-4.67l0.09-0.14
			c1.55,1.24,2.35,3.03,2.35,4.81C206.21,28.42,205.4,30.21,203.85,31.45z"/>
	</g>
	<line class="st2" x1="0" y1="72.69" x2="353.75" y2="72.69"/>
	<g>
		<g>
			<path class="st0" d="M5.36,141.93v31.41H3.83v-32.96h12.03v1.56H5.36z"/>
			<path class="st0" d="M60.68,171.89c-5.29-1.77-10.54-6.27-12.42-9.89h-0.29c0.04,1.45,0.33,7.82,0.33,9.31
				c0,0.76-0.07,1.01-0.29,1.23c-0.36,0.43-1.09,0.72-1.67,0.72c-0.87,0-0.94-0.58-0.94-1.27c0-1.01,0.18-5.47,0.18-6.38
				c0-0.43,0.04-2.25,0.04-2.64c-1.85,2.21-7.21,7.06-14.78,8.88l-0.04-0.25c4.49-2.21,10.43-7.24,12.32-9.6h-7.21
				c-0.9,0-2.64,0.04-4.27,0.33l-0.69-1.45c2.46,0.22,5.04,0.25,5.54,0.25h9.16c0-1.49,0.04-1.67,0.04-3.26h-6.52
				c-0.07,1.59-1.38,1.7-1.7,1.7c-0.72,0-0.94-0.43-0.94-1.12c0-0.15,0-0.4,0.04-0.62c0.11-1.52,0.18-3.15,0.18-4.75
				c0-1.77-0.07-4.56-0.36-6.12l3.26,1.48h10.61c2.1-2.46,4.13-5.61,4.67-8.44l2.9,2.14c0.18,0.14,0.33,0.25,0.33,0.54
				c0,0.22-0.04,0.4-0.51,0.47c-0.15,0.04-0.76,0.07-0.87,0.11c-4.53,4.38-4.78,4.6-5.61,5.18h3.3l0.91-0.83
				c0.29-0.29,0.43-0.36,0.62-0.36c0.22,0,0.54,0.33,0.72,0.47l1.05,0.98c0.15,0.11,0.44,0.43,0.44,0.62c0,0.36-0.83,0.83-1.3,0.94
				c-0.04,1.09,0.22,5.98,0.22,6.99c0,0.58,0,1.96-1.77,1.96c-0.83,0-0.83-0.54-0.8-1.34h-6.52c0,0.58-0.04,1.38-0.04,3.26h10.65
				l1.19-1.56c0.15-0.18,0.36-0.47,0.54-0.47s0.43,0.18,0.69,0.4l1.99,1.56c0.18,0.14,0.36,0.33,0.36,0.54c0,0.33-0.29,0.4-0.54,0.4
				H48.91c2.72,3.22,9.31,6.48,15.07,6.56l0.04,0.25C62.2,169.39,60.97,171.38,60.68,171.89z M38.7,147.04
				c-0.87,0-1.05-0.43-1.52-1.77c-0.33-0.91-0.94-2.64-2.46-4.27l0.11-0.22c2.61,1.05,5.32,2.1,5.32,4.71
				C40.14,146.1,39.85,147.04,38.7,147.04z M45.69,149.32h-6.52v3.37h6.52V149.32z M45.69,153.56h-6.52V157h6.52V153.56z
				 M46.92,146.93c-1.05,0-1.16-0.51-1.7-2.32c-0.4-1.41-1.34-3.3-2.25-4.31l0.11-0.18c1.52,0.69,5.29,2.46,5.29,5.22
				C48.37,146.61,47.46,146.93,46.92,146.93z M54.56,149.32h-6.56v3.37h6.56V149.32z M54.56,153.56h-6.56V157h6.56V153.56z"/>
			<path class="st0" d="M114.06,145.92c0,1.92-0.04,3.26,0,5.47c0,1.12,0.25,6.7,0.25,6.99c0,1.45-1.2,1.67-1.59,1.67
				c-0.98,0-0.94-0.83-0.9-1.45h-2.57c0,1.2,0,2.39,0.04,4.24c0,1.38,0.14,7.39,0.14,8.58c0,1.63-1.45,1.63-1.7,1.63
				c-0.94,0-1.05-0.62-1.05-0.98c0-0.8,0.18-4.27,0.22-4.96c0.07-2.1,0.07-4.24,0.07-7.72v-0.8h-2.5c0.04,1.81,0.04,2.03-0.14,2.28
				c-0.29,0.33-0.62,0.62-1.23,0.62c-0.98,0-0.98-0.65-0.98-1.09c0-0.47,0.11-2.43,0.11-2.83c0.11-2.83,0.11-5.11,0.11-7.06
				c0-4.2-0.14-5.4-0.43-7.64l3.01,1.52h6.56l1.05-1.01c0.25-0.25,0.43-0.36,0.65-0.36c0.22,0,0.43,0.14,0.62,0.33l1.09,0.98
				c0.22,0.22,0.33,0.4,0.33,0.62C115.18,145.16,114.46,145.74,114.06,145.92z M106.96,145.27h-2.5v5.54h2.5V145.27z M106.96,151.68
				h-2.5v6.05h2.5V151.68z M111.85,145.27h-2.61v5.54h2.61V145.27z M111.85,151.68h-2.61v6.05h2.61V151.68z M113.12,172
				c-0.76,0-1.34-0.51-1.34-1.34c0-0.51,0.11-0.69,1.23-2.32c1.23-1.81,1.34-2.54,1.45-3.12h0.18c0.33,0.8,0.69,2.25,0.69,3.37
				C115.33,170.62,114.42,172,113.12,172z M132.35,158.45h-13.33v3.19h9.71l1.23-1.01c0.29-0.25,0.51-0.36,0.72-0.36
				c0.18,0,0.4,0.11,0.69,0.36l1.12,0.98c0.22,0.18,0.36,0.4,0.36,0.58s-0.22,0.51-1.16,0.87c-1.52,8.66-3.15,9.96-6.74,10.14
				c-0.29-1.09-1.19-2.61-2.57-3.37l0.04-0.25c1.27,0.22,2.35,0.4,3.51,0.4c1.38,0,1.67-0.43,2.28-2.5
				c0.14-0.43,0.87-2.75,1.01-4.96h-10.18c0.04,0.76-0.62,1.38-1.38,1.38c-1.05,0-1.05-0.76-1.05-1.85c0-1.81,0.22-9.78,0.22-11.41
				c0-2.39-0.25-6.16-0.43-7.61l3.12,1.7h0.83c0.36-1.38,0.69-2.72,0.69-3.8c0-0.51-0.07-0.87-0.11-1.23l3.26,1.27
				c0.36,0.14,0.58,0.33,0.58,0.51c0,0.25-0.22,0.51-1.16,0.76c-0.33,0.33-1.67,1.67-2.54,2.5h4.64l1.05-1.16
				c0.29-0.33,0.47-0.43,0.65-0.43c0.18,0,0.43,0.14,0.8,0.4l1.27,0.94c0.11,0.07,0.4,0.33,0.4,0.51c0,0.29-0.22,0.51-1.12,1.05
				c-0.07,1.2,0.18,6.59,0.18,7.68c0,1.16-0.98,1.67-1.63,1.67c-0.94,0-0.98-0.54-0.94-1.16h-7.35v3.37h9.74l1.09-1.2
				c0.25-0.29,0.47-0.43,0.62-0.43c0.18,0,0.47,0.18,0.72,0.4l1.34,1.16c0.22,0.18,0.36,0.33,0.36,0.54
				C132.9,158.34,132.72,158.45,132.35,158.45z M118.3,170.22c-0.51,0-1.16-0.15-1.2-1.88c-0.04-1.99-0.07-2.32-0.58-3.3l0.11-0.14
				c1.81,0.98,3.04,2.64,3.04,3.84C119.68,169.28,119.35,170.22,118.3,170.22z M126.41,145.59h-7.39v3.26h7.39V145.59z
				 M126.41,149.72h-7.39v3.62h7.39V149.72z M122.03,168.85c-0.76,0-0.83-0.33-1.16-1.63c-0.43-1.88-0.8-2.35-1.2-2.93l0.07-0.14
				c0.83,0.29,3.62,1.3,3.62,3.3C123.37,168.3,122.68,168.85,122.03,168.85z M125.76,167.62c-0.8,0-0.94-0.65-1.09-1.27
				c-0.22-0.94-0.65-1.85-1.27-2.64l0.11-0.11c0.83,0.18,3.44,0.8,3.44,2.68C126.96,167.07,126.41,167.62,125.76,167.62z"/>
			<path class="st0" d="M148.38,173.05v-1.56h10.5v-31.41h1.52v32.96H148.38z"/>
		</g>
	</g>
	<g>
		<path class="st0" d="M7.57,118.78H7.09c-0.62,0-1.1,0.32-1.1,1.07v8.89c0,1.98-1.27,3.34-3.02,3.34c-0.8,0-1.48-0.36-1.48-1.11
			c0-0.36,0.22-0.9,0.88-0.9c0.46,0,0.68,0.14,0.9,0.82c0.09,0.29,0.28,0.4,0.57,0.4c0.7,0,0.93-0.59,0.93-1.52v-9.93
			c0-0.7-0.43-1.07-1.1-1.07H3.04v-0.51h4.53V118.78z"/>
		<path class="st0" d="M13.41,118.27c1.9,0,4.27,0.54,4.27,2.69c0,0.71-0.26,1.44-1.02,2.07c-0.63,0.53-1.21,0.7-1.84,0.87
			l1.76,3.87c0.36,0.77,0.97,1.3,1.86,1.3h0.26v0.49h-2.64l-2.51-5.52h-1.79V128c0,0.68,0.43,1.07,1.1,1.07h0.49v0.49H8.95v-0.49
			h0.48c0.68,0,1.11-0.39,1.11-1.07v-8.15c0-0.67-0.4-1.07-1.11-1.07H8.95v-0.51H13.41z M11.76,123.55h1.65
			c1.44,0,2.8-0.77,2.8-2.44c0-1.07-0.57-2.32-2.6-2.32h-0.76c-0.66,0-1.1,0.37-1.1,1.07V123.55z"/>
		<path class="st0" d="M32.42,120.84c-0.03,0.54-0.05,1.01-0.05,2.24c0,1.01,0.11,5.49,0.11,6.4c0,0.76-0.73,0.76-0.79,0.76
			c-0.43,0-0.43-0.37-0.43-0.62c0-0.14,0.03-0.74,0.03-0.87h-8.97c0.02,1.01,0.02,1.5-0.74,1.5c-0.46,0-0.46-0.39-0.46-0.56
			c0-0.45,0.12-2.69,0.12-3.2c0-0.54,0.02-2.2,0.02-3.29c0-2.33-0.11-2.89-0.25-3.6l1.52,0.4c0.15,0.05,0.32,0.09,0.32,0.25
			c0,0.17-0.06,0.2-0.54,0.46c-0.02,0.31-0.02,0.57-0.02,0.94c0,1.07,0.03,5.77,0.03,6.73h3.85c0,0-0.02-6.9-0.02-6.91
			c0.05-3.08-0.11-3.62-0.34-4.47l1.73,0.43c0.12,0.03,0.25,0.08,0.25,0.22c0,0.19-0.11,0.25-0.54,0.53
			c-0.05,0.76-0.02,9.45-0.02,10.21h4.07c0-0.73,0.02-3.93,0.02-4.58c0-2.8-0.14-3.42-0.29-4.13l1.59,0.43
			c0.19,0.05,0.29,0.09,0.29,0.25C32.91,120.53,32.85,120.56,32.42,120.84z"/>
		<path class="st0" d="M48.87,125.17h-6.34c0.02,0.65,0.06,2.95,0.06,3.46c0,0.59,0,1.82-1.86,2.1c-0.15-0.48-0.29-0.87-1.86-1.53
			l0.02-0.09c0.28-0.02,1.53,0.06,1.78,0.06c0.76,0,0.77-0.05,0.77-1.31v-2.69h-4.19c-0.28,0-1.07,0-1.82,0.14l-0.31-0.6
			c0.96,0.08,1.92,0.09,2.38,0.09h3.94l-0.02-3h-3.08c-0.28,0-1.08,0-1.83,0.14l-0.31-0.62c0.96,0.08,1.92,0.11,2.38,0.11h2.83
			v-2.74c-1.1,0.12-3.43,0.37-5.43,0.28l-0.02-0.15c3.34-0.39,7.64-1.42,8.86-1.95c0.4-0.17,0.53-0.32,0.66-0.49l1.35,1.02
			c0.09,0.08,0.15,0.17,0.15,0.23c0,0.12-0.06,0.22-0.26,0.22c-0.15,0-0.49-0.08-0.6-0.11c-0.79,0.22-1.95,0.53-3.63,0.79v2.91h3.11
			l0.6-0.84c0.09-0.12,0.17-0.2,0.26-0.2c0.09,0,0.2,0.06,0.34,0.19l0.91,0.79c0.08,0.08,0.17,0.2,0.17,0.26
			c0,0.14-0.14,0.17-0.25,0.17h-5.15l0.02,3h4.15l0.68-0.91c0.09-0.12,0.17-0.2,0.28-0.2c0.09,0,0.2,0.06,0.36,0.2l0.91,0.79
			c0.11,0.09,0.23,0.23,0.23,0.32C49.13,125.14,48.98,125.17,48.87,125.17z"/>
		<path class="st0" d="M50.41,129.95c0.87-2.12,1.13-4.55,1.13-4.75c0-0.17-0.02-0.36-0.05-0.53l1.36,0.51
			c0.06,0.03,0.17,0.08,0.17,0.2c0,0.14-0.05,0.17-0.4,0.42c-0.32,0.99-1.01,2.95-2.1,4.19L50.41,129.95z M56.56,119.26
			c0.06,0.05,0.11,0.11,0.11,0.22c0,0.19-0.15,0.23-0.65,0.34c-0.53,0.71-1.35,1.79-2.72,3.34c0.08-0.02,1.13-0.05,1.93-0.12
			c-0.11-0.26-0.29-0.65-0.56-1.1l0.08-0.11c0.84,0.36,1.89,1.04,1.89,1.84c0,0.36-0.22,0.7-0.62,0.7c-0.39,0-0.42-0.12-0.71-1.11
			c-0.23,0.08-0.49,0.15-1.1,0.32c0.02,2.13,0,3.23,0.03,4.55c0,0.28,0.05,1.47,0.05,1.72c0,0.23,0,0.85-0.7,0.85
			c-0.43,0-0.43-0.36-0.43-0.48c0-0.71,0.12-5.38,0.14-6.4c-0.39,0.09-0.88,0.22-1.98,0.43c-0.22,0.23-0.23,0.26-0.36,0.26
			c-0.11,0-0.19-0.11-0.22-0.22l-0.32-1.31c0.34,0.09,0.74,0.23,1.44,0.23c0.09,0,0.93-0.03,1.05-0.05
			c1.02-1.52,2.33-3.82,2.32-4.76L56.56,119.26z M51.01,119.11c0.32,0.03,0.93,0.09,1.61,0.49c0-0.02,0.77-2.04,0.66-3.03l1.48,0.77
			c0.09,0.05,0.15,0.12,0.15,0.2c0,0.15-0.14,0.22-0.68,0.43c-0.56,0.76-0.76,0.99-1.41,1.76c0.2,0.15,0.68,0.51,0.68,1.1
			c0,0.42-0.28,0.71-0.59,0.71c-0.39,0-0.53-0.32-0.63-0.56c-0.17-0.4-0.59-1.16-1.33-1.78L51.01,119.11z M54.58,125.08
			c1.04,0.37,1.83,1.1,1.83,1.73c0,0.36-0.2,0.66-0.59,0.66c-0.43,0-0.51-0.25-0.74-1.08c-0.12-0.43-0.31-0.91-0.59-1.22
			L54.58,125.08z M56.98,125.34c-0.39,0-0.65,0.03-0.77,0.06l-0.22-0.49c0.57,0.05,1.04,0.06,1.18,0.06h0.48l0.29-0.36
			c0.03-0.03,0.11-0.12,0.2-0.12c0.06,0,0.17,0.08,0.23,0.14l0.62,0.59c0.06,0.06,0.17,0.15,0.17,0.26c0,0.12-0.05,0.19-0.51,0.36
			c-0.74,1.62-1.89,3.11-3.62,3.96L55,129.7c1.79-1.72,2.38-3.46,2.68-4.36H56.98z M60.2,123.31l0.28,0.09
			c0.11,0.03,0.34,0.12,0.34,0.28c0,0.19-0.28,0.34-0.4,0.4c0,0.57,0.6,1.69,0.9,2.12c0.88-0.8,1.42-1.47,1.67-2.1l1.07,1.07
			c0.03,0.03,0.08,0.12,0.08,0.2c0,0.03-0.02,0.2-0.25,0.2c-0.05,0-0.25-0.02-0.4-0.03c-0.74,0.34-1.31,0.56-2.07,0.82
			c0.9,1.27,2.23,2.17,3.74,2.52v0.12c-1.08,0.26-1.3,0.6-1.56,0.99c-1.56-1.19-2.6-2.71-3.14-4.59c0,0.57,0.09,3.09,0.09,3.6
			c0,0.37,0,1.44-1.55,1.72c-0.17-0.49-0.34-0.97-1.59-1.5l0.02-0.12c0.25,0.03,1.28,0.09,1.48,0.09c0.62,0,0.63-0.12,0.63-0.59
			v-4.18c0-0.53,0-0.85-0.05-1.11h-1.24c0.02,0.42-0.25,0.63-0.62,0.63c-0.34,0-0.49-0.12-0.49-0.4c0-0.22,0.08-2.24,0.08-2.66
			c0-0.82-0.02-2.37-0.14-3.08l1.25,0.66h0.93c0.06-0.26,0.14-0.73,0.14-1.28c0-0.28-0.02-0.4-0.08-0.76l1.45,0.46
			c0.12,0.05,0.26,0.11,0.26,0.26c0,0.2-0.15,0.25-0.56,0.32c-0.31,0.42-0.53,0.65-0.84,0.99h2.1l0.42-0.48
			c0.05-0.06,0.19-0.17,0.26-0.17c0.08,0,0.17,0.06,0.23,0.11l0.73,0.54c0.09,0.06,0.2,0.17,0.2,0.26c0,0.14-0.06,0.17-0.57,0.54
			c0,0.63,0.14,3.62,0.14,3.96c0,0.46-0.31,0.68-0.73,0.68c-0.42,0-0.42-0.25-0.4-0.6H60.2z M58.23,118.84v1.86h3.79v-1.86H58.23z
			 M62.02,122.94v-1.87h-3.79v1.87H62.02z"/>
	</g>
	<g>
		<path class="st0" d="M169.44,170.93c-0.43,0-0.68-0.31-0.68-0.76c0-0.39,0.7-2.01,0.78-2.36c0.08-0.35,0.06-0.64,0.04-0.88
			l0.19-0.02c0.35,0.58,0.76,1.36,0.76,2.45C170.53,169.9,170.37,170.93,169.44,170.93z M177.03,164.95
			c-0.29,3.21-0.93,4.93-1.25,5.67c-0.47,1.03-1.21,1.44-2.22,1.71c-0.27-1.27-1.25-1.83-1.69-2.04l0.04-0.14
			c1.15,0.23,1.93,0.23,1.99,0.23c0.41,0,0.58-0.04,0.8-0.53c0.6-1.34,0.9-4.01,0.9-5.37h-4.58c0.02,0.33-0.02,1.01-0.88,1.01
			c-0.41,0-0.51-0.21-0.51-0.56c0-0.12,0.04-0.62,0.04-0.72c0.08-1.3,0.1-4.87,0.1-6.29c0-0.72,0-2.2-0.21-3.41l1.54,0.76h3.82
			l0.49-0.6c0.14-0.17,0.25-0.27,0.35-0.27c0.12,0,0.23,0.1,0.41,0.23l0.8,0.6c0.14,0.1,0.23,0.25,0.23,0.33
			c0,0.14-0.18,0.21-0.33,0.21h-2.84v2.38h0.88l0.39-0.49c0.16-0.2,0.23-0.29,0.33-0.29s0.23,0.1,0.41,0.23l0.66,0.49
			c0.1,0.08,0.23,0.19,0.23,0.33c0,0.19-0.19,0.23-0.33,0.23h-2.57V161h0.9l0.49-0.58c0.14-0.16,0.23-0.25,0.33-0.25
			c0.12,0,0.21,0.06,0.37,0.21l0.62,0.58c0.12,0.1,0.19,0.25,0.19,0.33c0,0.12-0.12,0.21-0.31,0.21h-2.59v2.49h1.38l0.53-0.6
			c0.12-0.14,0.23-0.25,0.33-0.25c0.1,0,0.23,0.08,0.41,0.27l0.8,0.74c0.08,0.08,0.14,0.16,0.14,0.27
			C177.64,164.66,177.17,164.89,177.03,164.95z M171.83,170.05c-0.68,0-0.68-0.86-0.68-1.3c0-1.27,0-1.71-0.23-2.26l0.12-0.06
			c0.14,0.16,0.88,0.9,0.99,1.09c0.49,0.76,0.58,1.3,0.58,1.58C172.61,169.7,172.16,170.05,171.83,170.05z M172.81,155.76H171v2.38
			h1.81V155.76z M172.81,158.64H171V161h1.81V158.64z M172.81,161.49H171v2.49h1.81V161.49z M173.53,168.71
			c-0.53,0-0.6-0.35-0.76-1.52c-0.06-0.45-0.17-0.99-0.39-1.5l0.08-0.06c1.09,0.95,1.71,1.5,1.71,2.3
			C174.17,168.28,173.96,168.71,173.53,168.71z M174.68,167.19c-0.41,0-0.49-0.33-0.72-1.15c-0.16-0.53-0.33-0.76-0.47-0.95
			l0.12-0.12c0.97,0.45,1.58,0.88,1.58,1.56C175.2,166.86,175.01,167.19,174.68,167.19z M188.29,170.97
			c-0.99,0.06-1.71,0.93-1.95,1.21c-2.3-1.87-4.01-5.41-4.01-10.26h-2.2c-0.21,5.06-1.21,8.16-4.21,10.32l-0.1-0.08
			c2.88-3.12,2.98-8.86,2.98-13.14c0-2.55-0.14-3.23-0.35-4.36l1.95,0.86h4.23l0.6-0.58c0.12-0.12,0.23-0.19,0.33-0.19
			c0.1,0,0.19,0.04,0.35,0.19l0.82,0.7c0.12,0.1,0.19,0.2,0.19,0.33c0,0.14-0.39,0.43-0.64,0.6c-0.02,0.35-0.04,0.74-0.04,1.3
			c0,0.66,0.12,3.54,0.12,4.17c0,0.64-0.64,0.82-0.97,0.82c-0.66,0-0.62-0.45-0.6-0.95h-2.1c0.47,4.48,3.43,8.04,5.61,8.92
			L188.29,170.97z M184.82,156.03h-4.56c-0.02,0.78-0.1,4.56-0.1,5.41h4.67V156.03z"/>
		<path class="st0" d="M188.59,166.08c1.97-1.95,4.24-5.47,4.81-6.82c0.16-0.41,0.25-0.66,0.39-1.21l1.67,1.29
			c0.08,0.06,0.12,0.16,0.12,0.27c0,0.29-0.33,0.29-0.8,0.37c-0.33,0.47-0.74,1.05-1.48,2.01c0.25,0.21,0.35,0.27,0.35,0.41
			c0,0.12-0.08,0.25-0.53,0.58c-0.06,0.88-0.06,1.69-0.06,2.32c0,0.88,0.06,4.85,0.06,5.65c0,1.07,0,1.64-0.9,1.64
			c-0.37,0-0.72-0.12-0.72-0.58c0-0.27,0.12-1.44,0.12-1.67c0.06-1.25,0.04-1.79,0.08-6.48c-1.48,1.5-2.61,2.12-3.02,2.34
			L188.59,166.08z M188.68,160.05c2.88-2.69,4.54-5.39,4.77-6.25l1.54,1.11c0.04,0.04,0.16,0.14,0.16,0.25
			c0,0.23-0.08,0.25-0.86,0.41c-1.79,2.39-3.76,3.7-5.51,4.65L188.68,160.05z M205.06,161.14l0.74-1.03
			c0.16-0.25,0.25-0.27,0.31-0.27c0.12,0,0.21,0.08,0.39,0.23l1.21,1.03c0.12,0.1,0.21,0.19,0.21,0.31c0,0.21-0.16,0.23-0.31,0.23
			h-7.32l1.91,0.62c0.12,0.04,0.27,0.1,0.27,0.25c0,0.27-0.49,0.55-0.64,0.62v2.04h2.12l0.74-0.88c0.16-0.19,0.21-0.25,0.33-0.25
			c0.1,0,0.16,0.04,0.39,0.23l1.03,0.86c0.1,0.08,0.21,0.16,0.21,0.31c0,0.19-0.17,0.23-0.31,0.23h-4.5c0,0.29-0.02,4.42-0.02,4.52
			c0.47,0.06,1.58,0.23,3.06,0.23c1.89,0,2.84-0.27,3.31-0.37l0.02,0.08c-0.33,0.27-1.01,0.82-1.19,1.99
			c-0.33,0.02-0.68,0.06-1.17,0.06c-6.62,0-7.71-3.72-8.18-5.41c-0.51,1.42-1.48,3.89-4.13,5.3l-0.06-0.08
			c3.04-3.43,3.35-7.42,3.35-8.28c0-0.47-0.04-0.72-0.08-0.93l2.1,0.68c0.12,0.04,0.23,0.1,0.23,0.29c0,0.1-0.04,0.16-0.1,0.23
			c-0.08,0.06-0.51,0.27-0.6,0.31c-0.21,0.97-0.37,1.46-0.56,2.01c0.9,2.01,2.01,3.04,2.65,3.41c0-5.41,0-5.76-0.04-6.6
			c-0.02-0.25-0.14-1.25-0.16-1.46h-2.16c-0.51,0-1.5,0.02-2.43,0.19l-0.41-0.82c1.42,0.12,2.88,0.14,3.17,0.14h1.99
			c0-1.21,0-2.51-0.02-3.62h-1.58c-0.37,0-1.42,0-2.4,0.19l-0.41-0.8c1.27,0.1,2.55,0.12,3.17,0.12h1.23
			c-0.04-1.97-0.06-2.14-0.37-3.19l2.14,0.64c0.16,0.04,0.29,0.1,0.29,0.25c0,0.14-0.51,0.6-0.62,0.68v1.62h2.01l0.8-0.99
			c0.12-0.14,0.18-0.25,0.33-0.25c0.14,0,0.2,0.06,0.37,0.2l1.09,0.99c0.1,0.1,0.21,0.19,0.21,0.33c0,0.19-0.19,0.21-0.31,0.21
			h-4.52v3.62H205.06z"/>
		<path class="st0" d="M228.1,161.45h-9.17l0.72,0.16c0.43,0.1,0.51,0.1,0.51,0.29c0,0.16-0.06,0.25-0.51,0.49
			c0,0.58,0.08,3.17,0.08,3.68c0,1.23,0,1.85-2.16,2.47c-0.23-0.86-0.84-1.44-1.75-1.89v-0.12c0.27,0,1.46,0.08,1.71,0.08
			c0.74,0,0.74-0.02,0.76-0.76c0.02-0.97,0-3.31-0.02-4.4h-5.59c-0.51,0-1.5,0.02-2.43,0.19l-0.41-0.82
			c1.4,0.12,2.86,0.14,3.17,0.14h0.97c0-3.64,0-4.03-0.31-5.18l2.01,0.55c0.31,0.08,0.39,0.16,0.39,0.35c0,0.16-0.06,0.23-0.64,0.62
			v3.66h2.82c0-4.63,0-5.14-0.04-5.84c-0.02-0.45-0.08-0.93-0.23-2.01l1.89,0.51c0.23,0.06,0.39,0.12,0.39,0.35
			c0,0.14,0,0.23-0.62,0.58v2.65h2.96l0.8-1.17c0.08-0.1,0.2-0.27,0.33-0.27c0.1,0,0.25,0.12,0.37,0.23l1.32,1.17
			c0.12,0.12,0.21,0.19,0.21,0.31c0,0.21-0.16,0.23-0.31,0.23h-5.67v3.27h5.65l0.97-1.23c0.12-0.16,0.25-0.27,0.33-0.27
			c0.1,0,0.25,0.1,0.37,0.23l1.23,1.23c0.14,0.14,0.21,0.23,0.21,0.31C228.41,161.43,228.24,161.45,228.1,161.45z M216.42,163.94
			c-0.08,0.04-0.33,0.1-0.51,0.16c-1.38,2.3-3.29,4.05-5.57,5.39l-0.08-0.1c2.2-2.32,3.7-5.06,3.99-5.74
			c0.16-0.37,0.27-0.74,0.39-1.23l1.6,0.84c0.19,0.1,0.35,0.19,0.35,0.43C216.58,163.8,216.52,163.9,216.42,163.94z M222.71,167.6
			c-3.29,2.88-6.54,4.75-11.55,4.91l-0.02-0.14c3.06-0.76,6.19-1.95,9.13-4.67c0.68-0.62,1.4-1.29,1.83-2.03l1.25,1.23
			c0.16,0.16,0.25,0.27,0.25,0.39C223.59,167.54,223.51,167.54,222.71,167.6z M226.29,168.13c-0.6,0-0.88-0.45-1.27-1.09
			c-1.29-2.12-2.34-3.08-3.72-4.07l0.08-0.12c3.68,0.88,5.74,3.15,5.74,4.4C227.11,167.68,226.78,168.13,226.29,168.13z"/>
		<path class="st1" d="M234.62,171.63h3.42c3.23,0,4.35-1.24,4.35-3.79v-33.61c0-1.93-1.8-2.24-2.98-2.24h-4.72v-1.93h1.12
			c4.78,0,9.38-2.17,10.13-2.61c0.43-0.25,0.62-0.37,0.87-0.37c0.56,0,0.68,0.37,0.68,0.87v39.88c0,2.67,1.3,3.79,4.35,3.79h3.42
			v1.99h-20.62V171.63z"/>
		<path class="st1" d="M285.19,152.5c2.86,2.42,4.22,5.53,4.22,9.19c0,7.64-6.27,13.11-14.47,13.11c-6.71,0-12.36-3.79-12.36-8.76
			c0-2.73,1.8-3.98,3.54-3.98c2.11,0,3.04,1.8,3.04,3.11c0,0.93-0.19,1.49-0.37,1.99c-0.12,0.37-0.19,0.81-0.19,1.43
			c0,2.36,2.67,4.1,5.59,4.1c4.78,0,9.63-4.72,9.63-10.99c0-6.4-4.72-11.37-9.69-11.37c-0.37,0-2.11,0.25-2.48,0.25
			c-0.93,0-1.37-0.56-1.37-1.3c0-0.81,0.62-1.43,1.43-1.43c0.37,0,2.24,0.37,2.67,0.37c5.22,0,8.51-4.66,8.51-9.69
			c0-4.85-2.92-9.32-7.83-9.32c-3.29,0-5.03,2.36-5.03,4.16c0,0.31,0.12,0.62,0.19,0.93c0.12,0.44,0.19,1.06,0.19,1.49
			c0,1.93-1.43,3.42-3.17,3.42c-2.05,0-3.11-1.8-3.11-3.42c0-3.42,3.98-8.7,11.93-8.7c7.64,0,12.42,4.97,12.42,10.44
			c0,2.17-0.81,4.29-2.3,6.34c-2.55,3.35-5.34,4.41-7.89,5.28C281.15,150.02,283.01,150.64,285.19,152.5z"/>
		<path class="st0" d="M298.88,156.85c-1.71,3.49-4.81,6.13-6.37,6.99l-0.1-0.14c2.88-3.27,4.5-6.15,4.97-7.52
			c0.19-0.51,0.27-0.92,0.33-1.32l1.77,1.19c0.1,0.06,0.27,0.19,0.27,0.33C299.74,156.62,299.21,156.77,298.88,156.85z
			 M306.34,163.28c-0.21,7.4-0.62,8.9-4.32,9.23c-0.08-1.29-1.09-1.97-1.54-2.26l0.02-0.14c0.86,0.18,1.75,0.35,2.39,0.35
			c0.99,0,1.38-0.23,1.69-2.1c0.25-1.52,0.37-4.95,0.31-5.92h-4.15c-0.12,3.23-1.5,8.8-7.98,9.99l-0.04-0.17
			c4.17-1.93,6.29-5.04,6.5-9.83h-0.6c-0.51,0-1.5,0.02-2.43,0.21l-0.39-0.82c1.27,0.1,2.53,0.12,3.15,0.12h5.82l0.55-0.49
			c0.12-0.12,0.25-0.23,0.37-0.23c0.1,0,0.21,0.1,0.29,0.18l0.82,0.9c0.1,0.1,0.19,0.23,0.19,0.33
			C306.98,162.83,306.92,162.87,306.34,163.28z M310.08,163.26c-2.2-0.95-4.65-3.17-6.19-7.81h-1.64c-1.03,0-1.44,0.08-1.73,0.12
			l-0.27-0.72c0.92,0.08,1.83,0.1,2.24,0.1h1.03l0.66-0.66c0.19-0.19,0.27-0.23,0.37-0.23c0.12,0,0.21,0.1,0.35,0.23l0.76,0.74
			c0.12,0.1,0.16,0.19,0.16,0.31c0,0.41-0.95,0.58-1.32,0.64c0.99,2.65,4.4,5.28,7.54,5.51l0.02,0.21
			C310.93,162.05,310.45,162.71,310.08,163.26z"/>
		<path class="st0" d="M316.34,172.07c-1.55-1.24-2.35-3.03-2.35-4.81c0-1.78,0.8-3.57,2.35-4.81l0.09,0.14
			c-1.85,1.96-1.89,3.94-1.89,4.67c0,0.72,0.04,2.71,1.89,4.67L316.34,172.07z"/>
		<path class="st0" d="M321.49,164.62c0.08,0.04,0.13,0.1,0.13,0.18c0,0.09-0.11,0.15-0.42,0.21c-0.13,0.16-0.41,0.49-0.83,1.01
			c-0.38,0.46-0.7,0.82-0.97,1.1c0.05,0,0.88-0.04,1.41-0.11c-0.04-0.07-0.16-0.3-0.41-0.57l0.05-0.06c0.78,0.3,1.37,0.75,1.37,1.2
			c0,0.19-0.11,0.41-0.38,0.41c-0.24,0-0.34-0.12-0.43-0.46c-0.01-0.03-0.05-0.17-0.11-0.32l-0.9,0.2c0,0.43,0.03,2.46,0.03,2.65
			c0.01,0.2,0.04,1.09,0.04,1.27c0,0.26-0.23,0.43-0.48,0.43c-0.21,0-0.27-0.13-0.27-0.3c0-0.16,0.04-0.81,0.04-0.95
			c0.01-0.32,0.02-1.29,0.03-2.97c-0.63,0.14-1.12,0.25-1.25,0.28c-0.06,0.1-0.16,0.29-0.25,0.29c-0.1,0-0.16-0.12-0.18-0.18
			l-0.22-0.84c0.17,0.04,0.46,0.07,0.71,0.07c0.31,0,0.76-0.01,0.92-0.02c0.68-0.91,1.28-2.18,1.42-2.57
			c0.04-0.1,0.06-0.28,0.06-0.4L321.49,164.62z M317.57,171.15c0.43-0.96,0.72-2.22,0.69-2.9l0.82,0.3
			c0.07,0.03,0.14,0.09,0.14,0.14c0,0.07-0.06,0.12-0.32,0.22c-0.32,0.92-0.61,1.48-1.28,2.27L317.57,171.15z M317.94,164.63
			c0.28,0.07,0.61,0.16,0.85,0.28c0.28-0.56,0.72-1.64,0.65-2.22l0.94,0.47c0.08,0.04,0.12,0.1,0.12,0.15
			c0,0.15-0.15,0.18-0.38,0.22c-0.47,0.6-0.54,0.68-1.21,1.46c0.29,0.18,0.59,0.45,0.59,0.78c0,0.23-0.15,0.48-0.41,0.48
			c-0.23,0-0.29-0.12-0.51-0.61c-0.23-0.52-0.46-0.73-0.67-0.94L317.94,164.63z M320.29,168.41c0.41,0.18,1.4,0.63,1.4,1.3
			c0,0.32-0.23,0.49-0.44,0.49c-0.27,0-0.32-0.2-0.45-0.66c-0.14-0.52-0.33-0.8-0.55-1.09L320.29,168.41z M325.04,165.2l0.3-0.28
			c0.05-0.05,0.11-0.11,0.14-0.11c0.04,0,0.11,0.06,0.14,0.09l0.48,0.41c0.05,0.04,0.09,0.1,0.09,0.15c0,0.07-0.19,0.21-0.37,0.34
			c-0.06,2.75-0.08,3.98-0.61,5c-0.37,0.71-0.99,0.96-1.54,0.97c-0.08-0.47-0.39-0.77-0.9-1.12l0.01-0.06
			c0.46,0.09,1.06,0.2,1.32,0.2c1,0,1.05-3.28,1.05-4.3c0-0.17-0.01-0.87-0.01-1.04h-2.68c-0.49,0.92-0.82,1.26-0.97,1.42
			l-0.06-0.04c0.73-1.46,1.07-3.14,1.07-3.65c0-0.1-0.03-0.29-0.05-0.38l1.07,0.46c0.05,0.02,0.11,0.07,0.11,0.14
			c0,0.1-0.15,0.17-0.39,0.28c-0.11,0.32-0.29,0.81-0.66,1.54H325.04z M322.32,167.1c0.94,0.39,1.41,0.71,1.41,1.24
			c0,0.24-0.12,0.47-0.4,0.47c-0.26,0-0.34-0.11-0.56-0.79c-0.08-0.26-0.27-0.6-0.5-0.85L322.32,167.1z"/>
		<path class="st0" d="M329.9,168.15c-0.21,0.13-0.52,0.26-0.86,0.26c-0.98,0-1.78-0.99-1.78-2.2c0-1.37,0.98-2.61,2.13-2.61
			c1.13,0,2.28,1.29,2.28,3.43c0,2.29-1.29,4.2-2.81,4.2c-0.66,0-1.13-0.4-1.13-0.86c0-0.36,0.28-0.52,0.51-0.52
			c0.2,0,0.53,0.13,0.55,0.68c0.01,0.22,0.03,0.36,0.3,0.36c0.27,0,0.54-0.13,0.72-0.35c0.88-0.97,0.93-2.44,0.97-3.33
			C330.59,167.52,330.38,167.85,329.9,168.15z M330.23,164.47c-0.17-0.27-0.43-0.54-0.8-0.54c-0.53,0-1.27,0.56-1.27,2.18
			c0,0.46,0.11,1.85,1.13,1.85c0.38,0,1.01-0.28,1.48-1.35C330.73,166.07,330.65,165.11,330.23,164.47z"/>
		<path class="st0" d="M334.87,168.15c-0.21,0.13-0.52,0.26-0.86,0.26c-0.98,0-1.78-0.99-1.78-2.2c0-1.37,0.98-2.61,2.13-2.61
			c1.13,0,2.28,1.29,2.28,3.43c0,2.29-1.29,4.2-2.81,4.2c-0.67,0-1.13-0.4-1.13-0.86c0-0.36,0.28-0.52,0.51-0.52
			c0.2,0,0.53,0.13,0.55,0.68c0.01,0.22,0.03,0.36,0.3,0.36c0.27,0,0.54-0.13,0.73-0.35c0.88-0.97,0.93-2.44,0.97-3.33
			C335.56,167.52,335.35,167.85,334.87,168.15z M335.2,164.47c-0.17-0.27-0.43-0.54-0.8-0.54c-0.53,0-1.27,0.56-1.27,2.18
			c0,0.46,0.11,1.85,1.13,1.85c0.38,0,1.01-0.28,1.48-1.35C335.7,166.07,335.62,165.11,335.2,164.47z"/>
		<path class="st0" d="M339.41,171.22c-0.69,0-1.26-0.48-1.63-1.07c-0.42-0.69-0.61-1.91-0.61-2.83c0-2.12,0.9-3.72,2.23-3.72
			c1.02,0,2.23,1.1,2.23,3.81C341.64,169.84,340.62,171.22,339.41,171.22z M338.29,165.25c-0.14,0.5-0.23,1.33-0.23,2.16
			c0,2.21,0.53,3.48,1.34,3.48c0.69,0,0.99-0.91,1.1-1.29c0.14-0.51,0.24-1.35,0.24-2.18c0-2.26-0.55-3.48-1.34-3.48
			C338.7,163.93,338.39,164.91,338.29,165.25z"/>
		<path class="st0" d="M343.63,166.15v0.78c0.27-0.27,0.78-0.78,1.64-0.78c0.93,0,1.11,0.61,1.19,0.89
			c0.34-0.33,0.88-0.89,1.78-0.89c0.87,0,1.27,0.53,1.27,1.63v2.34c0,0.38,0.2,0.6,0.5,0.6h0.19v0.32h-2.08v-0.32h0.18
			c0.35,0,0.51-0.27,0.51-0.6v-2.28c0-0.28-0.05-1.26-0.87-1.26c-0.28,0-0.9,0.16-1.4,0.86c0,0.08,0.01,0.16,0.01,0.34v2.34
			c0,0.42,0.23,0.6,0.5,0.6h0.29v0.32h-2.27v-0.32h0.29c0.27,0,0.5-0.19,0.5-0.6v-2.28c0-0.21-0.02-1.26-0.86-1.26
			c-0.24,0-0.87,0.13-1.34,0.78v2.76c0,0.42,0.24,0.6,0.5,0.6h0.18v0.32h-2.07v-0.32h0.18c0.3,0,0.5-0.21,0.5-0.6v-2.99
			c0-0.31-0.17-0.47-0.41-0.47c-0.11,0-0.21,0.01-0.3,0.04l-0.04-0.19L343.63,166.15z"/>
		<path class="st0" d="M351.24,172.07l-0.09-0.14c1.85-1.96,1.89-3.94,1.89-4.67c0-0.72-0.04-2.71-1.89-4.67l0.09-0.14
			c1.55,1.24,2.35,3.03,2.35,4.81C353.59,169.04,352.79,170.82,351.24,172.07z"/>
	</g>
	<g>
		<path class="st0" d="M170.41,147.88c-1.55-1.24-2.35-3.03-2.35-4.81c0-1.78,0.8-3.57,2.35-4.81l0.09,0.14
			c-1.85,1.96-1.89,3.94-1.89,4.67s0.04,2.71,1.89,4.67L170.41,147.88z"/>
		<path class="st0" d="M180.33,140.34h-4.01v1.2h2.3l0.31-0.29c0.07-0.07,0.11-0.1,0.17-0.1c0.05,0,0.1,0.03,0.19,0.1l0.4,0.31
			c0.08,0.06,0.13,0.13,0.13,0.19c0,0.1-0.2,0.23-0.37,0.32c-0.03,0.65,0.03,3.54,0.03,4.13c0,0.34,0,0.99-1.14,1.26
			c-0.04-0.19-0.08-0.33-0.26-0.5c-0.05-0.05-0.32-0.3-0.75-0.46l0.01-0.07c0.24,0.03,0.55,0.06,0.99,0.06
			c0.36,0,0.43-0.07,0.43-0.43v-4.29h-1.67l0.57,0.32c0.07,0.04,0.12,0.09,0.12,0.15c0,0.09-0.15,0.14-0.39,0.18
			c-0.2,0.23-0.74,0.81-0.92,0.98h0.7l0.27-0.28c0.07-0.07,0.13-0.12,0.18-0.12s0.12,0.04,0.19,0.1l0.36,0.28
			c0.05,0.04,0.1,0.1,0.1,0.16c0,0.08-0.06,0.1-0.15,0.1h-1.81v1.12h0.9l0.31-0.37c0.07-0.08,0.11-0.12,0.17-0.12
			c0.05,0,0.1,0.04,0.19,0.11l0.46,0.36c0.05,0.04,0.1,0.1,0.1,0.16c0,0.06-0.05,0.1-0.15,0.1h-1.98c0,0.27,0.05,1.44,0.05,1.69
			c0,0.18,0,0.47-0.52,0.47c-0.22,0-0.26-0.12-0.26-0.27c0-0.3,0.04-1.62,0.05-1.89h-0.62c-0.25,0-0.73,0.01-1.17,0.09l-0.19-0.4
			c0.68,0.06,1.38,0.07,1.52,0.07h0.46v-1.12h-0.39c-0.09,0-0.7,0-1.16,0.09l-0.2-0.4c0.67,0.06,1.36,0.07,1.53,0.07h0.8
			c0.27-0.52,0.47-1.05,0.58-1.63h-3.53c0,0.18-0.01,1.28,0,2.62c0,0.42,0.04,2.25,0.04,2.62c0,0.43-0.43,0.44-0.54,0.44
			c-0.2,0-0.27-0.13-0.27-0.33c0-0.22,0.05-1.2,0.06-1.4c0.05-1.18,0.06-2.94,0.06-3c0-0.85-0.03-1.21-0.12-1.7l0.94,0.51h2.19
			c0-0.03-0.01-0.73-0.02-1.2h-2.7c-0.1,0-0.71,0-1.17,0.09l-0.2-0.4c0.7,0.06,1.44,0.07,1.53,0.07h2.54
			c-0.02-0.96-0.04-1.22-0.24-1.66l1.08,0.31c0.16,0.05,0.22,0.1,0.22,0.17c0,0.12-0.2,0.25-0.34,0.34c0,0.22-0.01,0.56-0.02,0.84
			h2.64l0.45-0.5c0.08-0.08,0.12-0.13,0.18-0.13c0.06,0,0.12,0.05,0.2,0.11l0.6,0.5c0.06,0.05,0.1,0.12,0.1,0.16
			C180.48,140.31,180.42,140.34,180.33,140.34z M175.3,143.26c-0.26,0-0.33-0.19-0.41-0.49c-0.15-0.52-0.3-0.73-0.39-0.85l0.04-0.05
			c0.46,0.17,1.12,0.5,1.12,1C175.67,143.11,175.5,143.26,175.3,143.26z"/>
		<path class="st0" d="M189.26,140.56c0.01,0.51-0.01,2.79,0.01,3.19c0.01,0.33,0.09,1.97,0.09,2.42c0,0.24,0,0.67-0.54,0.67
			c-0.09,0-0.3-0.02-0.3-0.25c0-0.06,0.02-0.43,0.02-0.51h-5.59c0.01,0.45,0.01,0.61-0.03,0.68c-0.08,0.19-0.35,0.27-0.54,0.27
			c-0.27,0-0.28-0.16-0.28-0.27c0-0.1,0.03-0.54,0.03-0.63c0.05-1.3,0.09-3.06,0.09-4.59c0-1.3-0.04-1.59-0.16-2.18l1.06,0.6h5.27
			l0.31-0.32c0.09-0.09,0.12-0.14,0.17-0.14s0.12,0.05,0.18,0.1l0.55,0.43c0.06,0.05,0.12,0.11,0.12,0.17
			C189.73,140.29,189.51,140.42,189.26,140.56z M188.55,140.2h-5.59v5.64h5.59V140.2z"/>
		<path class="st0" d="M191.14,147.88l-0.09-0.14c1.85-1.96,1.89-3.94,1.89-4.67s-0.04-2.71-1.89-4.67l0.09-0.14
			c1.55,1.24,2.35,3.03,2.35,4.81C193.49,144.85,192.69,146.64,191.14,147.88z"/>
	</g>
	<line class="st2" x1="0" y1="189.13" x2="353.75" y2="189.13"/>
</g>
</svg>
